<?xml version="1.0" encoding="UTF-8"?><svg id="Layer_2" xmlns="http://www.w3.org/2000/svg" viewBox="0 0 128 128"><defs><style>.cls-1{fill:#e7e3cb;}.cls-2{fill:#212529;}</style></defs><path class="cls-1" d="m64,16c-26.51,0-48,21.49-48,48s21.49,48,48,48,48-21.49,48-48-21.49-48-48-48Zm0,84c-19.88,0-36-16.12-36-36s16.12-36,36-36,36,16.12,36,36-16.12,36-36,36Z"/><path class="cls-1" d="m64,40c-13.25,0-24,10.75-24,24s10.75,24,24,24,24-10.75,24-24-10.75-24-24-24Zm0,36c-6.63,0-12-5.37-12-12s5.37-12,12-12,12,5.37,12,12-5.37,12-12,12Z"/><circle class="cls-2" cx="63.67" cy="64.93" r="2"/><circle class="cls-2" cx="70.14" cy="55.3" r="2"/><circle class="cls-2" cx="58.97" cy="58.75" r="2"/><circle class="cls-2" cx="61.89" cy="63.63" r="2"/><circle class="cls-2" cx="69.74" cy="56.21" r="2"/><circle class="cls-2" cx="71.75" cy="70.03" r="2"/><circle class="cls-2" cx="55.67" cy="68.14" r="2"/><circle class="cls-2" cx="73.92" cy="67.45" r="2"/><circle class="cls-2" cx="65.3" cy="73.01" r="2"/><circle class="cls-2" cx="64.61" cy="66.33" r="2"/><circle class="cls-2" cx="72.27" cy="73.58" r="2"/><circle class="cls-2" cx="69.75" cy="73.96" r="2"/><circle class="cls-2" cx="71.95" cy="63.39" r="2"/><circle class="cls-2" cx="61.88" cy="71.31" r="2"/><circle class="cls-2" cx="73.92" cy="66.11" r="2"/><circle class="cls-2" cx="57.08" cy="65.74" r="2"/></svg>