<?xml version="1.0" encoding="UTF-8"?><svg id="Layer_2" xmlns="http://www.w3.org/2000/svg" viewBox="0 0 128 128"><defs><style>.cls-1{fill:#e7e3cb;}.cls-2{fill:#212529;}</style></defs><path class="cls-1" d="m64,16c-26.51,0-48,21.49-48,48s21.49,48,48,48,48-21.49,48-48-21.49-48-48-48Zm0,84c-19.88,0-36-16.12-36-36s16.12-36,36-36,36,16.12,36,36-16.12,36-36,36Z"/><path class="cls-1" d="m64,40c-13.25,0-24,10.75-24,24s10.75,24,24,24,24-10.75,24-24-10.75-24-24-24Zm0,36c-6.63,0-12-5.37-12-12s5.37-12,12-12,12,5.37,12,12-5.37,12-12,12Z"/><circle class="cls-2" cx="47.8" cy="48.21" r="2"/><circle class="cls-2" cx="71.01" cy="46.32" r="2"/><circle class="cls-2" cx="48.14" cy="56.89" r="2"/><circle class="cls-2" cx="74.9" cy="75.77" r="2"/><circle class="cls-2" cx="75.64" cy="59.72" r="2"/><circle class="cls-2" cx="48.63" cy="68.87" r="2"/><circle class="cls-2" cx="47.22" cy="81.92" r="2"/><circle class="cls-2" cx="52.67" cy="67.47" r="2"/><circle class="cls-2" cx="62.28" cy="51.96" r="2"/><circle class="cls-2" cx="82.71" cy="77.7" r="2"/><circle class="cls-2" cx="77.81" cy="67.39" r="2"/><circle class="cls-2" cx="67.37" cy="81.02" r="2"/><circle class="cls-2" cx="64.1" cy="80.22" r="2"/><circle class="cls-2" cx="44.64" cy="80.55" r="2"/><circle class="cls-2" cx="72.16" cy="48.22" r="2"/><circle class="cls-2" cx="58.2" cy="58.85" r="2"/></svg>