<?xml version="1.0" encoding="UTF-8"?><svg id="Layer_2" xmlns="http://www.w3.org/2000/svg" viewBox="0 0 128 128"><defs><style>.cls-1{opacity:.5;}.cls-1,.cls-2,.cls-3,.cls-4{fill:none;}.cls-2{stroke:#e7e3cb;}.cls-2,.cls-3{stroke-width:3px;}.cls-2,.cls-3,.cls-4{stroke-miterlimit:10;}.cls-3{stroke:#212529;}.cls-5{fill:#212529;}.cls-4{stroke:#212529;}</style></defs><rect class="cls-2" x="16" y="16" width="96" height="96"/><line class="cls-2" x1="16" y1="64" x2="112" y2="64"/><line class="cls-2" x1="64" y1="16" x2="64" y2="112"/><g class="cls-1"><circle class="cls-5" cx="26" cy="26" r="2"/><circle class="cls-5" cx="58" cy="30" r="2"/><circle class="cls-5" cx="30" cy="38" r="2"/><circle class="cls-5" cx="58" cy="74" r="2"/><circle class="cls-5" cx="70" cy="34" r="2"/><circle class="cls-5" cx="26" cy="54" r="2"/><circle class="cls-5" cx="46" cy="46" r="2"/><circle class="cls-5" cx="38" cy="54" r="2"/><circle class="cls-5" cx="58" cy="46" r="2"/><circle class="cls-5" cx="102" cy="70" r="2"/><circle class="cls-5" cx="86" cy="70" r="2"/><circle class="cls-5" cx="94" cy="30" r="2"/><circle class="cls-5" cx="82" cy="30" r="2"/><circle class="cls-5" cx="102" cy="22" r="2"/><circle class="cls-5" cx="90" cy="38" r="2"/><circle class="cls-5" cx="106" cy="34" r="2"/><circle class="cls-5" cx="74" cy="22" r="2"/><circle class="cls-5" cx="106" cy="42" r="2"/><circle class="cls-5" cx="82" cy="82" r="2"/><circle class="cls-5" cx="46" cy="22" r="2"/><circle class="cls-4" cx="78" cy="42" r="2"/><circle class="cls-4" cx="86" cy="50" r="2"/><circle class="cls-4" cx="74" cy="74" r="2"/><circle class="cls-4" cx="54" cy="58" r="2"/><circle class="cls-4" cx="46" cy="70" r="2"/><circle class="cls-4" cx="30" cy="74" r="2"/><circle class="cls-4" cx="26" cy="86" r="2"/><circle class="cls-4" cx="30" cy="102" r="2"/><circle class="cls-4" cx="42" cy="90" r="2"/><circle class="cls-4" cx="42" cy="106" r="2"/><circle class="cls-4" cx="58" cy="90" r="2"/><circle class="cls-4" cx="73" cy="87" r="2"/><circle class="cls-4" cx="50" cy="98" r="2"/><circle class="cls-4" cx="70" cy="102" r="2"/><circle class="cls-4" cx="86" cy="98" r="2"/><circle class="cls-4" cx="102" cy="106" r="2"/><circle class="cls-4" cx="106" cy="90" r="2"/><circle class="cls-4" cx="94" cy="86" r="2"/><circle class="cls-4" cx="70" cy="62" r="2"/><circle class="cls-4" cx="98" cy="54" r="2"/></g><path class="cls-3" d="m16,80s24-32,48-32,48,32,48,32"/></svg>