<?xml version="1.0" encoding="UTF-8"?><svg id="Layer_2" xmlns="http://www.w3.org/2000/svg" viewBox="0 0 128 128"><defs><style>.cls-1{opacity:.1;}.cls-2{fill:#e9ecef;}.cls-3{fill:#e7e3cb;}.cls-4{opacity:.2;}</style></defs><path d="m80,51.84h9.76v1.43h-4.09v4.61h4.09v1.43h-9.76v-1.43h4.34v-4.61h-4.34v-1.43Z"/><path d="m77.87,60.69l4.23,1.19v1.53l-4.23-1.79v-.92Z"/><path d="m80,66.88l9.76-2.88v1.48l-7.59,2.18,7.04,2.1v1.41l-7.04,2.1,7.59,2.17v1.5l-9.76-2.88v-1.4l7.52-2.31v.24l-7.52-2.31v-1.4Z"/><polygon class="cls-2" points="109.33 37.92 75.5 57.58 30.09 31.36 63.92 11.7 109.33 37.92"/><polygon class="cls-2" points="109.33 37.92 109.18 90.09 75.35 109.75 75.5 57.58 109.33 37.92"/><polygon class="cls-3" points="75.5 57.58 75.35 109.75 29.94 83.53 30.09 31.36 75.5 57.58"/><polygon class="cls-3" points="75.5 57.58 64.22 64.13 18.82 37.91 30.09 31.36 75.5 57.58"/><polygon class="cls-3" points="75.5 57.58 75.35 109.75 64.08 116.3 64.22 64.13 75.5 57.58"/><polygon class="cls-3" points="64.22 64.13 64.08 116.3 18.67 90.08 18.82 37.91 64.22 64.13"/><polygon class="cls-1" points="109.33 37.6 109.18 89.77 64.07 115.98 64.22 63.81 109.33 37.6"/><polygon class="cls-4" points="52.88 57.26 18.82 37.6 18.67 89.77 52.73 109.43 64.07 115.98 64.22 63.81 52.88 57.26"/><path d="m115.86,51.84h9.76v1.43h-4.09v4.61h4.09v1.43h-9.76v-1.43h4.34v-4.61h-4.34v-1.43Z"/><path d="m113.73,60.69l4.23,1.19v1.53l-4.23-1.79v-.92Z"/><path d="m115.86,66.88l9.76-2.88v1.48l-7.59,2.18,7.04,2.1v1.41l-7.04,2.1,7.59,2.17v1.5l-9.76-2.88v-1.4l7.52-2.31v.24l-7.52-2.31v-1.4Z"/><path d="m32.27,116.32c-.91,0-1.7-.21-2.39-.63-.69-.42-1.22-1.01-1.6-1.78-.38-.77-.57-1.65-.57-2.66s.19-1.89.57-2.65.92-1.35,1.6-1.77c.69-.42,1.48-.63,2.39-.63,1,0,1.86.25,2.6.74.73.5,1.26,1.18,1.57,2.06l-1.33.49c-.23-.61-.59-1.08-1.08-1.42-.49-.34-1.07-.51-1.76-.51-.63,0-1.19.15-1.66.46-.47.3-.83.73-1.09,1.27-.26.55-.38,1.2-.38,1.97s.13,1.42.38,1.97.62.98,1.09,1.28c.47.3,1.02.46,1.66.46.69,0,1.28-.17,1.76-.51.48-.34.84-.81,1.08-1.42l1.33.48c-.32.87-.84,1.55-1.57,2.06-.73.5-1.6.76-2.6.76Z"/><path d="m92.29,116.14v-9.76h1.48l4.86,7.91h-.34v-7.91h1.41v9.76h-1.51l-4.82-7.92h.34v7.92h-1.43Z"/></svg>