<?xml version="1.0" encoding="UTF-8"?><svg id="Layer_2" xmlns="http://www.w3.org/2000/svg" viewBox="0 0 128 128"><defs><style>.cls-1{opacity:.5;}.cls-1,.cls-2,.cls-3{fill:none;}.cls-2{stroke:#e7e3cb;}.cls-2,.cls-3{stroke-miterlimit:10;stroke-width:3px;}.cls-3{stroke:#212529;}.cls-4{fill:#212529;}</style></defs><rect class="cls-2" x="16" y="16" width="96" height="96"/><line class="cls-2" x1="16" y1="64" x2="112" y2="64"/><line class="cls-2" x1="64" y1="16" x2="64" y2="112"/><g class="cls-1"><circle class="cls-4" cx="22" cy="58" r="2"/><circle class="cls-4" cx="66" cy="70" r="2"/><circle class="cls-4" cx="30" cy="62" r="2"/><circle class="cls-4" cx="82" cy="66" r="2"/><circle class="cls-4" cx="74" cy="62" r="2"/><circle class="cls-4" cx="26" cy="78" r="2"/><circle class="cls-4" cx="50" cy="74" r="2"/><circle class="cls-4" cx="42" cy="66" r="2"/><circle class="cls-4" cx="62" cy="82" r="2"/><circle class="cls-4" cx="98" cy="70" r="2"/><circle class="cls-4" cx="82" cy="74" r="2"/><circle class="cls-4" cx="90" cy="42" r="2"/><circle class="cls-4" cx="86" cy="58" r="2"/><circle class="cls-4" cx="94" cy="54" r="2"/><circle class="cls-4" cx="106" cy="46" r="2"/><circle class="cls-4" cx="98" cy="62" r="2"/><circle class="cls-4" cx="102" cy="54" r="2"/><circle class="cls-4" cx="42" cy="78" r="2"/><circle class="cls-4" cx="70" cy="82" r="2"/><circle class="cls-4" cx="54" cy="86" r="2"/></g><path class="cls-3" d="m16,56s16,24,40,24,56-40,56-40"/></svg>