<?xml version="1.0" encoding="UTF-8"?><svg id="Layer_2" xmlns="http://www.w3.org/2000/svg" viewBox="0 0 384 480"><defs><style>.cls-1{opacity:.125;}.cls-1,.cls-2,.cls-3,.cls-4{fill:none;}.cls-2,.cls-3,.cls-4{stroke:#000;}.cls-2,.cls-4{stroke-linejoin:round;}.cls-5{fill:#e7e3cb;}.cls-6{fill:#212529;}.cls-3{stroke-miterlimit:10;}.cls-4{stroke-dasharray:0 0 4 4;}</style></defs><g class="cls-1"><path class="cls-6" d="m77.87,271.13h77.75v20h-77.75v-20Z"/><path class="cls-6" d="m77.87,409.63h77.75v20h-77.75v-20Z"/><path class="cls-6" d="m77.87,187.13h77.75v20h-77.75v-20Z"/><path class="cls-6" d="m227.89,169.83h77.75v20h-77.75v-20Z"/><path class="cls-6" d="m227.45,85.11h77.75v20h-77.75v-20Z"/><path class="cls-6" d="m227.45,258.09h77.75v20h-77.75v-20Z"/><path class="cls-6" d="m227.45,409.63h77.75v20h-77.75v-20Z"/><path class="cls-6" d="m14.62,367.88h77.75v32.75H14.62v-32.75Z"/><path class="cls-6" d="m291.62,367.88h77.75v32.75h-77.75v-32.75Z"/></g><path class="cls-5" d="m77.87,302.63h77.75v32.75h-77.75v-32.75Z"/><path class="cls-5" d="m77.87,219.38h77.75v32.75h-77.75v-32.75Z"/><path class="cls-5" d="m227.89,202.46h77.75v32.75h-77.75v-32.75Z"/><path class="cls-5" d="m227.64,118.09h77.75v32.75h-77.75v-32.75Z"/><path class="cls-5" d="m227.89,43.38h77.75v20h-77.75v-20Z"/><path class="cls-5" d="m227.45,289.58h77.75v45.28h-77.75v-45.28Z"/><path class="cls-4" d="m220.12,74.63h100.77c5.52,0,10,4.48,10,10v264.25c0,5.52-4.48,10-10,10h-100.77c-5.52,0-10-4.48-10-10V84.63c0-5.52,4.48-10,10-10Z"/><path class="cls-4" d="m61.62,177.88h100.77c5.52,0,10,4.48,10,10v161c0,5.52-4.48,10-10,10H61.62c-5.52,0-10-4.48-10-10v-161c0-5.52,4.48-10,10-10Z"/><line class="cls-2" x1="116.75" y1="409.62" x2="116.75" y2="397.21"/><polygon points="119.93 403.12 118.99 403.47 116.75 397.31 114.51 403.47 113.57 403.12 116.75 394.39 119.93 403.12"/><line class="cls-2" x1="116.75" y1="374.25" x2="116.75" y2="338.2"/><polygon points="119.93 344.11 118.99 344.45 116.75 338.3 114.51 344.45 113.57 344.11 116.75 335.38 119.93 344.11"/><line class="cls-2" x1="116.75" y1="302.62" x2="116.75" y2="293.95"/><polygon points="119.93 299.86 118.99 300.2 116.75 294.05 114.51 300.2 113.57 299.86 116.75 291.12 119.93 299.86"/><line class="cls-2" x1="116.75" y1="271.12" x2="116.75" y2="254.95"/><polygon points="119.93 260.86 118.99 261.2 116.75 255.05 114.51 261.2 113.57 260.86 116.75 252.12 119.93 260.86"/><line class="cls-2" x1="116.75" y1="219.38" x2="116.75" y2="209.95"/><polygon points="119.93 215.86 118.99 216.2 116.75 210.05 114.51 216.2 113.57 215.86 116.75 207.12 119.93 215.86"/><line class="cls-2" x1="266.77" y1="202.46" x2="266.77" y2="192.66"/><polygon points="269.95 198.57 269.01 198.91 266.77 192.76 264.53 198.91 263.59 198.57 266.77 189.83 269.95 198.57"/><line class="cls-2" x1="266.71" y1="169.83" x2="266.66" y2="153.66"/><polygon points="269.86 159.56 268.92 159.9 266.66 153.76 264.44 159.92 263.5 159.58 266.65 150.83 269.86 159.56"/><line class="cls-2" x1="266.44" y1="118.09" x2="266.42" y2="107.93"/><polygon points="269.61 113.84 268.67 114.18 266.42 108.03 264.19 114.19 263.25 113.85 266.41 105.11 269.61 113.84"/><line class="cls-2" x1="116.75" y1="443.62" x2="116.75" y2="432.45"/><polygon points="119.93 438.36 118.99 438.7 116.75 432.55 114.51 438.7 113.57 438.36 116.75 429.62 119.93 438.36"/><path class="cls-2" d="m105.28,349.11h-37.01c-2.76,0-5-2.23-5-5v-.02l.2-57.7c.01-2.74,2.23-4.97,4.97-4.98h6.61"/><polygon points="69.14 284.59 68.8 283.65 74.95 281.4 68.79 279.17 69.13 278.23 77.87 281.39 69.14 284.59"/><path class="cls-2" d="m116.75,264.11l-47.61.04c-2.75,0-4.98-2.21-5-4.95l-.54-57.02c-.03-2.76,2.2-5.02,4.95-5.05h6.49"/><polygon points="69.14 200.31 68.8 199.37 74.95 197.12 68.8 194.88 69.14 193.95 77.87 197.12 69.14 200.31"/><path class="cls-2" d="m116.84,187.13l.12-15.43c.02-2.76,2.27-4.98,5.04-4.96h0l63.18.56c2.73.02,4.95,2.25,4.96,4.98l.27,71c.01,2.75,2.25,4.98,5,4.98l46.04-.07c2.76,0,4.99-2.24,4.99-5v-5.14"/><polygon points="249.63 243.96 248.69 244.3 246.45 238.14 244.21 244.3 243.27 243.96 246.45 235.22 249.63 243.96"/><path class="cls-2" d="m117,349.11h15c2.77,0,5-2.23,5-5v-5.91"/><polygon points="140.18 344.11 139.24 344.45 137 338.3 134.76 344.45 133.82 344.11 137 335.38 140.18 344.11"/><path class="cls-2" d="m117,349.11h-15.12c-2.76,0-5-2.23-5-5v-5.91"/><polygon points="100.06 344.11 99.12 344.45 96.88 338.3 94.63 344.45 93.7 344.11 96.88 335.38 100.06 344.11"/><line class="cls-2" x1="266.33" y1="409.62" x2="266.33" y2="397.21"/><polygon points="269.51 403.12 268.57 403.47 266.33 397.31 264.09 403.47 263.15 403.12 266.33 394.39 269.51 403.12"/><line class="cls-2" x1="266.33" y1="374.25" x2="266.33" y2="337.69"/><polygon points="269.51 343.6 268.57 343.94 266.33 337.78 264.09 343.94 263.15 343.6 266.33 334.86 269.51 343.6"/><line class="cls-2" x1="266.33" y1="289.58" x2="266.33" y2="280.91"/><polygon points="269.51 286.82 268.57 287.16 266.33 281.01 264.09 287.16 263.15 286.82 266.33 278.09 269.51 286.82"/><line class="cls-2" x1="266.33" y1="443.62" x2="266.33" y2="432.45"/><polygon points="269.51 438.36 268.57 438.7 266.33 432.55 264.09 438.7 263.15 438.36 266.33 429.62 269.51 438.36"/><path class="cls-2" d="m277.77,348.59h36.27c2.76,0,4.99-2.22,5-4.98l.31-71.56c.02-2.76-2.21-5.01-4.97-5.02h-.13l-6.22.02"/><polygon points="313.92 263.86 314.27 264.8 308.12 267.06 314.29 269.28 313.95 270.22 305.2 267.07 313.92 263.86"/><path class="cls-2" d="m266.58,348.59h15c2.77,0,5-2.24,5-5v-5.91"/><polygon points="289.76 343.6 288.82 343.94 286.58 337.78 284.34 343.94 283.4 343.6 286.58 334.86 289.76 343.6"/><path class="cls-2" d="m266.58,348.59h-15.12c-2.76,0-5-2.24-5-5v-5.91"/><polygon points="249.64 343.6 248.7 343.94 246.46 337.78 244.22 343.94 243.28 343.6 246.46 334.86 249.64 343.6"/><path class="cls-2" d="m266.45,258.09l.07-5.7c.03-2.05,1.7-3.7,3.75-3.7h12.27c2.04,0,3.7-1.62,3.75-3.66l.04-6.98"/><polygon points="289.48 243.97 288.54 244.31 286.33 238.14 284.06 244.29 283.12 243.94 286.34 235.22 289.48 243.97"/><path class="cls-2" d="m237.2,248.19l24.29-.15c2.7-.02,4.9-2.17,4.96-4.88v-.57s.01-4.55.01-4.55"/><polygon points="269.64 243.96 268.7 244.3 266.46 238.14 264.22 244.3 263.28 243.96 266.46 235.22 269.64 243.96"/><path class="cls-2" d="m270.28,248.69l43.93-.33c2.75-.03,4.96-2.26,4.96-5.01l-.07-60.33c0-2.76-2.25-5-5.01-4.99h-.19l-5.43.02"/><polygon points="314.37 174.85 314.71 175.79 308.56 178.05 314.73 180.27 314.39 181.21 305.64 178.06 314.37 174.85"/><path class="cls-2" d="m267.27,162.19h46.44c2.76,0,5-2.24,5-5v-61.21c0-2.77-2.24-5-5-5-.14,0-.29,0-.44.02l-5.25.04"/><polygon points="313.91 87.81 314.26 88.75 308.12 91.04 314.29 93.23 313.96 94.17 305.2 91.06 313.91 87.81"/><line class="cls-2" x1="266.43" y1="85.11" x2="266.57" y2="66.2"/><polygon points="269.71 72.13 268.76 72.47 266.57 66.3 264.28 72.44 263.35 72.09 266.59 63.38 269.71 72.13"/><path class="cls-2" d="m123.82,377.18c3.91,3.9,3.91,10.23,0,14.14-3.91,3.91-10.24,3.91-14.14,0-3.91-3.91-3.91-10.24,0-14.14,3.9-3.91,10.23-3.91,14.14,0"/><line class="cls-2" x1="92.37" y1="384.25" x2="103.35" y2="384.25"/><polygon points="97.44 387.43 97.1 386.49 103.26 384.25 97.1 382.01 97.44 381.07 106.18 384.25 97.44 387.43"/><path class="cls-2" d="m273.4,377.18c3.91,3.9,3.91,10.23,0,14.14-3.91,3.91-10.23,3.91-14.14,0-3.91-3.91-3.91-10.24,0-14.14,3.91-3.91,10.23-3.91,14.14,0"/><line class="cls-2" x1="291.62" y1="384.25" x2="279.4" y2="384.25"/><polygon points="285.31 381.07 285.66 382.01 279.5 384.25 285.66 386.49 285.31 387.43 276.58 384.25 285.31 381.07"/><path d="m28.42,381.8v-8.36h2.58c.92,0,1.62.2,2.09.6.48.4.71,1,.71,1.79s-.24,1.38-.72,1.8-1.18.62-2.09.62h-1.37v3.55h-1.21Zm1.21-4.63h1.25c.54,0,.96-.11,1.26-.32.3-.21.46-.55.46-1.01s-.15-.79-.44-1c-.29-.21-.72-.31-1.28-.31h-1.25v2.64Z"/><path d="m37.31,381.91c-.56,0-1.06-.13-1.5-.4s-.79-.63-1.04-1.09-.38-.99-.38-1.58.12-1.12.37-1.58c.25-.46.59-.82,1.04-1.09.44-.26.95-.4,1.51-.4s1.07.13,1.5.39.77.62,1.03,1.09.38.99.38,1.58-.13,1.12-.38,1.58-.6.83-1.03,1.09c-.44.26-.93.4-1.49.4Zm0-1.04c.35,0,.66-.08.92-.25.26-.17.46-.4.6-.71.14-.3.21-.66.21-1.07s-.07-.78-.21-1.08c-.14-.3-.34-.54-.6-.7-.26-.16-.57-.25-.92-.25s-.67.08-.93.25-.46.4-.6.7c-.14.3-.21.66-.21,1.07s.07.76.21,1.07c.14.3.34.54.6.71.26.17.57.25.93.25Z"/><path d="m43.56,381.91c-.42,0-.78-.06-1.1-.19-.32-.12-.59-.28-.82-.48-.23-.2-.41-.4-.55-.61l.8-.7c.15.27.37.51.65.7.28.2.63.29,1.03.29.35,0,.63-.07.83-.22.2-.15.31-.34.31-.58,0-.19-.06-.35-.19-.46s-.3-.21-.5-.29c-.21-.08-.44-.14-.68-.2-.22-.06-.45-.14-.68-.22s-.44-.18-.63-.31-.34-.28-.46-.48c-.12-.2-.17-.44-.17-.73,0-.5.19-.91.58-1.22.39-.31.9-.46,1.54-.46.46,0,.87.09,1.25.28.38.19.67.47.88.83l-.73.56c-.16-.26-.37-.46-.62-.58s-.53-.18-.82-.18c-.28,0-.51.06-.7.17s-.28.27-.28.47c0,.14.04.26.13.35s.22.17.4.24c.18.07.4.13.67.2.25.06.5.12.76.2s.49.18.71.31c.22.13.39.3.53.52.14.22.2.5.2.84,0,.38-.1.71-.29.99-.19.28-.46.51-.8.67-.34.16-.75.24-1.21.24Z"/><path d="m47.13,374.86v-1.43h1.33v1.43h-1.33Zm.08,6.94v-5.92h1.18v5.92h-1.18Z"/><path d="m49.31,376.79v-.91h3.71v.91h-3.71Zm2.76,5.11c-.29,0-.55-.06-.8-.17-.24-.11-.44-.29-.58-.55-.14-.25-.21-.58-.21-.98v-5.84l1.19-.66v6.19c0,.33.05.58.15.76.1.18.29.27.56.27.08,0,.17,0,.28-.03.11-.02.23-.05.35-.08v.91c-.16.06-.32.1-.48.13-.16.03-.32.04-.47.04Z"/><path d="m54.15,374.86v-1.43h1.33v1.43h-1.33Zm.08,6.94v-5.92h1.18v5.92h-1.18Z"/><path d="m59.67,381.91c-.56,0-1.06-.13-1.5-.4s-.79-.63-1.04-1.09-.38-.99-.38-1.58.12-1.12.37-1.58c.25-.46.59-.82,1.04-1.09.44-.26.95-.4,1.51-.4s1.07.13,1.5.39.77.62,1.03,1.09.38.99.38,1.58-.13,1.12-.38,1.58-.6.83-1.03,1.09c-.44.26-.93.4-1.49.4Zm0-1.04c.35,0,.66-.08.92-.25.26-.17.46-.4.6-.71.14-.3.21-.66.21-1.07s-.07-.78-.21-1.08c-.14-.3-.34-.54-.6-.7-.26-.16-.57-.25-.92-.25s-.67.08-.93.25-.46.4-.6.7c-.14.3-.21.66-.21,1.07s.07.76.21,1.07c.14.3.34.54.6.71.26.17.57.25.93.25Z"/><path d="m63.93,381.8v-5.92h1.19v1.28l-.24.07c.1-.33.25-.6.45-.81.2-.21.43-.37.7-.49.27-.11.56-.17.87-.17.66,0,1.17.19,1.54.57.37.38.56.93.56,1.66v3.79h-1.18v-3.36c0-.57-.1-.98-.31-1.25-.2-.26-.52-.4-.94-.4-.32,0-.59.07-.8.22-.21.14-.37.37-.49.68-.11.31-.17.71-.17,1.19v2.92h-1.19Z"/><path d="m72.52,381.91c-.44,0-.83-.08-1.16-.24s-.6-.38-.78-.67c-.18-.28-.28-.61-.28-.99,0-.33.07-.61.2-.85.14-.24.31-.42.53-.55.2-.13.43-.22.69-.27.26-.05.54-.08.83-.08h1.88v.89h-1.72c-.16,0-.33.01-.5.04-.17.03-.32.09-.44.17-.1.07-.17.16-.23.27-.06.11-.08.23-.08.38,0,.28.11.5.32.67.22.17.5.25.86.25.3,0,.58-.07.83-.21.25-.14.45-.33.61-.58s.23-.52.23-.83l.42.55c-.07.42-.21.78-.42,1.09s-.47.54-.77.7c-.31.16-.65.24-1.04.24Zm1.91-.11l-.1-1.09v-2.63c0-.42-.12-.74-.36-.96-.24-.22-.59-.34-1.04-.34-.32,0-.63.06-.92.19-.29.13-.57.34-.83.62l-.73-.76c.35-.37.74-.64,1.17-.81.43-.17.89-.26,1.4-.26.79,0,1.41.2,1.84.61s.65.97.65,1.7v3.72h-1.08Z"/><path d="m78.33,381.91c-.38,0-.68-.12-.92-.35-.24-.23-.36-.6-.36-1.1v-7.02h1.16v6.79c0,.21.05.36.14.45.09.09.21.14.37.14.06,0,.14,0,.22-.02s.17-.03.26-.07v1c-.14.06-.29.11-.45.14-.16.03-.29.04-.41.04Z"/><path d="m29.71,393.8v-8.36h5.53v1.09h-4.31v2.45h3.95v1.09h-3.95v2.64h4.31v1.09h-5.53Z"/><path d="m36.62,393.8v-5.92h1.19v1.28l-.24.07c.1-.33.25-.6.45-.81.2-.21.43-.37.7-.49.27-.11.56-.17.87-.17.66,0,1.17.19,1.54.57.37.38.56.93.56,1.66v3.79h-1.18v-3.36c0-.57-.1-.98-.31-1.25-.2-.26-.52-.4-.94-.4-.32,0-.59.07-.8.22-.21.14-.37.37-.49.68-.11.31-.17.71-.17,1.19v2.92h-1.19Z"/><path d="m45.77,393.91c-.45,0-.85-.08-1.19-.25-.35-.16-.64-.39-.88-.68-.24-.29-.41-.62-.53-.98-.12-.37-.18-.76-.18-1.16s.06-.78.18-1.15c.12-.37.3-.7.53-.98s.53-.51.88-.68c.35-.16.75-.25,1.19-.25.58,0,1.08.14,1.51.42.43.28.74.7.94,1.27l-1.03.4c-.1-.31-.27-.57-.5-.77s-.54-.3-.91-.3-.67.1-.91.29c-.24.2-.42.45-.53.76-.11.31-.17.64-.17.99s.06.68.17,1c.11.31.29.56.53.76.24.19.54.29.91.29s.68-.1.91-.29.4-.45.5-.77l1.03.4c-.2.58-.51,1-.94,1.28-.43.28-.93.42-1.51.42Z"/><path d="m52.13,393.91c-.56,0-1.06-.13-1.5-.4s-.79-.63-1.04-1.09-.38-.99-.38-1.58.12-1.12.37-1.58c.25-.46.59-.82,1.04-1.09.44-.26.95-.4,1.51-.4s1.07.13,1.5.39.77.62,1.03,1.09.38.99.38,1.58-.13,1.12-.38,1.58-.6.83-1.03,1.09c-.44.26-.93.4-1.49.4Zm0-1.04c.35,0,.66-.08.92-.25.26-.17.46-.4.6-.71.14-.3.21-.66.21-1.07s-.07-.78-.21-1.08c-.14-.3-.34-.54-.6-.7-.26-.16-.57-.25-.92-.25s-.67.08-.93.25-.46.4-.6.7c-.14.3-.21.66-.21,1.07s.07.76.21,1.07c.14.3.34.54.6.71.26.17.57.25.93.25Z"/><path d="m58.75,393.91c-.54,0-1-.13-1.39-.4-.39-.27-.7-.64-.92-1.1-.22-.47-.33-.99-.33-1.57,0-.63.12-1.18.35-1.63.24-.46.55-.81.95-1.06.4-.25.84-.37,1.33-.37.35,0,.67.07.97.22.29.14.54.34.74.6.2.26.34.56.42.9l-.3.1v-4.15h1.16v8.36h-1.16v-1.7h.35c-.1.4-.26.72-.47.99-.21.27-.46.47-.75.61-.29.14-.61.21-.95.21Zm.24-1.08c.34,0,.64-.08.89-.25s.45-.4.59-.7.21-.65.21-1.04-.07-.74-.21-1.04-.34-.53-.59-.7-.55-.25-.89-.25-.63.08-.89.25c-.26.16-.45.4-.59.7-.14.3-.21.65-.21,1.04s.07.74.21,1.04c.14.3.34.53.59.7.26.17.55.25.89.25Z"/><path d="m63.29,386.86v-1.43h1.33v1.43h-1.33Zm.08,6.94v-5.92h1.18v5.92h-1.18Z"/><path d="m66.17,393.8v-5.92h1.19v1.28l-.24.07c.1-.33.25-.6.45-.81.2-.21.43-.37.7-.49.27-.11.56-.17.87-.17.66,0,1.17.19,1.54.57.37.38.56.93.56,1.66v3.79h-1.18v-3.36c0-.57-.1-.98-.31-1.25-.2-.26-.52-.4-.94-.4-.32,0-.59.07-.8.22-.21.14-.37.37-.49.68-.11.31-.17.71-.17,1.19v2.92h-1.19Z"/><path d="m75.23,396.35c-.86,0-1.53-.16-2.03-.47-.5-.31-.75-.74-.75-1.3,0-.04,0-.09,0-.16,0-.06.01-.13.03-.19l1.54-1.06.36.3-.82,1.01s-.01.06-.01.08v.07c0,.29.16.5.48.65.32.14.72.22,1.2.22.42,0,.77-.06,1.03-.17.26-.12.4-.3.4-.56,0-.14-.04-.25-.12-.34s-.2-.16-.36-.21-.35-.1-.57-.13c-.22-.04-.47-.07-.76-.11-.37-.06-.72-.14-1.07-.24-.34-.1-.63-.26-.85-.46-.22-.2-.34-.47-.34-.81,0-.29.1-.55.31-.8.2-.24.47-.44.8-.59l.67.47c-.25.06-.43.15-.54.27-.11.12-.17.27-.17.45,0,.14.05.26.16.35.11.09.26.16.46.2.2.05.44.09.72.13.39.06.76.12,1.1.18s.64.15.9.27c.26.12.46.27.6.47.14.2.21.45.21.76,0,.56-.23.99-.68,1.28-.45.3-1.09.44-1.9.44Zm-.13-4.34c-.47,0-.89-.09-1.24-.27-.36-.18-.63-.43-.83-.74-.2-.32-.3-.68-.3-1.09s.1-.8.31-1.12.49-.57.85-.75.75-.27,1.18-.27.8.09,1.16.27.64.43.85.76.32.71.32,1.15c0,.42-.1.78-.29,1.09-.2.31-.47.55-.81.71s-.74.25-1.19.25Zm-.02-.94c.37,0,.65-.11.85-.34.2-.23.3-.51.3-.83,0-.35-.11-.63-.32-.85s-.49-.32-.83-.32-.65.11-.86.32c-.22.22-.32.49-.32.83s.1.62.31.85c.21.23.5.34.88.34Zm1.93-2.04l-.85-.56,1.3-1.04.59.73-1.03.88Z"/><path d="m305.42,381.8v-8.36h2.58c.92,0,1.62.2,2.09.6.48.4.71,1,.71,1.79s-.24,1.38-.72,1.8-1.18.62-2.09.62h-1.37v3.55h-1.21Zm1.21-4.63h1.25c.54,0,.96-.11,1.26-.32.3-.21.46-.55.46-1.01s-.15-.79-.44-1c-.29-.21-.72-.31-1.28-.31h-1.25v2.64Z"/><path d="m314.31,381.91c-.56,0-1.06-.13-1.5-.4s-.79-.63-1.04-1.09-.38-.99-.38-1.58.12-1.12.37-1.58c.25-.46.59-.82,1.04-1.09.44-.26.95-.4,1.51-.4s1.07.13,1.5.39.77.62,1.03,1.09.38.99.38,1.58-.13,1.12-.38,1.58-.6.83-1.03,1.09c-.44.26-.93.4-1.49.4Zm0-1.04c.35,0,.66-.08.92-.25.26-.17.46-.4.6-.71.14-.3.21-.66.21-1.07s-.07-.78-.21-1.08c-.14-.3-.34-.54-.6-.7-.26-.16-.57-.25-.92-.25s-.67.08-.93.25-.46.4-.6.7c-.14.3-.21.66-.21,1.07s.07.76.21,1.07c.14.3.34.54.6.71.26.17.57.25.93.25Z"/><path d="m320.56,381.91c-.42,0-.78-.06-1.1-.19-.32-.12-.59-.28-.82-.48-.23-.2-.41-.4-.55-.61l.8-.7c.15.27.37.51.65.7.28.2.63.29,1.03.29.35,0,.63-.07.83-.22.2-.15.31-.34.31-.58,0-.19-.06-.35-.19-.46s-.3-.21-.5-.29c-.21-.08-.44-.14-.68-.2-.22-.06-.45-.14-.68-.22s-.44-.18-.63-.31-.34-.28-.46-.48c-.12-.2-.17-.44-.17-.73,0-.5.19-.91.58-1.22.39-.31.9-.46,1.54-.46.46,0,.87.09,1.25.28.38.19.67.47.88.83l-.73.56c-.16-.26-.37-.46-.62-.58s-.53-.18-.82-.18c-.28,0-.51.06-.7.17s-.28.27-.28.47c0,.14.04.26.13.35s.22.17.4.24c.18.07.4.13.67.2.25.06.5.12.76.2s.49.18.71.31c.22.13.39.3.53.52.14.22.2.5.2.84,0,.38-.1.71-.29.99-.19.28-.46.51-.8.67-.34.16-.75.24-1.21.24Z"/><path d="m324.13,374.86v-1.43h1.33v1.43h-1.33Zm.08,6.94v-5.92h1.18v5.92h-1.18Z"/><path d="m326.31,376.79v-.91h3.71v.91h-3.71Zm2.76,5.11c-.29,0-.55-.06-.8-.17-.24-.11-.44-.29-.58-.55-.14-.25-.21-.58-.21-.98v-5.84l1.19-.66v6.19c0,.33.05.58.15.76.1.18.29.27.56.27.08,0,.17,0,.28-.03.11-.02.23-.05.35-.08v.91c-.16.06-.32.1-.48.13-.16.03-.32.04-.47.04Z"/><path d="m331.15,374.86v-1.43h1.33v1.43h-1.33Zm.08,6.94v-5.92h1.18v5.92h-1.18Z"/><path d="m336.67,381.91c-.56,0-1.06-.13-1.5-.4s-.79-.63-1.04-1.09-.38-.99-.38-1.58.12-1.12.37-1.58c.25-.46.59-.82,1.04-1.09.44-.26.95-.4,1.51-.4s1.07.13,1.5.39.77.62,1.03,1.09.38.99.38,1.58-.13,1.12-.38,1.58-.6.83-1.03,1.09c-.44.26-.93.4-1.49.4Zm0-1.04c.35,0,.66-.08.92-.25.26-.17.46-.4.6-.71.14-.3.21-.66.21-1.07s-.07-.78-.21-1.08c-.14-.3-.34-.54-.6-.7-.26-.16-.57-.25-.92-.25s-.67.08-.93.25-.46.4-.6.7c-.14.3-.21.66-.21,1.07s.07.76.21,1.07c.14.3.34.54.6.71.26.17.57.25.93.25Z"/><path d="m340.93,381.8v-5.92h1.19v1.28l-.24.07c.1-.33.25-.6.45-.81.2-.21.43-.37.7-.49.27-.11.56-.17.87-.17.66,0,1.17.19,1.54.57.37.38.56.93.56,1.66v3.79h-1.18v-3.36c0-.57-.1-.98-.31-1.25-.2-.26-.52-.4-.94-.4-.32,0-.59.07-.8.22-.21.14-.37.37-.49.68-.11.31-.17.71-.17,1.19v2.92h-1.19Z"/><path d="m349.52,381.91c-.44,0-.83-.08-1.16-.24s-.6-.38-.78-.67c-.18-.28-.28-.61-.28-.99,0-.33.07-.61.2-.85.14-.24.31-.42.53-.55.2-.13.43-.22.69-.27.26-.05.54-.08.83-.08h1.88v.89h-1.72c-.16,0-.33.01-.5.04-.17.03-.32.09-.44.17-.1.07-.17.16-.23.27-.06.11-.08.23-.08.38,0,.28.11.5.32.67.22.17.5.25.86.25.3,0,.58-.07.83-.21.25-.14.45-.33.61-.58s.23-.52.23-.83l.42.55c-.07.42-.21.78-.42,1.09s-.47.54-.77.7c-.31.16-.65.24-1.04.24Zm1.91-.11l-.1-1.09v-2.63c0-.42-.12-.74-.36-.96-.24-.22-.59-.34-1.04-.34-.32,0-.63.06-.92.19-.29.13-.57.34-.83.62l-.73-.76c.35-.37.74-.64,1.17-.81.43-.17.89-.26,1.4-.26.79,0,1.41.2,1.84.61s.65.97.65,1.7v3.72h-1.08Z"/><path d="m355.33,381.91c-.38,0-.68-.12-.92-.35-.24-.23-.36-.6-.36-1.1v-7.02h1.16v6.79c0,.21.05.36.14.45.09.09.21.14.37.14.06,0,.14,0,.22-.02s.17-.03.26-.07v1c-.14.06-.29.11-.45.14-.16.03-.29.04-.41.04Z"/><path d="m306.71,393.8v-8.36h5.53v1.09h-4.31v2.45h3.95v1.09h-3.95v2.64h4.31v1.09h-5.53Z"/><path d="m313.62,393.8v-5.92h1.19v1.28l-.24.07c.1-.33.25-.6.45-.81.2-.21.43-.37.7-.49.27-.11.56-.17.87-.17.66,0,1.17.19,1.54.57.37.38.56.93.56,1.66v3.79h-1.18v-3.36c0-.57-.1-.98-.31-1.25-.2-.26-.52-.4-.94-.4-.32,0-.59.07-.8.22-.21.14-.37.37-.49.68-.11.31-.17.71-.17,1.19v2.92h-1.19Z"/><path d="m322.77,393.91c-.45,0-.85-.08-1.19-.25-.35-.16-.64-.39-.88-.68-.24-.29-.41-.62-.53-.98-.12-.37-.18-.76-.18-1.16s.06-.78.18-1.15c.12-.37.3-.7.53-.98s.53-.51.88-.68c.35-.16.75-.25,1.19-.25.58,0,1.08.14,1.51.42.43.28.74.7.94,1.27l-1.03.4c-.1-.31-.27-.57-.5-.77s-.54-.3-.91-.3-.67.1-.91.29c-.24.2-.42.45-.53.76-.11.31-.17.64-.17.99s.06.68.17,1c.11.31.29.56.53.76.24.19.54.29.91.29s.68-.1.91-.29.4-.45.5-.77l1.03.4c-.2.58-.51,1-.94,1.28-.43.28-.93.42-1.51.42Z"/><path d="m329.13,393.91c-.56,0-1.06-.13-1.5-.4s-.79-.63-1.04-1.09-.38-.99-.38-1.58.12-1.12.37-1.58c.25-.46.59-.82,1.04-1.09.44-.26.95-.4,1.51-.4s1.07.13,1.5.39.77.62,1.03,1.09.38.99.38,1.58-.13,1.12-.38,1.58-.6.83-1.03,1.09c-.44.26-.93.4-1.49.4Zm0-1.04c.35,0,.66-.08.92-.25.26-.17.46-.4.6-.71.14-.3.21-.66.21-1.07s-.07-.78-.21-1.08c-.14-.3-.34-.54-.6-.7-.26-.16-.57-.25-.92-.25s-.67.08-.93.25-.46.4-.6.7c-.14.3-.21.66-.21,1.07s.07.76.21,1.07c.14.3.34.54.6.71.26.17.57.25.93.25Z"/><path d="m335.75,393.91c-.54,0-1-.13-1.39-.4-.39-.27-.7-.64-.92-1.1-.22-.47-.33-.99-.33-1.57,0-.63.12-1.18.35-1.63.24-.46.55-.81.95-1.06.4-.25.84-.37,1.33-.37.35,0,.67.07.97.22.29.14.54.34.74.6.2.26.34.56.42.9l-.3.1v-4.15h1.16v8.36h-1.16v-1.7h.35c-.1.4-.26.72-.47.99-.21.27-.46.47-.75.61-.29.14-.61.21-.95.21Zm.24-1.08c.34,0,.64-.08.89-.25s.45-.4.59-.7.21-.65.21-1.04-.07-.74-.21-1.04-.34-.53-.59-.7-.55-.25-.89-.25-.63.08-.89.25c-.26.16-.45.4-.59.7-.14.3-.21.65-.21,1.04s.07.74.21,1.04c.14.3.34.53.59.7.26.17.55.25.89.25Z"/><path d="m340.29,386.86v-1.43h1.33v1.43h-1.33Zm.08,6.94v-5.92h1.18v5.92h-1.18Z"/><path d="m343.17,393.8v-5.92h1.19v1.28l-.24.07c.1-.33.25-.6.45-.81.2-.21.43-.37.7-.49.27-.11.56-.17.87-.17.66,0,1.17.19,1.54.57.37.38.56.93.56,1.66v3.79h-1.18v-3.36c0-.57-.1-.98-.31-1.25-.2-.26-.52-.4-.94-.4-.32,0-.59.07-.8.22-.21.14-.37.37-.49.68-.11.31-.17.71-.17,1.19v2.92h-1.19Z"/><path d="m352.23,396.35c-.86,0-1.53-.16-2.03-.47-.5-.31-.75-.74-.75-1.3,0-.04,0-.09,0-.16,0-.06.01-.13.03-.19l1.54-1.06.36.3-.82,1.01s-.01.06-.01.08v.07c0,.29.16.5.48.65.32.14.72.22,1.2.22.42,0,.77-.06,1.03-.17.26-.12.4-.3.4-.56,0-.14-.04-.25-.12-.34s-.2-.16-.36-.21-.35-.1-.57-.13c-.22-.04-.47-.07-.76-.11-.37-.06-.72-.14-1.07-.24-.34-.1-.63-.26-.85-.46-.22-.2-.34-.47-.34-.81,0-.29.1-.55.31-.8.2-.24.47-.44.8-.59l.67.47c-.25.06-.43.15-.54.27-.11.12-.17.27-.17.45,0,.14.05.26.16.35.11.09.26.16.46.2.2.05.44.09.72.13.39.06.76.12,1.1.18s.64.15.9.27c.26.12.46.27.6.47.14.2.21.45.21.76,0,.56-.23.99-.68,1.28-.45.3-1.09.44-1.9.44Zm-.13-4.34c-.47,0-.89-.09-1.24-.27-.36-.18-.63-.43-.83-.74-.2-.32-.3-.68-.3-1.09s.1-.8.31-1.12.49-.57.85-.75.75-.27,1.18-.27.8.09,1.16.27.64.43.85.76.32.71.32,1.15c0,.42-.1.78-.29,1.09-.2.31-.47.55-.81.71s-.74.25-1.19.25Zm-.02-.94c.37,0,.65-.11.85-.34.2-.23.3-.51.3-.83,0-.35-.11-.63-.32-.85s-.49-.32-.83-.32-.65.11-.86.32c-.22.22-.32.49-.32.83s.1.62.31.85c.21.23.5.34.88.34Zm1.93-2.04l-.85-.56,1.3-1.04.59.73-1.03.88Z"/><path d="m237.18,423.17v-8.36h5.53v1.09h-4.31v2.45h3.95v1.09h-3.95v2.64h4.31v1.09h-5.53Z"/><path d="m244.09,423.17v-5.92h1.19v1.52l-.25.08c.07-.31.17-.58.3-.79.13-.22.28-.39.45-.53s.36-.24.56-.3c.2-.06.4-.1.61-.1.34,0,.65.07.93.2s.51.34.7.61c.19.28.31.64.38,1.09l-.67.13c.12-.46.28-.84.47-1.14.2-.3.44-.52.72-.67.28-.15.61-.22.98-.22.5,0,.89.11,1.19.34.3.22.52.51.66.87.14.36.21.75.21,1.17v3.65h-1.16v-3.36c0-.34-.04-.64-.12-.88-.08-.24-.2-.43-.37-.56-.17-.13-.39-.2-.67-.2s-.5.07-.7.21c-.19.14-.34.35-.44.63s-.15.63-.15,1.04v3.12h-1.18v-3.43c0-.53-.1-.92-.29-1.18-.2-.26-.48-.39-.85-.39-.27,0-.51.07-.7.21-.2.14-.35.35-.45.63-.1.28-.16.63-.16,1.04v3.12h-1.19Z"/><path d="m257.09,423.28c-.35,0-.67-.07-.97-.21-.29-.14-.54-.34-.74-.61-.2-.27-.36-.59-.46-.98h.35s0,1.69,0,1.69h-1.18v-8.36h1.18v4.15l-.3-.07c.08-.34.22-.65.42-.91.2-.26.45-.46.74-.61.29-.15.61-.22.97-.22.49,0,.93.12,1.33.37.4.25.72.6.95,1.06.23.46.35,1,.35,1.63,0,.58-.11,1.1-.32,1.57-.22.47-.52.84-.92,1.1-.4.27-.86.4-1.39.4Zm-.25-1.08c.34,0,.64-.08.89-.25s.45-.4.59-.7c.14-.3.22-.65.22-1.04s-.07-.74-.22-1.04c-.14-.3-.34-.53-.59-.7s-.55-.25-.89-.25-.63.08-.88.25-.45.4-.59.7c-.14.3-.21.65-.21,1.04s.07.74.21,1.04c.14.3.34.53.59.7s.55.25.88.25Z"/><path d="m263.63,423.28c-.48,0-.9-.08-1.25-.24s-.64-.38-.88-.67-.41-.61-.52-.97c-.12-.36-.17-.75-.17-1.15s.06-.79.17-1.16c.11-.37.28-.7.5-1s.51-.52.85-.7c.34-.17.74-.26,1.21-.26s.86.08,1.2.23.61.37.83.65c.22.28.38.59.49.93.11.34.16.71.16,1.09,0,.04,0,.11,0,.22,0,.11-.01.21-.03.31h-4.19c.02.53.19.93.49,1.22.3.28.7.43,1.19.43.34,0,.64-.05.9-.16.26-.11.51-.28.73-.51l.72.74c-.23.23-.47.42-.71.56-.24.14-.5.25-.77.32-.27.07-.57.1-.91.1Zm1.42-3.29c.02-.06.03-.13.03-.19,0-.06,0-.13,0-.19,0-.18-.03-.36-.1-.54-.06-.18-.16-.33-.29-.47-.13-.14-.29-.25-.47-.34s-.41-.13-.65-.13c-.33,0-.61.07-.84.22-.23.15-.41.34-.53.58-.12.24-.2.5-.22.78h3.46l-.38.28Z"/><path d="m269.93,423.28c-.54,0-1-.13-1.39-.4-.39-.27-.7-.64-.92-1.1-.22-.47-.33-.99-.33-1.57,0-.63.12-1.18.35-1.63.24-.46.55-.81.95-1.06.4-.25.84-.37,1.33-.37.35,0,.67.07.97.22.29.14.54.34.74.6.2.26.34.56.42.9l-.3.1v-4.15h1.16v8.36h-1.16v-1.7h.35c-.1.4-.26.72-.47.99-.21.27-.46.47-.75.61-.29.14-.61.21-.95.21Zm.24-1.08c.34,0,.64-.08.89-.25s.45-.4.59-.7.21-.65.21-1.04-.07-.74-.21-1.04-.34-.53-.59-.7-.55-.25-.89-.25-.63.08-.89.25c-.26.16-.45.4-.59.7-.14.3-.21.65-.21,1.04s.07.74.21,1.04c.14.3.34.53.59.7.26.17.55.25.89.25Z"/><path d="m276.93,423.28c-.54,0-1-.13-1.39-.4-.39-.27-.7-.64-.92-1.1-.22-.47-.33-.99-.33-1.57,0-.63.12-1.18.35-1.63.24-.46.55-.81.95-1.06.4-.25.84-.37,1.33-.37.35,0,.67.07.97.22.29.14.54.34.74.6.2.26.34.56.42.9l-.3.1v-4.15h1.16v8.36h-1.16v-1.7h.35c-.1.4-.26.72-.47.99-.21.27-.46.47-.75.61-.29.14-.61.21-.95.21Zm.24-1.08c.34,0,.64-.08.89-.25s.45-.4.59-.7.21-.65.21-1.04-.07-.74-.21-1.04-.34-.53-.59-.7-.55-.25-.89-.25-.63.08-.89.25c-.26.16-.45.4-.59.7-.14.3-.21.65-.21,1.04s.07.74.21,1.04c.14.3.34.53.59.7.26.17.55.25.89.25Z"/><path d="m281.46,416.24v-1.43h1.33v1.43h-1.33Zm.08,6.94v-5.92h1.18v5.92h-1.18Z"/><path d="m284.34,423.17v-5.92h1.19v1.28l-.24.07c.1-.33.25-.6.45-.81.2-.21.43-.37.7-.49.27-.11.56-.17.87-.17.66,0,1.17.19,1.54.57.37.38.56.93.56,1.66v3.79h-1.18v-3.36c0-.57-.1-.98-.31-1.25-.2-.26-.52-.4-.94-.4-.32,0-.59.07-.8.22-.21.14-.37.37-.49.68-.11.31-.17.71-.17,1.19v2.92h-1.19Z"/><path d="m293.4,425.73c-.86,0-1.53-.16-2.03-.47-.5-.31-.75-.74-.75-1.3,0-.04,0-.09,0-.16,0-.06.01-.13.03-.19l1.54-1.06.36.3-.82,1.01s-.01.06-.01.08v.07c0,.29.16.5.48.65.32.14.72.22,1.2.22.42,0,.77-.06,1.03-.17.26-.12.4-.3.4-.56,0-.14-.04-.25-.12-.34s-.2-.16-.36-.21-.35-.1-.57-.13c-.22-.04-.47-.07-.76-.11-.37-.06-.72-.14-1.07-.24-.34-.1-.63-.26-.85-.46-.22-.2-.34-.47-.34-.81,0-.29.1-.55.31-.8.2-.24.47-.44.8-.59l.67.47c-.25.06-.43.15-.54.27-.11.12-.17.27-.17.45,0,.14.05.26.16.35.11.09.26.16.46.2.2.05.44.09.72.13.39.06.76.12,1.1.18s.64.15.9.27c.26.12.46.27.6.47.14.2.21.45.21.76,0,.56-.23.99-.68,1.28-.45.3-1.09.44-1.9.44Zm-.13-4.34c-.47,0-.89-.09-1.24-.27-.36-.18-.63-.43-.83-.74-.2-.32-.3-.68-.3-1.09s.1-.8.31-1.12.49-.57.85-.75.75-.27,1.18-.27.8.09,1.16.27.64.43.85.76.32.71.32,1.15c0,.42-.1.78-.29,1.09-.2.31-.47.55-.81.71s-.74.25-1.19.25Zm-.02-.94c.37,0,.65-.11.85-.34.2-.23.3-.51.3-.83,0-.35-.11-.63-.32-.85s-.49-.32-.83-.32-.65.11-.86.32c-.22.22-.32.49-.32.83s.1.62.31.85c.21.23.5.34.88.34Zm1.93-2.04l-.85-.56,1.3-1.04.59.73-1.03.88Z"/><path d="m87.61,423.17v-8.36h5.53v1.09h-4.31v2.45h3.95v1.09h-3.95v2.64h4.31v1.09h-5.53Z"/><path d="m94.52,423.17v-5.92h1.19v1.52l-.25.08c.07-.31.17-.58.3-.79.13-.22.28-.39.45-.53s.36-.24.56-.3c.2-.06.4-.1.61-.1.34,0,.65.07.93.2s.51.34.7.61c.19.28.31.64.38,1.09l-.67.13c.12-.46.28-.84.47-1.14.2-.3.44-.52.72-.67.28-.15.61-.22.98-.22.5,0,.89.11,1.19.34.3.22.52.51.66.87.14.36.21.75.21,1.17v3.65h-1.16v-3.36c0-.34-.04-.64-.12-.88-.08-.24-.2-.43-.37-.56-.17-.13-.39-.2-.67-.2s-.5.07-.7.21c-.19.14-.34.35-.44.63s-.15.63-.15,1.04v3.12h-1.18v-3.43c0-.53-.1-.92-.29-1.18-.2-.26-.48-.39-.85-.39-.27,0-.51.07-.7.21-.2.14-.35.35-.45.63-.1.28-.16.63-.16,1.04v3.12h-1.19Z"/><path d="m107.52,423.28c-.35,0-.67-.07-.97-.21-.29-.14-.54-.34-.74-.61-.2-.27-.36-.59-.46-.98h.35s0,1.69,0,1.69h-1.18v-8.36h1.18v4.15l-.3-.07c.08-.34.22-.65.42-.91.2-.26.45-.46.74-.61.29-.15.61-.22.97-.22.49,0,.93.12,1.33.37.4.25.72.6.95,1.06.23.46.35,1,.35,1.63,0,.58-.11,1.1-.32,1.57-.22.47-.52.84-.92,1.1-.4.27-.86.4-1.39.4Zm-.25-1.08c.34,0,.64-.08.89-.25s.45-.4.59-.7c.14-.3.22-.65.22-1.04s-.07-.74-.22-1.04c-.14-.3-.34-.53-.59-.7s-.55-.25-.89-.25-.63.08-.88.25-.45.4-.59.7c-.14.3-.21.65-.21,1.04s.07.74.21,1.04c.14.3.34.53.59.7s.55.25.88.25Z"/><path d="m114.06,423.28c-.48,0-.9-.08-1.25-.24s-.64-.38-.88-.67-.41-.61-.52-.97c-.12-.36-.17-.75-.17-1.15s.06-.79.17-1.16c.11-.37.28-.7.5-1s.51-.52.85-.7c.34-.17.74-.26,1.21-.26s.86.08,1.2.23.61.37.83.65c.22.28.38.59.49.93.11.34.16.71.16,1.09,0,.04,0,.11,0,.22,0,.11-.01.21-.03.31h-4.19c.02.53.19.93.49,1.22.3.28.7.43,1.19.43.34,0,.64-.05.9-.16.26-.11.51-.28.73-.51l.72.74c-.23.23-.47.42-.71.56-.24.14-.5.25-.77.32-.27.07-.57.1-.91.1Zm1.42-3.29c.02-.06.03-.13.03-.19,0-.06,0-.13,0-.19,0-.18-.03-.36-.1-.54-.06-.18-.16-.33-.29-.47-.13-.14-.29-.25-.47-.34s-.41-.13-.65-.13c-.33,0-.61.07-.84.22-.23.15-.41.34-.53.58-.12.24-.2.5-.22.78h3.46l-.38.28Z"/><path d="m120.36,423.28c-.54,0-1-.13-1.39-.4-.39-.27-.7-.64-.92-1.1-.22-.47-.33-.99-.33-1.57,0-.63.12-1.18.35-1.63.24-.46.55-.81.95-1.06.4-.25.84-.37,1.33-.37.35,0,.67.07.97.22.29.14.54.34.74.6.2.26.34.56.42.9l-.3.1v-4.15h1.16v8.36h-1.16v-1.7h.35c-.1.4-.26.72-.47.99-.21.27-.46.47-.75.61-.29.14-.61.21-.95.21Zm.24-1.08c.34,0,.64-.08.89-.25s.45-.4.59-.7.21-.65.21-1.04-.07-.74-.21-1.04-.34-.53-.59-.7-.55-.25-.89-.25-.63.08-.89.25c-.26.16-.45.4-.59.7-.14.3-.21.65-.21,1.04s.07.74.21,1.04c.14.3.34.53.59.7.26.17.55.25.89.25Z"/><path d="m127.35,423.28c-.54,0-1-.13-1.39-.4-.39-.27-.7-.64-.92-1.1-.22-.47-.33-.99-.33-1.57,0-.63.12-1.18.35-1.63.24-.46.55-.81.95-1.06.4-.25.84-.37,1.33-.37.35,0,.67.07.97.22.29.14.54.34.74.6.2.26.34.56.42.9l-.3.1v-4.15h1.16v8.36h-1.16v-1.7h.35c-.1.4-.26.72-.47.99-.21.27-.46.47-.75.61-.29.14-.61.21-.95.21Zm.24-1.08c.34,0,.64-.08.89-.25s.45-.4.59-.7.21-.65.21-1.04-.07-.74-.21-1.04-.34-.53-.59-.7-.55-.25-.89-.25-.63.08-.89.25c-.26.16-.45.4-.59.7-.14.3-.21.65-.21,1.04s.07.74.21,1.04c.14.3.34.53.59.7.26.17.55.25.89.25Z"/><path d="m131.89,416.24v-1.43h1.33v1.43h-1.33Zm.08,6.94v-5.92h1.18v5.92h-1.18Z"/><path d="m134.77,423.17v-5.92h1.19v1.28l-.24.07c.1-.33.25-.6.45-.81.2-.21.43-.37.7-.49.27-.11.56-.17.87-.17.66,0,1.17.19,1.54.57.37.38.56.93.56,1.66v3.79h-1.18v-3.36c0-.57-.1-.98-.31-1.25-.2-.26-.52-.4-.94-.4-.32,0-.59.07-.8.22-.21.14-.37.37-.49.68-.11.31-.17.71-.17,1.19v2.92h-1.19Z"/><path d="m143.83,425.73c-.86,0-1.53-.16-2.03-.47-.5-.31-.75-.74-.75-1.3,0-.04,0-.09,0-.16,0-.06.01-.13.03-.19l1.54-1.06.36.3-.82,1.01s-.01.06-.01.08v.07c0,.29.16.5.48.65.32.14.72.22,1.2.22.42,0,.77-.06,1.03-.17.26-.12.4-.3.4-.56,0-.14-.04-.25-.12-.34s-.2-.16-.36-.21-.35-.1-.57-.13c-.22-.04-.47-.07-.76-.11-.37-.06-.72-.14-1.07-.24-.34-.1-.63-.26-.85-.46-.22-.2-.34-.47-.34-.81,0-.29.1-.55.31-.8.2-.24.47-.44.8-.59l.67.47c-.25.06-.43.15-.54.27-.11.12-.17.27-.17.45,0,.14.05.26.16.35.11.09.26.16.46.2.2.05.44.09.72.13.39.06.76.12,1.1.18s.64.15.9.27c.26.12.46.27.6.47.14.2.21.45.21.76,0,.56-.23.99-.68,1.28-.45.3-1.09.44-1.9.44Zm-.13-4.34c-.47,0-.89-.09-1.24-.27-.36-.18-.63-.43-.83-.74-.2-.32-.3-.68-.3-1.09s.1-.8.31-1.12.49-.57.85-.75.75-.27,1.18-.27.8.09,1.16.27.64.43.85.76.32.71.32,1.15c0,.42-.1.78-.29,1.09-.2.31-.47.55-.81.71s-.74.25-1.19.25Zm-.02-.94c.37,0,.65-.11.85-.34.2-.23.3-.51.3-.83,0-.35-.11-.63-.32-.85s-.49-.32-.83-.32-.65.11-.86.32c-.22.22-.32.49-.32.83s.1.62.31.85c.21.23.5.34.88.34Zm1.93-2.04l-.85-.56,1.3-1.04.59.73-1.03.88Z"/><path d="m98.61,460.32c-.86,0-1.56-.22-2.11-.67-.55-.45-.88-1.04-1-1.79l1.19-.29c.09.54.31.96.66,1.24.35.28.78.42,1.3.42.3,0,.56-.05.79-.16.23-.11.41-.26.55-.47.14-.2.2-.43.2-.69,0-.27-.07-.5-.22-.67-.15-.18-.36-.33-.62-.47s-.59-.28-.97-.43c-.49-.18-.91-.38-1.25-.6-.35-.22-.62-.47-.8-.77s-.28-.66-.28-1.09.11-.81.32-1.15c.21-.33.51-.59.89-.79.38-.19.83-.29,1.33-.29.54,0,1.01.12,1.43.37.42.24.75.61,1,1.1l-.97.6c-.18-.32-.39-.56-.64-.73-.25-.17-.54-.25-.86-.25-.25,0-.47.05-.67.14-.2.1-.35.23-.46.39s-.16.36-.16.58.07.43.2.6c.13.17.33.32.59.45.26.13.59.27.98.41.5.19.92.4,1.27.62.35.22.62.48.82.79s.29.68.29,1.12c0,.48-.12.91-.35,1.28-.24.37-.56.67-.98.88-.42.22-.9.32-1.45.32Z"/><path d="m105.35,460.28c-.56,0-1.06-.13-1.5-.4s-.79-.63-1.04-1.09-.38-.99-.38-1.58.12-1.12.37-1.58c.25-.46.59-.82,1.04-1.09.44-.26.95-.4,1.51-.4s1.07.13,1.5.39.77.62,1.03,1.09.38.99.38,1.58-.13,1.12-.38,1.58-.6.83-1.03,1.09c-.44.26-.93.4-1.49.4Zm0-1.04c.35,0,.66-.08.92-.25.26-.17.46-.4.6-.71.14-.3.21-.66.21-1.07s-.07-.78-.21-1.08c-.14-.3-.34-.54-.6-.7-.26-.16-.57-.25-.92-.25s-.67.08-.93.25-.46.4-.6.7c-.14.3-.21.66-.21,1.07s.07.76.21,1.07c.14.3.34.54.6.71.26.17.57.25.93.25Z"/><path d="m111.64,460.28c-.44,0-.82-.09-1.13-.27s-.56-.44-.72-.78c-.16-.34-.25-.75-.25-1.24v-3.73h1.18v3.36c0,.35.04.65.13.89.09.24.23.43.41.55s.43.19.71.19c.34,0,.61-.08.82-.25s.37-.42.47-.75.16-.75.16-1.24v-2.75h1.16v5.92h-1.16v-1.27l.24.05c-.18.44-.44.77-.8,1-.36.22-.77.34-1.22.34Z"/><path d="m116.25,460.17v-5.92h1.19v1.6l-.25.05c.04-.35.16-.66.37-.92.2-.26.45-.46.73-.61.28-.15.56-.22.83-.22.19,0,.37.02.55.07.17.04.35.12.52.22l-.58,1.06c-.09-.05-.2-.09-.34-.12-.14-.03-.26-.05-.38-.05-.18,0-.36.03-.54.1-.18.06-.33.17-.47.31-.14.14-.25.33-.32.56-.03.11-.06.26-.08.44-.02.18-.03.43-.03.74v2.7h-1.19Z"/><path d="m123.39,460.28c-.45,0-.85-.08-1.19-.25-.35-.16-.64-.39-.88-.68-.24-.29-.41-.62-.53-.98-.12-.37-.18-.76-.18-1.16s.06-.78.18-1.15c.12-.37.3-.7.53-.98s.53-.51.88-.68c.35-.16.75-.25,1.19-.25.58,0,1.08.14,1.51.42.43.28.74.7.94,1.27l-1.03.4c-.1-.31-.27-.57-.5-.77s-.54-.3-.91-.3-.67.1-.91.29c-.24.2-.42.45-.53.76-.11.31-.17.64-.17.99s.06.68.17,1c.11.31.29.56.53.76.24.19.54.29.91.29s.68-.1.91-.29.4-.45.5-.77l1.03.4c-.2.58-.51,1-.94,1.28-.43.28-.93.42-1.51.42Z"/><path d="m129.65,460.28c-.48,0-.9-.08-1.25-.24s-.64-.38-.88-.67-.41-.61-.52-.97c-.12-.36-.17-.75-.17-1.15s.06-.79.17-1.16c.11-.37.28-.7.5-1s.51-.52.85-.7c.34-.17.74-.26,1.21-.26s.86.08,1.2.23.61.37.83.65c.22.28.38.59.49.93.11.34.16.71.16,1.09,0,.04,0,.11,0,.22,0,.11-.01.21-.03.31h-4.19c.02.53.19.93.49,1.22.3.28.7.43,1.19.43.34,0,.64-.05.9-.16.26-.11.51-.28.73-.51l.72.74c-.23.23-.47.42-.71.56-.24.14-.5.25-.77.32-.27.07-.57.1-.91.1Zm1.42-3.29c.02-.06.03-.13.03-.19,0-.06,0-.13,0-.19,0-.18-.03-.36-.1-.54-.06-.18-.16-.33-.29-.47-.13-.14-.29-.25-.47-.34s-.41-.13-.65-.13c-.33,0-.61.07-.84.22-.23.15-.41.34-.53.58-.12.24-.2.5-.22.78h3.46l-.38.28Z"/><path d="m135.58,460.28c-.42,0-.78-.06-1.1-.19-.32-.12-.59-.28-.82-.48-.23-.2-.41-.4-.55-.61l.8-.7c.15.27.37.51.65.7.28.2.63.29,1.03.29.35,0,.63-.07.83-.22.2-.15.31-.34.31-.58,0-.19-.06-.35-.19-.46s-.3-.21-.5-.29c-.21-.08-.44-.14-.68-.2-.22-.06-.45-.14-.68-.22s-.44-.18-.63-.31-.34-.28-.46-.48c-.12-.2-.17-.44-.17-.73,0-.5.19-.91.58-1.22.39-.31.9-.46,1.54-.46.46,0,.87.09,1.25.28.38.19.67.47.88.83l-.73.56c-.16-.26-.37-.46-.62-.58s-.53-.18-.82-.18c-.28,0-.51.06-.7.17s-.28.27-.28.47c0,.14.04.26.13.35s.22.17.4.24c.18.07.4.13.67.2.25.06.5.12.76.2s.49.18.71.31c.22.13.39.3.53.52.14.22.2.5.2.84,0,.38-.1.71-.29.99-.19.28-.46.51-.8.67-.34.16-.75.24-1.21.24Z"/><path d="m249.46,460.17v-7.27h-2.74v-1.09h6.7v1.09h-2.72v7.27h-1.24Z"/><path d="m255.26,460.28c-.44,0-.83-.08-1.16-.24s-.6-.38-.78-.67c-.18-.28-.28-.61-.28-.99,0-.33.07-.61.2-.85.14-.24.31-.42.53-.55.2-.13.43-.22.69-.27.26-.05.54-.08.83-.08h1.88v.89h-1.72c-.16,0-.33.01-.5.04-.17.03-.32.09-.44.17-.1.07-.17.16-.23.27-.06.11-.08.23-.08.38,0,.28.11.5.32.67.22.17.5.25.86.25.3,0,.58-.07.83-.21.25-.14.45-.33.61-.58s.23-.52.23-.83l.42.55c-.07.42-.21.78-.42,1.09s-.47.54-.77.7c-.31.16-.65.24-1.04.24Zm1.91-.11l-.1-1.09v-2.63c0-.42-.12-.74-.36-.96-.24-.22-.59-.34-1.04-.34-.32,0-.63.06-.92.19-.29.13-.57.34-.83.62l-.73-.76c.35-.37.74-.64,1.17-.81.43-.17.89-.26,1.4-.26.79,0,1.41.2,1.84.61s.65.97.65,1.7v3.72h-1.08Z"/><path d="m259.81,460.17v-5.92h1.19v1.6l-.25.05c.04-.35.16-.66.37-.92.2-.26.45-.46.73-.61.28-.15.56-.22.83-.22.19,0,.37.02.55.07.17.04.35.12.52.22l-.58,1.06c-.09-.05-.2-.09-.34-.12-.14-.03-.26-.05-.38-.05-.18,0-.36.03-.54.1-.18.06-.33.17-.47.31-.14.14-.25.33-.32.56-.03.11-.06.26-.08.44-.02.18-.03.43-.03.74v2.7h-1.19Z"/><path d="m266.92,462.73c-.86,0-1.53-.16-2.03-.47-.5-.31-.75-.74-.75-1.3,0-.04,0-.09,0-.16,0-.06.01-.13.03-.19l1.54-1.06.36.3-.82,1.01s-.01.06-.01.08v.07c0,.29.16.5.48.65.32.14.72.22,1.2.22.42,0,.77-.06,1.03-.17.26-.12.4-.3.4-.56,0-.14-.04-.25-.12-.34s-.2-.16-.36-.21-.35-.1-.57-.13c-.22-.04-.47-.07-.76-.11-.37-.06-.72-.14-1.07-.24-.34-.1-.63-.26-.85-.46-.22-.2-.34-.47-.34-.81,0-.29.1-.55.31-.8.2-.24.47-.44.8-.59l.67.47c-.25.06-.43.15-.54.27-.11.12-.17.27-.17.45,0,.14.05.26.16.35.11.09.26.16.46.2.2.05.44.09.72.13.39.06.76.12,1.1.18s.64.15.9.27c.26.12.46.27.6.47.14.2.21.45.21.76,0,.56-.23.99-.68,1.28-.45.3-1.09.44-1.9.44Zm-.13-4.34c-.47,0-.89-.09-1.24-.27-.36-.18-.63-.43-.83-.74-.2-.32-.3-.68-.3-1.09s.1-.8.31-1.12.49-.57.85-.75.75-.27,1.18-.27.8.09,1.16.27.64.43.85.76.32.71.32,1.15c0,.42-.1.78-.29,1.09-.2.31-.47.55-.81.71s-.74.25-1.19.25Zm-.02-.94c.37,0,.65-.11.85-.34.2-.23.3-.51.3-.83,0-.35-.11-.63-.32-.85s-.49-.32-.83-.32-.65.11-.86.32c-.22.22-.32.49-.32.83s.1.62.31.85c.21.23.5.34.88.34Zm1.93-2.04l-.85-.56,1.3-1.04.59.73-1.03.88Z"/><path d="m273.13,460.28c-.48,0-.9-.08-1.25-.24s-.64-.38-.88-.67-.41-.61-.52-.97c-.12-.36-.17-.75-.17-1.15s.06-.79.17-1.16c.11-.37.28-.7.5-1s.51-.52.85-.7c.34-.17.74-.26,1.21-.26s.86.08,1.2.23.61.37.83.65c.22.28.38.59.49.93.11.34.16.71.16,1.09,0,.04,0,.11,0,.22,0,.11-.01.21-.03.31h-4.19c.02.53.19.93.49,1.22.3.28.7.43,1.19.43.34,0,.64-.05.9-.16.26-.11.51-.28.73-.51l.72.74c-.23.23-.47.42-.71.56-.24.14-.5.25-.77.32-.27.07-.57.1-.91.1Zm1.42-3.29c.02-.06.03-.13.03-.19,0-.06,0-.13,0-.19,0-.18-.03-.36-.1-.54-.06-.18-.16-.33-.29-.47-.13-.14-.29-.25-.47-.34s-.41-.13-.65-.13c-.33,0-.61.07-.84.22-.23.15-.41.34-.53.58-.12.24-.2.5-.22.78h3.46l-.38.28Z"/><path d="m276.32,455.17v-.91h3.71v.91h-3.71Zm2.76,5.11c-.29,0-.55-.06-.8-.17-.24-.11-.44-.29-.58-.55-.14-.25-.21-.58-.21-.98v-5.84l1.19-.66v6.19c0,.33.05.58.15.76.1.18.29.27.56.27.08,0,.17,0,.28-.03.11-.02.23-.05.35-.08v.91c-.16.06-.32.1-.48.13-.16.03-.32.04-.47.04Z"/><path d="m283.24,460.28c-.42,0-.78-.06-1.1-.19-.32-.12-.59-.28-.82-.48-.23-.2-.41-.4-.55-.61l.8-.7c.15.27.37.51.65.7.28.2.63.29,1.03.29.35,0,.63-.07.83-.22.2-.15.31-.34.31-.58,0-.19-.06-.35-.19-.46s-.3-.21-.5-.29c-.21-.08-.44-.14-.68-.2-.22-.06-.45-.14-.68-.22s-.44-.18-.63-.31-.34-.28-.46-.48c-.12-.2-.17-.44-.17-.73,0-.5.19-.91.58-1.22.39-.31.9-.46,1.54-.46.46,0,.87.09,1.25.28.38.19.67.47.88.83l-.73.56c-.16-.26-.37-.46-.62-.58s-.53-.18-.82-.18c-.28,0-.51.06-.7.17s-.28.27-.28.47c0,.14.04.26.13.35s.22.17.4.24c.18.07.4.13.67.2.25.06.5.12.76.2s.49.18.71.31c.22.13.39.3.53.52.14.22.2.5.2.84,0,.38-.1.71-.29.99-.19.28-.46.51-.8.67-.34.16-.75.24-1.21.24Z"/><path d="m83.76,200.67l3.25-8.36h.95l3.24,8.36h-1.33l-2.38-6.59-2.39,6.59h-1.34Zm1.92-1.86l.37-1.09h2.86l.41,1.09h-3.64Z"/><path d="m94.55,200.78c-.54,0-1-.13-1.39-.4-.39-.27-.7-.64-.92-1.1-.22-.47-.33-.99-.33-1.57,0-.63.12-1.18.35-1.63.24-.46.55-.81.95-1.06.4-.25.84-.37,1.33-.37.35,0,.67.07.97.22.29.14.54.34.74.6.2.26.34.56.42.9l-.3.1v-4.15h1.16v8.36h-1.16v-1.7h.35c-.1.4-.26.72-.47.99-.21.27-.46.47-.75.61-.29.14-.61.21-.95.21Zm.24-1.08c.34,0,.64-.08.89-.25s.45-.4.59-.7.21-.65.21-1.04-.07-.74-.21-1.04-.34-.53-.59-.7-.55-.25-.89-.25-.63.08-.89.25c-.26.16-.45.4-.59.7-.14.3-.21.65-.21,1.04s.07.74.21,1.04c.14.3.34.53.59.7.26.17.55.25.89.25Z"/><path d="m101.55,200.78c-.54,0-1-.13-1.39-.4-.39-.27-.7-.64-.92-1.1-.22-.47-.33-.99-.33-1.57,0-.63.12-1.18.35-1.63.24-.46.55-.81.95-1.06.4-.25.84-.37,1.33-.37.35,0,.67.07.97.22.29.14.54.34.74.6.2.26.34.56.42.9l-.3.1v-4.15h1.16v8.36h-1.16v-1.7h.35c-.1.4-.26.72-.47.99-.21.27-.46.47-.75.61-.29.14-.61.21-.95.21Zm.24-1.08c.34,0,.64-.08.89-.25s.45-.4.59-.7.21-.65.21-1.04-.07-.74-.21-1.04-.34-.53-.59-.7-.55-.25-.89-.25-.63.08-.89.25c-.26.16-.45.4-.59.7-.14.3-.21.65-.21,1.04s.07.74.21,1.04c.14.3.34.53.59.7.26.17.55.25.89.25Z"/><path d="m111.81,200.81c-.52,0-.98-.08-1.39-.24-.41-.16-.73-.4-.97-.71-.24-.32-.35-.7-.35-1.15,0-.36.08-.68.23-.96s.35-.53.59-.74c.24-.21.51-.41.8-.58s.58-.34.87-.5c.33-.18.63-.37.89-.55.27-.18.48-.38.64-.59.16-.21.24-.45.24-.73,0-.24-.08-.45-.23-.63-.16-.18-.41-.27-.75-.27s-.6.1-.81.29c-.21.19-.32.45-.32.77,0,.19.04.38.13.56.09.18.19.36.32.52s.25.32.37.46l-.94.48c-.14-.17-.29-.35-.45-.56-.16-.2-.29-.43-.4-.68s-.16-.52-.16-.83c0-.4.1-.74.31-1.03s.48-.51.82-.67.71-.24,1.12-.24c.65,0,1.16.16,1.53.49.37.33.56.76.56,1.31,0,.46-.12.85-.35,1.18-.23.33-.53.62-.88.86-.36.25-.72.48-1.1.7-.31.18-.61.37-.88.55-.28.18-.5.38-.67.59-.17.21-.26.46-.26.75,0,.35.14.63.41.84.27.21.64.31,1.09.31.85,0,1.54-.31,2.08-.92.54-.61.91-1.47,1.12-2.59l1.04.17c-.15.95-.43,1.75-.82,2.4-.4.65-.89,1.13-1.47,1.46-.58.32-1.24.49-1.96.49Zm3.58.29l-3.71-4.32.94-.56,3.61,4.15-.84.73Z"/><path d="m120.79,200.67v-8.36h1.27l4.16,6.78h-.29v-6.78h1.21v8.36h-1.3l-4.13-6.79h.29v6.79h-1.22Z"/><path d="m131.51,200.78c-.56,0-1.06-.13-1.5-.4s-.79-.63-1.04-1.09-.38-.99-.38-1.58.12-1.12.37-1.58c.25-.46.59-.82,1.04-1.09.44-.26.95-.4,1.51-.4s1.07.13,1.5.39.77.62,1.03,1.09.38.99.38,1.58-.13,1.12-.38,1.58-.6.83-1.03,1.09c-.44.26-.93.4-1.49.4Zm0-1.04c.35,0,.66-.08.92-.25.26-.17.46-.4.6-.71.14-.3.21-.66.21-1.07s-.07-.78-.21-1.08c-.14-.3-.34-.54-.6-.7-.26-.16-.57-.25-.92-.25s-.67.08-.93.25-.46.4-.6.7c-.14.3-.21.66-.21,1.07s.07.76.21,1.07c.14.3.34.54.6.71.26.17.57.25.93.25Z"/><path d="m135.77,200.67v-5.92h1.19v1.6l-.25.05c.04-.35.16-.66.37-.92.2-.26.45-.46.73-.61.28-.15.56-.22.83-.22.19,0,.37.02.55.07.17.04.35.12.52.22l-.58,1.06c-.09-.05-.2-.09-.34-.12-.14-.03-.26-.05-.38-.05-.18,0-.36.03-.54.1-.18.06-.33.17-.47.31-.14.14-.25.33-.32.56-.03.11-.06.26-.08.44-.02.18-.03.43-.03.74v2.7h-1.19Z"/><path d="m140.73,200.67v-5.92h1.19v1.52l-.25.08c.07-.31.17-.58.3-.79.13-.22.28-.39.45-.53s.36-.24.56-.3c.2-.06.4-.1.61-.1.34,0,.65.07.93.2s.51.34.7.61c.19.28.31.64.38,1.09l-.67.13c.12-.46.28-.84.47-1.14.2-.3.44-.52.72-.67.28-.15.61-.22.98-.22.5,0,.89.11,1.19.34.3.22.52.51.66.87.14.36.21.75.21,1.17v3.65h-1.16v-3.36c0-.34-.04-.64-.12-.88-.08-.24-.2-.43-.37-.56-.17-.13-.39-.2-.67-.2s-.5.07-.7.21c-.19.14-.34.35-.44.63s-.15.63-.15,1.04v3.12h-1.18v-3.43c0-.53-.1-.92-.29-1.18-.2-.26-.48-.39-.85-.39-.27,0-.51.07-.7.21-.2.14-.35.35-.45.63-.1.28-.16.63-.16,1.04v3.12h-1.19Z"/><path d="m233.34,98.65l3.25-8.36h.95l3.24,8.36h-1.33l-2.38-6.59-2.39,6.59h-1.34Zm1.92-1.86l.37-1.09h2.86l.41,1.09h-3.64Z"/><path d="m244.12,98.76c-.54,0-1-.13-1.39-.4-.39-.27-.7-.64-.92-1.1-.22-.47-.33-.99-.33-1.57,0-.63.12-1.18.35-1.63.24-.46.55-.81.95-1.06.4-.25.84-.37,1.33-.37.35,0,.67.07.97.22.29.14.54.34.74.6.2.26.34.56.42.9l-.3.1v-4.15h1.16v8.36h-1.16v-1.7h.35c-.1.4-.26.72-.47.99-.21.27-.46.47-.75.61-.29.14-.61.21-.95.21Zm.24-1.08c.34,0,.64-.08.89-.25s.45-.4.59-.7.21-.65.21-1.04-.07-.74-.21-1.04-.34-.53-.59-.7-.55-.25-.89-.25-.63.08-.89.25c-.26.16-.45.4-.59.7-.14.3-.21.65-.21,1.04s.07.74.21,1.04c.14.3.34.53.59.7.26.17.55.25.89.25Z"/><path d="m251.12,98.76c-.54,0-1-.13-1.39-.4-.39-.27-.7-.64-.92-1.1-.22-.47-.33-.99-.33-1.57,0-.63.12-1.18.35-1.63.24-.46.55-.81.95-1.06.4-.25.84-.37,1.33-.37.35,0,.67.07.97.22.29.14.54.34.74.6.2.26.34.56.42.9l-.3.1v-4.15h1.16v8.36h-1.16v-1.7h.35c-.1.4-.26.72-.47.99-.21.27-.46.47-.75.61-.29.14-.61.21-.95.21Zm.24-1.08c.34,0,.64-.08.89-.25s.45-.4.59-.7.21-.65.21-1.04-.07-.74-.21-1.04-.34-.53-.59-.7-.55-.25-.89-.25-.63.08-.89.25c-.26.16-.45.4-.59.7-.14.3-.21.65-.21,1.04s.07.74.21,1.04c.14.3.34.53.59.7.26.17.55.25.89.25Z"/><path d="m261.38,98.79c-.52,0-.98-.08-1.39-.24-.41-.16-.73-.4-.97-.71-.24-.32-.35-.7-.35-1.15,0-.36.08-.68.23-.96s.35-.53.59-.74c.24-.21.51-.41.8-.58s.58-.34.87-.5c.33-.18.63-.37.89-.55.27-.18.48-.38.64-.59.16-.21.24-.45.24-.73,0-.24-.08-.45-.23-.63-.16-.18-.41-.27-.75-.27s-.6.1-.81.29c-.21.19-.32.45-.32.77,0,.19.04.38.13.56.09.18.19.36.32.52s.25.32.37.46l-.94.48c-.14-.17-.29-.35-.45-.56-.16-.2-.29-.43-.4-.68s-.16-.52-.16-.83c0-.4.1-.74.31-1.03s.48-.51.82-.67.71-.24,1.12-.24c.65,0,1.16.16,1.53.49.37.33.56.76.56,1.31,0,.46-.12.85-.35,1.18-.23.33-.53.62-.88.86-.36.25-.72.48-1.1.7-.31.18-.61.37-.88.55-.28.18-.5.38-.67.59-.17.21-.26.46-.26.75,0,.35.14.63.41.84.27.21.64.31,1.09.31.85,0,1.54-.31,2.08-.92.54-.61.91-1.47,1.12-2.59l1.04.17c-.15.95-.43,1.75-.82,2.4-.4.65-.89,1.13-1.47,1.46-.58.32-1.24.49-1.96.49Zm3.58.29l-3.71-4.32.94-.56,3.61,4.15-.84.73Z"/><path d="m270.37,98.65v-8.36h1.27l4.16,6.78h-.29v-6.78h1.21v8.36h-1.3l-4.13-6.79h.29v6.79h-1.22Z"/><path d="m281.08,98.76c-.56,0-1.06-.13-1.5-.4s-.79-.63-1.04-1.09-.38-.99-.38-1.58.12-1.12.37-1.58c.25-.46.59-.82,1.04-1.09.44-.26.95-.4,1.51-.4s1.07.13,1.5.39.77.62,1.03,1.09.38.99.38,1.58-.13,1.12-.38,1.58-.6.83-1.03,1.09c-.44.26-.93.4-1.49.4Zm0-1.04c.35,0,.66-.08.92-.25.26-.17.46-.4.6-.71.14-.3.21-.66.21-1.07s-.07-.78-.21-1.08c-.14-.3-.34-.54-.6-.7-.26-.16-.57-.25-.92-.25s-.67.08-.93.25-.46.4-.6.7c-.14.3-.21.66-.21,1.07s.07.76.21,1.07c.14.3.34.54.6.71.26.17.57.25.93.25Z"/><path d="m285.34,98.65v-5.92h1.19v1.6l-.25.05c.04-.35.16-.66.37-.92.2-.26.45-.46.73-.61.28-.15.56-.22.83-.22.19,0,.37.02.55.07.17.04.35.12.52.22l-.58,1.06c-.09-.05-.2-.09-.34-.12-.14-.03-.26-.05-.38-.05-.18,0-.36.03-.54.1-.18.06-.33.17-.47.31-.14.14-.25.33-.32.56-.03.11-.06.26-.08.44-.02.18-.03.43-.03.74v2.7h-1.19Z"/><path d="m290.3,98.65v-5.92h1.19v1.52l-.25.08c.07-.31.17-.58.3-.79.13-.22.28-.39.45-.53s.36-.24.56-.3c.2-.06.4-.1.61-.1.34,0,.65.07.93.2s.51.34.7.61c.19.28.31.64.38,1.09l-.67.13c.12-.46.28-.84.47-1.14.2-.3.44-.52.72-.67.28-.15.61-.22.98-.22.5,0,.89.11,1.19.34.3.22.52.51.66.87.14.36.21.75.21,1.17v3.65h-1.16v-3.36c0-.34-.04-.64-.12-.88-.08-.24-.2-.43-.37-.56-.17-.13-.39-.2-.67-.2s-.5.07-.7.21c-.19.14-.34.35-.44.63s-.15.63-.15,1.04v3.12h-1.18v-3.43c0-.53-.1-.92-.29-1.18-.2-.26-.48-.39-.85-.39-.27,0-.51.07-.7.21-.2.14-.35.35-.45.63-.1.28-.16.63-.16,1.04v3.12h-1.19Z"/><path d="m233.78,183.38l3.25-8.36h.95l3.24,8.36h-1.33l-2.38-6.59-2.39,6.59h-1.34Zm1.92-1.86l.37-1.09h2.86l.41,1.09h-3.64Z"/><path d="m244.57,183.49c-.54,0-1-.13-1.39-.4-.39-.27-.7-.64-.92-1.1-.22-.47-.33-.99-.33-1.57,0-.63.12-1.18.35-1.63.24-.46.55-.81.95-1.06.4-.25.84-.37,1.33-.37.35,0,.67.07.97.22.29.14.54.34.74.6.2.26.34.56.42.9l-.3.1v-4.15h1.16v8.36h-1.16v-1.7h.35c-.1.4-.26.72-.47.99-.21.27-.46.47-.75.61-.29.14-.61.21-.95.21Zm.24-1.08c.34,0,.64-.08.89-.25s.45-.4.59-.7.21-.65.21-1.04-.07-.74-.21-1.04-.34-.53-.59-.7-.55-.25-.89-.25-.63.08-.89.25c-.26.16-.45.4-.59.7-.14.3-.21.65-.21,1.04s.07.74.21,1.04c.14.3.34.53.59.7.26.17.55.25.89.25Z"/><path d="m251.56,183.49c-.54,0-1-.13-1.39-.4-.39-.27-.7-.64-.92-1.1-.22-.47-.33-.99-.33-1.57,0-.63.12-1.18.35-1.63.24-.46.55-.81.95-1.06.4-.25.84-.37,1.33-.37.35,0,.67.07.97.22.29.14.54.34.74.6.2.26.34.56.42.9l-.3.1v-4.15h1.16v8.36h-1.16v-1.7h.35c-.1.4-.26.72-.47.99-.21.27-.46.47-.75.61-.29.14-.61.21-.95.21Zm.24-1.08c.34,0,.64-.08.89-.25s.45-.4.59-.7.21-.65.21-1.04-.07-.74-.21-1.04-.34-.53-.59-.7-.55-.25-.89-.25-.63.08-.89.25c-.26.16-.45.4-.59.7-.14.3-.21.65-.21,1.04s.07.74.21,1.04c.14.3.34.53.59.7.26.17.55.25.89.25Z"/><path d="m261.82,183.51c-.52,0-.98-.08-1.39-.24-.41-.16-.73-.4-.97-.71-.24-.32-.35-.7-.35-1.15,0-.36.08-.68.23-.96s.35-.53.59-.74c.24-.21.51-.41.8-.58s.58-.34.87-.5c.33-.18.63-.37.89-.55.27-.18.48-.38.64-.59.16-.21.24-.45.24-.73,0-.24-.08-.45-.23-.63-.16-.18-.41-.27-.75-.27s-.6.1-.81.29c-.21.19-.32.45-.32.77,0,.19.04.38.13.56.09.18.19.36.32.52s.25.32.37.46l-.94.48c-.14-.17-.29-.35-.45-.56-.16-.2-.29-.43-.4-.68s-.16-.52-.16-.83c0-.4.1-.74.31-1.03s.48-.51.82-.67.71-.24,1.12-.24c.65,0,1.16.16,1.53.49.37.33.56.76.56,1.31,0,.46-.12.85-.35,1.18-.23.33-.53.62-.88.86-.36.25-.72.48-1.1.7-.31.18-.61.37-.88.55-.28.18-.5.38-.67.59-.17.21-.26.46-.26.75,0,.35.14.63.41.84.27.21.64.31,1.09.31.85,0,1.54-.31,2.08-.92.54-.61.91-1.47,1.12-2.59l1.04.17c-.15.95-.43,1.75-.82,2.4-.4.65-.89,1.13-1.47,1.46-.58.32-1.24.49-1.96.49Zm3.58.29l-3.71-4.32.94-.56,3.61,4.15-.84.73Z"/><path d="m270.81,183.38v-8.36h1.27l4.16,6.78h-.29v-6.78h1.21v8.36h-1.3l-4.13-6.79h.29v6.79h-1.22Z"/><path d="m281.53,183.49c-.56,0-1.06-.13-1.5-.4s-.79-.63-1.04-1.09-.38-.99-.38-1.58.12-1.12.37-1.58c.25-.46.59-.82,1.04-1.09.44-.26.95-.4,1.51-.4s1.07.13,1.5.39.77.62,1.03,1.09.38.99.38,1.58-.13,1.12-.38,1.58-.6.83-1.03,1.09c-.44.26-.93.4-1.49.4Zm0-1.04c.35,0,.66-.08.92-.25.26-.17.46-.4.6-.71.14-.3.21-.66.21-1.07s-.07-.78-.21-1.08c-.14-.3-.34-.54-.6-.7-.26-.16-.57-.25-.92-.25s-.67.08-.93.25-.46.4-.6.7c-.14.3-.21.66-.21,1.07s.07.76.21,1.07c.14.3.34.54.6.71.26.17.57.25.93.25Z"/><path d="m285.79,183.38v-5.92h1.19v1.6l-.25.05c.04-.35.16-.66.37-.92.2-.26.45-.46.73-.61.28-.15.56-.22.83-.22.19,0,.37.02.55.07.17.04.35.12.52.22l-.58,1.06c-.09-.05-.2-.09-.34-.12-.14-.03-.26-.05-.38-.05-.18,0-.36.03-.54.1-.18.06-.33.17-.47.31-.14.14-.25.33-.32.56-.03.11-.06.26-.08.44-.02.18-.03.43-.03.74v2.7h-1.19Z"/><path d="m290.74,183.38v-5.92h1.19v1.52l-.25.08c.07-.31.17-.58.3-.79.13-.22.28-.39.45-.53s.36-.24.56-.3c.2-.06.4-.1.61-.1.34,0,.65.07.93.2s.51.34.7.61c.19.28.31.64.38,1.09l-.67.13c.12-.46.28-.84.47-1.14.2-.3.44-.52.72-.67.28-.15.61-.22.98-.22.5,0,.89.11,1.19.34.3.22.52.51.66.87.14.36.21.75.21,1.17v3.65h-1.16v-3.36c0-.34-.04-.64-.12-.88-.08-.24-.2-.43-.37-.56-.17-.13-.39-.2-.67-.2s-.5.07-.7.21c-.19.14-.34.35-.44.63s-.15.63-.15,1.04v3.12h-1.18v-3.43c0-.53-.1-.92-.29-1.18-.2-.26-.48-.39-.85-.39-.27,0-.51.07-.7.21-.2.14-.35.35-.45.63-.1.28-.16.63-.16,1.04v3.12h-1.19Z"/><path d="m233.34,271.63l3.25-8.36h.95l3.24,8.36h-1.33l-2.38-6.59-2.39,6.59h-1.34Zm1.92-1.86l.37-1.09h2.86l.41,1.09h-3.64Z"/><path d="m244.12,271.74c-.54,0-1-.13-1.39-.4-.39-.27-.7-.64-.92-1.1-.22-.47-.33-.99-.33-1.57,0-.63.12-1.18.35-1.63.24-.46.55-.81.95-1.06.4-.25.84-.37,1.33-.37.35,0,.67.07.97.22.29.14.54.34.74.6.2.26.34.56.42.9l-.3.1v-4.15h1.16v8.36h-1.16v-1.7h.35c-.1.4-.26.72-.47.99-.21.27-.46.47-.75.61-.29.14-.61.21-.95.21Zm.24-1.08c.34,0,.64-.08.89-.25s.45-.4.59-.7.21-.65.21-1.04-.07-.74-.21-1.04-.34-.53-.59-.7-.55-.25-.89-.25-.63.08-.89.25c-.26.16-.45.4-.59.7-.14.3-.21.65-.21,1.04s.07.74.21,1.04c.14.3.34.53.59.7.26.17.55.25.89.25Z"/><path d="m251.12,271.74c-.54,0-1-.13-1.39-.4-.39-.27-.7-.64-.92-1.1-.22-.47-.33-.99-.33-1.57,0-.63.12-1.18.35-1.63.24-.46.55-.81.95-1.06.4-.25.84-.37,1.33-.37.35,0,.67.07.97.22.29.14.54.34.74.6.2.26.34.56.42.9l-.3.1v-4.15h1.16v8.36h-1.16v-1.7h.35c-.1.4-.26.72-.47.99-.21.27-.46.47-.75.61-.29.14-.61.21-.95.21Zm.24-1.08c.34,0,.64-.08.89-.25s.45-.4.59-.7.21-.65.21-1.04-.07-.74-.21-1.04-.34-.53-.59-.7-.55-.25-.89-.25-.63.08-.89.25c-.26.16-.45.4-.59.7-.14.3-.21.65-.21,1.04s.07.74.21,1.04c.14.3.34.53.59.7.26.17.55.25.89.25Z"/><path d="m261.38,271.77c-.52,0-.98-.08-1.39-.24-.41-.16-.73-.4-.97-.71-.24-.32-.35-.7-.35-1.15,0-.36.08-.68.23-.96s.35-.53.59-.74c.24-.21.51-.41.8-.58s.58-.34.87-.5c.33-.18.63-.37.89-.55.27-.18.48-.38.64-.59.16-.21.24-.45.24-.73,0-.24-.08-.45-.23-.63-.16-.18-.41-.27-.75-.27s-.6.1-.81.29c-.21.19-.32.45-.32.77,0,.19.04.38.13.56.09.18.19.36.32.52s.25.32.37.46l-.94.48c-.14-.17-.29-.35-.45-.56-.16-.2-.29-.43-.4-.68s-.16-.52-.16-.83c0-.4.1-.74.31-1.03s.48-.51.82-.67.71-.24,1.12-.24c.65,0,1.16.16,1.53.49.37.33.56.76.56,1.31,0,.46-.12.85-.35,1.18-.23.33-.53.62-.88.86-.36.25-.72.48-1.1.7-.31.18-.61.37-.88.55-.28.18-.5.38-.67.59-.17.21-.26.46-.26.75,0,.35.14.63.41.84.27.21.64.31,1.09.31.85,0,1.54-.31,2.08-.92.54-.61.91-1.47,1.12-2.59l1.04.17c-.15.95-.43,1.75-.82,2.4-.4.65-.89,1.13-1.47,1.46-.58.32-1.24.49-1.96.49Zm3.58.29l-3.71-4.32.94-.56,3.61,4.15-.84.73Z"/><path d="m270.37,271.63v-8.36h1.27l4.16,6.78h-.29v-6.78h1.21v8.36h-1.3l-4.13-6.79h.29v6.79h-1.22Z"/><path d="m281.08,271.74c-.56,0-1.06-.13-1.5-.4s-.79-.63-1.04-1.09-.38-.99-.38-1.58.12-1.12.37-1.58c.25-.46.59-.82,1.04-1.09.44-.26.95-.4,1.51-.4s1.07.13,1.5.39.77.62,1.03,1.09.38.99.38,1.58-.13,1.12-.38,1.58-.6.83-1.03,1.09c-.44.26-.93.4-1.49.4Zm0-1.04c.35,0,.66-.08.92-.25.26-.17.46-.4.6-.71.14-.3.21-.66.21-1.07s-.07-.78-.21-1.08c-.14-.3-.34-.54-.6-.7-.26-.16-.57-.25-.92-.25s-.67.08-.93.25-.46.4-.6.7c-.14.3-.21.66-.21,1.07s.07.76.21,1.07c.14.3.34.54.6.71.26.17.57.25.93.25Z"/><path d="m285.34,271.63v-5.92h1.19v1.6l-.25.05c.04-.35.16-.66.37-.92.2-.26.45-.46.73-.61.28-.15.56-.22.83-.22.19,0,.37.02.55.07.17.04.35.12.52.22l-.58,1.06c-.09-.05-.2-.09-.34-.12-.14-.03-.26-.05-.38-.05-.18,0-.36.03-.54.1-.18.06-.33.17-.47.31-.14.14-.25.33-.32.56-.03.11-.06.26-.08.44-.02.18-.03.43-.03.74v2.7h-1.19Z"/><path d="m290.3,271.63v-5.92h1.19v1.52l-.25.08c.07-.31.17-.58.3-.79.13-.22.28-.39.45-.53s.36-.24.56-.3c.2-.06.4-.1.61-.1.34,0,.65.07.93.2s.51.34.7.61c.19.28.31.64.38,1.09l-.67.13c.12-.46.28-.84.47-1.14.2-.3.44-.52.72-.67.28-.15.61-.22.98-.22.5,0,.89.11,1.19.34.3.22.52.51.66.87.14.36.21.75.21,1.17v3.65h-1.16v-3.36c0-.34-.04-.64-.12-.88-.08-.24-.2-.43-.37-.56-.17-.13-.39-.2-.67-.2s-.5.07-.7.21c-.19.14-.34.35-.44.63s-.15.63-.15,1.04v3.12h-1.18v-3.43c0-.53-.1-.92-.29-1.18-.2-.26-.48-.39-.85-.39-.27,0-.51.07-.7.21-.2.14-.35.35-.45.63-.1.28-.16.63-.16,1.04v3.12h-1.19Z"/><path d="m83.76,284.67l3.25-8.36h.95l3.24,8.36h-1.33l-2.38-6.59-2.39,6.59h-1.34Zm1.92-1.86l.37-1.09h2.86l.41,1.09h-3.64Z"/><path d="m94.55,284.78c-.54,0-1-.13-1.39-.4-.39-.27-.7-.64-.92-1.1-.22-.47-.33-.99-.33-1.57,0-.63.12-1.18.35-1.63.24-.46.55-.81.95-1.06.4-.25.84-.37,1.33-.37.35,0,.67.07.97.22.29.14.54.34.74.6.2.26.34.56.42.9l-.3.1v-4.15h1.16v8.36h-1.16v-1.7h.35c-.1.4-.26.72-.47.99-.21.27-.46.47-.75.61-.29.14-.61.21-.95.21Zm.24-1.08c.34,0,.64-.08.89-.25s.45-.4.59-.7.21-.65.21-1.04-.07-.74-.21-1.04-.34-.53-.59-.7-.55-.25-.89-.25-.63.08-.89.25c-.26.16-.45.4-.59.7-.14.3-.21.65-.21,1.04s.07.74.21,1.04c.14.3.34.53.59.7.26.17.55.25.89.25Z"/><path d="m101.55,284.78c-.54,0-1-.13-1.39-.4-.39-.27-.7-.64-.92-1.1-.22-.47-.33-.99-.33-1.57,0-.63.12-1.18.35-1.63.24-.46.55-.81.95-1.06.4-.25.84-.37,1.33-.37.35,0,.67.07.97.22.29.14.54.34.74.6.2.26.34.56.42.9l-.3.1v-4.15h1.16v8.36h-1.16v-1.7h.35c-.1.4-.26.72-.47.99-.21.27-.46.47-.75.61-.29.14-.61.21-.95.21Zm.24-1.08c.34,0,.64-.08.89-.25s.45-.4.59-.7.21-.65.21-1.04-.07-.74-.21-1.04-.34-.53-.59-.7-.55-.25-.89-.25-.63.08-.89.25c-.26.16-.45.4-.59.7-.14.3-.21.65-.21,1.04s.07.74.21,1.04c.14.3.34.53.59.7.26.17.55.25.89.25Z"/><path d="m111.81,284.81c-.52,0-.98-.08-1.39-.24-.41-.16-.73-.4-.97-.71-.24-.32-.35-.7-.35-1.15,0-.36.08-.68.23-.96s.35-.53.59-.74c.24-.21.51-.41.8-.58s.58-.34.87-.5c.33-.18.63-.37.89-.55.27-.18.48-.38.64-.59.16-.21.24-.45.24-.73,0-.24-.08-.45-.23-.63-.16-.18-.41-.27-.75-.27s-.6.1-.81.29c-.21.19-.32.45-.32.77,0,.19.04.38.13.56.09.18.19.36.32.52s.25.32.37.46l-.94.48c-.14-.17-.29-.35-.45-.56-.16-.2-.29-.43-.4-.68s-.16-.52-.16-.83c0-.4.1-.74.31-1.03s.48-.51.82-.67.71-.24,1.12-.24c.65,0,1.16.16,1.53.49.37.33.56.76.56,1.31,0,.46-.12.85-.35,1.18-.23.33-.53.62-.88.86-.36.25-.72.48-1.1.7-.31.18-.61.37-.88.55-.28.18-.5.38-.67.59-.17.21-.26.46-.26.75,0,.35.14.63.41.84.27.21.64.31,1.09.31.85,0,1.54-.31,2.08-.92.54-.61.91-1.47,1.12-2.59l1.04.17c-.15.95-.43,1.75-.82,2.4-.4.65-.89,1.13-1.47,1.46-.58.32-1.24.49-1.96.49Zm3.58.29l-3.71-4.32.94-.56,3.61,4.15-.84.73Z"/><path d="m120.79,284.67v-8.36h1.27l4.16,6.78h-.29v-6.78h1.21v8.36h-1.3l-4.13-6.79h.29v6.79h-1.22Z"/><path d="m131.51,284.78c-.56,0-1.06-.13-1.5-.4s-.79-.63-1.04-1.09-.38-.99-.38-1.58.12-1.12.37-1.58c.25-.46.59-.82,1.04-1.09.44-.26.95-.4,1.51-.4s1.07.13,1.5.39.77.62,1.03,1.09.38.99.38,1.58-.13,1.12-.38,1.58-.6.83-1.03,1.09c-.44.26-.93.4-1.49.4Zm0-1.04c.35,0,.66-.08.92-.25.26-.17.46-.4.6-.71.14-.3.21-.66.21-1.07s-.07-.78-.21-1.08c-.14-.3-.34-.54-.6-.7-.26-.16-.57-.25-.92-.25s-.67.08-.93.25-.46.4-.6.7c-.14.3-.21.66-.21,1.07s.07.76.21,1.07c.14.3.34.54.6.71.26.17.57.25.93.25Z"/><path d="m135.77,284.67v-5.92h1.19v1.6l-.25.05c.04-.35.16-.66.37-.92.2-.26.45-.46.73-.61.28-.15.56-.22.83-.22.19,0,.37.02.55.07.17.04.35.12.52.22l-.58,1.06c-.09-.05-.2-.09-.34-.12-.14-.03-.26-.05-.38-.05-.18,0-.36.03-.54.1-.18.06-.33.17-.47.31-.14.14-.25.33-.32.56-.03.11-.06.26-.08.44-.02.18-.03.43-.03.74v2.7h-1.19Z"/><path d="m140.73,284.67v-5.92h1.19v1.52l-.25.08c.07-.31.17-.58.3-.79.13-.22.28-.39.45-.53s.36-.24.56-.3c.2-.06.4-.1.61-.1.34,0,.65.07.93.2s.51.34.7.61c.19.28.31.64.38,1.09l-.67.13c.12-.46.28-.84.47-1.14.2-.3.44-.52.72-.67.28-.15.61-.22.98-.22.5,0,.89.11,1.19.34.3.22.52.51.66.87.14.36.21.75.21,1.17v3.65h-1.16v-3.36c0-.34-.04-.64-.12-.88-.08-.24-.2-.43-.37-.56-.17-.13-.39-.2-.67-.2s-.5.07-.7.21c-.19.14-.34.35-.44.63s-.15.63-.15,1.04v3.12h-1.18v-3.43c0-.53-.1-.92-.29-1.18-.2-.26-.48-.39-.85-.39-.27,0-.51.07-.7.21-.2.14-.35.35-.45.63-.1.28-.16.63-.16,1.04v3.12h-1.19Z"/><path d="m84.62,233.3v-8.36h2.58c.92,0,1.62.2,2.09.6.48.4.71,1,.71,1.79s-.24,1.38-.72,1.8-1.18.62-2.09.62h-1.37v3.55h-1.21Zm1.21-4.63h1.25c.54,0,.96-.11,1.26-.32.3-.21.46-.55.46-1.01s-.15-.79-.44-1c-.29-.21-.72-.31-1.28-.31h-1.25v2.64Z"/><path d="m93.51,233.41c-.56,0-1.06-.13-1.5-.4s-.79-.63-1.04-1.09-.38-.99-.38-1.58.12-1.12.37-1.58c.25-.46.59-.82,1.04-1.09.44-.26.95-.4,1.51-.4s1.07.13,1.5.39.77.62,1.03,1.09.38.99.38,1.58-.13,1.12-.38,1.58-.6.83-1.03,1.09c-.44.26-.93.4-1.49.4Zm0-1.04c.35,0,.66-.08.92-.25.26-.17.46-.4.6-.71.14-.3.21-.66.21-1.07s-.07-.78-.21-1.08c-.14-.3-.34-.54-.6-.7-.26-.16-.57-.25-.92-.25s-.67.08-.93.25-.46.4-.6.7c-.14.3-.21.66-.21,1.07s.07.76.21,1.07c.14.3.34.54.6.71.26.17.57.25.93.25Z"/><path d="m99.76,233.41c-.42,0-.78-.06-1.1-.19-.32-.12-.59-.28-.82-.48-.23-.2-.41-.4-.55-.61l.8-.7c.15.27.37.51.65.7.28.2.63.29,1.03.29.35,0,.63-.07.83-.22.2-.15.31-.34.31-.58,0-.19-.06-.35-.19-.46s-.3-.21-.5-.29c-.21-.08-.44-.14-.68-.2-.22-.06-.45-.14-.68-.22s-.44-.18-.63-.31-.34-.28-.46-.48c-.12-.2-.17-.44-.17-.73,0-.5.19-.91.58-1.22.39-.31.9-.46,1.54-.46.46,0,.87.09,1.25.28.38.19.67.47.88.83l-.73.56c-.16-.26-.37-.46-.62-.58s-.53-.18-.82-.18c-.28,0-.51.06-.7.17s-.28.27-.28.47c0,.14.04.26.13.35s.22.17.4.24c.18.07.4.13.67.2.25.06.5.12.76.2s.49.18.71.31c.22.13.39.3.53.52.14.22.2.5.2.84,0,.38-.1.71-.29.99-.19.28-.46.51-.8.67-.34.16-.75.24-1.21.24Z"/><path d="m103.33,226.37v-1.43h1.33v1.43h-1.33Zm.08,6.94v-5.92h1.18v5.92h-1.18Z"/><path d="m105.51,228.3v-.91h3.71v.91h-3.71Zm2.76,5.11c-.29,0-.55-.06-.8-.17-.24-.11-.44-.29-.58-.55-.14-.25-.21-.58-.21-.98v-5.84l1.19-.66v6.19c0,.33.05.58.15.76.1.18.29.27.56.27.08,0,.17,0,.28-.03.11-.02.23-.05.35-.08v.91c-.16.06-.32.1-.48.13-.16.03-.32.04-.47.04Z"/><path d="m110.35,226.37v-1.43h1.33v1.43h-1.33Zm.08,6.94v-5.92h1.18v5.92h-1.18Z"/><path d="m115.87,233.41c-.56,0-1.06-.13-1.5-.4s-.79-.63-1.04-1.09-.38-.99-.38-1.58.12-1.12.37-1.58c.25-.46.59-.82,1.04-1.09.44-.26.95-.4,1.51-.4s1.07.13,1.5.39.77.62,1.03,1.09.38.99.38,1.58-.13,1.12-.38,1.58-.6.83-1.03,1.09c-.44.26-.93.4-1.49.4Zm0-1.04c.35,0,.66-.08.92-.25.26-.17.46-.4.6-.71.14-.3.21-.66.21-1.07s-.07-.78-.21-1.08c-.14-.3-.34-.54-.6-.7-.26-.16-.57-.25-.92-.25s-.67.08-.93.25-.46.4-.6.7c-.14.3-.21.66-.21,1.07s.07.76.21,1.07c.14.3.34.54.6.71.26.17.57.25.93.25Z"/><path d="m120.13,233.3v-5.92h1.19v1.28l-.24.07c.1-.33.25-.6.45-.81.2-.21.43-.37.7-.49.27-.11.56-.17.87-.17.66,0,1.17.19,1.54.57.37.38.56.93.56,1.66v3.79h-1.18v-3.36c0-.57-.1-.98-.31-1.25-.2-.26-.52-.4-.94-.4-.32,0-.59.07-.8.22-.21.14-.37.37-.49.68-.11.31-.17.71-.17,1.19v2.92h-1.19Z"/><path d="m127.94,233.3l-1.78-5.92h1.25l1.13,4.13,1.31-4.13h1.02l1.31,4.1,1.14-4.1h1.25l-1.79,5.92h-1.07l-1.34-4.27-1.34,4.27h-1.08Z"/><path d="m135.58,226.37v-1.43h1.33v1.43h-1.33Zm.08,6.94v-5.92h1.18v5.92h-1.18Z"/><path d="m140.46,233.41c-.42,0-.78-.06-1.1-.19-.32-.12-.59-.28-.82-.48-.23-.2-.41-.4-.55-.61l.8-.7c.15.27.37.51.65.7.28.2.63.29,1.03.29.35,0,.63-.07.83-.22.2-.15.31-.34.31-.58,0-.19-.06-.35-.19-.46s-.3-.21-.5-.29c-.21-.08-.44-.14-.68-.2-.22-.06-.45-.14-.68-.22s-.44-.18-.63-.31-.34-.28-.46-.48c-.12-.2-.17-.44-.17-.73,0-.5.19-.91.58-1.22.39-.31.9-.46,1.54-.46.46,0,.87.09,1.25.28.38.19.67.47.88.83l-.73.56c-.16-.26-.37-.46-.62-.58s-.53-.18-.82-.18c-.28,0-.51.06-.7.17s-.28.27-.28.47c0,.14.04.26.13.35s.22.17.4.24c.18.07.4.13.67.2.25.06.5.12.76.2s.49.18.71.31c.22.13.39.3.53.52.14.22.2.5.2.84,0,.38-.1.71-.29.99-.19.28-.46.51-.8.67-.34.16-.75.24-1.21.24Z"/><path d="m146.66,233.41c-.48,0-.9-.08-1.25-.24s-.64-.38-.88-.67-.41-.61-.52-.97c-.12-.36-.17-.75-.17-1.15s.06-.79.17-1.16c.11-.37.28-.7.5-1s.51-.52.85-.7c.34-.17.74-.26,1.21-.26s.86.08,1.2.23.61.37.83.65c.22.28.38.59.49.93.11.34.16.71.16,1.09,0,.04,0,.11,0,.22,0,.11-.01.21-.03.31h-4.19c.02.53.19.93.49,1.22.3.28.7.43,1.19.43.34,0,.64-.05.9-.16.26-.11.51-.28.73-.51l.72.74c-.23.23-.47.42-.71.56-.24.14-.5.25-.77.32-.27.07-.57.1-.91.1Zm1.42-3.29c.02-.06.03-.13.03-.19,0-.06,0-.13,0-.19,0-.18-.03-.36-.1-.54-.06-.18-.16-.33-.29-.47-.13-.14-.29-.25-.47-.34s-.41-.13-.65-.13c-.33,0-.61.07-.84.22-.23.15-.41.34-.53.58-.12.24-.2.5-.22.78h3.46l-.38.28Z"/><path d="m106.81,245.3v-8.36h5.52v1.09h-4.3v2.45h3.73v1.09h-3.73v3.73h-1.22Z"/><path d="m113.57,245.3v-8.36h5.52v1.09h-4.3v2.45h3.73v1.09h-3.73v3.73h-1.22Z"/><path d="m120.33,245.3v-8.36h1.27l4.16,6.78h-.29v-6.78h1.21v8.36h-1.3l-4.13-6.79h.29v6.79h-1.22Z"/><path d="m260.1,56.92v-8.36h5.52v1.09h-4.3v2.45h3.73v1.09h-3.73v3.73h-1.22Z"/><path d="m270.33,57.08c-.78,0-1.46-.18-2.05-.54-.59-.36-1.05-.87-1.37-1.52-.33-.66-.49-1.42-.49-2.28s.16-1.62.49-2.27.79-1.16,1.37-1.52c.59-.36,1.27-.54,2.05-.54.86,0,1.6.21,2.23.64s1.08,1.01,1.35,1.76l-1.14.42c-.2-.52-.51-.93-.92-1.22s-.92-.44-1.51-.44c-.54,0-1.02.13-1.42.39-.4.26-.72.62-.94,1.09s-.33,1.03-.33,1.69.11,1.22.33,1.69c.22.47.53.84.94,1.1.4.26.88.39,1.42.39.59,0,1.1-.15,1.51-.44s.72-.7.92-1.22l1.14.41c-.27.74-.72,1.33-1.35,1.76-.63.43-1.37.65-2.23.65Z"/><path d="m88.92,316.55v-8.36h1.8l2.48,6.43h-.22l2.48-6.43h1.79v8.36h-1.22v-6.95l.11.02-2.46,6.2h-1.19l-2.46-6.2.11-.02v6.95h-1.22Z"/><path d="m101,316.66c-.44,0-.82-.09-1.13-.27s-.56-.44-.72-.78c-.16-.34-.25-.75-.25-1.24v-3.73h1.18v3.36c0,.35.04.65.13.89.09.24.23.43.41.55s.43.19.71.19c.34,0,.61-.08.82-.25s.37-.42.47-.75.16-.75.16-1.24v-2.75h1.16v5.92h-1.16v-1.27l.24.05c-.18.44-.44.77-.8,1-.36.22-.77.34-1.22.34Z"/><path d="m106.87,316.66c-.38,0-.68-.12-.92-.35-.24-.23-.36-.6-.36-1.1v-7.02h1.16v6.79c0,.21.05.36.14.45.09.09.21.14.37.14.06,0,.14,0,.22-.02s.17-.03.26-.07v1c-.14.06-.29.11-.45.14-.16.03-.29.04-.41.04Z"/><path d="m108.04,311.54v-.91h3.71v.91h-3.71Zm2.76,5.11c-.29,0-.55-.06-.8-.17-.24-.11-.44-.29-.58-.55-.14-.25-.21-.58-.21-.98v-5.84l1.19-.66v6.19c0,.33.05.58.15.76.1.18.29.27.56.27.08,0,.17,0,.28-.03.11-.02.23-.05.35-.08v.91c-.16.06-.32.1-.48.13-.16.03-.32.04-.47.04Z"/><path d="m112.88,309.61v-1.43h1.33v1.43h-1.33Zm.08,6.94v-5.92h1.18v5.92h-1.18Z"/><path d="m115.42,313.38v-.88h2.98v.88h-2.98Z"/><path d="m119.68,316.55v-8.36h1.19v3.73l-.25.08c.1-.33.26-.6.46-.82s.44-.38.71-.49c.27-.11.55-.17.86-.17.66,0,1.17.19,1.54.57.37.38.56.93.56,1.66v3.79h-1.18v-3.36c0-.57-.1-.98-.31-1.25-.2-.26-.52-.4-.94-.4-.47,0-.83.17-1.08.5s-.37.86-.37,1.59v2.92h-1.19Z"/><path d="m128.86,316.66c-.48,0-.9-.08-1.25-.24s-.64-.38-.88-.67-.41-.61-.52-.97c-.12-.36-.17-.75-.17-1.15s.06-.79.17-1.16c.11-.37.28-.7.5-1s.51-.52.85-.7c.34-.17.74-.26,1.21-.26s.86.08,1.2.23.61.37.83.65c.22.28.38.59.49.93.11.34.16.71.16,1.09,0,.04,0,.11,0,.22,0,.11-.01.21-.03.31h-4.19c.02.53.19.93.49,1.22.3.28.7.43,1.19.43.34,0,.64-.05.9-.16.26-.11.51-.28.73-.51l.72.74c-.23.23-.47.42-.71.56-.24.14-.5.25-.77.32-.27.07-.57.1-.91.1Zm1.42-3.29c.02-.06.03-.13.03-.19,0-.06,0-.13,0-.19,0-.18-.03-.36-.1-.54-.06-.18-.16-.33-.29-.47-.13-.14-.29-.25-.47-.34s-.41-.13-.65-.13c-.33,0-.61.07-.84.22-.23.15-.41.34-.53.58-.12.24-.2.5-.22.78h3.46l-.38.28Z"/><path d="m134.76,316.66c-.44,0-.83-.08-1.16-.24s-.6-.38-.78-.67c-.18-.28-.28-.61-.28-.99,0-.33.07-.61.2-.85.14-.24.31-.42.53-.55.2-.13.43-.22.69-.27.26-.05.54-.08.83-.08h1.88v.89h-1.72c-.16,0-.33.01-.5.04-.17.03-.32.09-.44.17-.1.07-.17.16-.23.27-.06.11-.08.23-.08.38,0,.28.11.5.32.67.22.17.5.25.86.25.3,0,.58-.07.83-.21.25-.14.45-.33.61-.58s.23-.52.23-.83l.42.55c-.07.42-.21.78-.42,1.09s-.47.54-.77.7c-.31.16-.65.24-1.04.24Zm1.91-.11l-.1-1.09v-2.63c0-.42-.12-.74-.36-.96-.24-.22-.59-.34-1.04-.34-.32,0-.63.06-.92.19-.29.13-.57.34-.83.62l-.73-.76c.35-.37.74-.64,1.17-.81.43-.17.89-.26,1.4-.26.79,0,1.41.2,1.84.61s.65.97.65,1.7v3.72h-1.08Z"/><path d="m141.67,316.66c-.54,0-1-.13-1.39-.4-.39-.27-.7-.64-.92-1.1-.22-.47-.33-.99-.33-1.57,0-.63.12-1.18.35-1.63.24-.46.55-.81.95-1.06.4-.25.84-.37,1.33-.37.35,0,.67.07.97.22.29.14.54.34.74.6.2.26.34.56.42.9l-.3.1v-4.15h1.16v8.36h-1.16v-1.7h.35c-.1.4-.26.72-.47.99-.21.27-.46.47-.75.61-.29.14-.61.21-.95.21Zm.24-1.08c.34,0,.64-.08.89-.25s.45-.4.59-.7.21-.65.21-1.04-.07-.74-.21-1.04-.34-.53-.59-.7-.55-.25-.89-.25-.63.08-.89.25c-.26.16-.45.4-.59.7-.14.3-.21.65-.21,1.04s.07.74.21,1.04c.14.3.34.53.59.7.26.17.55.25.89.25Z"/><path d="m92.3,328.55l3.25-8.36h.95l3.24,8.36h-1.33l-2.38-6.59-2.39,6.59h-1.34Zm1.92-1.86l.37-1.09h2.86l.41,1.09h-3.64Z"/><path d="m99.46,323.54v-.91h3.71v.91h-3.71Zm2.76,5.11c-.29,0-.55-.06-.8-.17-.24-.11-.44-.29-.58-.55-.14-.25-.21-.58-.21-.98v-5.84l1.19-.66v6.19c0,.33.05.58.15.76.1.18.29.27.56.27.08,0,.17,0,.28-.03.11-.02.23-.05.35-.08v.91c-.16.06-.32.1-.48.13-.16.03-.32.04-.47.04Z"/><path d="m103.7,323.54v-.91h3.71v.91h-3.71Zm2.76,5.11c-.29,0-.55-.06-.8-.17-.24-.11-.44-.29-.58-.55-.14-.25-.21-.58-.21-.98v-5.84l1.19-.66v6.19c0,.33.05.58.15.76.1.18.29.27.56.27.08,0,.17,0,.28-.03.11-.02.23-.05.35-.08v.91c-.16.06-.32.1-.48.13-.16.03-.32.04-.47.04Z"/><path d="m111.06,328.66c-.48,0-.9-.08-1.25-.24s-.64-.38-.88-.67-.41-.61-.52-.97c-.12-.36-.17-.75-.17-1.15s.06-.79.17-1.16c.11-.37.28-.7.5-1s.51-.52.85-.7c.34-.17.74-.26,1.21-.26s.86.08,1.2.23.61.37.83.65c.22.28.38.59.49.93.11.34.16.71.16,1.09,0,.04,0,.11,0,.22,0,.11-.01.21-.03.31h-4.19c.02.53.19.93.49,1.22.3.28.7.43,1.19.43.34,0,.64-.05.9-.16.26-.11.51-.28.73-.51l.72.74c-.23.23-.47.42-.71.56-.24.14-.5.25-.77.32-.27.07-.57.1-.91.1Zm1.42-3.29c.02-.06.03-.13.03-.19,0-.06,0-.13,0-.19,0-.18-.03-.36-.1-.54-.06-.18-.16-.33-.29-.47-.13-.14-.29-.25-.47-.34s-.41-.13-.65-.13c-.33,0-.61.07-.84.22-.23.15-.41.34-.53.58-.12.24-.2.5-.22.78h3.46l-.38.28Z"/><path d="m114.99,328.55v-5.92h1.19v1.28l-.24.07c.1-.33.25-.6.45-.81.2-.21.43-.37.7-.49.27-.11.56-.17.87-.17.66,0,1.17.19,1.54.57.37.38.56.93.56,1.66v3.79h-1.18v-3.36c0-.57-.1-.98-.31-1.25-.2-.26-.52-.4-.94-.4-.32,0-.59.07-.8.22-.21.14-.37.37-.49.68-.11.31-.17.71-.17,1.19v2.92h-1.19Z"/><path d="m120.93,323.54v-.91h3.71v.91h-3.71Zm2.76,5.11c-.29,0-.55-.06-.8-.17-.24-.11-.44-.29-.58-.55-.14-.25-.21-.58-.21-.98v-5.84l1.19-.66v6.19c0,.33.05.58.15.76.1.18.29.27.56.27.08,0,.17,0,.28-.03.11-.02.23-.05.35-.08v.91c-.16.06-.32.1-.48.13-.16.03-.32.04-.47.04Z"/><path d="m125.77,321.61v-1.43h1.33v1.43h-1.33Zm.08,6.94v-5.92h1.18v5.92h-1.18Z"/><path d="m131.29,328.66c-.56,0-1.06-.13-1.5-.4s-.79-.63-1.04-1.09-.38-.99-.38-1.58.12-1.12.37-1.58c.25-.46.59-.82,1.04-1.09.44-.26.95-.4,1.51-.4s1.07.13,1.5.39.77.62,1.03,1.09.38.99.38,1.58-.13,1.12-.38,1.58-.6.83-1.03,1.09c-.44.26-.93.4-1.49.4Zm0-1.04c.35,0,.66-.08.92-.25.26-.17.46-.4.6-.71.14-.3.21-.66.21-1.07s-.07-.78-.21-1.08c-.14-.3-.34-.54-.6-.7-.26-.16-.57-.25-.92-.25s-.67.08-.93.25-.46.4-.6.7c-.14.3-.21.66-.21,1.07s.07.76.21,1.07c.14.3.34.54.6.71.26.17.57.25.93.25Z"/><path d="m135.55,328.55v-5.92h1.19v1.28l-.24.07c.1-.33.25-.6.45-.81.2-.21.43-.37.7-.49.27-.11.56-.17.87-.17.66,0,1.17.19,1.54.57.37.38.56.93.56,1.66v3.79h-1.18v-3.36c0-.57-.1-.98-.31-1.25-.2-.26-.52-.4-.94-.4-.32,0-.59.07-.8.22-.21.14-.37.37-.49.68-.11.31-.17.71-.17,1.19v2.92h-1.19Z"/><path d="m246.25,303.77v-8.36h1.8l2.48,6.43h-.22l2.48-6.43h1.79v8.36h-1.22v-6.95l.11.02-2.46,6.2h-1.19l-2.46-6.2.11-.02v6.95h-1.22Z"/><path d="m258.27,303.88c-.44,0-.83-.08-1.16-.24s-.6-.38-.78-.67c-.18-.28-.28-.61-.28-.99,0-.33.07-.61.2-.85.14-.24.31-.42.53-.55.2-.13.43-.22.69-.27.26-.05.54-.08.83-.08h1.88v.89h-1.72c-.16,0-.33.01-.5.04-.17.03-.32.09-.44.17-.1.07-.17.16-.23.27-.06.11-.08.23-.08.38,0,.28.11.5.32.67.22.17.5.25.86.25.3,0,.58-.07.83-.21.25-.14.45-.33.61-.58s.23-.52.23-.83l.42.55c-.07.42-.21.78-.42,1.09s-.47.54-.77.7c-.31.16-.65.24-1.04.24Zm1.91-.11l-.1-1.09v-2.63c0-.42-.12-.74-.36-.96-.24-.22-.59-.34-1.04-.34-.32,0-.63.06-.92.19-.29.13-.57.34-.83.62l-.73-.76c.35-.37.74-.64,1.17-.81.43-.17.89-.26,1.4-.26.79,0,1.41.2,1.84.61s.65.97.65,1.7v3.72h-1.08Z"/><path d="m264.81,303.88c-.42,0-.78-.06-1.1-.19-.32-.12-.59-.28-.82-.48-.23-.2-.41-.4-.55-.61l.8-.7c.15.27.37.51.65.7.28.2.63.29,1.03.29.35,0,.63-.07.83-.22.2-.15.31-.34.31-.58,0-.19-.06-.35-.19-.46s-.3-.21-.5-.29c-.21-.08-.44-.14-.68-.2-.22-.06-.45-.14-.68-.22s-.44-.18-.63-.31-.34-.28-.46-.48c-.12-.2-.17-.44-.17-.73,0-.5.19-.91.58-1.22.39-.31.9-.46,1.54-.46.46,0,.87.09,1.25.28.38.19.67.47.88.83l-.73.56c-.16-.26-.37-.46-.62-.58s-.53-.18-.82-.18c-.28,0-.51.06-.7.17s-.28.27-.28.47c0,.14.04.26.13.35s.22.17.4.24c.18.07.4.13.67.2.25.06.5.12.76.2s.49.18.71.31c.22.13.39.3.53.52.14.22.2.5.2.84,0,.38-.1.71-.29.99-.19.28-.46.51-.8.67-.34.16-.75.24-1.21.24Z"/><path d="m268.47,303.77v-8.36h1.19v8.36h-1.19Zm4.03,0l-1.88-2.93-1.09,1.18v-1.5l2.58-2.66h1.5l-2.14,2.2,2.42,3.72h-1.39Z"/><path d="m277.18,303.88c-.48,0-.9-.08-1.25-.24s-.64-.38-.88-.67-.41-.61-.52-.97c-.12-.36-.17-.75-.17-1.15s.06-.79.17-1.16c.11-.37.28-.7.5-1s.51-.52.85-.7c.34-.17.74-.26,1.21-.26s.86.08,1.2.23.61.37.83.65c.22.28.38.59.49.93.11.34.16.71.16,1.09,0,.04,0,.11,0,.22,0,.11-.01.21-.03.31h-4.19c.02.53.19.93.49,1.22.3.28.7.43,1.19.43.34,0,.64-.05.9-.16.26-.11.51-.28.73-.51l.72.74c-.23.23-.47.42-.71.56-.24.14-.5.25-.77.32-.27.07-.57.1-.91.1Zm1.42-3.29c.02-.06.03-.13.03-.19,0-.06,0-.13,0-.19,0-.18-.03-.36-.1-.54-.06-.18-.16-.33-.29-.47-.13-.14-.29-.25-.47-.34s-.41-.13-.65-.13c-.33,0-.61.07-.84.22-.23.15-.41.34-.53.58-.12.24-.2.5-.22.78h3.46l-.38.28Z"/><path d="m283.48,303.88c-.54,0-1-.13-1.39-.4-.39-.27-.7-.64-.92-1.1-.22-.47-.33-.99-.33-1.57,0-.63.12-1.18.35-1.63.24-.46.55-.81.95-1.06.4-.25.84-.37,1.33-.37.35,0,.67.07.97.22.29.14.54.34.74.6.2.26.34.56.42.9l-.3.1v-4.15h1.16v8.36h-1.16v-1.7h.35c-.1.4-.26.72-.47.99-.21.27-.46.47-.75.61-.29.14-.61.21-.95.21Zm.24-1.08c.34,0,.64-.08.89-.25s.45-.4.59-.7.21-.65.21-1.04-.07-.74-.21-1.04-.34-.53-.59-.7-.55-.25-.89-.25-.63.08-.89.25c-.26.16-.45.4-.59.7-.14.3-.21.65-.21,1.04s.07.74.21,1.04c.14.3.34.53.59.7.26.17.55.25.89.25Z"/><path d="m238.49,315.77v-8.36h1.8l2.48,6.43h-.22l2.48-6.43h1.79v8.36h-1.22v-6.95l.11.02-2.46,6.2h-1.19l-2.46-6.2.11-.02v6.95h-1.22Z"/><path d="m250.57,315.88c-.44,0-.82-.09-1.13-.27s-.56-.44-.72-.78c-.16-.34-.25-.75-.25-1.24v-3.73h1.18v3.36c0,.35.04.65.13.89.09.24.23.43.41.55s.43.19.71.19c.34,0,.61-.08.82-.25s.37-.42.47-.75.16-.75.16-1.24v-2.75h1.16v5.92h-1.16v-1.27l.24.05c-.18.44-.44.77-.8,1-.36.22-.77.34-1.22.34Z"/><path d="m256.44,315.88c-.38,0-.68-.12-.92-.35-.24-.23-.36-.6-.36-1.1v-7.02h1.16v6.79c0,.21.05.36.14.45.09.09.21.14.37.14.06,0,.14,0,.22-.02s.17-.03.26-.07v1c-.14.06-.29.11-.45.14-.16.03-.29.04-.41.04Z"/><path d="m257.62,310.77v-.91h3.71v.91h-3.71Zm2.76,5.11c-.29,0-.55-.06-.8-.17-.24-.11-.44-.29-.58-.55-.14-.25-.21-.58-.21-.98v-5.84l1.19-.66v6.19c0,.33.05.58.15.76.1.18.29.27.56.27.08,0,.17,0,.28-.03.11-.02.23-.05.35-.08v.91c-.16.06-.32.1-.48.13-.16.03-.32.04-.47.04Z"/><path d="m262.45,308.83v-1.43h1.33v1.43h-1.33Zm.08,6.94v-5.92h1.18v5.92h-1.18Z"/><path d="m265,312.6v-.88h2.98v.88h-2.98Z"/><path d="m269.26,315.77v-8.36h1.19v3.73l-.25.08c.1-.33.26-.6.46-.82s.44-.38.71-.49c.27-.11.55-.17.86-.17.66,0,1.17.19,1.54.57.37.38.56.93.56,1.66v3.79h-1.18v-3.36c0-.57-.1-.98-.31-1.25-.2-.26-.52-.4-.94-.4-.47,0-.83.17-1.08.5s-.37.86-.37,1.59v2.92h-1.19Z"/><path d="m278.44,315.88c-.48,0-.9-.08-1.25-.24s-.64-.38-.88-.67-.41-.61-.52-.97c-.12-.36-.17-.75-.17-1.15s.06-.79.17-1.16c.11-.37.28-.7.5-1s.51-.52.85-.7c.34-.17.74-.26,1.21-.26s.86.08,1.2.23.61.37.83.65c.22.28.38.59.49.93.11.34.16.71.16,1.09,0,.04,0,.11,0,.22,0,.11-.01.21-.03.31h-4.19c.02.53.19.93.49,1.22.3.28.7.43,1.19.43.34,0,.64-.05.9-.16.26-.11.51-.28.73-.51l.72.74c-.23.23-.47.42-.71.56-.24.14-.5.25-.77.32-.27.07-.57.1-.91.1Zm1.42-3.29c.02-.06.03-.13.03-.19,0-.06,0-.13,0-.19,0-.18-.03-.36-.1-.54-.06-.18-.16-.33-.29-.47-.13-.14-.29-.25-.47-.34s-.41-.13-.65-.13c-.33,0-.61.07-.84.22-.23.15-.41.34-.53.58-.12.24-.2.5-.22.78h3.46l-.38.28Z"/><path d="m284.33,315.88c-.44,0-.83-.08-1.16-.24s-.6-.38-.78-.67c-.18-.28-.28-.61-.28-.99,0-.33.07-.61.2-.85.14-.24.31-.42.53-.55.2-.13.43-.22.69-.27.26-.05.54-.08.83-.08h1.88v.89h-1.72c-.16,0-.33.01-.5.04-.17.03-.32.09-.44.17-.1.07-.17.16-.23.27-.06.11-.08.23-.08.38,0,.28.11.5.32.67.22.17.5.25.86.25.3,0,.58-.07.83-.21.25-.14.45-.33.61-.58s.23-.52.23-.83l.42.55c-.07.42-.21.78-.42,1.09s-.47.54-.77.7c-.31.16-.65.24-1.04.24Zm1.91-.11l-.1-1.09v-2.63c0-.42-.12-.74-.36-.96-.24-.22-.59-.34-1.04-.34-.32,0-.63.06-.92.19-.29.13-.57.34-.83.62l-.73-.76c.35-.37.74-.64,1.17-.81.43-.17.89-.26,1.4-.26.79,0,1.41.2,1.84.61s.65.97.65,1.7v3.72h-1.08Z"/><path d="m291.24,315.88c-.54,0-1-.13-1.39-.4-.39-.27-.7-.64-.92-1.1-.22-.47-.33-.99-.33-1.57,0-.63.12-1.18.35-1.63.24-.46.55-.81.95-1.06.4-.25.84-.37,1.33-.37.35,0,.67.07.97.22.29.14.54.34.74.6.2.26.34.56.42.9l-.3.1v-4.15h1.16v8.36h-1.16v-1.7h.35c-.1.4-.26.72-.47.99-.21.27-.46.47-.75.61-.29.14-.61.21-.95.21Zm.24-1.08c.34,0,.64-.08.89-.25s.45-.4.59-.7.21-.65.21-1.04-.07-.74-.21-1.04-.34-.53-.59-.7-.55-.25-.89-.25-.63.08-.89.25c-.26.16-.45.4-.59.7-.14.3-.21.65-.21,1.04s.07.74.21,1.04c.14.3.34.53.59.7.26.17.55.25.89.25Z"/><path d="m241.88,327.77l3.25-8.36h.95l3.24,8.36h-1.33l-2.38-6.59-2.39,6.59h-1.34Zm1.92-1.86l.37-1.09h2.86l.41,1.09h-3.64Z"/><path d="m249.04,322.77v-.91h3.71v.91h-3.71Zm2.76,5.11c-.29,0-.55-.06-.8-.17-.24-.11-.44-.29-.58-.55-.14-.25-.21-.58-.21-.98v-5.84l1.19-.66v6.19c0,.33.05.58.15.76.1.18.29.27.56.27.08,0,.17,0,.28-.03.11-.02.23-.05.35-.08v.91c-.16.06-.32.1-.48.13-.16.03-.32.04-.47.04Z"/><path d="m253.27,322.77v-.91h3.71v.91h-3.71Zm2.76,5.11c-.29,0-.55-.06-.8-.17-.24-.11-.44-.29-.58-.55-.14-.25-.21-.58-.21-.98v-5.84l1.19-.66v6.19c0,.33.05.58.15.76.1.18.29.27.56.27.08,0,.17,0,.28-.03.11-.02.23-.05.35-.08v.91c-.16.06-.32.1-.48.13-.16.03-.32.04-.47.04Z"/><path d="m260.63,327.88c-.48,0-.9-.08-1.25-.24s-.64-.38-.88-.67-.41-.61-.52-.97c-.12-.36-.17-.75-.17-1.15s.06-.79.17-1.16c.11-.37.28-.7.5-1s.51-.52.85-.7c.34-.17.74-.26,1.21-.26s.86.08,1.2.23.61.37.83.65c.22.28.38.59.49.93.11.34.16.71.16,1.09,0,.04,0,.11,0,.22,0,.11-.01.21-.03.31h-4.19c.02.53.19.93.49,1.22.3.28.7.43,1.19.43.34,0,.64-.05.9-.16.26-.11.51-.28.73-.51l.72.74c-.23.23-.47.42-.71.56-.24.14-.5.25-.77.32-.27.07-.57.1-.91.1Zm1.42-3.29c.02-.06.03-.13.03-.19,0-.06,0-.13,0-.19,0-.18-.03-.36-.1-.54-.06-.18-.16-.33-.29-.47-.13-.14-.29-.25-.47-.34s-.41-.13-.65-.13c-.33,0-.61.07-.84.22-.23.15-.41.34-.53.58-.12.24-.2.5-.22.78h3.46l-.38.28Z"/><path d="m264.57,327.77v-5.92h1.19v1.28l-.24.07c.1-.33.25-.6.45-.81.2-.21.43-.37.7-.49.27-.11.56-.17.87-.17.66,0,1.17.19,1.54.57.37.38.56.93.56,1.66v3.79h-1.18v-3.36c0-.57-.1-.98-.31-1.25-.2-.26-.52-.4-.94-.4-.32,0-.59.07-.8.22-.21.14-.37.37-.49.68-.11.31-.17.71-.17,1.19v2.92h-1.19Z"/><path d="m270.51,322.77v-.91h3.71v.91h-3.71Zm2.76,5.11c-.29,0-.55-.06-.8-.17-.24-.11-.44-.29-.58-.55-.14-.25-.21-.58-.21-.98v-5.84l1.19-.66v6.19c0,.33.05.58.15.76.1.18.29.27.56.27.08,0,.17,0,.28-.03.11-.02.23-.05.35-.08v.91c-.16.06-.32.1-.48.13-.16.03-.32.04-.47.04Z"/><path d="m275.34,320.83v-1.43h1.33v1.43h-1.33Zm.08,6.94v-5.92h1.18v5.92h-1.18Z"/><path d="m280.86,327.88c-.56,0-1.06-.13-1.5-.4s-.79-.63-1.04-1.09-.38-.99-.38-1.58.12-1.12.37-1.58c.25-.46.59-.82,1.04-1.09.44-.26.95-.4,1.51-.4s1.07.13,1.5.39.77.62,1.03,1.09.38.99.38,1.58-.13,1.12-.38,1.58-.6.83-1.03,1.09c-.44.26-.93.4-1.49.4Zm0-1.04c.35,0,.66-.08.92-.25.26-.17.46-.4.6-.71.14-.3.21-.66.21-1.07s-.07-.78-.21-1.08c-.14-.3-.34-.54-.6-.7-.26-.16-.57-.25-.92-.25s-.67.08-.93.25-.46.4-.6.7c-.14.3-.21.66-.21,1.07s.07.76.21,1.07c.14.3.34.54.6.71.26.17.57.25.93.25Z"/><path d="m285.12,327.77v-5.92h1.19v1.28l-.24.07c.1-.33.25-.6.45-.81.2-.21.43-.37.7-.49.27-.11.56-.17.87-.17.66,0,1.17.19,1.54.57.37.38.56.93.56,1.66v3.79h-1.18v-3.36c0-.57-.1-.98-.31-1.25-.2-.26-.52-.4-.94-.4-.32,0-.59.07-.8.22-.21.14-.37.37-.49.68-.11.31-.17.71-.17,1.19v2.92h-1.19Z"/><path d="m234.39,132.01v-8.36h2.58c.92,0,1.62.2,2.09.6.48.4.71,1,.71,1.79s-.24,1.38-.72,1.8-1.18.62-2.09.62h-1.37v3.55h-1.21Zm1.21-4.63h1.25c.54,0,.96-.11,1.26-.32.3-.21.46-.55.46-1.01s-.15-.79-.44-1c-.29-.21-.72-.31-1.28-.31h-1.25v2.64Z"/><path d="m243.28,132.12c-.56,0-1.06-.13-1.5-.4s-.79-.63-1.04-1.09-.38-.99-.38-1.58.12-1.12.37-1.58c.25-.46.59-.82,1.04-1.09.44-.26.95-.4,1.51-.4s1.07.13,1.5.39.77.62,1.03,1.09.38.99.38,1.58-.13,1.12-.38,1.58-.6.83-1.03,1.09c-.44.26-.93.4-1.49.4Zm0-1.04c.35,0,.66-.08.92-.25.26-.17.46-.4.6-.71.14-.3.21-.66.21-1.07s-.07-.78-.21-1.08c-.14-.3-.34-.54-.6-.7-.26-.16-.57-.25-.92-.25s-.67.08-.93.25-.46.4-.6.7c-.14.3-.21.66-.21,1.07s.07.76.21,1.07c.14.3.34.54.6.71.26.17.57.25.93.25Z"/><path d="m249.53,132.12c-.42,0-.78-.06-1.1-.19-.32-.12-.59-.28-.82-.48-.23-.2-.41-.4-.55-.61l.8-.7c.15.27.37.51.65.7.28.2.63.29,1.03.29.35,0,.63-.07.83-.22.2-.15.31-.34.31-.58,0-.19-.06-.35-.19-.46s-.3-.21-.5-.29c-.21-.08-.44-.14-.68-.2-.22-.06-.45-.14-.68-.22s-.44-.18-.63-.31-.34-.28-.46-.48c-.12-.2-.17-.44-.17-.73,0-.5.19-.91.58-1.22.39-.31.9-.46,1.54-.46.46,0,.87.09,1.25.28.38.19.67.47.88.83l-.73.56c-.16-.26-.37-.46-.62-.58s-.53-.18-.82-.18c-.28,0-.51.06-.7.17s-.28.27-.28.47c0,.14.04.26.13.35s.22.17.4.24c.18.07.4.13.67.2.25.06.5.12.76.2s.49.18.71.31c.22.13.39.3.53.52.14.22.2.5.2.84,0,.38-.1.71-.29.99-.19.28-.46.51-.8.67-.34.16-.75.24-1.21.24Z"/><path d="m253.1,125.07v-1.43h1.33v1.43h-1.33Zm.08,6.94v-5.92h1.18v5.92h-1.18Z"/><path d="m255.28,127v-.91h3.71v.91h-3.71Zm2.76,5.11c-.29,0-.55-.06-.8-.17-.24-.11-.44-.29-.58-.55-.14-.25-.21-.58-.21-.98v-5.84l1.19-.66v6.19c0,.33.05.58.15.76.1.18.29.27.56.27.08,0,.17,0,.28-.03.11-.02.23-.05.35-.08v.91c-.16.06-.32.1-.48.13-.16.03-.32.04-.47.04Z"/><path d="m260.12,125.07v-1.43h1.33v1.43h-1.33Zm.08,6.94v-5.92h1.18v5.92h-1.18Z"/><path d="m265.64,132.12c-.56,0-1.06-.13-1.5-.4s-.79-.63-1.04-1.09-.38-.99-.38-1.58.12-1.12.37-1.58c.25-.46.59-.82,1.04-1.09.44-.26.95-.4,1.51-.4s1.07.13,1.5.39.77.62,1.03,1.09.38.99.38,1.58-.13,1.12-.38,1.58-.6.83-1.03,1.09c-.44.26-.93.4-1.49.4Zm0-1.04c.35,0,.66-.08.92-.25.26-.17.46-.4.6-.71.14-.3.21-.66.21-1.07s-.07-.78-.21-1.08c-.14-.3-.34-.54-.6-.7-.26-.16-.57-.25-.92-.25s-.67.08-.93.25-.46.4-.6.7c-.14.3-.21.66-.21,1.07s.07.76.21,1.07c.14.3.34.54.6.71.26.17.57.25.93.25Z"/><path d="m269.9,132.01v-5.92h1.19v1.28l-.24.07c.1-.33.25-.6.45-.81.2-.21.43-.37.7-.49.27-.11.56-.17.87-.17.66,0,1.17.19,1.54.57.37.38.56.93.56,1.66v3.79h-1.18v-3.36c0-.57-.1-.98-.31-1.25-.2-.26-.52-.4-.94-.4-.32,0-.59.07-.8.22-.21.14-.37.37-.49.68-.11.31-.17.71-.17,1.19v2.92h-1.19Z"/><path d="m277.71,132.01l-1.78-5.92h1.25l1.13,4.13,1.31-4.13h1.02l1.31,4.1,1.14-4.1h1.25l-1.79,5.92h-1.07l-1.34-4.27-1.34,4.27h-1.08Z"/><path d="m285.35,125.07v-1.43h1.33v1.43h-1.33Zm.08,6.94v-5.92h1.18v5.92h-1.18Z"/><path d="m290.23,132.12c-.42,0-.78-.06-1.1-.19-.32-.12-.59-.28-.82-.48-.23-.2-.41-.4-.55-.61l.8-.7c.15.27.37.51.65.7.28.2.63.29,1.03.29.35,0,.63-.07.83-.22.2-.15.31-.34.31-.58,0-.19-.06-.35-.19-.46s-.3-.21-.5-.29c-.21-.08-.44-.14-.68-.2-.22-.06-.45-.14-.68-.22s-.44-.18-.63-.31-.34-.28-.46-.48c-.12-.2-.17-.44-.17-.73,0-.5.19-.91.58-1.22.39-.31.9-.46,1.54-.46.46,0,.87.09,1.25.28.38.19.67.47.88.83l-.73.56c-.16-.26-.37-.46-.62-.58s-.53-.18-.82-.18c-.28,0-.51.06-.7.17s-.28.27-.28.47c0,.14.04.26.13.35s.22.17.4.24c.18.07.4.13.67.2.25.06.5.12.76.2s.49.18.71.31c.22.13.39.3.53.52.14.22.2.5.2.84,0,.38-.1.71-.29.99-.19.28-.46.51-.8.67-.34.16-.75.24-1.21.24Z"/><path d="m296.43,132.12c-.48,0-.9-.08-1.25-.24s-.64-.38-.88-.67-.41-.61-.52-.97c-.12-.36-.17-.75-.17-1.15s.06-.79.17-1.16c.11-.37.28-.7.5-1s.51-.52.85-.7c.34-.17.74-.26,1.21-.26s.86.08,1.2.23.61.37.83.65c.22.28.38.59.49.93.11.34.16.71.16,1.09,0,.04,0,.11,0,.22,0,.11-.01.21-.03.31h-4.19c.02.53.19.93.49,1.22.3.28.7.43,1.19.43.34,0,.64-.05.9-.16.26-.11.51-.28.73-.51l.72.74c-.23.23-.47.42-.71.56-.24.14-.5.25-.77.32-.27.07-.57.1-.91.1Zm1.42-3.29c.02-.06.03-.13.03-.19,0-.06,0-.13,0-.19,0-.18-.03-.36-.1-.54-.06-.18-.16-.33-.29-.47-.13-.14-.29-.25-.47-.34s-.41-.13-.65-.13c-.33,0-.61.07-.84.22-.23.15-.41.34-.53.58-.12.24-.2.5-.22.78h3.46l-.38.28Z"/><path d="m256.58,144.01v-8.36h5.52v1.09h-4.3v2.45h3.73v1.09h-3.73v3.73h-1.22Z"/><path d="m263.34,144.01v-8.36h5.52v1.09h-4.3v2.45h3.73v1.09h-3.73v3.73h-1.22Z"/><path d="m270.1,144.01v-8.36h1.27l4.16,6.78h-.29v-6.78h1.21v8.36h-1.3l-4.13-6.79h.29v6.79h-1.22Z"/><path d="m238.93,216.39v-8.36h1.8l2.48,6.43h-.22l2.48-6.43h1.79v8.36h-1.22v-6.95l.11.02-2.46,6.2h-1.19l-2.46-6.2.11-.02v6.95h-1.22Z"/><path d="m251.02,216.5c-.44,0-.82-.09-1.13-.27s-.56-.44-.72-.78c-.16-.34-.25-.75-.25-1.24v-3.73h1.18v3.36c0,.35.04.65.13.89.09.24.23.43.41.55s.43.19.71.19c.34,0,.61-.08.82-.25s.37-.42.47-.75.16-.75.16-1.24v-2.75h1.16v5.92h-1.16v-1.27l.24.05c-.18.44-.44.77-.8,1-.36.22-.77.34-1.22.34Z"/><path d="m256.89,216.5c-.38,0-.68-.12-.92-.35-.24-.23-.36-.6-.36-1.1v-7.02h1.16v6.79c0,.21.05.36.14.45.09.09.21.14.37.14.06,0,.14,0,.22-.02s.17-.03.26-.07v1c-.14.06-.29.11-.45.14-.16.03-.29.04-.41.04Z"/><path d="m258.06,211.39v-.91h3.71v.91h-3.71Zm2.76,5.11c-.29,0-.55-.06-.8-.17-.24-.11-.44-.29-.58-.55-.14-.25-.21-.58-.21-.98v-5.84l1.19-.66v6.19c0,.33.05.58.15.76.1.18.29.27.56.27.08,0,.17,0,.28-.03.11-.02.23-.05.35-.08v.91c-.16.06-.32.1-.48.13-.16.03-.32.04-.47.04Z"/><path d="m262.9,209.46v-1.43h1.33v1.43h-1.33Zm.08,6.94v-5.92h1.18v5.92h-1.18Z"/><path d="m265.44,213.22v-.88h2.98v.88h-2.98Z"/><path d="m269.7,216.39v-8.36h1.19v3.73l-.25.08c.1-.33.26-.6.46-.82s.44-.38.71-.49c.27-.11.55-.17.86-.17.66,0,1.17.19,1.54.57.37.38.56.93.56,1.66v3.79h-1.18v-3.36c0-.57-.1-.98-.31-1.25-.2-.26-.52-.4-.94-.4-.47,0-.83.17-1.08.5s-.37.86-.37,1.59v2.92h-1.19Z"/><path d="m278.88,216.5c-.48,0-.9-.08-1.25-.24s-.64-.38-.88-.67-.41-.61-.52-.97c-.12-.36-.17-.75-.17-1.15s.06-.79.17-1.16c.11-.37.28-.7.5-1s.51-.52.85-.7c.34-.17.74-.26,1.21-.26s.86.08,1.2.23.61.37.83.65c.22.28.38.59.49.93.11.34.16.71.16,1.09,0,.04,0,.11,0,.22,0,.11-.01.21-.03.31h-4.19c.02.53.19.93.49,1.22.3.28.7.43,1.19.43.34,0,.64-.05.9-.16.26-.11.51-.28.73-.51l.72.74c-.23.23-.47.42-.71.56-.24.14-.5.25-.77.32-.27.07-.57.1-.91.1Zm1.42-3.29c.02-.06.03-.13.03-.19,0-.06,0-.13,0-.19,0-.18-.03-.36-.1-.54-.06-.18-.16-.33-.29-.47-.13-.14-.29-.25-.47-.34s-.41-.13-.65-.13c-.33,0-.61.07-.84.22-.23.15-.41.34-.53.58-.12.24-.2.5-.22.78h3.46l-.38.28Z"/><path d="m284.77,216.5c-.44,0-.83-.08-1.16-.24s-.6-.38-.78-.67c-.18-.28-.28-.61-.28-.99,0-.33.07-.61.2-.85.14-.24.31-.42.53-.55.2-.13.43-.22.69-.27.26-.05.54-.08.83-.08h1.88v.89h-1.72c-.16,0-.33.01-.5.04-.17.03-.32.09-.44.17-.1.07-.17.16-.23.27-.06.11-.08.23-.08.38,0,.28.11.5.32.67.22.17.5.25.86.25.3,0,.58-.07.83-.21.25-.14.45-.33.61-.58s.23-.52.23-.83l.42.55c-.07.42-.21.78-.42,1.09s-.47.54-.77.7c-.31.16-.65.24-1.04.24Zm1.91-.11l-.1-1.09v-2.63c0-.42-.12-.74-.36-.96-.24-.22-.59-.34-1.04-.34-.32,0-.63.06-.92.19-.29.13-.57.34-.83.62l-.73-.76c.35-.37.74-.64,1.17-.81.43-.17.89-.26,1.4-.26.79,0,1.41.2,1.84.61s.65.97.65,1.7v3.72h-1.08Z"/><path d="m291.69,216.5c-.54,0-1-.13-1.39-.4-.39-.27-.7-.64-.92-1.1-.22-.47-.33-.99-.33-1.57,0-.63.12-1.18.35-1.63.24-.46.55-.81.95-1.06.4-.25.84-.37,1.33-.37.35,0,.67.07.97.22.29.14.54.34.74.6.2.26.34.56.42.9l-.3.1v-4.15h1.16v8.36h-1.16v-1.7h.35c-.1.4-.26.72-.47.99-.21.27-.46.47-.75.61-.29.14-.61.21-.95.21Zm.24-1.08c.34,0,.64-.08.89-.25s.45-.4.59-.7.21-.65.21-1.04-.07-.74-.21-1.04-.34-.53-.59-.7-.55-.25-.89-.25-.63.08-.89.25c-.26.16-.45.4-.59.7-.14.3-.21.65-.21,1.04s.07.74.21,1.04c.14.3.34.53.59.7.26.17.55.25.89.25Z"/><path d="m242.32,228.39l3.25-8.36h.95l3.24,8.36h-1.33l-2.38-6.59-2.39,6.59h-1.34Zm1.92-1.86l.37-1.09h2.86l.41,1.09h-3.64Z"/><path d="m249.48,223.39v-.91h3.71v.91h-3.71Zm2.76,5.11c-.29,0-.55-.06-.8-.17-.24-.11-.44-.29-.58-.55-.14-.25-.21-.58-.21-.98v-5.84l1.19-.66v6.19c0,.33.05.58.15.76.1.18.29.27.56.27.08,0,.17,0,.28-.03.11-.02.23-.05.35-.08v.91c-.16.06-.32.1-.48.13-.16.03-.32.04-.47.04Z"/><path d="m253.72,223.39v-.91h3.71v.91h-3.71Zm2.76,5.11c-.29,0-.55-.06-.8-.17-.24-.11-.44-.29-.58-.55-.14-.25-.21-.58-.21-.98v-5.84l1.19-.66v6.19c0,.33.05.58.15.76.1.18.29.27.56.27.08,0,.17,0,.28-.03.11-.02.23-.05.35-.08v.91c-.16.06-.32.1-.48.13-.16.03-.32.04-.47.04Z"/><path d="m261.07,228.5c-.48,0-.9-.08-1.25-.24s-.64-.38-.88-.67-.41-.61-.52-.97c-.12-.36-.17-.75-.17-1.15s.06-.79.17-1.16c.11-.37.28-.7.5-1s.51-.52.85-.7c.34-.17.74-.26,1.21-.26s.86.08,1.2.23.61.37.83.65c.22.28.38.59.49.93.11.34.16.71.16,1.09,0,.04,0,.11,0,.22,0,.11-.01.21-.03.31h-4.19c.02.53.19.93.49,1.22.3.28.7.43,1.19.43.34,0,.64-.05.9-.16.26-.11.51-.28.73-.51l.72.74c-.23.23-.47.42-.71.56-.24.14-.5.25-.77.32-.27.07-.57.1-.91.1Zm1.42-3.29c.02-.06.03-.13.03-.19,0-.06,0-.13,0-.19,0-.18-.03-.36-.1-.54-.06-.18-.16-.33-.29-.47-.13-.14-.29-.25-.47-.34s-.41-.13-.65-.13c-.33,0-.61.07-.84.22-.23.15-.41.34-.53.58-.12.24-.2.5-.22.78h3.46l-.38.28Z"/><path d="m265.01,228.39v-5.92h1.19v1.28l-.24.07c.1-.33.25-.6.45-.81.2-.21.43-.37.7-.49.27-.11.56-.17.87-.17.66,0,1.17.19,1.54.57.37.38.56.93.56,1.66v3.79h-1.18v-3.36c0-.57-.1-.98-.31-1.25-.2-.26-.52-.4-.94-.4-.32,0-.59.07-.8.22-.21.14-.37.37-.49.68-.11.31-.17.71-.17,1.19v2.92h-1.19Z"/><path d="m270.95,223.39v-.91h3.71v.91h-3.71Zm2.76,5.11c-.29,0-.55-.06-.8-.17-.24-.11-.44-.29-.58-.55-.14-.25-.21-.58-.21-.98v-5.84l1.19-.66v6.19c0,.33.05.58.15.76.1.18.29.27.56.27.08,0,.17,0,.28-.03.11-.02.23-.05.35-.08v.91c-.16.06-.32.1-.48.13-.16.03-.32.04-.47.04Z"/><path d="m275.79,221.46v-1.43h1.33v1.43h-1.33Zm.08,6.94v-5.92h1.18v5.92h-1.18Z"/><path d="m281.31,228.5c-.56,0-1.06-.13-1.5-.4s-.79-.63-1.04-1.09-.38-.99-.38-1.58.12-1.12.37-1.58c.25-.46.59-.82,1.04-1.09.44-.26.95-.4,1.51-.4s1.07.13,1.5.39.77.62,1.03,1.09.38.99.38,1.58-.13,1.12-.38,1.58-.6.83-1.03,1.09c-.44.26-.93.4-1.49.4Zm0-1.04c.35,0,.66-.08.92-.25.26-.17.46-.4.6-.71.14-.3.21-.66.21-1.07s-.07-.78-.21-1.08c-.14-.3-.34-.54-.6-.7-.26-.16-.57-.25-.92-.25s-.67.08-.93.25-.46.4-.6.7c-.14.3-.21.66-.21,1.07s.07.76.21,1.07c.14.3.34.54.6.71.26.17.57.25.93.25Z"/><path d="m285.57,228.39v-5.92h1.19v1.28l-.24.07c.1-.33.25-.6.45-.81.2-.21.43-.37.7-.49.27-.11.56-.17.87-.17.66,0,1.17.19,1.54.57.37.38.56.93.56,1.66v3.79h-1.18v-3.36c0-.57-.1-.98-.31-1.25-.2-.26-.52-.4-.94-.4-.32,0-.59.07-.8.22-.21.14-.37.37-.49.68-.11.31-.17.71-.17,1.19v2.92h-1.19Z"/><path d="m95.05,150.67v-8.36h5.53v1.09h-4.31v2.45h3.95v1.09h-3.95v2.64h4.31v1.09h-5.53Z"/><path d="m101.97,150.67v-5.92h1.19v1.28l-.24.07c.1-.33.25-.6.45-.81.2-.21.43-.37.7-.49.27-.11.56-.17.87-.17.66,0,1.17.19,1.54.57.37.38.56.93.56,1.66v3.79h-1.18v-3.36c0-.57-.1-.98-.31-1.25-.2-.26-.52-.4-.94-.4-.32,0-.59.07-.8.22-.21.14-.37.37-.49.68-.11.31-.17.71-.17,1.19v2.92h-1.19Z"/><path d="m111.11,150.78c-.45,0-.85-.08-1.19-.25-.35-.16-.64-.39-.88-.68-.24-.29-.41-.62-.53-.98-.12-.37-.18-.76-.18-1.16s.06-.78.18-1.15c.12-.37.3-.7.53-.98s.53-.51.88-.68c.35-.16.75-.25,1.19-.25.58,0,1.08.14,1.51.42.43.28.74.7.94,1.27l-1.03.4c-.1-.31-.27-.57-.5-.77s-.54-.3-.91-.3-.67.1-.91.29c-.24.2-.42.45-.53.76-.11.31-.17.64-.17.99s.06.68.17,1c.11.31.29.56.53.76.24.19.54.29.91.29s.68-.1.91-.29.4-.45.5-.77l1.03.4c-.2.58-.51,1-.94,1.28-.43.28-.93.42-1.51.42Z"/><path d="m117.47,150.78c-.56,0-1.06-.13-1.5-.4s-.79-.63-1.04-1.09-.38-.99-.38-1.58.12-1.12.37-1.58c.25-.46.59-.82,1.04-1.09.44-.26.95-.4,1.51-.4s1.07.13,1.5.39.77.62,1.03,1.09.38.99.38,1.58-.13,1.12-.38,1.58-.6.83-1.03,1.09c-.44.26-.93.4-1.49.4Zm0-1.04c.35,0,.66-.08.92-.25.26-.17.46-.4.6-.71.14-.3.21-.66.21-1.07s-.07-.78-.21-1.08c-.14-.3-.34-.54-.6-.7-.26-.16-.57-.25-.92-.25s-.67.08-.93.25-.46.4-.6.7c-.14.3-.21.66-.21,1.07s.07.76.21,1.07c.14.3.34.54.6.71.26.17.57.25.93.25Z"/><path d="m124.09,150.78c-.54,0-1-.13-1.39-.4-.39-.27-.7-.64-.92-1.1-.22-.47-.33-.99-.33-1.57,0-.63.12-1.18.35-1.63.24-.46.55-.81.95-1.06.4-.25.84-.37,1.33-.37.35,0,.67.07.97.22.29.14.54.34.74.6.2.26.34.56.42.9l-.3.1v-4.15h1.16v8.36h-1.16v-1.7h.35c-.1.4-.26.72-.47.99-.21.27-.46.47-.75.61-.29.14-.61.21-.95.21Zm.24-1.08c.34,0,.64-.08.89-.25s.45-.4.59-.7.21-.65.21-1.04-.07-.74-.21-1.04-.34-.53-.59-.7-.55-.25-.89-.25-.63.08-.89.25c-.26.16-.45.4-.59.7-.14.3-.21.65-.21,1.04s.07.74.21,1.04c.14.3.34.53.59.7.26.17.55.25.89.25Z"/><path d="m131.27,150.78c-.48,0-.9-.08-1.25-.24s-.64-.38-.88-.67-.41-.61-.52-.97c-.12-.36-.17-.75-.17-1.15s.06-.79.17-1.16c.11-.37.28-.7.5-1s.51-.52.85-.7c.34-.17.74-.26,1.21-.26s.86.08,1.2.23.61.37.83.65c.22.28.38.59.49.93.11.34.16.71.16,1.09,0,.04,0,.11,0,.22,0,.11-.01.21-.03.31h-4.19c.02.53.19.93.49,1.22.3.28.7.43,1.19.43.34,0,.64-.05.9-.16.26-.11.51-.28.73-.51l.72.74c-.23.23-.47.42-.71.56-.24.14-.5.25-.77.32-.27.07-.57.1-.91.1Zm1.42-3.29c.02-.06.03-.13.03-.19,0-.06,0-.13,0-.19,0-.18-.03-.36-.1-.54-.06-.18-.16-.33-.29-.47-.13-.14-.29-.25-.47-.34s-.41-.13-.65-.13c-.33,0-.61.07-.84.22-.23.15-.41.34-.53.58-.12.24-.2.5-.22.78h3.46l-.38.28Z"/><path d="m135.21,150.67v-5.92h1.19v1.6l-.25.05c.04-.35.16-.66.37-.92.2-.26.45-.46.73-.61.28-.15.56-.22.83-.22.19,0,.37.02.55.07.17.04.35.12.52.22l-.58,1.06c-.09-.05-.2-.09-.34-.12-.14-.03-.26-.05-.38-.05-.18,0-.36.03-.54.1-.18.06-.33.17-.47.31-.14.14-.25.33-.32.56-.03.11-.06.26-.08.44-.02.18-.03.43-.03.74v2.7h-1.19Z"/><path d="m244.57,26.92v-8.36h2.35c1.38,0,2.44.37,3.2,1.11.76.74,1.13,1.79,1.13,3.14s-.37,2.35-1.12,3.05-1.82,1.06-3.22,1.06h-2.34Zm1.22-1.13h1.01c.68,0,1.26-.1,1.74-.29s.85-.51,1.1-.96c.25-.45.38-1.04.38-1.79s-.12-1.33-.37-1.78c-.25-.45-.6-.78-1.07-.98-.46-.2-1.02-.31-1.67-.31h-1.12v6.11Z"/><path d="m255.18,27.03c-.48,0-.9-.08-1.25-.24s-.64-.38-.88-.67-.41-.61-.52-.97c-.12-.36-.17-.75-.17-1.15s.06-.79.17-1.16c.11-.37.28-.7.5-1s.51-.52.85-.7c.34-.17.74-.26,1.21-.26s.86.08,1.2.23.61.37.83.65c.22.28.38.59.49.93.11.34.16.71.16,1.09,0,.04,0,.11,0,.22,0,.11-.01.21-.03.31h-4.19c.02.53.19.93.49,1.22.3.28.7.43,1.19.43.34,0,.64-.05.9-.16.26-.11.51-.28.73-.51l.72.74c-.23.23-.47.42-.71.56-.24.14-.5.25-.77.32-.27.07-.57.1-.91.1Zm1.42-3.29c.02-.06.03-.13.03-.19,0-.06,0-.13,0-.19,0-.18-.03-.36-.1-.54-.06-.18-.16-.33-.29-.47-.13-.14-.29-.25-.47-.34s-.41-.13-.65-.13c-.33,0-.61.07-.84.22-.23.15-.41.34-.53.58-.12.24-.2.5-.22.78h3.46l-.38.28Z"/><path d="m261.63,27.03c-.45,0-.85-.08-1.19-.25-.35-.16-.64-.39-.88-.68-.24-.29-.41-.62-.53-.98-.12-.37-.18-.76-.18-1.16s.06-.78.18-1.15c.12-.37.3-.7.53-.98s.53-.51.88-.68c.35-.16.75-.25,1.19-.25.58,0,1.08.14,1.51.42.43.28.74.7.94,1.27l-1.03.4c-.1-.31-.27-.57-.5-.77s-.54-.3-.91-.3-.67.1-.91.29c-.24.2-.42.45-.53.76-.11.31-.17.64-.17.99s.06.68.17,1c.11.31.29.56.53.76.24.19.54.29.91.29s.68-.1.91-.29.4-.45.5-.77l1.03.4c-.2.58-.51,1-.94,1.28-.43.28-.93.42-1.51.42Z"/><path d="m267.99,27.03c-.56,0-1.06-.13-1.5-.4s-.79-.63-1.04-1.09-.38-.99-.38-1.58.12-1.12.37-1.58c.25-.46.59-.82,1.04-1.09.44-.26.95-.4,1.51-.4s1.07.13,1.5.39.77.62,1.03,1.09.38.99.38,1.58-.13,1.12-.38,1.58-.6.83-1.03,1.09c-.44.26-.93.4-1.49.4Zm0-1.04c.35,0,.66-.08.92-.25.26-.17.46-.4.6-.71.14-.3.21-.66.21-1.07s-.07-.78-.21-1.08c-.14-.3-.34-.54-.6-.7-.26-.16-.57-.25-.92-.25s-.67.08-.93.25-.46.4-.6.7c-.14.3-.21.66-.21,1.07s.07.76.21,1.07c.14.3.34.54.6.71.26.17.57.25.93.25Z"/><path d="m274.61,27.03c-.54,0-1-.13-1.39-.4-.39-.27-.7-.64-.92-1.1-.22-.47-.33-.99-.33-1.57,0-.63.12-1.18.35-1.63.24-.46.55-.81.95-1.06.4-.25.84-.37,1.33-.37.35,0,.67.07.97.22.29.14.54.34.74.6.2.26.34.56.42.9l-.3.1v-4.15h1.16v8.36h-1.16v-1.7h.35c-.1.4-.26.72-.47.99-.21.27-.46.47-.75.61-.29.14-.61.21-.95.21Zm.24-1.08c.34,0,.64-.08.89-.25s.45-.4.59-.7.21-.65.21-1.04-.07-.74-.21-1.04-.34-.53-.59-.7-.55-.25-.89-.25-.63.08-.89.25c-.26.16-.45.4-.59.7-.14.3-.21.65-.21,1.04s.07.74.21,1.04c.14.3.34.53.59.7.26.17.55.25.89.25Z"/><path d="m281.79,27.03c-.48,0-.9-.08-1.25-.24s-.64-.38-.88-.67-.41-.61-.52-.97c-.12-.36-.17-.75-.17-1.15s.06-.79.17-1.16c.11-.37.28-.7.5-1s.51-.52.85-.7c.34-.17.74-.26,1.21-.26s.86.08,1.2.23.61.37.83.65c.22.28.38.59.49.93.11.34.16.71.16,1.09,0,.04,0,.11,0,.22,0,.11-.01.21-.03.31h-4.19c.02.53.19.93.49,1.22.3.28.7.43,1.19.43.34,0,.64-.05.9-.16.26-.11.51-.28.73-.51l.72.74c-.23.23-.47.42-.71.56-.24.14-.5.25-.77.32-.27.07-.57.1-.91.1Zm1.42-3.29c.02-.06.03-.13.03-.19,0-.06,0-.13,0-.19,0-.18-.03-.36-.1-.54-.06-.18-.16-.33-.29-.47-.13-.14-.29-.25-.47-.34s-.41-.13-.65-.13c-.33,0-.61.07-.84.22-.23.15-.41.34-.53.58-.12.24-.2.5-.22.78h3.46l-.38.28Z"/><path d="m285.72,26.92v-5.92h1.19v1.6l-.25.05c.04-.35.16-.66.37-.92.2-.26.45-.46.73-.61.28-.15.56-.22.83-.22.19,0,.37.02.55.07.17.04.35.12.52.22l-.58,1.06c-.09-.05-.2-.09-.34-.12-.14-.03-.26-.05-.38-.05-.18,0-.36.03-.54.1-.18.06-.33.17-.47.31-.14.14-.25.33-.32.56-.03.11-.06.26-.08.44-.02.18-.03.43-.03.74v2.7h-1.19Z"/><path d="m25.54,271.92l.84-5.92h1.15l-.17,1.28-.24-.02c.15-.33.34-.59.56-.79.22-.2.47-.34.75-.44s.56-.14.86-.14c.59,0,1.05.15,1.38.46.33.31.49.75.49,1.33,0,.09,0,.17,0,.25,0,.08-.01.15-.03.23l-.53,3.76h-1.18l.48-3.38c.02-.1.03-.18.03-.26,0-.08,0-.16,0-.25,0-.38-.08-.66-.25-.84-.17-.18-.42-.26-.74-.26-.5,0-.9.17-1.2.52-.3.35-.51.88-.62,1.6l-.4,2.88h-1.19Z"/><path d="m36.45,271.49l-.72-.72,1.8-1.8-1.8-1.81.72-.73,1.79,1.81,1.82-1.81.72.73-1.8,1.81,1.8,1.8-.72.72-1.82-1.8-1.79,1.8Z"/><path d="m342.44,219.87l-.72-.72,1.8-1.8-1.8-1.81.72-.73,1.79,1.81,1.82-1.81.72.73-1.8,1.81,1.8,1.8-.72.72-1.82-1.8-1.79,1.8Z"/><path d="m351.13,220.3l.84-5.92h1.15l-.17,1.28-.24-.02c.15-.33.34-.59.56-.79.22-.2.47-.34.75-.44s.56-.14.86-.14c.59,0,1.05.15,1.38.46.33.31.49.75.49,1.33,0,.09,0,.17,0,.25,0,.08-.01.15-.03.23l-.53,3.76h-1.18l.48-3.38c.02-.1.03-.18.03-.26,0-.08,0-.16,0-.25,0-.38-.08-.66-.25-.84-.17-.18-.42-.26-.74-.26-.5,0-.9.17-1.2.52-.3.35-.51.88-.62,1.6l-.4,2.88h-1.19Z"/><line class="cls-3" x1="116.75" y1="380.94" x2="116.75" y2="387.56"/><line class="cls-3" x1="113.45" y1="384.25" x2="120.05" y2="384.25"/><line class="cls-3" x1="266.33" y1="380.94" x2="266.33" y2="387.56"/><line class="cls-3" x1="263.03" y1="384.25" x2="269.63" y2="384.25"/></svg>