<?xml version="1.0" encoding="utf-8"?>
<!-- Generator: Adobe Illustrator 22.1.0, SVG Export Plug-In . SVG Version: 6.00 Build 0)  -->
<svg version="1.1" id="Layer_1" xmlns="http://www.w3.org/2000/svg" xmlns:xlink="http://www.w3.org/1999/xlink" x="0px" y="0px"
	 viewBox="0 0 24 24" style="enable-background:new 0 0 24 24;" xml:space="preserve">
<g>
	<title>analytics-pie-2</title>
	<path d="M14,11c-0.552,0-1-0.449-1-1V0.5C13,0.224,13.224,0,13.5,0C19.29,0,24,4.71,24,10.5c0,0.276-0.224,0.5-0.5,0.5H14z M14,10
		h8.987C22.735,5.145,18.855,1.265,14,1.013V10z"/>
	<path d="M20.575,20.071c-0.134,0-0.259-0.052-0.354-0.146l-6.722-6.718c-0.354-0.354-0.251-0.697-0.211-0.793
		C13.329,12.316,13.499,12,14,12h9.5c0.275,0,0.5,0.224,0.5,0.499c0.005,2.766-1.115,5.472-3.072,7.426
		C20.834,20.019,20.708,20.071,20.575,20.071z M20.566,18.855c1.437-1.6,2.308-3.707,2.422-5.855h-8.28L20.566,18.855z"/>
	<path d="M10.5,24C4.71,24,0,19.29,0,13.5C0,7.71,4.71,3,10.5,3c0,0,0,0,0,0C10.775,3,11,3.229,11,3.5V13
		c0.01,0.177,0.093,0.371,0.225,0.52l6.699,6.698c0.094,0.094,0.146,0.22,0.146,0.354s-0.052,0.259-0.146,0.354
		C15.941,22.908,13.304,24,10.5,24z M10,4.013C5.014,4.275,1,8.478,1,13.5c0,5.239,4.262,9.5,9.5,9.5
		c2.363,0,4.609-0.864,6.355-2.438l-6.355-6.355c-0.302-0.335-0.475-0.75-0.499-1.179L10,4.013z"/>
</g>
</svg>
