<svg xmlns="http://www.w3.org/2000/svg" fill="none" viewBox="0 0 24 24" id="Binary--Streamline-Ultimate.svg" height="24" width="24"><desc>Binary Streamline Icon: https://streamlinehq.com</desc><path stroke="currentcolor" stroke-linecap="round" stroke-linejoin="round" d="m12 1.1582 0 9.207" stroke-width="1"></path><path stroke="currentcolor" stroke-linecap="round" stroke-linejoin="round" d="m9.69824 3.45996 0.76726 0c0.8475 0 1.5345 -0.68702 1.5345 -1.5345l0 -0.76726" stroke-width="1"></path><path stroke="currentcolor" stroke-linecap="round" stroke-linejoin="round" d="m14.3018 10.3652 -4.60356 0" stroke-width="1"></path><path stroke="currentcolor" stroke-linecap="round" stroke-linejoin="round" d="m3.55859 13.6348 0 9.207" stroke-width="1"></path><path stroke="currentcolor" stroke-linecap="round" stroke-linejoin="round" d="m1.25684 15.9365 0.76725 0c0.84748 0 1.5345 -0.687 1.5345 -1.5345l0 -0.7672" stroke-width="1"></path><path stroke="currentcolor" stroke-linecap="round" stroke-linejoin="round" d="m5.86035 22.8418 -4.60351 0" stroke-width="1"></path><path stroke="currentcolor" stroke-linecap="round" stroke-linejoin="round" d="m20.4414 13.6348 0 9.207" stroke-width="1"></path><path stroke="currentcolor" stroke-linecap="round" stroke-linejoin="round" d="m18.1396 15.9365 0.7673 0c0.8475 0 1.5345 -0.687 1.5345 -1.5345l0 -0.7672" stroke-width="1"></path><path stroke="currentcolor" stroke-linecap="round" stroke-linejoin="round" d="m22.7432 22.8418 -4.6036 0" stroke-width="1"></path><path stroke="currentcolor" stroke-linecap="round" stroke-linejoin="round" d="M1.25684 3.39602v4.73139c0 1.23592 1.0019 2.23779 2.23782 2.23779h0.12787c1.23592 0 2.23782 -1.00187 2.23782 -2.23779V3.39602c0 -1.23591 -1.0019 -2.23782 -2.23782 -2.23782h-0.12787c-1.23592 0 -2.23782 1.00191 -2.23782 2.23782Z" stroke-width="1"></path><path stroke="currentcolor" stroke-linecap="round" stroke-linejoin="round" d="M9.69824 15.8726v4.7314c0 1.2359 1.00186 2.2378 2.23786 2.2378h0.1278c1.236 0 2.2379 -1.0019 2.2379 -2.2378v-4.7314c0 -1.2359 -1.0019 -2.2378 -2.2379 -2.2378h-0.1278c-1.236 0 -2.23786 1.0019 -2.23786 2.2378Z" stroke-width="1"></path><path stroke="currentcolor" stroke-linecap="round" stroke-linejoin="round" d="M18.1396 3.39602v4.73139c0 1.23592 1.002 2.23779 2.2379 2.23779h0.1278c1.236 0 2.2379 -1.00187 2.2379 -2.23779V3.39602c0 -1.23591 -1.0019 -2.23782 -2.2379 -2.23782h-0.1278c-1.2359 0 -2.2379 1.00191 -2.2379 2.23782Z" stroke-width="1"></path></svg>