<svg id="Light" xmlns="http://www.w3.org/2000/svg" viewBox="0 0 24 24"><defs><style>.cls-1{fill:none;stroke:currentColor;stroke-linecap:round;stroke-linejoin:round;}</style></defs><title>board-game-geometry</title><polygon class="cls-1" points="3.5 13.5 13 6.5 15.5 19.5 3.5 13.5"/><polygon class="cls-1" points="15.5 19.5 23.5 10 13 6.5 4.5 2.5 3.5 13.5 6.5 23.5 15.5 19.5"/><line class="cls-1" x1="15.5" y1="19.5" x2="20" y2="22"/><path class="cls-1" d="M6.335,23.225a.5.5,0,0,0,.484.24l12.85-1.428a.5.5,0,0,0,.424-.357l3.335-11.433A.5.5,0,0,0,23.34,9.8L16.185.734a.5.5,0,0,0-.479-.183L4.785,2.45a.5.5,0,0,0-.384.322l-3.82,10.5a.5.5,0,0,0,.042.428Z"/><line class="cls-1" x1="13" y1="6.5" x2="16" y2="0.5"/><line class="cls-1" x1="0.5" y1="13.5" x2="3.5" y2="13.5"/></svg>