<svg xmlns="http://www.w3.org/2000/svg" viewBox="0 0 24 24"><defs><style>.a{fill:none;stroke:currentColor;stroke-linecap:round;stroke-linejoin:round;}</style></defs><title>brain-1</title><path class="a" d="M5.95,20.361a3.125,3.125,0,0,0,2.37-1.877"/><path class="a" d="M2.421,8.546a6.6,6.6,0,0,1,4.744,3.511"/><line class="a" x1="5.783" y1="10.229" x2="7.576" y2="8.884"/><path class="a" d="M10,.673a9.312,9.312,0,0,1-.536,2.94"/><circle class="a" cx="9" cy="4.5" r="1"/><circle class="a" cx="15" cy="6.5" r="1"/><circle class="a" cx="18.5" cy="10.5" r="1"/><circle class="a" cx="15" cy="14" r="1"/><circle class="a" cx="8.5" cy="8.5" r="1"/><circle class="a" cx="7.5" cy="13" r="1"/><path class="a" d="M23.5,12a4.045,4.045,0,0,0-1.921-3.454,4.147,4.147,0,0,0,.105-.9A3.984,3.984,0,0,0,18.05,3.639,3.062,3.062,0,0,0,15.026.5,3.607,3.607,0,0,0,12,2.5,3.607,3.607,0,0,0,8.974.5,3.062,3.062,0,0,0,5.95,3.639,3.984,3.984,0,0,0,2.316,7.648a4.147,4.147,0,0,0,.1.9,4.066,4.066,0,0,0,0,6.908,4.147,4.147,0,0,0-.1.9A3.984,3.984,0,0,0,5.95,20.361,3.062,3.062,0,0,0,8.974,23.5,3.626,3.626,0,0,0,12,22a3.626,3.626,0,0,0,3.026,1.5,3.062,3.062,0,0,0,3.024-3.139,3.984,3.984,0,0,0,3.634-4.009,4.147,4.147,0,0,0-.105-.9A4.045,4.045,0,0,0,23.5,12Z"/><line class="a" x1="12" y1="2.5" x2="12" y2="14"/><line class="a" x1="12" y1="17.958" x2="12" y2="22"/><path class="a" d="M21.173,5.663,18.4,7.051a2.941,2.941,0,0,1-2.58.026"/><path class="a" d="M15,13a3.381,3.381,0,0,1,2.5-2.5"/><path class="a" d="M18.05,20.361c-.276-.961-.747-1.7-1.55-1.861"/><circle class="a" cx="8.5" cy="17.5" r="1"/><circle class="a" cx="15.5" cy="18.5" r="1"/></svg>