<svg xmlns="http://www.w3.org/2000/svg" viewBox="0 0 24 24"><defs><style>.a{fill:none;stroke:currentColor;stroke-linecap:round;stroke-linejoin:round;}</style></defs><title>bulb-1</title><path class="a" d="M15,17.239v2.716c0,1.426-1.2,2-3,2s-3-.574-3-2V17.239"/><path class="a" d="M13,17.455v-6a1,1,0,1,1,1,1H10a1,1,0,0,1,0-2,.951.951,0,0,1,1,1v6"/><path class="a" d="M14.5,17.455a6.336,6.336,0,0,0,4-6,6.619,6.619,0,0,0-6.5-6.5,6.619,6.619,0,0,0-6.5,6.5,6.336,6.336,0,0,0,4,6Z"/><line class="a" x1="9" y1="19.455" x2="15" y2="19.455"/><line class="a" x1="12" y1="0.545" x2="12" y2="2.455"/><line class="a" x1="12" y1="21.955" x2="12" y2="23.455"/><line class="a" x1="1" y1="10.455" x2="3.291" y2="10.455"/><line class="a" x1="3.591" y1="3.045" x2="5.5" y2="4.955"/><line class="a" x1="23" y1="10.455" x2="20.709" y2="10.455"/><line class="a" x1="20.409" y1="3.045" x2="18.5" y2="4.955"/></svg>