<?xml version="1.0" encoding="utf-8"?>
<!-- Generator: Adobe Illustrator 22.1.0, SVG Export Plug-In . SVG Version: 6.00 Build 0)  -->
<svg version="1.1" id="Light" xmlns="http://www.w3.org/2000/svg" xmlns:xlink="http://www.w3.org/1999/xlink" x="0px" y="0px"
	 viewBox="0 0 24 24" style="enable-background:new 0 0 24 24;" xml:space="preserve">
<g>
	<title>chess-figures</title>
	<path d="M3.467,20.617c-0.551,0-1-0.448-1-1c0-0.067,0.007-0.134,0.02-0.2l0.38-1.898C2.871,17.5,2.876,17.48,2.883,17.46
		c0.1-0.3,0.348-0.663,0.961-0.793c-0.016-1.887,0.548-3.772,1.599-5.332c0.011-0.017,0.026-0.036,0.041-0.053
		c0.199-0.226,0.407-0.449,0.621-0.668H3.357c-1.036,0-1.26-0.684-1.475-1.345c-0.01-0.031-0.017-0.063-0.021-0.095
		C1.787,8.571,2.08,7.985,2.608,7.681l3.249-2.324V4.382c0.001-0.268,0.105-0.519,0.295-0.708c0.189-0.188,0.439-0.291,0.705-0.291
		c0.001,0,0.016-0.001,0.031-0.001c0.145,0,0.287,0.038,0.436,0.116c0.79,0.415,1.677,0.879,2.257,1.169
		c2.383,1.192,2.335,2.359,2.289,3.488l-0.007,0.177c-0.01,0.299-0.109,0.585-0.285,0.828l-2.055,2.826
		c1.276,1.248,2.083,2.892,2.292,4.668c0.652,0.119,0.913,0.494,1.016,0.804c0.007,0.021,0.012,0.041,0.016,0.062l0.38,1.897
		c0.053,0.261,0.001,0.528-0.146,0.75c-0.147,0.223-0.372,0.375-0.634,0.428c-0.065,0.014-0.133,0.021-0.201,0.021H3.467z
		 M3.468,19.615l8.781,0.002c0,0-0.373-1.861-0.373-1.861c-0.062-0.121-0.349-0.139-0.518-0.139h-7
		c-0.169,0-0.456,0.018-0.518,0.139L3.468,19.615z M10.803,16.617c-0.23-1.61-1.048-3.123-2.273-4.187
		c-0.197-0.171-0.23-0.46-0.076-0.672l2.316-3.185c0.058-0.081,0.091-0.176,0.094-0.276l0.007-0.182
		c0.042-1.03,0.068-1.651-1.737-2.553C8.557,5.274,7.66,4.805,6.858,4.384l-0.001,0l0.001,1.232c0,0.161-0.078,0.313-0.209,0.407
		l-3.5,2.5C2.945,8.641,2.842,8.819,2.85,9.014c0.197,0.601,0.219,0.601,0.507,0.601h4c0.206,0,0.394,0.13,0.468,0.323
		c0.073,0.194,0.018,0.416-0.137,0.552c-0.506,0.447-0.988,0.928-1.434,1.431c-0.92,1.377-1.417,3.035-1.411,4.696H10.803z"/>
	<path d="M14.753,20.615c-0.276,0-0.5-0.224-0.5-0.5s0.224-0.5,0.5-0.5h6.405l-0.372-1.861c-0.062-0.121-0.349-0.139-0.518-0.139
		h-6.426c-0.042,0-0.084-0.006-0.125-0.018c-0.041,0.012-0.083,0.018-0.125,0.018c-0.008,0-0.039-0.001-0.046-0.002
		c-0.274-0.025-0.477-0.269-0.452-0.543c0.083-0.907,0.203-1.731,0.359-2.455h-0.611c-0.276,0-0.5-0.224-0.5-0.5s0.224-0.5,0.5-0.5
		h0.868c0.276-0.901,0.622-1.583,1.032-2.033c-1.026-0.637-1.65-1.745-1.65-2.967c0-1.93,1.57-3.5,3.5-3.5s3.5,1.57,3.5,3.5
		c0,1.197-0.606,2.294-1.602,2.937c0.396,0.456,0.732,1.147,1.001,2.062h0.852c0.276,0,0.5,0.224,0.5,0.5s-0.224,0.5-0.5,0.5h-0.604
		c0.125,0.598,0.227,1.268,0.306,2h0.224c0.987,0,1.346,0.458,1.474,0.842c0.006,0.018,0.012,0.04,0.016,0.061l0.38,1.899
		c0.053,0.26,0.002,0.526-0.146,0.749c-0.147,0.223-0.373,0.375-0.635,0.428c-0.063,0.013-0.131,0.02-0.2,0.02H14.753z
		 M19.038,16.615c-0.083-0.743-0.191-1.414-0.323-2h-4.238c-0.136,0.584-0.247,1.255-0.331,2H19.038z M18.443,13.615
		c-0.383-1.156-0.793-1.518-0.948-1.62c-0.296,0.079-0.6,0.12-0.903,0.12c-0.265,0-0.537-0.033-0.809-0.098
		c-0.154,0.08-0.604,0.407-1.02,1.598H18.443z M16.592,6.115c-1.378,0-2.5,1.121-2.5,2.5s1.122,2.5,2.5,2.5s2.5-1.121,2.5-2.5
		S17.971,6.115,16.592,6.115z"/>
</g>
</svg>
