<svg id="Light" xmlns="http://www.w3.org/2000/svg" viewBox="0 0 24 24"><defs><style>.cls-1{fill:none;stroke:currentColor;stroke-linecap:round;stroke-linejoin:round;}</style></defs><title>chess-figures</title><path class="cls-1" d="M4.357,17.116a8.882,8.882,0,0,1,1.5-5.5,17.09,17.09,0,0,1,1.5-1.5h-4c-.672,0-.791-.36-1-1a1.012,1.012,0,0,1,.5-1l3.5-2.5V4.383a.5.5,0,0,1,.733-.441c.674.354,1.657.869,2.267,1.174,2.21,1.105,2.046,2.053,2.006,3.2a1,1,0,0,1-.19.553L8.857,12.054a7.3,7.3,0,0,1,2.5,5.062"/><path class="cls-1" d="M12.738,19.518a.5.5,0,0,1-.491.6H3.467a.5.5,0,0,1-.49-.6l.38-1.9c.136-.408.57-.5,1-.5h7c.431,0,.864.092,1,.5Z"/><path class="cls-1" d="M13.842,17.116h6.426c.43,0,.864.092,1,.5l.38,1.9a.5.5,0,0,1-.49.6H14.753"/><circle class="cls-1" cx="16.592" cy="8.616" r="3"/><line class="cls-1" x1="12.842" y1="14.116" x2="20.342" y2="14.116"/><path class="cls-1" d="M15.762,11.5s-1.67.116-2.17,5.616"/><path class="cls-1" d="M17.518,11.47s1.574.146,2.074,5.646"/></svg>