<svg xmlns="http://www.w3.org/2000/svg" viewBox="0 0 24 24" id="Coding-Apps-Website-Big-Data-Complexity--Streamline-Ultimate.svg" height="24" width="24"><desc>Coding Apps Website Big Data Complexity Streamline Icon: https://streamlinehq.com</desc><defs></defs><path d="M9.955 11.489a2.045 2.045 0 1 0 4.09 0 2.045 2.045 0 1 0 -4.09 0" fill="none" stroke="currentcolor" stroke-linecap="round" stroke-linejoin="round" stroke-width="1"></path><path d="M0.5 11.489a2.045 2.045 0 1 0 4.09 0 2.045 2.045 0 1 0 -4.09 0" fill="none" stroke="currentcolor" stroke-linecap="round" stroke-linejoin="round" stroke-width="1"></path><path d="M9.955 2.545a2.045 2.045 0 1 0 4.09 0 2.045 2.045 0 1 0 -4.09 0" fill="none" stroke="currentcolor" stroke-linecap="round" stroke-linejoin="round" stroke-width="1"></path><path d="M9.955 21.455a2.045 2.045 0 1 0 4.09 0 2.045 2.045 0 1 0 -4.09 0" fill="none" stroke="currentcolor" stroke-linecap="round" stroke-linejoin="round" stroke-width="1"></path><path d="M19.41 21.455a2.045 2.045 0 1 0 4.09 0 2.045 2.045 0 1 0 -4.09 0" fill="none" stroke="currentcolor" stroke-linecap="round" stroke-linejoin="round" stroke-width="1"></path><path d="M19.41 11.489a2.045 2.045 0 1 0 4.09 0 2.045 2.045 0 1 0 -4.09 0" fill="none" stroke="currentcolor" stroke-linecap="round" stroke-linejoin="round" stroke-width="1"></path><path d="M0.5 2.545a2.045 2.045 0 1 0 4.09 0 2.045 2.045 0 1 0 -4.09 0" fill="none" stroke="currentcolor" stroke-linecap="round" stroke-linejoin="round" stroke-width="1"></path><path d="M19.41 2.545a2.045 2.045 0 1 0 4.09 0 2.045 2.045 0 1 0 -4.09 0" fill="none" stroke="currentcolor" stroke-linecap="round" stroke-linejoin="round" stroke-width="1"></path><path d="M0.5 21.455a2.045 2.045 0 1 0 4.09 0 2.045 2.045 0 1 0 -4.09 0" fill="none" stroke="currentcolor" stroke-linecap="round" stroke-linejoin="round" stroke-width="1"></path><path d="m3.952 19.97 6.641 -6.996" fill="none" stroke="currentcolor" stroke-linecap="round" stroke-linejoin="round" stroke-width="1"></path><path d="m21.455 4.591 0 4.852" fill="none" stroke="currentcolor" stroke-linecap="round" stroke-linejoin="round" stroke-width="1"></path><path d="m14.045 11.489 5.364 0" fill="none" stroke="currentcolor" stroke-linecap="round" stroke-linejoin="round" stroke-width="1"></path><path d="m13.487 10.084 6.48 -6.134" fill="none" stroke="currentcolor" stroke-linecap="round" stroke-linejoin="round" stroke-width="1"></path><path d="m4.033 3.95 6.48 6.134" fill="none" stroke="currentcolor" stroke-linecap="round" stroke-linejoin="round" stroke-width="1"></path></svg>