<?xml version="1.0" encoding="utf-8"?>
<!-- Generator: Adobe Illustrator 22.1.0, SVG Export Plug-In . SVG Version: 6.00 Build 0)  -->
<svg version="1.1" id="Layer_1" xmlns="http://www.w3.org/2000/svg" xmlns:xlink="http://www.w3.org/1999/xlink" x="0px" y="0px"
	 viewBox="0 0 24 24" style="enable-background:new 0 0 24 24;" xml:space="preserve">
<g>
	<title>earth-2</title>
	<path d="M12,23.984c-6.617,0-12-5.383-12-12s5.383-12,12-12c3.2,0,6.212,1.25,8.481,3.518c0.009,0.006,0.027,0.025,0.046,0.048
		C22.767,5.814,24,8.809,24,11.984C24,18.601,18.617,23.984,12,23.984z M12,0.984c-6.065,0-11,4.935-11,11c0,6.066,4.935,11,11,11
		s11-4.935,11-11c0-2.651-0.95-5.188-2.685-7.19l-0.913,2.281c-0.338,0.845-1.108,1.44-2.011,1.552l-2.129,0.269l0.546,1.09
		l0.382,0.001c0.552,0,1,0.449,1,1.001c0,0.153-0.036,0.307-0.105,0.445l-1.585,3.172l0.001,2.441c0,0.744-0.328,1.444-0.9,1.92
		l-1.9,1.58c-0.18,0.147-0.405,0.228-0.637,0.228c-0.297,0-0.576-0.129-0.765-0.354l-1.532-1.838
		c-0.508-0.612-0.695-1.437-0.501-2.207l0.209-0.835l-0.779-1.557l-1.7-0.001c-1.112,0-2.074-0.715-2.395-1.779l-0.667-2.188
		C3.835,9.686,3.91,9.335,4.133,9.075l1.725-2.022c0.476-0.558,1.169-0.878,1.901-0.878c0.164,0,0.329,0.016,0.49,0.049l1.3,0.26
		l3.451,0V5.338c0-0.617-0.37-1.164-0.943-1.393l-0.283-0.113c-0.247-0.098-0.442-0.286-0.548-0.531
		c-0.106-0.245-0.111-0.517-0.013-0.765c0.084-0.212,0.239-0.39,0.437-0.502l1.688-0.966C12.891,1.012,12.443,0.984,12,0.984z
		 M7.76,7.175c-0.44,0-0.856,0.192-1.142,0.526L4.892,9.726l0.665,2.188c0.193,0.639,0.77,1.069,1.437,1.069h1.701
		c0.382,0.001,0.724,0.213,0.894,0.554l0.779,1.556c0.107,0.214,0.134,0.459,0.076,0.69l-0.209,0.836
		c-0.117,0.463-0.005,0.958,0.3,1.324l1.529,1.835l1.896-1.58c0.343-0.286,0.54-0.705,0.54-1.152V14.6
		c0.001-0.154,0.037-0.306,0.104-0.441l1.586-3.173l-0.382,0.001c-0.382,0-0.724-0.213-0.895-0.554l-0.546-1.09
		c-0.051-0.104-0.084-0.213-0.097-0.324c-0.033-0.263,0.038-0.525,0.202-0.736s0.4-0.346,0.665-0.379l2.129-0.269
		c0.542-0.068,1.004-0.425,1.207-0.931L19.556,4c-1.332-1.261-2.955-2.172-4.71-2.643l-2.7,1.545l0.283,0.115
		C13.383,3.399,14,4.31,14,5.338v1.146c0,0.551-0.448,1-1,1H9.551c-0.067,0-0.132-0.007-0.195-0.019L8.053,7.204
		C7.957,7.185,7.858,7.175,7.76,7.175z"/>
</g>
</svg>
