<svg xmlns="http://www.w3.org/2000/svg" viewBox="0 0 24 24"><defs><style>.a{fill:none;stroke:currentColor;stroke-linecap:round;stroke-linejoin:round;}</style></defs><title>earth-2</title><path class="a" d="M23.5,11.984A11.5,11.5,0,1,1,12,.484,11.5,11.5,0,0,1,23.5,11.984Z"/><path class="a" d="M20.147,3.869l-1.209,3.02a2,2,0,0,1-1.609,1.242L15.2,8.4a.5.5,0,0,0-.385.719l.546,1.091a.5.5,0,0,0,.447.277h.382a.5.5,0,0,1,.447.723l-1.585,3.171A.5.5,0,0,0,15,14.6v2.446a2,2,0,0,1-.72,1.536l-1.9,1.58a.5.5,0,0,1-.7-.064l-1.53-1.836a2,2,0,0,1-.4-1.765l.209-.836a.5.5,0,0,0-.038-.345l-.779-1.557a.5.5,0,0,0-.447-.277h-1.7a2,2,0,0,1-1.916-1.423L4.412,9.87a.5.5,0,0,1,.1-.469L6.238,7.377a2,2,0,0,1,1.913-.663l1.3.26a.554.554,0,0,0,.1.01H13a.5.5,0,0,0,.5-.5V5.338a2,2,0,0,0-1.257-1.857l-.283-.113a.5.5,0,0,1-.063-.9L14.676.878"/></svg>