<?xml version="1.0" encoding="utf-8"?>
<!-- Generator: Adobe Illustrator 22.1.0, SVG Export Plug-In . SVG Version: 6.00 Build 0)  -->
<svg version="1.1" id="Layer_1" xmlns="http://www.w3.org/2000/svg" xmlns:xlink="http://www.w3.org/1999/xlink" x="0px" y="0px"
	 viewBox="0 0 24 24" style="enable-background:new 0 0 24 24;" xml:space="preserve">
<g>
	<title>educative-toys-maths</title>
	<path d="M1,11.897c-0.551,0-1-0.449-1-1v-9c0-0.551,0.449-1,1-1h22c0.552,0,1,0.449,1,1v9c0,0.551-0.448,1-1,1H1z M1,10.897h22v-9
		H1l0,0L1,10.897z"/>
	<path d="M5.5,9.897c-1.93,0-3.5-1.57-3.5-3.5s1.57-3.5,3.5-3.5S9,4.467,9,6.397S7.43,9.897,5.5,9.897z M5.5,3.897
		c-1.379,0-2.5,1.121-2.5,2.5s1.121,2.5,2.5,2.5S8,7.776,8,6.397S6.879,3.897,5.5,3.897z"/>
	<path d="M20.5,20.397c-1.654,0-3-1.346-3-3s1.346-3,3-3s3,1.346,3,3S22.154,20.397,20.5,20.397z M20.5,15.397c-1.103,0-2,0.897-2,2
		s0.897,2,2,2s2-0.897,2-2S21.603,15.397,20.5,15.397z"/>
	<path d="M16.309,9.9c-0.552,0-1-0.449-1-1c0-0.155,0.037-0.31,0.106-0.448l2.19-4.381c0.171-0.341,0.514-0.552,0.896-0.552
		c0.156,0,0.306,0.036,0.447,0.106c0.191,0.096,0.35,0.254,0.446,0.446l2.191,4.382c0.119,0.238,0.139,0.509,0.055,0.763
		c-0.084,0.254-0.262,0.459-0.501,0.579C21,9.864,20.845,9.9,20.691,9.9H16.309z M16.309,8.9l4.382,0L18.5,4.519L16.309,8.9z"/>
	<path d="M10.023,23.104c-0.117,0-0.232-0.021-0.343-0.061c-0.251-0.092-0.452-0.275-0.564-0.518
		c-0.065-0.139-0.098-0.295-0.093-0.451l0.124-4.4c0.015-0.536,0.463-0.972,0.999-0.972c0.002,0,0.026,0,0.028,0
		c0.155,0.005,0.308,0.045,0.444,0.118l4.336,2.323c0.236,0.126,0.408,0.337,0.485,0.593c0.077,0.255,0.051,0.526-0.075,0.761
		c-0.102,0.189-0.264,0.343-0.459,0.434l-4.46,2.078C10.312,23.072,10.169,23.104,10.023,23.104z M10.023,22.103l4.459-2.077
		l-4.334-2.323L10.023,22.103z"/>
	<path d="M11,9.897c-0.551,0-1-0.449-1-1v-5c0-0.551,0.449-1,1-1h2c0.552,0,1,0.449,1,1v5c0,0.551-0.448,1-1,1H11z M11,8.897h2v-5
		h-2L11,8.897z"/>
	<path d="M3.815,21.411c-0.174,0-0.347-0.046-0.498-0.134l-1.732-1c-0.477-0.276-0.641-0.889-0.366-1.366l2.5-4.33
		c0.178-0.308,0.51-0.5,0.868-0.5c0.174,0,0.347,0.046,0.498,0.134l1.732,1c0.477,0.276,0.641,0.889,0.366,1.366l-2.5,4.33
		C4.505,21.219,4.172,21.411,3.815,21.411z M2.085,19.411l1.732,1l2.5-4.33l-1.732-1C4.585,15.08,2.085,19.411,2.085,19.411z"/>
</g>
</svg>
