<svg xmlns="http://www.w3.org/2000/svg" viewBox="0 0 24 24"><defs><style>.a{fill:none;stroke:currentColor;stroke-linecap:round;stroke-linejoin:round;}</style></defs><title>educative-toys-maths</title><rect class="a" x="7" y="-5.103" width="10" height="23" rx="0.5" ry="0.5" transform="translate(5.603 18.397) rotate(-90)"/><circle class="a" cx="5.5" cy="6.397" r="3"/><circle class="a" cx="20.5" cy="17.397" r="2.5"/><path class="a" d="M20.691,9.4H16.309a.5.5,0,0,1-.447-.724l2.191-4.382a.5.5,0,0,1,.894,0l2.191,4.382A.5.5,0,0,1,20.691,9.4Z"/><path class="a" d="M10.234,22.556a.5.5,0,0,1-.711-.468l.124-4.4a.5.5,0,0,1,.736-.427l4.335,2.323a.5.5,0,0,1-.025.894Z"/><rect class="a" x="10.5" y="3.397" width="3" height="6" rx="0.5" ry="0.5"/><rect class="a" x="2.701" y="14.745" width="3" height="6" rx="0.5" ry="0.5" transform="translate(9.435 0.277) rotate(30)"/></svg>