<svg xmlns="http://www.w3.org/2000/svg" viewBox="0 0 24 24"><defs><style>.a{fill:none;stroke:currentColor;stroke-linecap:round;stroke-linejoin:round;}</style></defs><title>library</title><rect class="a" x="2" y="0.501" width="20" height="23" rx="1" ry="1"/><line class="a" x1="2" y1="11.501" x2="22" y2="11.501"/><path class="a" d="M10,23.5H8a1,1,0,0,1-1-1v-6a.5.5,0,0,1,.5-.5H10"/><polyline class="a" points="2 4.001 5 4.001 5 11.501"/><polyline class="a" points="5 4.001 8 4.001 8 11.501 5 11.501"/><path class="a" d="M8,4h2.5a.5.5,0,0,1,.5.5v7H8"/><path class="a" d="M15.851,3.288h2a.5.5,0,0,1,.5.5v6.5a.5.5,0,0,1-.5.5h-2.5a0,0,0,0,1,0,0v-7a.5.5,0,0,1,.5-.5Z" transform="translate(-1.386 6.087) rotate(-19.684)"/><polyline class="a" points="11 5.501 14 5.501 14 11.501 11 11.501"/><path class="a" d="M19,16h3a0,0,0,0,1,0,0v6.5a1,1,0,0,1-1,1H19a0,0,0,0,1,0,0V16A0,0,0,0,1,19,16Z"/><line class="a" x1="16" y1="16.001" x2="19" y2="16.001"/><line class="a" x1="19" y1="23.501" x2="16" y2="23.501"/><path class="a" d="M10.5,14.5H13a0,0,0,0,1,0,0v9a0,0,0,0,1,0,0H10a0,0,0,0,1,0,0V15A.5.5,0,0,1,10.5,14.5Z"/><path class="a" d="M13,14.5h2.5a.5.5,0,0,1,.5.5v8.5H13"/></svg>