<?xml version="1.0" encoding="utf-8"?>
<!-- Generator: Adobe Illustrator 22.1.0, SVG Export Plug-In . SVG Version: 6.00 Build 0)  -->
<svg version="1.1" id="Layer_1" xmlns="http://www.w3.org/2000/svg" xmlns:xlink="http://www.w3.org/1999/xlink" x="0px" y="0px"
	 viewBox="0 0 24 24" style="enable-background:new 0 0 24 24;" xml:space="preserve">
<g>
	<title>library</title>
	<path d="M3,24.001c-0.827,0-1.5-0.673-1.5-1.5v-21c0-0.827,0.673-1.5,1.5-1.5h18c0.827,0,1.5,0.673,1.5,1.5V22.5
		c0,0.828-0.673,1.501-1.5,1.501H3z M18.5,23.001v-6.5h-2v6.5H18.5z M2.5,22.501c0,0.276,0.224,0.5,0.5,0.5h3.588
		C6.53,22.841,6.5,22.672,6.5,22.5v-6c0-0.552,0.449-1,1-1h2V15c0-0.552,0.449-1,1-1h5c0.552,0,1,0.448,1,1v0.501h2.479
		C18.986,15.5,18.993,15.5,19,15.5h2.5v-3.499h-19V22.501z M21,23c0.276,0,0.5-0.224,0.5-0.5v-6h-2V23H21z M15.5,23v-8h-2v8H15.5z
		 M12.5,23v-8h-2l0,8H12.5z M7.5,22.5C7.5,22.776,7.724,23,8,23h1.5v-6.5l-2,0L7.5,22.5z M21.5,11.001v-9.5
		c0-0.276-0.224-0.5-0.5-0.5H3c-0.276,0-0.5,0.224-0.5,0.5v2h5.479C7.986,3.5,7.993,3.5,8,3.5h2.5c0.551,0,1,0.449,1,1v0.501h2.498
		l-0.125-0.35c-0.09-0.251-0.077-0.523,0.037-0.764c0.115-0.242,0.316-0.424,0.567-0.514l1.883-0.674
		C16.47,2.66,16.583,2.64,16.698,2.64l0,0c0.148,0,0.292,0.032,0.427,0.097c0.241,0.114,0.424,0.315,0.514,0.567l2.189,6.12
		c0.09,0.251,0.077,0.523-0.037,0.765c-0.114,0.241-0.316,0.424-0.567,0.514l-0.834,0.298H21.5z M16.145,11.001L14.5,6.403v4.598
		H16.145z M13.5,11.001v-5h-2v5H13.5z M7.5,11.001v-6.5h-2v6.5H7.5z M4.5,11.001v-6.5h-2v6.5H4.5z M10.5,11V4.5h-2V11H10.5z
		 M14.815,4.314l2.189,6.12l1.883-0.674l-2.189-6.12C16.698,3.641,14.815,4.314,14.815,4.314z"/>
</g>
</svg>
