<?xml version="1.0" encoding="utf-8"?>
<!-- Generator: Adobe Illustrator 22.1.0, SVG Export Plug-In . SVG Version: 6.00 Build 0)  -->
<svg version="1.1" id="Layer_1" xmlns="http://www.w3.org/2000/svg" xmlns:xlink="http://www.w3.org/1999/xlink" x="0px" y="0px"
	 viewBox="0 0 24 24" style="enable-background:new 0 0 24 24;" xml:space="preserve">
<g>
	<title>official-building-3</title>
	<path d="M0.5,23.963c-0.276,0-0.5-0.224-0.5-0.5s0.224-0.5,0.5-0.5h0.64l0.772-2.32c0.136-0.409,0.517-0.684,0.948-0.684H3V9.963
		H2.86c-0.431,0-0.812-0.275-0.948-0.684L1.148,7.007c-0.15-0.451,0.04-0.95,0.452-1.185l9.9-5.655
		c0.15-0.087,0.322-0.133,0.498-0.133c0.176,0,0.349,0.046,0.5,0.134l9.894,5.658c0.412,0.236,0.602,0.734,0.453,1.184l-0.757,2.269
		c-0.135,0.409-0.517,0.684-0.948,0.684H21v9.996h0.14c0.431,0,0.812,0.275,0.949,0.684l0.773,2.32H23.5c0.276,0,0.5,0.224,0.5,0.5
		s-0.224,0.5-0.5,0.5H0.5z M21.808,22.963l-0.668-2.004h-0.597c-0.015,0.002-0.03,0.004-0.043,0.004h-17
		c-0.014,0-0.031-0.002-0.047-0.005L2.86,20.959l-0.667,2.004H21.808z M20,19.959V9.963h-1.998v9.996H20z M17.002,19.959V9.963h-2
		v9.996H17.002z M14.002,19.959V9.963h-4v9.996H14.002z M9.002,19.959V9.963h-2v9.996H9.002z M6.002,19.959V9.963H4v9.996H6.002z
		 M2.86,8.961L3.5,8.963h17.64l0.666-2H2.188L2.86,8.961z M20.617,5.963L12,1.035l-0.002-0.251l-0.001,0.25L3.369,5.963H20.617z"/>
</g>
</svg>
