<svg xmlns="http://www.w3.org/2000/svg" viewBox="0 0 24 24"><defs><style>.a{fill:none;stroke:currentColor;stroke-linecap:round;stroke-linejoin:round;}</style></defs><title>official-building-3</title><path class="a" d="M1.5,23.462,2.386,20.8a.5.5,0,0,1,.474-.342H21.14a.5.5,0,0,1,.474.342l.886,2.658"/><rect class="a" x="3.5" y="9.462" width="17" height="11"/><line class="a" x1="23.5" y1="23.462" x2="0.5" y2="23.462"/><line class="a" x1="6.502" y1="9.462" x2="6.502" y2="20.462"/><line class="a" x1="9.502" y1="9.462" x2="9.502" y2="20.462"/><line class="a" x1="14.502" y1="9.462" x2="14.502" y2="20.462"/><line class="a" x1="17.502" y1="9.462" x2="17.502" y2="20.462"/><path class="a" d="M22.37,6.851a.5.5,0,0,0-.226-.592L12.248.6a.5.5,0,0,0-.5,0l-9.9,5.655a.5.5,0,0,0-.226.592L2.386,9.12a.5.5,0,0,0,.474.342H21.14a.5.5,0,0,0,.474-.342Z"/><line class="a" x1="22.333" y1="6.462" x2="1.662" y2="6.462"/></svg>