<svg xmlns="http://www.w3.org/2000/svg" viewBox="0 0 24 24" id="Python-Logo--Streamline-Ultimate.svg" height="24" width="24"><desc>Python Logo Streamline Icon: https://streamlinehq.com</desc><defs></defs><title>python</title><path d="m6.5 7 4.922 0" stroke-linecap="round" stroke-linejoin="round" fill="none" stroke="currentColor" stroke-width="1"></path><path d="m12.578 17 4.922 0" stroke-linecap="round" stroke-linejoin="round" fill="none" stroke="currentColor" stroke-width="1"></path><path d="M13.5 20.5a0.5 0.5 0 1 0 1 0 0.5 0.5 0 1 0 -1 0" stroke-miterlimit="10" fill="none" stroke="currentColor" stroke-width="1"></path><path d="M9.5 3.5a0.5 0.5 0 1 0 1 0 0.5 0.5 0 1 0 -1 0" stroke-miterlimit="10" fill="none" stroke="currentColor" stroke-width="1"></path><path d="M22.768 7.7a1 1 0 0 0 -0.955 -0.7H17.5V2.187a1 1 0 0 0 -0.7 -0.955 16.1 16.1 0 0 0 -9.6 0 1 1 0 0 0 -0.7 0.955V7H2.187a1 1 0 0 0 -0.955 0.7 12.984 12.984 0 0 0 0 8.6 1 1 0 0 0 0.955 0.7H6.5v4.813a1 1 0 0 0 0.7 0.955 16.1 16.1 0 0 0 9.6 0 1 1 0 0 0 0.7 -0.955V17h4.313a1 1 0 0 0 0.955 -0.7 12.984 12.984 0 0 0 0 -8.6Z" stroke-linecap="round" stroke-linejoin="round" fill="none" stroke="currentColor" stroke-width="1"></path><path d="M6.5 17v-1a4 4 0 0 1 4 -4h3a4 4 0 0 0 4 -4V7" stroke-linecap="round" stroke-linejoin="round" fill="none" stroke="currentColor" stroke-width="1"></path></svg>