<svg xmlns="http://www.w3.org/2000/svg" viewBox="0 0 24 24"><defs><style>.a{fill:none;stroke:currentColor;stroke-linecap:round;stroke-linejoin:round;}</style></defs><title>rating-five-star</title><path class="a" d="M11.385,1.441a.664.664,0,0,1,1.233,0L13.33,3.22h1.506a.664.664,0,0,1,.429,1.171L13.994,5.465l.461,1.671a.664.664,0,0,1-1.05.7L12,6.735,10.6,7.823a.664.664,0,0,1-1.047-.7l.459-1.65L8.735,4.391A.664.664,0,0,1,9.164,3.22h1.509Z"/><path class="a" d="M3.385,7.441a.664.664,0,0,1,1.233,0L5.33,9.22H6.836a.664.664,0,0,1,.429,1.171L5.994,11.465l.461,1.671a.664.664,0,0,1-1.05.7L4,12.735,2.6,13.823a.664.664,0,0,1-1.047-.7l.459-1.65L.735,10.391A.664.664,0,0,1,1.164,9.22H2.673Z"/><path class="a" d="M19.385,7.441a.664.664,0,0,1,1.233,0L21.33,9.22h1.506a.664.664,0,0,1,.429,1.171l-1.271,1.074.461,1.671a.664.664,0,0,1-1.05.7l-1.4-1.1-1.4,1.088a.664.664,0,0,1-1.047-.7l.459-1.65-1.274-1.079a.664.664,0,0,1,.429-1.171h1.509Z"/><path class="a" d="M16.385,16.441a.664.664,0,0,1,1.233,0l.712,1.779h1.506a.664.664,0,0,1,.429,1.171l-1.271,1.074.461,1.671a.664.664,0,0,1-1.05.7l-1.4-1.1-1.4,1.088a.664.664,0,0,1-1.047-.7l.459-1.65-1.274-1.079a.664.664,0,0,1,.429-1.171h1.509Z"/><path class="a" d="M6.385,16.441a.664.664,0,0,1,1.233,0L8.33,18.22H9.836a.664.664,0,0,1,.429,1.171L8.994,20.465l.461,1.671a.664.664,0,0,1-1.05.7L7,21.735,5.6,22.823a.664.664,0,0,1-1.047-.7l.459-1.65L3.735,19.391a.664.664,0,0,1,.429-1.171H5.673Z"/></svg>