<?xml version="1.0" encoding="utf-8"?>
<!-- Generator: Adobe Illustrator 22.1.0, SVG Export Plug-In . SVG Version: 6.00 Build 0)  -->
<svg version="1.1" id="Layer_1" xmlns="http://www.w3.org/2000/svg" xmlns:xlink="http://www.w3.org/1999/xlink" x="0px" y="0px"
	 viewBox="0 0 24 24" style="enable-background:new 0 0 24 24;" xml:space="preserve">
<g>
	<title>rating-five-star</title>
	<path d="M13.817,8.478c-0.261,0-0.517-0.088-0.721-0.249l-1.097-0.86l-1.092,0.849c-0.207,0.16-0.452,0.245-0.711,0.245
		c-0.05,0-0.1-0.003-0.15-0.01C9.739,8.413,9.464,8.256,9.273,8.01C9.051,7.723,8.975,7.342,9.071,6.991l0.374-1.344L8.412,4.772
		c-0.237-0.2-0.382-0.481-0.408-0.791c-0.026-0.31,0.07-0.612,0.271-0.849C8.497,2.87,8.821,2.72,9.164,2.72h1.171l0.586-1.465
		c0.178-0.444,0.602-0.731,1.082-0.731c0.148,0,0.293,0.028,0.431,0.083c0.295,0.118,0.531,0.354,0.649,0.649l0.586,1.465h1.167
		c0.642,0,1.164,0.522,1.164,1.164c0,0.344-0.15,0.668-0.413,0.889L14.561,5.64l0.376,1.363c0.172,0.618-0.192,1.26-0.81,1.432
		C14.027,8.463,13.922,8.478,13.817,8.478z M12,6.235c0.111,0,0.221,0.038,0.308,0.107l1.405,1.101
		c0.029,0.023,0.065,0.035,0.102,0.035c0.015,0,0.03-0.002,0.044-0.006c0.041-0.012,0.076-0.039,0.098-0.077
		c0.021-0.038,0.027-0.082,0.015-0.124l-0.461-1.672c-0.052-0.188,0.011-0.39,0.159-0.515l1.271-1.074
		c0.037-0.031,0.058-0.077,0.058-0.125c0-0.09-0.074-0.164-0.164-0.164H13.33c-0.205,0-0.388-0.123-0.464-0.314l-0.712-1.779
		c-0.017-0.042-0.05-0.075-0.091-0.092c-0.019-0.008-0.04-0.012-0.06-0.012c-0.068,0-0.128,0.041-0.153,0.103l-0.712,1.779
		c-0.076,0.191-0.259,0.314-0.464,0.314H9.164c-0.049,0-0.094,0.021-0.125,0.058c-0.028,0.033-0.042,0.076-0.038,0.12
		c0.004,0.044,0.024,0.083,0.057,0.111l1.277,1.083c0.148,0.125,0.211,0.328,0.158,0.515l-0.459,1.65
		c-0.013,0.047-0.002,0.101,0.029,0.141c0.027,0.035,0.065,0.057,0.109,0.062c0.003,0,0.006,0,0.01,0
		c0.052,0,0.084-0.012,0.112-0.033l1.399-1.087C11.781,6.272,11.89,6.235,12,6.235z"/>
	<path d="M5.816,14.477c-0.26,0-0.516-0.088-0.719-0.249l-1.097-0.86l-1.092,0.849c-0.206,0.16-0.452,0.244-0.712,0.244
		c-0.364,0-0.699-0.164-0.922-0.451c-0.223-0.287-0.298-0.668-0.203-1.019l0.374-1.344l-1.033-0.875
		c-0.237-0.2-0.382-0.481-0.408-0.791c-0.026-0.31,0.07-0.612,0.271-0.849C0.497,8.87,0.821,8.72,1.164,8.72h1.171l0.586-1.465
		c0.178-0.444,0.603-0.731,1.082-0.731c0.148,0,0.293,0.028,0.431,0.083c0.295,0.118,0.531,0.354,0.649,0.649L5.669,8.72h1.168
		c0.311,0,0.603,0.121,0.823,0.341c0.22,0.22,0.341,0.512,0.341,0.823c0,0.343-0.15,0.667-0.412,0.889L6.562,11.64l0.376,1.363
		c0.083,0.299,0.045,0.613-0.108,0.883c-0.153,0.271-0.402,0.466-0.702,0.549c-0.101,0.028-0.205,0.042-0.311,0.042H5.816z
		 M4,12.235c0.111,0,0.22,0.038,0.308,0.106l1.405,1.101c0.03,0.023,0.066,0.036,0.102,0.036c0.014,0,0.028-0.002,0.042-0.006
		c0.045-0.012,0.079-0.039,0.101-0.078c0.022-0.039,0.027-0.082,0.015-0.125l-0.461-1.672c-0.052-0.187,0.011-0.39,0.159-0.515
		l1.271-1.074c0.037-0.031,0.058-0.077,0.058-0.125c0-0.044-0.017-0.084-0.048-0.116C6.921,9.736,6.881,9.72,6.837,9.72H5.33
		c-0.206,0-0.388-0.123-0.464-0.314L4.154,7.627c-0.017-0.042-0.05-0.075-0.092-0.092C4.044,7.528,4.024,7.524,4.003,7.524
		c-0.067,0-0.129,0.041-0.154,0.103L3.137,9.406C3.061,9.597,2.879,9.72,2.673,9.72H1.164c-0.054,0-0.091,0.017-0.125,0.058
		c-0.028,0.033-0.042,0.076-0.038,0.12c0.004,0.044,0.024,0.083,0.057,0.111l1.277,1.083c0.148,0.125,0.211,0.328,0.158,0.515
		l-0.459,1.65c-0.013,0.047-0.002,0.102,0.029,0.141c0.031,0.041,0.079,0.064,0.13,0.064c0.026,0,0.063-0.006,0.1-0.034l1.399-1.088
		C3.781,12.272,3.89,12.235,4,12.235z"/>
	<path d="M21.817,14.477c-0.261,0-0.517-0.088-0.72-0.249l-1.093-0.858l-1.092,0.848c-0.206,0.159-0.452,0.243-0.712,0.243
		c-0.364,0-0.699-0.164-0.921-0.451c-0.222-0.288-0.298-0.668-0.202-1.019l0.374-1.344l-1.03-0.872
		c-0.49-0.414-0.551-1.15-0.137-1.64c0.222-0.262,0.546-0.412,0.889-0.412h1.169c0,0,0.579-1.466,0.58-1.469
		c0.178-0.444,0.603-0.731,1.082-0.731c0.148,0,0.293,0.028,0.431,0.083c0.295,0.118,0.531,0.354,0.649,0.649l0.586,1.465h1.167
		c0.642,0,1.164,0.522,1.164,1.164c0,0.344-0.15,0.668-0.413,0.889l-1.027,0.868l0.376,1.363c0.172,0.618-0.192,1.26-0.81,1.432
		C22.027,14.463,21.923,14.477,21.817,14.477z M20.006,12.236c0.111,0,0.221,0.038,0.309,0.107l1.4,1.1
		c0.029,0.023,0.065,0.035,0.101,0.035c0.015,0,0.029-0.002,0.043-0.006c0.044-0.012,0.078-0.039,0.1-0.077
		c0.022-0.039,0.027-0.082,0.015-0.125l-0.461-1.672c-0.052-0.188,0.011-0.39,0.159-0.515l1.271-1.074
		c0.037-0.031,0.058-0.077,0.058-0.125c0-0.09-0.074-0.164-0.164-0.164H21.33c-0.205,0-0.388-0.123-0.464-0.314l-0.712-1.779
		c-0.017-0.042-0.05-0.075-0.091-0.092c-0.019-0.008-0.04-0.012-0.06-0.012c-0.068,0-0.127,0.04-0.152,0.103l-0.704,1.781
		C19.07,9.6,18.888,9.724,18.681,9.724h-1.509c-0.049,0-0.094,0.021-0.125,0.058c-0.028,0.033-0.042,0.076-0.038,0.12
		s0.024,0.083,0.057,0.111l1.275,1.079c0.148,0.126,0.211,0.328,0.159,0.516l-0.459,1.65c-0.013,0.047-0.002,0.102,0.029,0.141
		c0.031,0.04,0.079,0.063,0.13,0.063c0.025,0,0.063-0.006,0.1-0.034l1.4-1.087C19.787,12.273,19.895,12.236,20.006,12.236z"/>
	<path d="M18.817,23.477c-0.261,0-0.517-0.088-0.72-0.249l-1.093-0.858l-1.092,0.848c-0.206,0.159-0.452,0.243-0.712,0.243
		c-0.364,0-0.699-0.164-0.921-0.451c-0.222-0.288-0.298-0.668-0.202-1.019l0.374-1.344l-1.03-0.872
		c-0.237-0.2-0.382-0.481-0.407-0.792s0.07-0.611,0.271-0.848c0.222-0.262,0.546-0.413,0.889-0.413h1.169
		c0,0,0.579-1.465,0.58-1.469c0.115-0.289,0.336-0.515,0.622-0.637c0.146-0.063,0.3-0.094,0.458-0.094
		c0.148,0,0.293,0.028,0.432,0.083c0.295,0.118,0.531,0.355,0.648,0.649l0.586,1.465h1.167c0.311,0,0.603,0.121,0.823,0.341
		c0.22,0.219,0.341,0.511,0.341,0.823c0,0.344-0.15,0.668-0.413,0.889l-1.027,0.868l0.376,1.363c0.172,0.617-0.191,1.26-0.81,1.432
		C19.028,23.463,18.923,23.477,18.817,23.477z M17.006,21.236c0.111,0,0.221,0.038,0.309,0.107l1.4,1.1
		c0.029,0.023,0.065,0.035,0.101,0.035c0.015,0,0.029-0.002,0.043-0.006c0.043-0.012,0.078-0.039,0.099-0.078
		c0.021-0.038,0.027-0.082,0.015-0.124l-0.461-1.672c-0.052-0.187,0.011-0.389,0.159-0.515l1.271-1.074
		c0.037-0.031,0.058-0.077,0.058-0.125c0-0.09-0.073-0.164-0.164-0.164H18.33c-0.205,0-0.387-0.123-0.464-0.314l-0.712-1.779
		c-0.017-0.042-0.05-0.075-0.092-0.092c-0.019-0.008-0.04-0.011-0.06-0.011c-0.022,0-0.044,0.004-0.065,0.013
		c-0.041,0.018-0.071,0.048-0.088,0.089l-0.704,1.781c-0.076,0.192-0.258,0.316-0.465,0.316h-1.509
		c-0.049,0-0.094,0.021-0.125,0.058c-0.028,0.033-0.042,0.076-0.038,0.12c0.004,0.044,0.024,0.083,0.057,0.112l1.275,1.079
		c0.148,0.125,0.211,0.328,0.159,0.515l-0.459,1.65c-0.013,0.047-0.002,0.102,0.029,0.141c0.031,0.04,0.079,0.063,0.131,0.063
		c0.025,0,0.063-0.006,0.099-0.034l1.4-1.088C16.787,21.273,16.895,21.236,17.006,21.236z"/>
	<path d="M8.816,23.477c-0.26,0-0.516-0.088-0.719-0.249l-1.097-0.86l-1.092,0.849c-0.206,0.16-0.452,0.244-0.712,0.244
		c-0.364,0-0.699-0.165-0.921-0.451c-0.223-0.287-0.298-0.668-0.203-1.019l0.374-1.344l-1.033-0.875
		c-0.237-0.2-0.382-0.481-0.408-0.792s0.07-0.611,0.271-0.848c0.222-0.262,0.546-0.412,0.889-0.412h1.171l0.586-1.465
		c0.178-0.444,0.603-0.731,1.082-0.731c0.148,0,0.293,0.028,0.431,0.083c0.295,0.118,0.531,0.355,0.648,0.649l0.586,1.465h1.168
		c0.311,0,0.603,0.121,0.823,0.341s0.341,0.512,0.341,0.823c0,0.344-0.15,0.667-0.412,0.889L9.562,20.64l0.376,1.363
		c0.083,0.299,0.045,0.613-0.108,0.883c-0.153,0.271-0.402,0.466-0.702,0.549c-0.101,0.028-0.205,0.042-0.311,0.042H8.816z
		 M7,21.235c0.111,0,0.22,0.038,0.308,0.106l1.405,1.101c0.029,0.023,0.066,0.036,0.102,0.036c0.014,0,0.028-0.002,0.042-0.006
		c0.045-0.012,0.079-0.039,0.101-0.078c0.022-0.039,0.027-0.082,0.015-0.125l-0.461-1.672c-0.052-0.187,0.011-0.389,0.159-0.515
		l1.271-1.074c0.037-0.031,0.058-0.077,0.058-0.125c0-0.044-0.017-0.084-0.048-0.116c-0.031-0.031-0.071-0.048-0.116-0.048H8.33
		c-0.206,0-0.388-0.124-0.464-0.314l-0.712-1.779c-0.017-0.041-0.05-0.075-0.092-0.092c-0.019-0.008-0.039-0.011-0.06-0.011
		c-0.068,0-0.128,0.041-0.153,0.103l-0.712,1.779c-0.076,0.191-0.258,0.314-0.464,0.314H4.164c-0.049,0-0.094,0.021-0.126,0.058
		c-0.028,0.034-0.042,0.075-0.038,0.119c0.004,0.044,0.024,0.083,0.057,0.112l1.277,1.083c0.148,0.125,0.211,0.328,0.158,0.515
		l-0.459,1.65c-0.013,0.047-0.002,0.102,0.029,0.141c0.031,0.04,0.079,0.063,0.13,0.063c0.026,0,0.063-0.006,0.1-0.034l1.399-1.087
		C6.781,21.272,6.89,21.235,7,21.235z"/>
</g>
</svg>
