<?xml version="1.0" encoding="utf-8"?>
<!-- Generator: Adobe Illustrator 22.1.0, SVG Export Plug-In . SVG Version: 6.00 Build 0)  -->
<svg version="1.1" id="Layer_1" xmlns="http://www.w3.org/2000/svg" xmlns:xlink="http://www.w3.org/1999/xlink" x="0px" y="0px"
	 viewBox="0 0 24 24" style="enable-background:new 0 0 24 24;" xml:space="preserve">
<g>
	<title>space-rocket-flying</title>
	<path d="M9.975,22.797c-0.266,0-0.516-0.103-0.705-0.291c-0.22-0.218-0.325-0.52-0.288-0.828l0.347-2.962c-0.006,0-0.012,0-0.017,0
		c-0.134,0-0.259-0.052-0.354-0.146l-3.52-3.517c-0.114-0.113-0.161-0.268-0.142-0.417L2.328,15
		c-0.041,0.005-0.083,0.008-0.124,0.008c-0.266,0-0.516-0.104-0.706-0.293c-0.189-0.189-0.293-0.44-0.293-0.708
		c0-0.267,0.104-0.518,0.293-0.707l2.51-2.509c0.645-0.654,1.4-1.176,2.243-1.549c0.036-0.016,0.075-0.028,0.114-0.035
		c1.282-0.227,2.597-0.342,3.908-0.342c0.207,0,0.413,0.003,0.62,0.008c2.858-2.866,5.84-5.857,6.197-6.213
		c0.821-0.822,3.081-1.415,4.833-1.769c0.065-0.013,0.131-0.02,0.197-0.02c0.474,0,0.886,0.337,0.981,0.802
		c0.026,0.132,0.026,0.265,0,0.396c-0.354,1.751-0.947,4.011-1.769,4.833l-6.214,6.213c0.03,1.506-0.093,3.016-0.365,4.489
		c-0.007,0.037-0.017,0.071-0.031,0.104c-0.36,0.852-0.871,1.618-1.52,2.278l-2.52,2.516c-0.188,0.188-0.438,0.293-0.705,0.293
		C9.977,22.797,9.975,22.797,9.975,22.797z M9.975,21.796l2.518-2.513c0.544-0.554,0.978-1.198,1.288-1.913
		c0.195-1.069,0.308-2.16,0.336-3.251l-3.019,3.019c-0.004,0.004-0.007,0.009-0.011,0.012c-0.008,0.008-0.017,0.017-0.026,0.024
		l-0.618,0.617L9.975,21.796z M9.311,17.51l0.708-0.708l-2.812-2.814l-0.71,0.712L9.311,17.51z M10.727,16.095l9.899-9.898
		c0.489-0.489,1.048-2.105,1.495-4.323c-2.219,0.448-3.834,1.006-4.323,1.495c-0.559,0.558-7.485,7.504-9.885,9.911L10.727,16.095z
		 M6.602,10.182c-0.706,0.32-1.339,0.762-1.883,1.314l-2.513,2.512l4.065-0.497l0.532-0.534c0.008-0.013,0.023-0.035,0.046-0.057
		c0.02-0.02,0.04-0.034,0.055-0.043l3-3.009C8.799,9.887,7.69,9.992,6.602,10.182z"/>
	<path d="M1.883,23.124c-0.176,0-0.35-0.047-0.503-0.137c-0.231-0.135-0.395-0.352-0.462-0.61c-0.043-0.164-0.043-0.337-0.001-0.502
		c0.514-1.898,1.283-4.315,2.03-5.067c0.587-0.586,1.255-0.908,1.883-0.908c0.489,0,0.939,0.191,1.302,0.554
		c0.094,0.094,0.146,0.22,0.146,0.354s-0.052,0.259-0.146,0.354c-0.094,0.094-0.22,0.146-0.353,0.146s-0.259-0.052-0.354-0.146
		c-0.175-0.175-0.369-0.26-0.593-0.26c-0.358,0-0.786,0.223-1.176,0.613c-0.346,0.348-0.993,1.744-1.771,4.616
		c2.86-0.791,4.252-1.443,4.601-1.792c0.321-0.321,0.531-0.676,0.591-0.998c0.056-0.302-0.022-0.554-0.238-0.77
		c-0.195-0.195-0.195-0.512-0.001-0.707c0.094-0.095,0.22-0.147,0.354-0.147c0.133,0,0.259,0.052,0.353,0.146
		c0.455,0.454,0.633,1.029,0.515,1.661C7.96,20.05,7.66,20.576,7.191,21.046c-0.751,0.75-3.159,1.526-5.047,2.044
		C2.057,23.113,1.97,23.124,1.883,23.124z"/>
</g>
</svg>
