<svg xmlns="http://www.w3.org/2000/svg" viewBox="0 0 128 128">
	<path class="fill-zinc-200 dark:fill-zinc-700 stroke-none" d="m64,16c-26.51,0-48,21.49-48,48s21.49,48,48,48,48-21.49,48-48-21.49-48-48-48Zm0,84c-19.88,0-36-16.12-36-36s16.12-36,36-36,36,16.12,36,36-16.12,36-36,36Z"/>
	<path class="fill-zinc-200 dark:fill-zinc-700 stroke-none" d="m64,40c-13.25,0-24,10.75-24,24s10.75,24,24,24,24-10.75,24-24-10.75-24-24-24Zm0,36c-6.63,0-12-5.37-12-12s5.37-12,12-12,12,5.37,12,12-5.37,12-12,12Z"/>
	<circle class="fill-zinc-500 dark:fill-zinc-400 stroke-none" cx="63.67" cy="64.93" r="2"/>
	<circle class="fill-zinc-500 dark:fill-zinc-400 stroke-none" cx="70.14" cy="55.30" r="2"/>
	<circle class="fill-zinc-500 dark:fill-zinc-400 stroke-none" cx="58.97" cy="58.75" r="2"/>
	<circle class="fill-zinc-500 dark:fill-zinc-400 stroke-none" cx="61.89" cy="63.63" r="2"/>
	<circle class="fill-zinc-500 dark:fill-zinc-400 stroke-none" cx="69.74" cy="56.21" r="2"/>
	<circle class="fill-zinc-500 dark:fill-zinc-400 stroke-none" cx="71.75" cy="70.03" r="2"/>
	<circle class="fill-zinc-500 dark:fill-zinc-400 stroke-none" cx="55.67" cy="68.14" r="2"/>
	<circle class="fill-zinc-500 dark:fill-zinc-400 stroke-none" cx="73.92" cy="67.45" r="2"/>
	<circle class="fill-zinc-500 dark:fill-zinc-400 stroke-none" cx="65.30" cy="73.01" r="2"/>
	<circle class="fill-zinc-500 dark:fill-zinc-400 stroke-none" cx="64.61" cy="66.33" r="2"/>
	<circle class="fill-zinc-500 dark:fill-zinc-400 stroke-none" cx="72.27" cy="73.58" r="2"/>
	<circle class="fill-zinc-500 dark:fill-zinc-400 stroke-none" cx="69.75" cy="73.96" r="2"/>
	<circle class="fill-zinc-500 dark:fill-zinc-400 stroke-none" cx="71.95" cy="63.39" r="2"/>
	<circle class="fill-zinc-500 dark:fill-zinc-400 stroke-none" cx="61.88" cy="71.31" r="2"/>
	<circle class="fill-zinc-500 dark:fill-zinc-400 stroke-none" cx="73.92" cy="66.11" r="2"/>
	<circle class="fill-zinc-500 dark:fill-zinc-400 stroke-none" cx="57.08" cy="65.74" r="2"/>
</svg>