<svg xmlns="http://www.w3.org/2000/svg" viewBox="0 0 128 128">
	<path class="fill-zinc-200 dark:fill-zinc-700 stroke-none" d="m64,16c-26.51,0-48,21.49-48,48s21.49,48,48,48,48-21.49,48-48-21.49-48-48-48Zm0,84c-19.88,0-36-16.12-36-36s16.12-36,36-36,36,16.12,36,36-16.12,36-36,36Z"/>
	<path class="fill-zinc-200 dark:fill-zinc-700 stroke-none" d="m64,40c-13.25,0-24,10.75-24,24s10.75,24,24,24,24-10.75,24-24-10.75-24-24-24Zm0,36c-6.63,0-12-5.37-12-12s5.37-12,12-12,12,5.37,12,12-5.37,12-12,12Z"/>
	<circle class="fill-zinc-500 dark:fill-zinc-400 stroke-none" cx="47.80" cy="48.21" r="2"/>
	<circle class="fill-zinc-500 dark:fill-zinc-400 stroke-none" cx="71.01" cy="46.32" r="2"/>
	<circle class="fill-zinc-500 dark:fill-zinc-400 stroke-none" cx="48.14" cy="56.89" r="2"/>
	<circle class="fill-zinc-500 dark:fill-zinc-400 stroke-none" cx="74.90" cy="75.77" r="2"/>
	<circle class="fill-zinc-500 dark:fill-zinc-400 stroke-none" cx="75.64" cy="59.72" r="2"/>
	<circle class="fill-zinc-500 dark:fill-zinc-400 stroke-none" cx="48.63" cy="68.87" r="2"/>
	<circle class="fill-zinc-500 dark:fill-zinc-400 stroke-none" cx="47.22" cy="81.92" r="2"/>
	<circle class="fill-zinc-500 dark:fill-zinc-400 stroke-none" cx="52.67" cy="67.47" r="2"/>
	<circle class="fill-zinc-500 dark:fill-zinc-400 stroke-none" cx="62.28" cy="51.96" r="2"/>
	<circle class="fill-zinc-500 dark:fill-zinc-400 stroke-none" cx="82.71" cy="77.70" r="2"/>
	<circle class="fill-zinc-500 dark:fill-zinc-400 stroke-none" cx="77.81" cy="67.39" r="2"/>
	<circle class="fill-zinc-500 dark:fill-zinc-400 stroke-none" cx="67.37" cy="81.02" r="2"/>
	<circle class="fill-zinc-500 dark:fill-zinc-400 stroke-none" cx="64.10" cy="80.22" r="2"/>
	<circle class="fill-zinc-500 dark:fill-zinc-400 stroke-none" cx="44.64" cy="80.55" r="2"/>
	<circle class="fill-zinc-500 dark:fill-zinc-400 stroke-none" cx="72.16" cy="48.22" r="2"/>
	<circle class="fill-zinc-500 dark:fill-zinc-400 stroke-none" cx="58.20" cy="58.85" r="2"/>
</svg>