<svg class="main-svg" xmlns="http://www.w3.org/2000/svg" xmlns:xlink="http://www.w3.org/1999/xlink" width="700" height="500" style="" viewBox="0 0 700 500"><rect x="0" y="0" width="700" height="500" style="fill: rgb(0, 0, 0); fill-opacity: 0;"/><defs id="defs-de1d01"><g class="clips"><clipPath id="clipde1d01xyplot" class="plotclip"><rect width="650" height="469"/></clipPath><clipPath class="axesclip" id="clipde1d01x"><rect x="50" y="0" width="650" height="500"/></clipPath><clipPath class="axesclip" id="clipde1d01y"><rect x="0" y="8" width="700" height="469"/></clipPath><clipPath class="axesclip" id="clipde1d01xy"><rect x="50" y="8" width="650" height="469"/></clipPath></g><g class="gradients"/><g class="patterns"/></defs><g class="bglayer"><rect class="bg" x="50" y="8" width="650" height="469" style="fill: rgb(0, 0, 0); fill-opacity: 0; stroke-width: 0;"/></g><g class="layer-below"><g class="imagelayer"/><g class="shapelayer"/></g><g class="cartesianlayer"><g class="subplot xy"><g class="layer-subplot"><g class="shapelayer"/><g class="imagelayer"/></g><g class="minor-gridlayer"><g class="x"/><g class="y"/></g><g class="gridlayer"><g class="x"/><g class="y"><path class="ygrid crisp" transform="translate(0,398.83)" d="M50,0h650" style="stroke: rgb(113, 113, 122); stroke-opacity: 1; stroke-width: 1px;"/><path class="ygrid crisp" transform="translate(0,320.67)" d="M50,0h650" style="stroke: rgb(113, 113, 122); stroke-opacity: 1; stroke-width: 1px;"/><path class="ygrid crisp" transform="translate(0,242.5)" d="M50,0h650" style="stroke: rgb(113, 113, 122); stroke-opacity: 1; stroke-width: 1px;"/><path class="ygrid crisp" transform="translate(0,164.33)" d="M50,0h650" style="stroke: rgb(113, 113, 122); stroke-opacity: 1; stroke-width: 1px;"/><path class="ygrid crisp" transform="translate(0,86.17)" d="M50,0h650" style="stroke: rgb(113, 113, 122); stroke-opacity: 1; stroke-width: 1px;"/></g></g><g class="zerolinelayer"/><g class="layer-between"><g class="shapelayer"/><g class="imagelayer"/></g><path class="xlines-below"/><path class="ylines-below"/><g class="overlines-below"/><g class="xaxislayer-below"/><g class="yaxislayer-below"/><g class="overaxes-below"/><g class="overplot"><g class="xy" transform="translate(50,8)" clip-path="url(#clipde1d01xyplot)"><g class="scatterlayer mlayer"><g class="trace scatter trace7dad70" style="stroke-miterlimit: 2; opacity: 1;"><g class="fills"/><g class="errorbars"/><g class="lines"><path class="js-line" d="M0.65,375.2L1.3,328.3L1.95,343.93L2.6,361.13L3.25,401.78L3.9,414.28L4.55,376.76L5.21,372.07L5.86,386.14L6.51,381.45L7.16,356.44L7.81,383.02L8.46,378.33L9.76,400.21L10.41,372.07L11.06,347.06L11.71,403.34L12.36,315.79L13.01,358L13.66,290.78L14.31,300.16L14.96,383.02L15.62,390.83L16.27,353.31L16.92,353.31L17.57,348.62L18.22,387.71L18.87,322.05L19.52,298.6L20.17,356.44L21.47,409.59L22.12,347.06L22.77,423.66L23.42,384.58L24.07,389.27L24.72,367.38L25.38,401.78L26.03,390.83L26.68,409.59L27.33,337.68L27.98,343.93L28.63,378.33L29.93,345.5L30.58,351.75L31.23,311.1L31.88,403.34L33.18,354.88L33.83,292.34L35.79,404.9L36.44,375.2L37.09,390.83L37.74,332.99L38.39,393.96L39.04,392.4L39.69,375.2L40.34,301.72L40.99,383.02L41.64,318.92L42.29,393.96L42.94,378.33L43.59,422.1L44.89,336.12L45.55,362.69L46.85,334.55L47.5,342.37L48.15,393.96L48.8,350.19L49.45,326.74L50.1,365.82L50.75,320.48L51.4,339.24L52.05,350.19L52.7,340.81L53.35,368.95L54,332.99L54.65,392.4L55.31,358L56.61,386.14L57.26,359.57L58.56,415.85L59.21,298.6L60.51,362.69L61.16,358L61.81,322.05L62.46,383.02L64.41,328.3L65.07,350.19L65.72,343.93L66.37,397.09L68.32,307.98L68.97,345.5L70.27,386.14L70.92,348.62L71.57,383.02L72.22,350.19L72.87,356.44L73.52,378.33L74.17,364.26L74.82,320.48L75.48,386.14L76.13,356.44L76.78,325.17L77.43,376.76L78.08,393.96L78.73,348.62L79.38,345.5L80.03,326.74L80.68,376.76L81.33,359.57L81.98,343.93L82.63,375.2L83.93,332.99L84.58,408.03L85.24,420.54L85.89,387.71L86.54,331.43L87.19,337.68L87.84,322.05L88.49,342.37L89.14,306.41L89.79,358L90.44,331.43L91.09,375.2L91.74,326.74L93.04,404.9L93.69,365.82L94.34,378.33L94.99,350.19L95.65,336.12L96.3,395.52L96.95,354.88L97.6,367.38L98.25,367.38L98.9,309.54L99.55,306.41L100.2,342.37L100.85,364.26L101.5,307.98L102.15,370.51L102.8,329.86L104.1,372.07L104.75,336.12L105.41,400.21L106.06,358L106.71,386.14L107.36,334.55L108.01,342.37L108.66,370.51L109.96,356.44L110.61,332.99L111.91,393.96L112.56,359.57L113.86,298.6L114.51,328.3L115.17,348.62L115.82,340.81L117.12,384.58L117.77,364.26L118.42,409.59L119.07,354.88L120.37,409.59L121.02,383.02L121.67,350.19L122.32,364.26L123.62,398.65L124.27,356.44L124.92,397.09L125.58,358L126.23,318.92L126.88,367.38L127.53,406.47L128.18,356.44L128.83,326.74L129.48,350.19L130.13,326.74L130.78,328.3L131.43,378.33L132.08,345.5L132.73,387.71L133.38,367.38L134.03,311.1L134.68,376.76L135.34,337.68L135.99,358L136.64,303.29L137.29,386.14L137.94,378.33L138.59,411.16L139.24,390.83L139.89,328.3L140.54,387.71L141.19,339.24L142.49,400.21L143.14,354.88L143.79,403.34L144.44,354.88L145.1,354.88L145.75,348.62L146.4,411.16L147.05,358L147.7,312.67L148.35,331.43L149,315.79L149.65,395.52L150.3,359.57L150.95,384.58L151.6,375.2L152.25,318.92L153.55,389.27L154.2,356.44L154.85,406.47L155.51,345.5L156.16,379.89L156.81,354.88L157.46,332.99L158.11,373.64L158.76,359.57L159.41,384.58L160.06,304.85L160.71,358L161.36,350.19L162.01,320.48L162.66,309.54L163.31,381.45L163.96,361.13L164.61,278.27L165.92,397.09L166.57,368.95L167.22,334.55L167.87,362.69L168.52,354.88L169.17,368.95L169.82,386.14L170.47,372.07L171.12,386.14L171.77,326.74L173.07,412.72L173.72,347.06L174.37,381.45L175.03,362.69L175.68,284.53L176.33,351.75L176.98,351.75L177.63,350.19L178.28,378.33L178.93,343.93L179.58,354.88L180.23,395.52L182.18,287.65L182.83,348.62L184.13,365.82L184.78,345.5L185.44,320.48L186.09,337.68L187.39,353.31L188.04,384.58L188.69,328.3L189.34,362.69L189.99,354.88L190.64,358L191.29,343.93L191.94,364.26L192.59,397.09L193.24,295.47L193.89,320.48L194.54,411.16L195.2,334.55L195.85,347.06L196.5,400.21L197.15,320.48L197.8,392.4L198.45,373.64L199.1,450.24L199.75,340.81L201.05,389.27L201.7,332.99L203,395.52L203.65,397.09L204.3,323.61L204.95,372.07L205.61,403.34L206.26,314.23L207.56,354.88L208.21,343.93L208.86,326.74L209.51,370.51L210.16,387.71L210.81,356.44L211.46,300.16L212.11,395.52L212.76,322.05L213.41,409.59L214.06,272.02L214.71,353.31L215.37,379.89L216.02,336.12L216.67,364.26L217.32,359.57L217.97,337.68L218.62,361.13L219.27,282.96L219.92,356.44L221.22,415.85L221.87,373.64L222.52,361.13L223.17,392.4L223.82,337.68L224.47,345.5L225.13,331.43L225.78,365.82L226.43,336.12L227.73,359.57L228.38,350.19L229.03,354.88L229.68,345.5L230.33,390.83L230.98,384.58L231.63,320.48L232.28,328.3L232.93,373.64L234.23,393.96L234.88,372.07L235.54,347.06L236.19,353.31L236.84,358L237.49,332.99L238.14,373.64L238.79,350.19L239.44,354.88L240.09,368.95L240.74,332.99L241.39,375.2L242.04,373.64L242.69,353.31L243.34,389.27L243.99,326.74L245.3,343.93L245.95,339.24L246.6,318.92L247.25,331.43L247.9,334.55L248.55,412.72L249.2,400.21L249.85,351.75L250.5,389.27L251.15,339.24L251.8,342.37L252.45,376.76L254.4,331.43L255.06,389.27L256.36,401.78L257.01,354.88L258.31,403.34L258.96,300.16L260.26,383.02L260.91,323.61L261.56,381.45L262.21,334.55L262.86,408.03L263.51,343.93L264.16,325.17L264.81,337.68L265.47,328.3L266.12,350.19L266.77,306.41L267.42,376.76L268.72,340.81L269.37,408.03L270.67,322.05L271.32,417.41L271.97,329.86L272.62,334.55L273.27,343.93L273.92,345.5L274.57,300.16L275.23,397.09L275.88,373.64L276.53,328.3L277.18,343.93L277.83,342.37L278.48,381.45L279.13,311.1L279.78,415.85L281.08,345.5L281.73,372.07L282.38,318.92L283.03,397.09L283.68,367.38L284.33,414.28L285.64,322.05L286.29,370.51L286.94,353.31L287.59,378.33L288.24,383.02L288.89,290.78L289.54,354.88L290.19,312.67L290.84,304.85L291.49,370.51L292.14,359.57L292.79,364.26L294.09,345.5L294.74,348.62L295.4,356.44L296.05,390.83L296.7,340.81L297.35,347.06L298,350.19L298.65,361.13L299.3,397.09L299.95,348.62L300.6,370.51L301.9,289.22L302.55,300.16L303.85,367.38L304.5,393.96L305.81,342.37L306.46,348.62L307.76,418.97L308.41,379.89L309.06,401.78L309.71,393.96L310.36,397.09L311.01,323.61L312.31,400.21L312.96,348.62L314.26,331.43L314.91,295.47L315.57,392.4L316.22,375.2L316.87,312.67L317.52,393.96L318.17,418.97L318.82,376.76L319.47,362.69L320.12,317.36L320.77,383.02L321.42,348.62L322.07,364.26L322.72,329.86L323.37,317.36L324.02,390.83L326.63,343.93L327.28,351.75L327.93,343.93L328.58,368.95L329.88,359.57L330.53,307.98L331.18,379.89L331.83,342.37L333.13,323.61L333.78,379.89L334.43,336.12L335.09,339.24L335.74,343.93L337.69,408.03L338.34,372.07L338.99,332.99L339.64,345.5L340.29,356.44L340.94,323.61L341.59,306.41L342.24,351.75L342.89,417.41L343.54,387.71L344.19,328.3L344.84,395.52L345.5,336.12L346.15,392.4L346.8,440.86L347.45,315.79L348.1,312.67L348.75,348.62L350.05,322.05L350.7,359.57L351.35,329.86L352,422.1L352.65,307.98L353.3,309.54L353.95,370.51L354.6,325.17L355.26,340.81L355.91,381.45L356.56,325.17L357.86,351.75L358.51,400.21L359.81,334.55L360.46,334.55L361.11,342.37L361.76,365.82L362.41,350.19L363.06,376.76L364.36,293.91L365.02,323.61L366.32,376.76L366.97,362.69L367.62,350.19L368.27,358L368.92,320.48L369.57,350.19L370.22,334.55L370.87,295.47L372.17,361.13L372.82,317.36L373.47,372.07L374.12,368.95L374.77,398.65L375.43,354.88L376.08,370.51L376.73,311.1L377.38,329.86L378.68,345.5L379.33,309.54L379.98,326.74L380.63,387.71L381.28,361.13L381.93,392.4L383.23,314.23L383.88,342.37L384.53,320.48L385.19,433.04L385.84,358L386.49,389.27L387.79,320.48L388.44,381.45L389.09,375.2L389.74,397.09L390.39,336.12L391.04,386.14L392.34,314.23L392.99,401.78L393.64,422.1L394.29,411.16L394.94,350.19L395.6,368.95L396.25,262.64L396.9,343.93L398.85,397.09L399.5,358L400.15,322.05L400.8,379.89L401.45,358L402.1,381.45L403.4,286.09L404.05,398.65L405.36,418.97L406.01,409.59L406.66,392.4L407.31,353.31L407.96,373.64L408.61,364.26L409.26,317.36L409.91,361.13L410.56,370.51L411.21,367.38L411.86,320.48L412.51,339.24L413.16,314.23L413.81,345.5L415.12,373.64L415.77,325.17L416.42,325.17L417.07,365.82L417.72,383.02L418.37,322.05L419.02,361.13L419.67,339.24L420.32,387.71L420.97,326.74L422.92,397.09L423.57,337.68L424.87,314.23L425.53,378.33L426.18,375.2L426.83,389.27L427.48,372.07L428.13,387.71L428.78,370.51L429.43,289.22L430.08,411.16L430.73,332.99L431.38,336.12L432.03,358L432.68,307.98L433.33,362.69L433.98,322.05L434.63,409.59L435.29,358L435.94,386.14L436.59,300.16L437.24,347.06L437.89,323.61L438.54,331.43L439.84,358L440.49,320.48L441.14,395.52L441.79,342.37L443.09,401.78L443.74,347.06L444.39,345.5L445.05,368.95L446.35,326.74L447,359.57L447.65,353.31L448.3,384.58L449.6,329.86L450.25,370.51L451.55,400.21L452.2,361.13L452.85,379.89L453.5,350.19L454.8,386.14L455.46,356.44L456.11,331.43L456.76,398.65L458.06,364.26L458.71,332.99L460.01,358L460.66,348.62L461.31,409.59L461.96,334.55L463.26,390.83L463.91,347.06L464.56,368.95L465.22,347.06L465.87,362.69L466.52,336.12L467.82,303.29L468.47,354.88L469.12,372.07L469.77,289.22L471.72,386.14L472.37,353.31L473.02,329.86L473.67,340.81L474.32,386.14L474.97,361.13L476.28,320.48L476.93,400.21L477.58,298.6L478.23,361.13L478.88,370.51L479.53,345.5L480.18,320.48L480.83,404.9L481.48,404.9L482.13,336.12L484.08,300.16L484.73,440.86L485.39,325.17L486.04,354.88L486.69,328.3L487.34,364.26L487.99,387.71L488.64,368.95L489.29,370.51L489.94,331.43L490.59,326.74L491.24,373.64L491.89,356.44L492.54,379.89L493.19,356.44L493.84,361.13L494.49,392.4L495.15,362.69L495.8,331.43L496.45,339.24L497.1,340.81L497.75,353.31L498.4,311.1L499.05,317.36L499.7,353.31L500.35,359.57L501,353.31L501.65,287.65L502.3,343.93L502.95,370.51L503.6,320.48L504.25,336.12L504.9,426.79L505.56,337.68L506.21,383.02L507.51,314.23L508.16,373.64L508.81,411.16L509.46,358L510.11,401.78L510.76,336.12L512.06,373.64L512.71,340.81L513.36,397.09L514.01,322.05L515.32,376.76L515.97,334.55L517.27,345.5L517.92,336.12L519.87,404.9L520.52,329.86L521.17,370.51L521.82,354.88L522.47,362.69L523.12,347.06L523.77,329.86L524.42,345.5L525.08,389.27L525.73,365.82L526.38,359.57L527.03,378.33L527.68,358L528.33,378.33L528.98,372.07L529.63,348.62L530.28,393.96L530.93,350.19L531.58,326.74L532.23,334.55L532.88,370.51L533.53,347.06L534.18,384.58L534.83,345.5L535.49,351.75L536.14,406.47L537.44,361.13L538.09,390.83L540.04,311.1L540.69,318.92L541.34,356.44L541.99,354.88L542.64,351.75L543.29,317.36L543.94,389.27L544.59,282.96L545.25,339.24L545.9,347.06L546.55,332.99L547.2,342.37L547.85,404.9L549.15,376.76L549.8,347.06L550.45,351.75L551.1,326.74L551.75,372.07L552.4,359.57L553.05,393.96L553.7,317.36L554.35,370.51L555.01,354.88L555.66,368.95L556.31,362.69L556.96,340.81L557.61,379.89L558.26,378.33L558.91,314.23L559.56,329.86L560.21,311.1L561.51,384.58L562.16,358L562.81,301.72L563.46,387.71L564.11,339.24L564.76,358L565.42,383.02L566.07,356.44L566.72,342.37L567.37,392.4L568.02,340.81L568.67,362.69L569.32,350.19L569.97,353.31L570.62,379.89L571.27,304.85L571.92,417.41L572.57,317.36L573.22,378.33L573.87,365.82L575.18,337.68L575.83,378.33L576.48,411.16L577.13,345.5L577.78,390.83L578.43,331.43L579.08,300.16L579.73,350.19L580.38,322.05L581.03,367.38L582.98,334.55L583.63,367.38L584.93,298.6L585.59,354.88L586.89,354.88L587.54,392.4L588.84,334.55L589.49,395.52L590.14,326.74L590.79,362.69L592.09,332.99L592.74,367.38L593.39,362.69L594.04,318.92L595.35,372.07L596,415.85L597.3,383.02L597.95,303.29L598.6,348.62L599.25,318.92L599.9,397.09L600.55,300.16L601.85,353.31L602.5,373.64L603.8,351.75L604.45,354.88L605.76,378.33L606.41,354.88L607.06,345.5L607.71,361.13L608.36,398.65L609.01,348.62L609.66,395.52L610.31,340.81L610.96,390.83L611.61,354.88L613.56,332.99L614.21,408.03L614.86,326.74L615.52,358L616.17,378.33L616.82,356.44L618.77,381.45L619.42,368.95L620.07,298.6L620.72,351.75L621.37,329.86L622.02,362.69L623.32,345.5L623.97,350.19L624.62,386.14L625.28,320.48L625.93,375.2L626.58,312.67L627.23,315.79L627.88,398.65L628.53,431.48L629.18,262.64L629.83,353.31L630.48,339.24L631.13,318.92L631.78,356.44L632.43,347.06L633.08,381.45L633.73,322.05L634.38,342.37L635.04,378.33L635.69,343.93L636.34,331.43L636.99,342.37L637.64,359.57L638.29,312.67L638.94,315.79L639.59,287.65L640.24,297.03L640.89,340.81L641.54,322.05L642.19,423.66L643.49,311.1L644.14,340.81L645.45,415.85L646.1,364.26L646.75,332.99L647.4,353.31L649.35,409.59L650,337.68" style="vector-effect: none; fill: none; stroke: rgb(203, 51, 0); stroke-opacity: 1; stroke-width: 2px; opacity: 1;"/></g><g class="points"/><g class="text"/></g><g class="trace scatter trace8beacc" style="stroke-miterlimit: 2; opacity: 1;"><g class="fills"/><g class="errorbars"/><g class="lines"><path class="js-line" d="M0.65,387.71L1.3,334.55L1.95,339.24L2.6,356.44L3.25,343.93L3.9,351.75L4.55,420.54L5.21,368.95L5.86,384.58L6.51,378.33L7.16,336.12L7.81,361.13L8.46,384.58L9.11,351.75L9.76,279.84L10.41,301.72L11.71,390.83L12.36,345.5L13.01,347.06L13.66,298.6L14.31,414.28L14.96,372.07L15.62,356.44L16.27,359.57L16.92,411.16L17.57,361.13L18.22,326.74L18.87,353.31L19.52,370.51L20.17,287.65L20.82,367.38L21.47,336.12L22.12,404.9L22.77,356.44L23.42,301.72L24.07,356.44L24.72,340.81L25.38,372.07L26.03,350.19L26.68,298.6L27.33,361.13L27.98,356.44L28.63,367.38L29.93,281.4L30.58,386.14L31.23,362.69L31.88,365.82L32.53,362.69L33.18,328.3L33.83,358L34.48,358L35.14,348.62L35.79,307.98L36.44,331.43L37.09,314.23L37.74,358L38.39,301.72L39.04,306.41L39.69,303.29L40.34,358L40.99,322.05L41.64,356.44L42.29,340.81L43.59,351.75L44.24,351.75L44.89,350.19L45.55,328.3L46.2,337.68L46.85,307.98L47.5,372.07L48.15,339.24L48.8,317.36L49.45,253.26L50.1,351.75L50.75,322.05L51.4,362.69L52.05,297.03L52.7,292.34L53.35,295.47L54.65,334.55L55.31,322.05L55.96,278.27L56.61,343.93L57.26,364.26L57.91,322.05L58.56,304.85L59.21,359.57L59.86,323.61L60.51,365.82L61.81,348.62L62.46,351.75L63.11,342.37L63.76,362.69L64.41,345.5L65.07,298.6L65.72,304.85L66.37,286.09L67.67,365.82L68.32,286.09L68.97,328.3L69.62,300.16L70.27,309.54L70.92,364.26L71.57,331.43L72.22,365.82L72.87,343.93L73.52,354.88L74.82,311.1L75.48,350.19L76.13,350.19L76.78,306.41L78.08,365.82L78.73,307.98L79.38,356.44L80.03,326.74L80.68,329.86L81.33,311.1L81.98,350.19L82.63,312.67L83.28,340.81L83.93,325.17L84.58,350.19L85.24,307.98L85.89,342.37L86.54,292.34L87.19,303.29L87.84,298.6L89.14,270.46L89.79,412.72L90.44,318.92L91.09,340.81L91.74,301.72L92.39,339.24L93.04,378.33L93.69,306.41L94.34,368.95L94.99,293.91L95.65,309.54L96.3,347.06L96.95,300.16L97.6,315.79L98.9,378.33L99.55,265.77L100.2,292.34L100.85,278.27L101.5,312.67L102.15,304.85L103.45,237.63L104.1,326.74L104.75,347.06L105.41,342.37L106.06,351.75L106.71,315.79L107.36,367.38L108.01,339.24L108.66,301.72L109.31,311.1L109.96,323.61L110.61,298.6L111.26,331.43L111.91,290.78L112.56,287.65L113.21,309.54L113.86,261.08L114.51,348.62L115.17,272.02L115.82,331.43L116.47,336.12L117.12,322.05L117.77,332.99L118.42,297.03L119.72,364.26L120.37,320.48L121.02,251.7L121.67,268.89L122.32,353.31L122.97,331.43L123.62,311.1L124.27,347.06L124.92,342.37L125.58,304.85L126.23,323.61L126.88,306.41L127.53,345.5L128.18,318.92L128.83,358L129.48,353.31L130.13,320.48L130.78,278.27L131.43,282.96L132.08,295.47L133.38,361.13L134.03,279.84L134.68,287.65L135.34,315.79L135.99,375.2L136.64,323.61L137.29,295.47L137.94,318.92L138.59,307.98L139.24,347.06L139.89,326.74L140.54,345.5L141.19,298.6L141.84,329.86L143.14,379.89L143.79,337.68L144.44,348.62L145.1,298.6L145.75,262.64L146.4,281.4L147.7,292.34L148.35,340.81L149,320.48L149.65,356.44L150.3,265.77L150.95,282.96L152.25,345.5L152.9,276.71L154.2,370.51L154.85,315.79L156.81,292.34L157.46,300.16L158.11,332.99L158.76,278.27L159.41,262.64L160.06,348.62L161.36,284.53L162.01,345.5L162.66,284.53L163.31,312.67L164.61,253.26L165.27,326.74L165.92,276.71L166.57,303.29L167.22,279.84L167.87,312.67L168.52,309.54L169.17,278.27L169.82,318.92L170.47,286.09L171.12,254.82L171.77,315.79L172.42,284.53L173.07,315.79L174.37,251.7L175.03,290.78L175.68,301.72L176.33,290.78L176.98,304.85L177.63,347.06L178.28,350.19L178.93,318.92L180.23,281.4L180.88,281.4L182.18,311.1L182.83,306.41L183.48,317.36L184.13,365.82L185.44,259.51L186.09,322.05L187.39,293.91L188.04,218.87L188.69,275.15L189.34,251.7L190.64,292.34L191.29,284.53L191.94,300.16L192.59,259.51L193.89,334.55L194.54,318.92L195.2,247.01L195.85,264.2L196.5,309.54L197.15,300.16L197.8,306.41L198.45,290.78L199.1,318.92L199.75,293.91L200.4,293.91L201.05,306.41L201.7,268.89L202.35,354.88L203,218.87L203.65,311.1L205.61,237.63L206.26,292.34L206.91,243.88L207.56,303.29L208.21,268.89L208.86,275.15L210.16,293.91L210.81,284.53L212.11,292.34L212.76,289.22L213.41,364.26L214.06,284.53L214.71,320.48L215.37,261.08L216.02,268.89L216.67,298.6L217.32,282.96L217.97,200.11L219.27,337.68L219.92,309.54L220.57,245.44L221.22,350.19L221.87,284.53L222.52,307.98L223.17,256.39L223.82,278.27L224.47,236.06L225.13,276.71L225.78,259.51L226.43,273.58L227.08,270.46L227.73,247.01L228.38,236.06L229.03,262.64L230.98,311.1L231.63,306.41L233.58,234.5L234.23,307.98L234.88,295.47L235.54,304.85L237.49,273.58L238.14,237.63L238.79,331.43L239.44,275.15L240.09,345.5L240.74,261.08L241.39,275.15L242.04,239.19L243.34,295.47L243.99,250.13L244.64,220.43L245.3,290.78L245.95,273.58L246.6,317.36L247.9,257.95L248.55,307.98L249.2,290.78L249.85,311.1L251.15,234.5L251.8,325.17L253.1,254.82L253.75,281.4L254.4,298.6L255.06,243.88L256.36,201.67L257.01,214.18L258.31,336.12L258.96,240.75L259.61,237.63L260.26,248.57L260.91,256.39L261.56,245.44L262.21,331.43L262.86,284.53L263.51,314.23L264.16,279.84L265.47,297.03L266.12,203.23L266.77,259.51L267.42,226.68L269.37,328.3L270.02,282.96L271.32,293.91L271.97,365.82L272.62,248.57L273.27,303.29L275.23,229.81L275.88,231.37L276.53,240.75L277.18,292.34L277.83,262.64L278.48,279.84L279.13,242.32L279.78,301.72L280.43,312.67L281.08,284.53L281.73,232.94L282.38,264.2L283.03,311.1L283.68,273.58L284.98,232.94L285.64,254.82L286.29,226.68L286.94,286.09L287.59,278.27L288.24,243.88L288.89,237.63L289.54,303.29L290.19,236.06L290.84,262.64L291.49,229.81L292.14,275.15L292.79,273.58L293.44,257.95L294.74,311.1L295.4,256.39L296.05,295.47L296.7,236.06L297.35,214.18L298,228.25L298.65,253.26L299.3,248.57L299.95,276.71L300.6,242.32L301.25,251.7L301.9,206.36L303.2,248.57L303.85,214.18L305.16,292.34L305.81,279.84L307.11,221.99L307.76,239.19L309.71,275.15L310.36,257.95L311.01,257.95L311.66,267.33L312.31,270.46L312.96,331.43L314.26,231.37L314.91,268.89L315.57,257.95L316.22,223.56L316.87,293.91L317.52,195.42L318.17,298.6L318.82,239.19L319.47,240.75L320.12,247.01L320.77,282.96L321.42,270.46L322.07,225.12L322.72,229.81L323.37,242.32L324.02,286.09L324.67,214.18L325.33,195.42L325.98,253.26L326.63,265.77L327.28,240.75L327.93,248.57L328.58,175.09L329.23,215.74L329.88,151.64L330.53,259.51L331.18,239.19L331.83,250.13L332.48,204.8L333.13,278.27L333.78,190.73L335.09,257.95L335.74,270.46L336.39,289.22L337.04,190.73L337.69,256.39L338.34,207.92L338.99,259.51L339.64,245.44L340.29,261.08L340.94,259.51L341.59,242.32L342.24,289.22L342.89,239.19L343.54,289.22L344.19,209.49L345.5,232.94L346.15,223.56L346.8,243.88L347.45,289.22L348.1,245.44L348.75,253.26L349.4,259.51L350.05,225.12L351.35,289.22L352,212.61L353.95,268.89L354.6,289.22L355.26,240.75L355.91,264.2L357.21,245.44L357.86,251.7L358.51,198.54L359.16,204.8L359.81,289.22L361.76,201.67L362.41,234.5L363.06,276.71L363.71,251.7L364.36,304.85L365.02,276.71L365.67,287.65L366.32,267.33L367.62,214.18L368.27,259.51L368.92,218.87L369.57,281.4L370.22,175.09L370.87,220.43L371.52,195.42L372.17,256.39L372.82,221.99L373.47,223.56L374.12,264.2L374.77,250.13L375.43,203.23L376.08,211.05L376.73,247.01L377.38,229.81L378.03,286.09L379.33,254.82L379.98,257.95L381.28,221.99L381.93,278.27L383.88,225.12L384.53,237.63L385.84,204.8L386.49,209.49L387.14,212.61L387.79,193.85L388.44,221.99L389.09,196.98L389.74,220.43L390.39,190.73L391.04,201.67L391.69,168.84L392.34,262.64L392.99,206.36L393.64,186.04L394.29,204.8L394.94,211.05L395.6,247.01L396.25,161.02L396.9,195.42L398.2,242.32L398.85,270.46L400.15,195.42L400.8,178.22L401.45,247.01L402.1,200.11L402.75,168.84L403.4,228.25L404.05,181.35L404.7,212.61L405.36,170.4L406.01,223.56L407.31,212.61L407.96,157.9L409.91,231.37L410.56,220.43L411.21,218.87L411.86,154.77L413.16,220.43L413.81,218.87L414.46,245.44L415.12,162.59L415.77,173.53L416.42,240.75L417.07,207.92L417.72,268.89L419.02,228.25L419.67,242.32L420.32,196.98L420.97,248.57L421.62,211.05L422.27,220.43L422.92,276.71L423.57,176.66L424.87,275.15L425.53,254.82L426.18,234.5L426.83,254.82L428.13,193.85L428.78,267.33L429.43,218.87L430.08,247.01L430.73,195.42L431.38,200.11L432.03,237.63L432.68,245.44L433.33,200.11L433.98,176.66L434.63,236.06L435.29,181.35L435.94,228.25L436.59,232.94L437.24,209.49L437.89,156.33L438.54,167.28L439.84,256.39L440.49,181.35L441.14,231.37L441.79,215.74L443.09,167.28L443.74,220.43L444.39,214.18L445.05,156.33L446.35,256.39L447,220.43L447.65,228.25L448.3,223.56L448.95,248.57L449.6,236.06L450.25,245.44L450.9,215.74L451.55,162.59L452.2,206.36L452.85,270.46L453.5,217.3L454.15,175.09L454.8,276.71L455.46,217.3L456.11,279.84L456.76,270.46L457.41,236.06L458.71,200.11L459.36,218.87L460.01,218.87L460.66,265.77L461.31,190.73L461.96,329.86L463.26,142.26L463.91,264.2L464.56,223.56L465.22,236.06L466.52,206.36L467.17,276.71L468.47,167.28L469.12,228.25L469.77,247.01L470.42,179.78L471.72,225.12L472.37,225.12L473.02,165.71L473.67,179.78L474.32,148.52L474.97,161.02L475.63,192.29L476.28,292.34L476.93,181.35L477.58,186.04L478.23,237.63L478.88,193.85L479.53,243.88L480.83,146.95L481.48,243.88L482.13,229.81L482.78,184.47L483.43,139.14L484.08,200.11L484.73,236.06L485.39,181.35L486.04,178.22L486.69,221.99L487.34,159.46L487.99,189.16L488.64,195.42L489.29,153.21L489.94,221.99L490.59,159.46L491.24,204.8L491.89,184.47L492.54,234.5L493.19,203.23L493.84,189.16L494.49,157.9L495.15,157.9L495.8,170.4L496.45,150.08L497.1,198.54L497.75,175.09L498.4,192.29L499.7,178.22L500.35,178.22L501,157.9L501.65,268.89L502.3,131.32L502.95,189.16L504.25,173.53L504.9,178.22L506.21,121.94L506.86,179.78L507.51,176.66L508.16,190.73L508.81,182.91L509.46,128.19L510.11,218.87L510.76,181.35L512.06,150.08L512.71,171.97L513.36,165.71L514.01,175.09L514.66,209.49L515.32,134.45L517.27,240.75L517.92,140.7L519.22,176.66L519.87,167.28L520.52,187.6L521.17,139.14L521.82,232.94L522.47,198.54L523.12,204.8L523.77,184.47L524.42,218.87L525.08,142.26L525.73,159.46L526.38,115.69L527.03,187.6L527.68,142.26L528.33,237.63L528.98,204.8L530.28,181.35L530.93,173.53L531.58,240.75L532.23,150.08L532.88,153.21L533.53,203.23L534.18,187.6L534.83,146.95L535.49,161.02L536.14,211.05L536.79,170.4L537.44,221.99L538.74,139.14L539.39,151.64L541.34,195.42L541.99,85.98L542.64,175.09L543.29,146.95L543.94,193.85L544.59,176.66L545.25,154.77L545.9,179.78L546.55,145.39L547.2,196.98L547.85,193.85L548.5,221.99L549.15,103.18L549.8,162.59L551.1,176.66L551.75,156.33L552.4,184.47L553.05,114.12L553.7,118.81L554.35,168.84L555.01,190.73L555.66,118.81L556.96,151.64L557.61,120.38L558.26,175.09L558.91,151.64L559.56,137.57L560.21,153.21L561.51,211.05L562.16,151.64L562.81,134.45L563.46,148.52L564.76,201.67L565.42,165.71L566.07,76.6L566.72,159.46L567.37,103.18L568.02,168.84L568.67,198.54L569.32,153.21L569.97,167.28L570.62,143.83L571.27,115.69L571.92,134.45L573.22,82.86L573.87,131.32L575.18,156.33L575.83,125.07L577.13,132.88L577.78,167.28L578.43,165.71L579.08,140.7L579.73,176.66L580.38,140.7L581.03,150.08L581.68,182.91L582.33,114.12L582.98,176.66L583.63,170.4L584.28,67.22L585.59,187.6L586.24,128.19L586.89,161.02L587.54,106.31L588.19,195.42L588.84,150.08L589.49,154.77L590.14,178.22L590.79,78.17L591.44,179.78L592.09,125.07L592.74,128.19L593.39,104.74L594.04,126.63L594.69,121.94L595.35,129.76L596,114.12L596.65,192.29L597.3,125.07L597.95,192.29L598.6,175.09L599.9,181.35L600.55,132.88L601.2,131.32L601.85,132.88L602.5,101.62L603.15,134.45L603.8,107.87L604.45,125.07L605.11,95.36L605.76,142.26L606.41,103.18L607.06,132.88L608.36,76.6L609.01,153.21L610.31,50.03L610.96,65.66L611.61,168.84L612.26,109.43L612.91,89.11L613.56,106.31L614.21,161.02L614.86,146.95L616.17,109.43L616.82,114.12L617.47,115.69L618.12,170.4L619.42,103.18L620.07,68.79L620.72,153.21L621.37,89.11L622.02,79.73L622.67,153.21L623.32,104.74L623.97,165.71L624.62,93.8L625.28,109.43L625.93,140.7L626.58,106.31L627.23,143.83L627.88,111L628.53,70.35L629.18,156.33L629.83,187.6L630.48,123.5L631.13,51.59L631.78,98.49L632.43,112.56L633.08,12.51L633.73,145.39L634.38,107.87L635.04,112.56L635.69,142.26L636.34,123.5L636.99,68.79L638.29,121.94L638.94,117.25L639.59,89.11L640.24,170.4L640.89,43.77L641.54,129.76L642.19,179.78L642.84,76.6L643.49,187.6L644.14,136.01L644.79,153.21L645.45,98.49L646.1,131.32L646.75,89.11L647.4,153.21L648.05,70.35L648.7,134.45L649.35,132.88L650,78.17" style="vector-effect: none; fill: none; stroke: rgb(49, 99, 206); stroke-opacity: 1; stroke-width: 2px; opacity: 1;"/></g><g class="points"/><g class="text"/></g></g></g></g><path class="xlines-above crisp" d="M49,477.5H700" style="fill: none; stroke-width: 1px; stroke: rgb(113, 113, 122); stroke-opacity: 1;"/><path class="ylines-above crisp" d="M49.5,8V477" style="fill: none; stroke-width: 1px; stroke: rgb(113, 113, 122); stroke-opacity: 1;"/><g class="overlines-above"/><g class="xaxislayer-above"><g class="xtick"><text text-anchor="middle" x="0" y="497.2" transform="translate(50,0)" style="font-family: InterVariable, sans-serif; font-size: 16px; fill: rgb(113, 113, 122); fill-opacity: 1; white-space: pre; opacity: 1;">0</text></g><g class="xtick"><text text-anchor="middle" x="0" y="497.2" style="font-family: InterVariable, sans-serif; font-size: 16px; fill: rgb(113, 113, 122); fill-opacity: 1; white-space: pre; opacity: 1;" transform="translate(180.13,0)">0.2M</text></g><g class="xtick"><text text-anchor="middle" x="0" y="497.2" style="font-family: InterVariable, sans-serif; font-size: 16px; fill: rgb(113, 113, 122); fill-opacity: 1; white-space: pre; opacity: 1;" transform="translate(310.26,0)">0.4M</text></g><g class="xtick"><text text-anchor="middle" x="0" y="497.2" style="font-family: InterVariable, sans-serif; font-size: 16px; fill: rgb(113, 113, 122); fill-opacity: 1; white-space: pre; opacity: 1;" transform="translate(440.39,0)">0.6M</text></g><g class="xtick"><text text-anchor="middle" x="0" y="497.2" style="font-family: InterVariable, sans-serif; font-size: 16px; fill: rgb(113, 113, 122); fill-opacity: 1; white-space: pre; opacity: 1;" transform="translate(570.52,0)">0.8M</text></g></g><g class="yaxislayer-above"><g class="ytick"><text text-anchor="end" x="45.8" y="5.6" transform="translate(0,477)" style="font-family: InterVariable, sans-serif; font-size: 16px; fill: rgb(113, 113, 122); fill-opacity: 1; white-space: pre; opacity: 1;">1.3</text></g><g class="ytick"><text text-anchor="end" x="45.8" y="5.6" style="font-family: InterVariable, sans-serif; font-size: 16px; fill: rgb(113, 113, 122); fill-opacity: 1; white-space: pre; opacity: 1;" transform="translate(0,398.83)">1.35</text></g><g class="ytick"><text text-anchor="end" x="45.8" y="5.6" style="font-family: InterVariable, sans-serif; font-size: 16px; fill: rgb(113, 113, 122); fill-opacity: 1; white-space: pre; opacity: 1;" transform="translate(0,320.67)">1.4</text></g><g class="ytick"><text text-anchor="end" x="45.8" y="5.6" style="font-family: InterVariable, sans-serif; font-size: 16px; fill: rgb(113, 113, 122); fill-opacity: 1; white-space: pre; opacity: 1;" transform="translate(0,242.5)">1.45</text></g><g class="ytick"><text text-anchor="end" x="45.8" y="5.6" style="font-family: InterVariable, sans-serif; font-size: 16px; fill: rgb(113, 113, 122); fill-opacity: 1; white-space: pre; opacity: 1;" transform="translate(0,164.33)">1.5</text></g><g class="ytick"><text text-anchor="end" x="45.8" y="5.6" style="font-family: InterVariable, sans-serif; font-size: 16px; fill: rgb(113, 113, 122); fill-opacity: 1; white-space: pre; opacity: 1;" transform="translate(0,86.17)">1.55</text></g><g class="ytick"><text text-anchor="end" x="45.8" y="5.6" style="font-family: InterVariable, sans-serif; font-size: 16px; fill: rgb(113, 113, 122); fill-opacity: 1; white-space: pre; opacity: 0;" transform="translate(0,8)">1.6</text></g></g><g class="overaxes-above"/></g></g><g class="polarlayer"/><g class="smithlayer"/><g class="ternarylayer"/><g class="geolayer"/><g class="funnelarealayer"/><g class="pielayer"/><g class="iciclelayer"/><g class="treemaplayer"/><g class="sunburstlayer"/><g class="glimages"/><defs id="topdefs-de1d01"><g class="clips"/></defs><g class="layer-above"><g class="imagelayer"/><g class="shapelayer"/></g><g class="infolayer"><g class="g-gtitle"/><g class="g-xtitle"/><g class="g-ytitle"/></g></svg>