<svg class="main-svg" xmlns="http://www.w3.org/2000/svg" xmlns:xlink="http://www.w3.org/1999/xlink" width="700" height="500" style="" viewBox="0 0 700 500"><rect x="0" y="0" width="700" height="500" style="fill: rgb(0, 0, 0); fill-opacity: 0;"/><defs id="defs-cec0bb"><g class="clips"><clipPath id="clipcec0bbxyplot" class="plotclip"><rect width="650" height="469"/></clipPath><clipPath class="axesclip" id="clipcec0bbx"><rect x="50" y="0" width="650" height="500"/></clipPath><clipPath class="axesclip" id="clipcec0bby"><rect x="0" y="8" width="700" height="469"/></clipPath><clipPath class="axesclip" id="clipcec0bbxy"><rect x="50" y="8" width="650" height="469"/></clipPath></g><g class="gradients"/><g class="patterns"/></defs><g class="bglayer"><rect class="bg" x="50" y="8" width="650" height="469" style="fill: rgb(0, 0, 0); fill-opacity: 0; stroke-width: 0;"/></g><g class="layer-below"><g class="imagelayer"/><g class="shapelayer"/></g><g class="cartesianlayer"><g class="subplot xy"><g class="layer-subplot"><g class="shapelayer"/><g class="imagelayer"/></g><g class="minor-gridlayer"><g class="x"/><g class="y"/></g><g class="gridlayer"><g class="x"/><g class="y"><path class="ygrid crisp" transform="translate(0,383.2)" d="M50,0h650" style="stroke: rgb(113, 113, 122); stroke-opacity: 1; stroke-width: 1px;"/><path class="ygrid crisp" transform="translate(0,289.4)" d="M50,0h650" style="stroke: rgb(113, 113, 122); stroke-opacity: 1; stroke-width: 1px;"/><path class="ygrid crisp" transform="translate(0,195.6)" d="M50,0h650" style="stroke: rgb(113, 113, 122); stroke-opacity: 1; stroke-width: 1px;"/><path class="ygrid crisp" transform="translate(0,101.8)" d="M50,0h650" style="stroke: rgb(113, 113, 122); stroke-opacity: 1; stroke-width: 1px;"/></g></g><g class="zerolinelayer"/><g class="layer-between"><g class="shapelayer"/><g class="imagelayer"/></g><path class="xlines-below"/><path class="ylines-below"/><g class="overlines-below"/><g class="xaxislayer-below"/><g class="yaxislayer-below"/><g class="overaxes-below"/><g class="overplot"><g class="xy" transform="translate(50,8)" clip-path="url(#clipcec0bbxyplot)"><g class="scatterlayer mlayer"><g class="trace scatter traceef8f19" style="stroke-miterlimit: 2; opacity: 1;"><g class="fills"/><g class="errorbars"/><g class="lines"><path class="js-line" d="M0.65,287.03L1.3,240.13L1.95,274.83L2.6,285.15L3.25,272.02L3.9,249.51L4.55,268.27L5.21,227L5.86,247.63L6.51,217.62L7.16,240.13L8.46,257.01L9.11,225.12L9.76,214.8L10.41,302.04L11.06,287.03L11.71,232.62L12.36,278.59L13.01,259.83L13.66,276.71L14.31,242.94L14.96,286.09L15.62,257.01L16.27,225.12L16.92,248.57L17.57,191.35L18.22,254.2L18.87,261.7L19.52,221.37L20.17,278.59L20.82,214.8L21.47,271.08L22.12,228.87L22.77,287.97L23.42,250.45L24.72,213.86L25.38,253.26L26.03,230.75L26.68,315.17L27.33,238.25L27.98,264.52L28.63,241.07L29.28,285.15L30.58,221.37L31.23,253.26L31.88,212.93L32.53,279.52L33.18,223.24L33.83,248.57L34.48,260.76L35.14,230.75L35.79,282.34L36.44,236.38L37.09,265.45L37.74,259.83L38.39,279.52L39.04,272.96L40.34,211.05L40.99,244.82L41.64,270.14L42.29,242.94L43.59,266.39L44.24,204.48L44.89,219.49L45.55,297.35L46.2,185.72L46.85,217.62L48.15,255.14L48.8,236.38L50.1,231.69L50.75,261.7L51.4,285.15L52.05,240.13L52.7,220.43L53.35,257.95L54,192.29L54.65,263.58L55.31,202.61L55.96,284.21L56.61,266.39L57.26,223.24L57.91,269.21L58.56,260.76L59.21,196.98L59.86,216.68L61.16,287.03L61.81,237.31L62.46,273.9L63.11,267.33L63.76,268.27L64.41,276.71L65.72,236.38L66.37,250.45L67.02,253.26L67.67,237.31L68.32,226.06L68.97,229.81L69.62,246.69L70.27,230.75L70.92,211.05L71.57,290.78L72.22,221.37L72.87,245.76L73.52,220.43L74.17,269.21L74.82,226.06L75.48,235.44L76.13,207.3L76.78,220.43L77.43,227L78.08,280.46L79.38,211.05L80.03,196.04L81.33,274.83L81.98,223.24L82.63,296.41L83.28,182.91L83.93,268.27L84.58,259.83L85.24,237.31L85.89,274.83L86.54,223.24L87.19,245.76L87.84,227L88.49,227L89.14,307.66L91.09,192.29L91.74,255.14L92.39,245.76L93.04,276.71L94.34,259.83L94.99,273.9L96.3,214.8L96.95,231.69L97.6,281.4L98.25,203.55L98.9,194.17L99.55,224.18L100.2,212.93L100.85,264.52L101.5,198.86L102.15,245.76L102.8,217.62L103.45,275.77L104.1,245.76L104.75,287.03L105.41,266.39L106.06,288.9L106.71,279.52L107.36,236.38L108.01,202.61L108.66,267.33L109.31,211.99L109.96,281.4L110.61,225.12L111.26,265.45L111.91,194.17L112.56,220.43L113.21,287.03L113.86,222.31L114.51,220.43L115.17,269.21L116.47,222.31L117.12,257.95L117.77,221.37L118.42,257.01L119.07,255.14L119.72,241.07L120.37,306.73L121.02,228.87L122.97,266.39L123.62,303.91L124.92,242L125.58,245.76L126.23,234.5L126.88,251.38L127.53,237.31L128.18,294.53L128.83,251.38L129.48,268.27L130.78,216.68L131.43,253.26L132.08,264.52L132.73,217.62L133.38,193.23L134.03,248.57L134.68,247.63L135.34,181.03L135.99,271.08L136.64,227L137.94,243.88L138.59,193.23L139.24,245.76L139.89,213.86L140.54,183.85L141.19,243.88L141.84,278.59L142.49,271.08L143.14,224.18L143.79,246.69L144.44,240.13L145.1,288.9L145.75,183.85L146.4,255.14L147.7,266.39L148.35,191.35L149.65,292.66L150.3,269.21L151.6,237.31L152.25,241.07L152.9,281.4L153.55,248.57L154.2,220.43L154.85,259.83L155.51,271.08L156.16,246.69L156.81,271.08L157.46,212.93L158.11,223.24L158.76,216.68L159.41,220.43L160.06,268.27L160.71,216.68L161.36,231.69L162.01,242.94L162.66,278.59L163.96,227.93L164.61,253.26L165.27,269.21L165.92,243.88L166.57,244.82L167.22,264.52L167.87,247.63L168.52,259.83L169.17,254.2L169.82,277.65L170.47,224.18L171.12,270.14L171.77,128.51L172.42,286.09L173.72,194.17L174.37,298.28L175.68,214.8L176.33,273.9L176.98,257.01L177.63,258.89L178.28,258.89L178.93,223.24L179.58,257.95L180.23,270.14L180.88,257.95L181.53,272.02L182.18,214.8L182.83,264.52L183.48,259.83L184.13,279.52L185.44,237.31L186.09,208.24L187.39,259.83L188.04,240.13L189.99,287.03L190.64,246.69L191.29,248.57L191.94,238.25L192.59,281.4L193.24,230.75L193.89,228.87L194.54,245.76L195.2,240.13L195.85,273.9L197.15,239.19L197.8,262.64L199.1,208.24L199.75,273.9L200.4,209.17L201.05,290.78L201.7,305.79L202.35,226.06L203,196.04L203.65,244.82L204.3,301.1L204.95,193.23L205.61,209.17L206.26,193.23L206.91,238.25L207.56,225.12L208.21,293.59L208.86,188.54L209.51,287.03L210.16,246.69L210.81,247.63L211.46,237.31L212.11,292.66L212.76,238.25L214.06,218.55L214.71,267.33L215.37,278.59L216.02,228.87L216.67,267.33L217.32,236.38L217.97,260.76L218.62,242L219.27,241.07L219.92,252.32L221.22,237.31L221.87,183.85L222.52,280.46L223.17,276.71L223.82,267.33L224.47,197.92L225.13,254.2L225.78,246.69L226.43,263.58L227.73,272.96L228.38,226.06L229.68,242.94L230.33,230.75L230.98,248.57L231.63,206.36L232.93,270.14L233.58,250.45L234.23,236.38L234.88,242L235.54,242L236.19,216.68L236.84,269.21L237.49,196.98L238.14,258.89L238.79,248.57L239.44,223.24L240.09,269.21L240.74,241.07L241.39,298.28L242.04,229.81L242.69,272.02L243.34,266.39L243.99,190.41L244.64,289.84L245.3,242.94L245.95,274.83L246.6,192.29L247.25,264.52L247.9,223.24L249.2,267.33L249.85,219.49L250.5,215.74L251.15,254.2L252.45,204.48L253.1,242.94L253.75,290.78L254.4,199.79L255.06,196.04L255.71,227.93L256.36,259.83L257.01,233.56L257.66,302.97L258.31,213.86L258.96,243.88L259.61,211.99L260.26,268.27L260.91,257.01L261.56,212.93L262.21,271.08L262.86,283.28L263.51,243.88L264.16,238.25L264.81,262.64L265.47,234.5L266.12,242.94L266.77,210.11L267.42,230.75L268.07,204.48L268.72,314.23L270.02,215.74L270.67,276.71L271.32,217.62L271.97,267.33L272.62,211.05L273.27,237.31L273.92,253.26L274.57,225.12L275.23,220.43L275.88,244.82L276.53,269.21L277.18,253.26L277.83,250.45L278.48,194.17L279.13,219.49L279.78,284.21L281.73,213.86L282.38,206.36L283.03,303.91L283.68,275.77L284.33,234.5L284.98,242.94L285.64,199.79L286.29,263.58L287.59,229.81L288.24,274.83L290.19,201.67L290.84,197.92L291.49,265.45L292.14,248.57L293.44,226.06L294.09,235.44L294.74,169.78L295.4,274.83L296.7,208.24L297.35,302.97L298,254.2L298.65,279.52L299.3,257.01L299.95,275.77L301.25,218.55L301.9,221.37L302.55,252.32L303.2,289.84L303.85,258.89L304.5,274.83L305.16,270.14L306.46,217.62L307.11,250.45L307.76,306.73L308.41,285.15L309.71,220.43L310.36,277.65L311.66,250.45L312.31,219.49L313.61,287.03L314.26,240.13L314.91,241.07L315.57,264.52L316.22,221.37L316.87,227.93L317.52,280.46L318.82,228.87L319.47,298.28L320.12,268.27L320.77,197.92L321.42,275.77L322.07,253.26L322.72,216.68L323.37,275.77L324.02,280.46L324.67,234.5L325.33,237.31L325.98,285.15L327.28,189.48L327.93,258.89L329.23,266.39L329.88,244.82L330.53,206.36L331.18,245.76L331.83,253.26L332.48,279.52L333.13,205.42L333.78,243.88L334.43,211.05L335.09,280.46L336.39,199.79L337.04,246.69L337.69,249.51L338.34,266.39L339.64,215.74L340.29,272.02L340.94,248.57L341.59,270.14L342.24,303.91L342.89,234.5L343.54,242L344.19,225.12L344.84,258.89L345.5,200.73L346.15,261.7L346.8,244.82L348.1,274.83L348.75,239.19L349.4,272.02L350.05,256.07L350.7,254.2L351.35,271.08L352,275.77L352.65,206.36L353.3,256.07L353.95,247.63L354.6,256.07L355.26,283.28L356.56,267.33L357.21,180.1L357.86,198.86L358.51,247.63L359.16,239.19L359.81,193.23L360.46,185.72L361.11,241.07L361.76,240.13L362.41,254.2L363.06,263.58L363.71,240.13L364.36,254.2L365.02,199.79L366.32,218.55L366.97,224.18L368.27,273.9L368.92,265.45L369.57,233.56L370.22,250.45L370.87,250.45L371.52,176.34L372.82,271.08L373.47,236.38L374.12,216.68L374.77,266.39L376.08,242L376.73,274.83L378.03,227.93L378.68,228.87L379.33,264.52L379.98,237.31L380.63,264.52L381.28,246.69L381.93,244.82L382.58,275.77L383.23,196.04L383.88,220.43L385.19,251.38L385.84,202.61L387.14,257.01L387.79,255.14L388.44,238.25L389.09,270.14L390.39,243.88L391.04,186.66L392.34,300.16L392.99,249.51L393.64,279.52L394.29,231.69L394.94,257.95L395.6,223.24L396.25,272.02L396.9,261.7L398.2,263.58L398.85,288.9L399.5,263.58L400.15,274.83L400.8,227L401.45,233.56L402.1,248.57L403.4,226.06L404.05,257.95L404.7,230.75L405.36,234.5L406.01,270.14L406.66,256.07L407.31,261.7L407.96,277.65L408.61,265.45L409.26,202.61L409.91,264.52L410.56,246.69L411.21,260.76L412.51,233.56L413.16,299.22L413.81,246.69L414.46,247.63L415.12,299.22L416.42,237.31L417.07,253.26L417.72,296.41L418.37,190.41L419.02,287.97L419.67,225.12L420.32,239.19L420.97,211.99L421.62,339.56L422.27,227L423.57,249.51L424.22,196.98L424.87,288.9L425.53,278.59L426.18,230.75L427.48,287.03L428.13,211.05L428.78,261.7L429.43,207.3L430.73,253.26L431.38,219.49L432.03,244.82L432.68,169.78L433.33,302.04L433.98,253.26L434.63,272.02L435.29,199.79L436.59,254.2L437.24,224.18L437.89,225.12L438.54,287.03L439.19,243.88L439.84,271.08L440.49,278.59L441.14,237.31L442.44,314.23L443.09,305.79L443.74,243.88L444.39,248.57L445.05,288.9L445.7,289.84L446.35,184.79L447,253.26L447.65,223.24L448.3,272.02L448.95,257.95L450.25,294.53L450.9,236.38L451.55,256.07L452.2,226.06L452.85,271.08L453.5,204.48L454.8,311.42L455.46,236.38L456.76,260.76L457.41,219.49L458.06,254.2L458.71,209.17L460.66,282.34L461.31,263.58L461.96,196.04L462.61,270.14L463.26,196.04L463.91,223.24L465.22,252.32L465.87,315.17L466.52,223.24L467.17,239.19L467.82,251.38L468.47,309.54L469.77,202.61L470.42,224.18L471.07,244.82L471.72,242.94L472.37,242L473.02,211.99L473.67,245.76L474.32,219.49L474.97,238.25L475.63,266.39L476.28,213.86L476.93,273.9L477.58,242.94L478.23,247.63L478.88,242.94L479.53,236.38L480.18,206.36L482.13,272.96L482.78,272.96L483.43,242L484.08,249.51L484.73,254.2L485.39,229.81L486.04,210.11L486.69,230.75L487.34,159.46L487.99,249.51L488.64,236.38L489.29,238.25L489.94,206.36L491.24,282.34L491.89,195.1L493.19,220.43L493.84,228.87L494.49,272.96L495.15,214.8L495.8,268.27L496.45,231.69L497.1,213.86L497.75,221.37L498.4,261.7L499.05,220.43L501,257.95L501.65,226.06L502.3,253.26L502.95,219.49L504.25,264.52L504.9,220.43L505.56,202.61L506.21,263.58L507.51,233.56L508.16,222.31L508.81,281.4L509.46,250.45L510.11,268.27L510.76,226.06L511.41,227L512.06,257.95L513.36,234.5L514.01,247.63L514.66,268.27L515.32,235.44L516.62,270.14L517.27,237.31L517.92,243.88L518.57,227L520.52,321.73L521.17,243.88L521.82,235.44L522.47,251.38L523.12,267.33L523.77,240.13L525.08,303.91L525.73,242L526.38,242.94L527.03,197.92L528.33,291.72L528.98,221.37L529.63,225.12L530.28,246.69L530.93,227.93L531.58,261.7L532.23,268.27L532.88,264.52L533.53,256.07L534.18,267.33L534.83,251.38L535.49,293.59L536.79,215.74L537.44,260.76L538.09,193.23L538.74,268.27L539.39,272.02L540.04,205.42L541.34,298.28L541.99,288.9L543.29,198.86L543.94,204.48L544.59,260.76L545.25,242.94L545.9,244.82L546.55,242.94L547.2,213.86L547.85,217.62L548.5,292.66L549.15,237.31L549.8,256.07L550.45,260.76L551.1,218.55L551.75,258.89L552.4,256.07L553.05,234.5L553.7,242.94L554.35,229.81L555.01,205.42L555.66,208.24L556.31,203.55L556.96,244.82L557.61,222.31L558.26,212.93L558.91,288.9L559.56,242.94L560.21,261.7L560.86,335.8L561.51,257.01L562.16,141.64L562.81,234.5L563.46,287.03L564.11,277.65L564.76,257.01L565.42,264.52L566.07,276.71L566.72,203.55L567.37,278.59L568.02,251.38L568.67,219.49L569.32,269.21L571.27,212.93L571.92,207.3L572.57,252.32L573.22,199.79L574.52,258.89L575.18,256.07L576.48,229.81L577.13,247.63L577.78,247.63L578.43,253.26L579.08,230.75L579.73,282.34L580.38,287.97L581.03,227.93L581.68,234.5L582.33,176.34L583.63,242L584.28,209.17L586.24,256.07L586.89,230.75L587.54,267.33L588.19,243.88L588.84,241.07L589.49,275.77L590.79,224.18L591.44,223.24L592.09,215.74L592.74,241.07L593.39,251.38L594.04,227.93L596,302.97L596.65,269.21L597.95,234.5L598.6,181.97L599.25,198.86L599.9,255.14L601.2,232.62L601.85,272.02L602.5,259.83L603.15,200.73L604.45,243.88L605.11,236.38L605.76,271.08L606.41,240.13L607.06,289.84L607.71,278.59L609.01,235.44L609.66,256.07L610.31,243.88L610.96,264.52L611.61,259.83L612.26,241.07L612.91,182.91L613.56,257.95L614.21,280.46L614.86,216.68L616.17,280.46L616.82,249.51L617.47,221.37L618.12,228.87L618.77,298.28L619.42,244.82L620.07,247.63L620.72,178.22L621.37,201.67L622.02,253.26L622.67,223.24L623.32,241.07L623.97,239.19L624.62,252.32L625.28,229.81L625.93,237.31L626.58,230.75L627.23,211.05L628.53,229.81L629.18,207.3L629.83,279.52L630.48,192.29L631.78,242L632.43,189.48L633.73,226.06L634.38,214.8L635.69,297.35L636.34,257.95L636.99,206.36L637.64,228.87L638.29,216.68L638.94,243.88L640.24,211.99L640.89,291.72L641.54,207.3L642.19,239.19L642.84,269.21L643.49,236.38L644.79,258.89L645.45,247.63L646.1,197.92L646.75,223.24L647.4,310.48L648.05,242.94L649.35,270.14L650,246.69" style="vector-effect: none; fill: none; stroke: rgb(203, 51, 0); stroke-opacity: 1; stroke-width: 2px; opacity: 1;"/></g><g class="points"/><g class="text"/></g><g class="trace scatter tracea0fe01" style="stroke-miterlimit: 2; opacity: 1;"><g class="fills"/><g class="errorbars"/><g class="lines"><path class="js-line" d="M0.65,384.58L1.3,387.39L1.95,363.94L2.6,360.19L3.25,324.55L3.9,364.88L4.55,345.18L5.21,391.15L5.86,364.88L6.51,358.32L7.16,392.08L7.81,325.49L8.46,393.96L9.11,335.8L9.76,403.34L11.06,366.76L11.71,430.54L13.66,342.37L14.31,303.91L15.62,411.78L16.27,348L16.92,356.44L17.57,348.94L18.87,385.52L19.52,355.5L20.17,324.55L20.82,361.13L21.47,394.9L22.12,363.01L22.77,337.68L23.42,361.13L24.07,298.28L24.72,353.63L25.38,351.75L26.03,341.43L26.68,307.66L27.33,379.89L28.63,349.87L29.28,362.07L29.93,361.13L30.58,300.16L31.88,381.77L32.53,393.96L33.18,338.62L33.83,415.53L35.14,311.42L35.79,387.39L36.44,363.01L37.09,375.2L37.74,326.42L38.39,349.87L39.04,320.8L39.69,362.07L40.34,376.14L40.99,318.92L41.64,339.56L42.29,324.55L42.94,325.49L43.59,302.97L44.89,368.63L45.55,340.49L46.2,341.43L46.85,370.51L47.5,342.37L48.15,348L48.8,354.56L49.45,334.87L50.1,381.77L50.75,324.55L52.05,341.43L52.7,326.42L53.35,314.23L54,332.05L54.65,332.99L55.31,322.67L55.96,318.92L56.61,355.5L57.26,335.8L57.91,352.69L58.56,353.63L59.21,367.7L59.86,363.01L60.51,368.63L61.81,323.61L62.46,327.36L63.76,364.88L64.41,357.38L65.07,338.62L65.72,395.84L66.37,305.79L67.02,362.07L67.67,343.31L68.32,365.82L68.97,348L69.62,283.28L70.92,348L71.57,319.86L73.52,375.2L74.17,346.12L74.82,338.62L75.48,368.63L76.13,392.08L76.78,366.76L77.43,331.11L78.08,389.27L80.03,290.78L80.68,327.36L81.33,317.98L81.98,341.43L82.63,288.9L83.28,327.36L83.93,338.62L84.58,326.42L85.24,372.39L85.89,296.41L86.54,282.34L87.19,320.8L87.84,282.34L88.49,318.92L89.14,314.23L89.79,323.61L90.44,318.92L91.09,334.87L91.74,318.92L92.39,332.05L93.69,288.9L94.34,290.78L94.99,275.77L95.65,356.44L98.25,302.97L98.9,288.9L99.55,312.35L100.2,291.72L101.5,344.25L102.15,310.48L103.45,333.93L104.1,312.35L104.75,316.11L105.41,361.13L106.06,292.66L106.71,313.29L107.36,306.73L108.01,369.57L109.31,261.7L109.96,311.42L110.61,369.57L111.26,317.98L111.91,274.83L112.56,324.55L113.86,282.34L114.51,274.83L115.17,341.43L115.82,329.24L116.47,347.06L117.12,328.3L117.77,333.93L118.42,266.39L119.07,299.22L119.72,287.03L120.37,340.49L121.02,335.8L121.67,312.35L122.32,260.76L122.97,308.6L123.62,334.87L124.27,302.04L124.92,317.98L125.58,364.88L126.88,324.55L127.53,320.8L128.83,280.46L129.48,330.18L130.13,332.99L130.78,287.03L131.43,300.16L132.08,290.78L132.73,258.89L133.38,332.05L134.03,288.9L134.68,296.41L135.34,243.88L135.99,295.47L136.64,283.28L137.29,308.6L137.94,299.22L138.59,310.48L139.24,302.97L139.89,307.66L140.54,282.34L141.19,329.24L141.84,301.1L142.49,322.67L143.14,353.63L143.79,269.21L144.44,347.06L145.1,294.53L145.75,328.3L146.4,324.55L147.05,297.35L147.7,332.99L148.35,314.23L149,306.73L149.65,317.04L150.95,291.72L151.6,297.35L152.25,313.29L152.9,295.47L153.55,289.84L154.2,332.99L154.85,336.74L155.51,275.77L156.16,294.53L156.81,350.81L157.46,278.59L158.11,298.28L158.76,253.26L159.41,273.9L160.06,275.77L160.71,310.48L161.36,277.65L162.01,285.15L162.66,283.28L163.31,318.92L163.96,319.86L164.61,295.47L165.27,306.73L165.92,344.25L166.57,240.13L167.22,284.21L167.87,289.84L168.52,216.68L171.12,348.94L171.77,319.86L172.42,303.91L173.07,310.48L173.72,305.79L174.37,295.47L175.68,277.65L176.33,336.74L176.98,305.79L177.63,316.11L178.28,260.76L178.93,299.22L179.58,277.65L180.23,292.66L180.88,305.79L181.53,287.03L182.18,321.73L182.83,276.71L184.13,243.88L184.78,313.29L186.09,269.21L186.74,340.49L187.39,227.93L188.04,308.6L189.34,239.19L189.99,269.21L191.29,252.32L191.94,265.45L192.59,302.97L193.24,263.58L193.89,282.34L194.54,255.14L195.85,311.42L196.5,329.24L197.15,253.26L197.8,271.08L198.45,311.42L199.1,249.51L199.75,301.1L200.4,298.28L201.05,304.85L201.7,302.04L202.35,219.49L203,310.48L203.65,278.59L204.3,312.35L204.95,289.84L205.61,212.93L206.26,273.9L206.91,268.27L207.56,275.77L208.21,246.69L208.86,270.14L209.51,257.01L210.16,294.53L210.81,268.27L211.46,286.09L212.11,295.47L212.76,245.76L213.41,212.93L214.06,260.76L214.71,299.22L215.37,290.78L216.02,276.71L216.67,302.97L217.97,241.07L218.62,278.59L219.27,291.72L219.92,240.13L220.57,221.37L221.22,253.26L221.87,271.08L222.52,244.82L223.17,271.08L223.82,223.24L224.47,231.69L225.13,257.95L226.43,294.53L227.08,225.12L227.73,264.52L228.38,254.2L229.03,245.76L229.68,330.18L230.33,266.39L230.98,298.28L231.63,276.71L232.28,304.85L232.93,326.42L233.58,264.52L234.23,258.89L234.88,243.88L235.54,210.11L236.19,259.83L236.84,239.19L237.49,255.14L238.14,236.38L238.79,267.33L239.44,324.55L240.09,209.17L240.74,268.27L241.39,264.52L242.04,267.33L242.69,281.4L243.34,242L243.99,287.97L244.64,256.07L245.3,286.09L245.95,275.77L247.25,251.38L247.9,262.64L248.55,274.83L249.2,253.26L249.85,255.14L250.5,311.42L251.8,249.51L252.45,228.87L254.4,296.41L255.06,254.2L255.71,273.9L256.36,193.23L257.66,338.62L258.31,214.8L258.96,300.16L259.61,218.55L260.26,302.04L260.91,241.07L261.56,326.42L262.21,243.88L262.86,207.3L263.51,210.11L264.16,255.14L265.47,308.6L266.12,211.05L267.42,258.89L268.07,255.14L268.72,285.15L269.37,219.49L270.02,260.76L270.67,234.5L271.32,243.88L271.97,266.39L272.62,272.96L273.27,227L274.57,292.66L275.23,232.62L275.88,250.45L276.53,203.55L277.18,202.61L277.83,221.37L279.13,226.06L279.78,204.48L281.08,302.04L281.73,261.7L282.38,297.35L283.03,261.7L283.68,264.52L284.33,256.07L284.98,250.45L285.64,254.2L286.29,276.71L286.94,198.86L287.59,303.91L288.24,198.86L288.89,263.58L289.54,242L290.19,247.63L290.84,239.19L292.14,224.18L292.79,257.01L293.44,247.63L294.09,217.62L295.4,276.71L296.05,229.81L296.7,240.13L297.35,193.23L298,273.9L298.65,246.69L299.3,243.88L299.95,224.18L300.6,261.7L301.25,246.69L301.9,214.8L302.55,221.37L303.85,261.7L304.5,220.43L305.16,198.86L305.81,230.75L306.46,223.24L307.11,234.5L307.76,253.26L308.41,237.31L309.06,242.94L309.71,210.11L310.36,234.5L311.01,223.24L312.96,239.19L313.61,226.06L314.26,194.17L314.91,220.43L315.57,211.05L316.22,245.76L316.87,235.44L317.52,238.25L319.47,180.1L320.12,270.14L320.77,273.9L321.42,270.14L322.72,217.62L323.37,184.79L325.33,219.49L325.98,266.39L326.63,210.11L327.28,221.37L327.93,283.28L328.58,224.18L329.23,196.04L329.88,227.93L330.53,257.01L331.18,230.75L331.83,198.86L332.48,229.81L333.13,257.01L333.78,238.25L334.43,210.11L335.09,211.99L335.74,257.01L338.34,188.54L338.99,211.05L339.64,166.03L340.29,211.99L340.94,216.68L341.59,191.35L342.89,234.5L343.54,227L344.19,226.06L344.84,253.26L346.15,242.94L346.8,257.95L347.45,153.83L348.1,192.29L349.4,247.63L350.05,177.28L351.35,274.83L352,189.48L352.65,247.63L353.3,196.04L353.95,233.56L354.6,230.75L355.26,239.19L355.91,234.5L356.56,192.29L357.21,241.07L357.86,205.42L358.51,245.76L359.16,191.35L359.81,293.59L360.46,220.43L361.11,190.41L361.76,252.32L362.41,172.59L363.06,199.79L364.36,231.69L365.02,191.35L365.67,160.4L366.32,197.92L366.97,196.98L367.62,199.79L368.27,190.41L368.92,165.09L369.57,227.93L370.22,205.42L370.87,137.89L371.52,188.54L372.17,179.16L372.82,121.94L373.47,126.63L374.12,218.55L374.77,211.05L375.43,189.48L376.08,172.59L376.73,212.93L377.38,205.42L378.03,210.11L378.68,133.2L379.33,244.82L379.98,239.19L380.63,159.46L381.28,206.36L381.93,182.91L383.23,238.25L383.88,188.54L385.19,252.32L385.84,197.92L386.49,193.23L387.14,218.55L388.44,181.97L389.09,185.72L389.74,210.11L390.39,197.92L391.04,212.93L391.69,192.29L392.34,169.78L392.99,185.72L393.64,145.39L394.29,249.51L396.25,172.59L396.9,204.48L397.55,192.29L398.2,215.74L399.5,196.98L400.15,216.68L400.8,220.43L401.45,162.27L402.1,151.02L402.75,207.3L403.4,106.93L404.05,159.46L405.36,170.72L406.01,110.68L406.66,206.36L407.31,200.73L407.96,191.35L408.61,135.07L409.26,186.66L409.91,202.61L410.56,142.58L411.21,257.95L411.86,210.11L412.51,166.96L413.16,233.56L413.81,141.64L414.46,173.53L417.07,212.93L417.72,196.04L418.37,185.72L419.02,141.64L420.32,157.58L420.97,200.73L421.62,163.21L422.27,197.92L423.57,147.27L424.22,212.93L424.87,183.85L425.53,234.5L426.18,188.54L426.83,203.55L427.48,201.67L428.13,204.48L428.78,202.61L429.43,160.4L430.08,168.84L430.73,190.41L432.03,174.47L432.68,196.04L433.98,210.11L434.63,144.45L435.29,197.92L435.94,151.02L436.59,186.66L437.24,176.34L437.89,163.21L438.54,122.88L439.19,169.78L439.84,125.69L440.49,138.82L441.14,207.3L441.79,129.44L442.44,168.84L443.74,220.43L444.39,151.02L445.05,179.16L445.7,136.95L446.35,205.42L447,184.79L447.65,192.29L448.3,155.71L448.95,202.61L449.6,196.98L450.25,124.75L450.9,189.48L451.55,173.53L452.2,117.25L452.85,184.79L454.15,151.96L454.8,163.21L456.11,207.3L456.76,176.34L457.41,135.07L458.06,151.02L458.71,207.3L459.36,146.33L460.01,142.58L460.66,152.89L461.31,136.01L461.96,161.34L462.61,153.83L463.26,126.63L464.56,190.41L465.22,129.44L466.52,180.1L467.17,177.28L467.82,133.2L468.47,198.86L469.77,145.39L470.42,160.4L471.07,134.13L471.72,208.24L472.37,105.99L473.02,140.7L473.67,168.84L474.32,107.87L474.97,203.55L475.63,127.57L476.93,174.47L477.58,170.72L478.23,115.37L478.88,206.36L480.83,112.56L481.48,130.38L482.13,159.46L482.78,136.01L483.43,173.53L484.08,154.77L484.73,137.89L485.39,175.41L486.69,179.16L487.34,191.35L487.99,110.68L488.64,146.33L489.29,198.86L489.94,138.82L490.59,154.77L491.24,146.33L491.89,141.64L492.54,208.24L493.19,122.88L493.84,144.45L494.49,121L495.15,169.78L495.8,166.96L496.45,170.72L497.1,139.76L497.75,155.71L498.4,216.68L499.05,185.72L499.7,97.55L500.35,140.7L501,151.96L501.65,89.11L502.3,152.89L502.95,122.88L503.6,91.92L504.25,173.53L504.9,193.23L505.56,143.51L506.21,158.52L506.86,135.07L507.51,142.58L508.16,182.91L509.46,117.25L510.11,163.21L510.76,186.66L511.41,167.9L512.06,83.48L512.71,136.01L513.36,84.42L514.01,118.19L514.66,103.18L515.32,202.61L516.62,125.69L517.27,161.34L517.92,90.99L518.57,130.38L519.22,78.79L519.87,99.43L520.52,116.31L521.17,158.52L521.82,135.07L522.47,175.41L523.12,146.33L523.77,173.53L524.42,102.24L525.08,175.41L526.38,147.27L527.03,104.12L527.68,115.37L528.33,146.33L529.63,84.42L530.28,122.88L530.93,134.13L531.58,126.63L532.23,94.74L532.88,155.71L534.18,101.3L534.83,90.99L535.49,123.82L536.14,118.19L536.79,105.99L537.44,145.39L538.09,125.69L538.74,141.64L539.39,153.83L540.04,95.68L540.69,124.75L541.34,110.68L541.99,120.06L542.64,101.3L543.94,148.2L544.59,86.3L545.25,99.43L545.9,180.1L547.85,113.5L548.5,111.62L549.15,75.04L549.8,128.51L551.1,160.4L551.75,134.13L552.4,126.63L553.05,151.02L553.7,102.24L554.35,121L555.01,133.2L555.66,176.34L557.61,112.56L558.26,166.96L559.56,100.37L560.21,133.2L561.51,86.3L562.16,144.45L562.81,108.81L563.46,114.44L564.11,110.68L564.76,59.09L566.07,114.44L566.72,97.55L567.37,89.11L568.02,107.87L568.67,103.18L569.32,153.83L569.97,136.95L570.62,84.42L571.92,142.58L572.57,103.18L573.87,111.62L574.52,92.86L575.18,151.96L575.83,122.88L576.48,101.3L577.13,125.69L577.78,92.86L578.43,105.06L579.08,136.01L579.73,118.19L580.38,110.68L581.03,119.13L581.68,127.57L582.33,121L582.98,123.82L583.63,136.01L584.28,136.95L584.93,117.25L585.59,115.37L586.24,89.11L586.89,172.59L587.54,88.17L588.19,144.45L588.84,118.19L589.49,99.43L590.14,108.81L590.79,48.78L591.44,91.92L592.09,97.55L592.74,83.48L593.39,54.4L594.04,141.64L594.69,81.61L595.35,119.13L596,89.11L596.65,108.81L597.3,51.59L597.95,149.14L598.6,85.36L599.25,121.94L600.55,45.02L601.2,133.2L601.85,93.8L602.5,105.99L603.15,45.02L603.8,102.24L604.45,57.22L605.11,138.82L605.76,80.67L606.41,93.8L607.06,111.62L607.71,34.71L608.36,22.51L609.01,110.68L609.66,82.54L610.31,118.19L610.96,89.11L611.61,96.61L612.91,130.38L613.56,74.1L614.21,122.88L614.86,81.61L615.52,99.43L616.17,42.21L618.12,102.24L618.77,59.09L619.42,77.85L620.07,62.85L620.72,121.94L621.37,83.48L622.02,66.6L622.67,104.12L623.32,68.47L623.97,107.87L624.62,125.69L625.28,74.1L625.93,50.65L626.58,83.48L627.88,95.68L628.53,144.45L629.83,96.61L630.48,106.93L631.13,135.07L631.78,52.53L633.08,107.87L633.73,100.37L635.04,43.15L635.69,82.54L636.34,86.3L636.99,75.04L637.64,113.5L638.29,50.65L639.59,101.3L640.24,91.92L640.89,82.54L641.54,23.45L642.19,99.43L642.84,89.11L643.49,24.39L644.14,87.23L644.79,61.91L646.1,103.18L646.75,70.35L647.4,70.35L648.05,105.06L650,42.21" style="vector-effect: none; fill: none; stroke: rgb(49, 99, 206); stroke-opacity: 1; stroke-width: 2px; opacity: 1;"/></g><g class="points"/><g class="text"/></g></g></g></g><path class="xlines-above crisp" d="M49,477.5H700" style="fill: none; stroke-width: 1px; stroke: rgb(113, 113, 122); stroke-opacity: 1;"/><path class="ylines-above crisp" d="M49.5,8V477" style="fill: none; stroke-width: 1px; stroke: rgb(113, 113, 122); stroke-opacity: 1;"/><g class="overlines-above"/><g class="xaxislayer-above"><g class="xtick"><text text-anchor="middle" x="0" y="497.2" transform="translate(50,0)" style="font-family: InterVariable, sans-serif; font-size: 16px; fill: rgb(113, 113, 122); fill-opacity: 1; white-space: pre; opacity: 1;">0</text></g><g class="xtick"><text text-anchor="middle" x="0" y="497.2" style="font-family: InterVariable, sans-serif; font-size: 16px; fill: rgb(113, 113, 122); fill-opacity: 1; white-space: pre; opacity: 1;" transform="translate(180.13,0)">0.2M</text></g><g class="xtick"><text text-anchor="middle" x="0" y="497.2" style="font-family: InterVariable, sans-serif; font-size: 16px; fill: rgb(113, 113, 122); fill-opacity: 1; white-space: pre; opacity: 1;" transform="translate(310.26,0)">0.4M</text></g><g class="xtick"><text text-anchor="middle" x="0" y="497.2" style="font-family: InterVariable, sans-serif; font-size: 16px; fill: rgb(113, 113, 122); fill-opacity: 1; white-space: pre; opacity: 1;" transform="translate(440.39,0)">0.6M</text></g><g class="xtick"><text text-anchor="middle" x="0" y="497.2" style="font-family: InterVariable, sans-serif; font-size: 16px; fill: rgb(113, 113, 122); fill-opacity: 1; white-space: pre; opacity: 1;" transform="translate(570.52,0)">0.8M</text></g></g><g class="yaxislayer-above"><g class="ytick"><text text-anchor="end" x="45.8" y="5.6" transform="translate(0,477)" style="font-family: InterVariable, sans-serif; font-size: 16px; fill: rgb(113, 113, 122); fill-opacity: 1; white-space: pre; opacity: 1;">−0.5</text></g><g class="ytick"><text text-anchor="end" x="45.8" y="5.6" style="font-family: InterVariable, sans-serif; font-size: 16px; fill: rgb(113, 113, 122); fill-opacity: 1; white-space: pre; opacity: 1;" transform="translate(0,383.2)">−0.4</text></g><g class="ytick"><text text-anchor="end" x="45.8" y="5.6" style="font-family: InterVariable, sans-serif; font-size: 16px; fill: rgb(113, 113, 122); fill-opacity: 1; white-space: pre; opacity: 1;" transform="translate(0,289.4)">−0.3</text></g><g class="ytick"><text text-anchor="end" x="45.8" y="5.6" style="font-family: InterVariable, sans-serif; font-size: 16px; fill: rgb(113, 113, 122); fill-opacity: 1; white-space: pre; opacity: 1;" transform="translate(0,195.6)">−0.2</text></g><g class="ytick"><text text-anchor="end" x="45.8" y="5.6" style="font-family: InterVariable, sans-serif; font-size: 16px; fill: rgb(113, 113, 122); fill-opacity: 1; white-space: pre; opacity: 1;" transform="translate(0,101.8)">−0.1</text></g><g class="ytick"><text text-anchor="end" x="45.8" y="5.6" style="font-family: InterVariable, sans-serif; font-size: 16px; fill: rgb(113, 113, 122); fill-opacity: 1; white-space: pre; opacity: 0;" transform="translate(0,8)">0</text></g></g><g class="overaxes-above"/></g></g><g class="polarlayer"/><g class="smithlayer"/><g class="ternarylayer"/><g class="geolayer"/><g class="funnelarealayer"/><g class="pielayer"/><g class="iciclelayer"/><g class="treemaplayer"/><g class="sunburstlayer"/><g class="glimages"/><defs id="topdefs-cec0bb"><g class="clips"/></defs><g class="layer-above"><g class="imagelayer"/><g class="shapelayer"/></g><g class="infolayer"><g class="g-gtitle"/><g class="g-xtitle"/><g class="g-ytitle"/></g></svg>