<?xml version="1.0" encoding="UTF-8"?>
<svg id="Base" xmlns="http://www.w3.org/2000/svg" viewBox="0 0 640 360">
  <defs>
    <style>
      .cls-1 {
        opacity: .75;
      }

      .cls-1, .cls-2, .cls-3 {
        fill: none;
      }

      .cls-2 {
        stroke: #212529;
        stroke-width: 3px;
      }

      .cls-2, .cls-3 {
        stroke-miterlimit: 10;
      }

      .cls-4 {
        fill: #e9ecef;
      }

      .cls-5 {
        fill: #212529;
      }

      .cls-3 {
        stroke: #e9ecef;
        stroke-width: 2px;
      }
    </style>
  </defs>
  <g class="cls-1">
    <path class="cls-5" d="m23.29,30v-12.55h1.84v10.91h5.53v1.64h-7.36Z"/>
    <path class="cls-5" d="m35.94,30.16c-.84,0-1.59-.2-2.25-.59-.66-.4-1.18-.94-1.56-1.64s-.57-1.49-.57-2.38.19-1.68.56-2.37c.37-.69.89-1.23,1.56-1.63s1.42-.59,2.26-.59,1.6.2,2.25.58c.65.39,1.16.93,1.54,1.63s.57,1.49.57,2.38-.19,1.68-.57,2.38-.89,1.24-1.55,1.64c-.65.4-1.4.59-2.24.59Zm0-1.57c.53,0,.99-.13,1.38-.38.39-.25.69-.61.9-1.06.21-.46.31-.99.31-1.6s-.1-1.16-.31-1.62-.51-.81-.9-1.05c-.39-.25-.85-.37-1.38-.37s-1.01.13-1.4.38c-.39.25-.69.6-.9,1.05-.21.45-.31.99-.31,1.61s.1,1.15.31,1.6c.21.46.51.81.9,1.06.39.25.85.38,1.4.38Z"/>
    <path class="cls-5" d="m45.32,30.16c-.62,0-1.18-.09-1.66-.28-.48-.19-.89-.43-1.23-.72-.34-.29-.62-.6-.82-.91l1.21-1.04c.23.41.56.76.98,1.05s.94.44,1.54.44c.53,0,.94-.11,1.25-.33s.46-.51.46-.87c0-.29-.1-.52-.29-.69s-.44-.32-.76-.43c-.31-.11-.65-.21-1.03-.3-.34-.1-.68-.2-1.03-.32-.35-.12-.66-.27-.95-.46-.28-.19-.51-.43-.68-.72s-.26-.66-.26-1.09c0-.76.29-1.36.87-1.83.58-.46,1.35-.69,2.31-.69.68,0,1.31.14,1.87.42s1,.7,1.31,1.25l-1.1.85c-.24-.4-.55-.68-.93-.86-.38-.18-.79-.27-1.23-.27-.42,0-.77.09-1.05.26-.28.17-.42.41-.42.71,0,.22.06.39.19.53.13.14.32.26.59.36.27.1.6.2,1,.3.37.08.75.19,1.13.31.38.12.74.28,1.06.47.32.19.59.45.79.77.2.32.31.74.31,1.26,0,.56-.14,1.06-.43,1.49-.29.43-.69.76-1.21,1-.52.24-1.12.36-1.82.36Z"/>
    <path class="cls-5" d="m53.8,30.16c-.62,0-1.18-.09-1.66-.28-.48-.19-.89-.43-1.23-.72-.34-.29-.62-.6-.82-.91l1.21-1.04c.23.41.56.76.98,1.05s.94.44,1.54.44c.53,0,.94-.11,1.25-.33s.46-.51.46-.87c0-.29-.1-.52-.29-.69s-.44-.32-.76-.43c-.31-.11-.65-.21-1.03-.3-.34-.1-.68-.2-1.03-.32-.35-.12-.66-.27-.95-.46-.28-.19-.51-.43-.68-.72s-.26-.66-.26-1.09c0-.76.29-1.36.87-1.83.58-.46,1.35-.69,2.31-.69.68,0,1.31.14,1.87.42s1,.7,1.31,1.25l-1.1.85c-.24-.4-.55-.68-.93-.86-.38-.18-.79-.27-1.23-.27-.42,0-.77.09-1.05.26-.28.17-.42.41-.42.71,0,.22.06.39.19.53.13.14.32.26.59.36.27.1.6.2,1,.3.37.08.75.19,1.13.31.38.12.74.28,1.06.47.32.19.59.45.79.77.2.32.31.74.31,1.26,0,.56-.14,1.06-.43,1.49-.29.43-.69.76-1.21,1-.52.24-1.12.36-1.82.36Z"/>
  </g>
  <g class="cls-1">
    <path class="cls-5" d="m575.39,325.33c-1.29,0-2.34-.34-3.16-1.01-.82-.67-1.32-1.57-1.5-2.68l1.78-.43c.13.82.46,1.43.99,1.85s1.18.63,1.94.63c.44,0,.84-.08,1.18-.24s.62-.4.82-.7c.2-.31.31-.65.31-1.03,0-.41-.11-.74-.33-1.01-.22-.26-.53-.5-.94-.71-.4-.21-.88-.42-1.45-.64-.73-.28-1.36-.58-1.88-.9-.52-.32-.92-.71-1.21-1.16-.28-.45-.42-.99-.42-1.63s.16-1.22.48-1.72.76-.89,1.34-1.18,1.24-.43,2-.43c.8,0,1.52.18,2.15.55.63.37,1.13.92,1.5,1.65l-1.46.9c-.26-.48-.58-.85-.96-1.1-.38-.25-.81-.38-1.29-.38-.37,0-.71.07-1,.22-.29.14-.52.34-.68.58s-.24.54-.24.87.1.65.3.9.49.48.88.67c.39.2.88.41,1.47.62.74.29,1.38.6,1.91.93.53.33.94.72,1.22,1.18.29.46.43,1.01.43,1.67,0,.72-.18,1.36-.53,1.92-.35.56-.84,1-1.47,1.32-.62.32-1.35.49-2.18.49Z"/>
    <path class="cls-5" d="m579.98,317.61v-1.37h5.56v1.37h-5.56Zm4.14,7.67c-.43,0-.83-.08-1.2-.25-.37-.17-.65-.44-.87-.82-.21-.38-.31-.87-.31-1.47v-8.77l1.78-.99v9.29c0,.49.08.87.23,1.14.15.27.43.41.84.41.12,0,.26-.02.42-.04s.34-.07.53-.12v1.37c-.24.08-.48.15-.72.19-.24.04-.47.06-.7.06Z"/>
    <path class="cls-5" d="m591.01,325.28c-.72,0-1.34-.12-1.87-.36-.53-.24-.97-.57-1.31-1-.35-.43-.61-.91-.78-1.46s-.26-1.12-.26-1.72.08-1.18.25-1.74c.17-.56.42-1.06.76-1.49s.76-.79,1.27-1.04c.51-.26,1.11-.39,1.81-.39s1.3.12,1.8.35.92.56,1.24.97.57.88.73,1.4.24,1.06.24,1.64c0,.06,0,.17,0,.33,0,.16-.02.31-.04.46h-6.28c.04.79.28,1.4.73,1.83.45.43,1.05.64,1.79.64.5,0,.95-.08,1.35-.24s.76-.42,1.1-.77l1.08,1.12c-.35.35-.71.63-1.07.85-.37.22-.75.38-1.15.48-.4.1-.86.15-1.36.15Zm2.12-4.93c.02-.1.04-.19.04-.29,0-.1,0-.19,0-.29,0-.28-.05-.55-.14-.81-.1-.26-.24-.5-.43-.71-.19-.21-.43-.38-.71-.5s-.61-.19-.98-.19c-.49,0-.91.11-1.26.33-.35.22-.62.51-.8.87-.19.36-.3.75-.33,1.17h5.18l-.58.41Z"/>
    <path class="cls-5" d="m596.92,328.79v-12.55h1.76v2.56l-.5-.16c.16-.59.39-1.07.69-1.44.31-.37.67-.65,1.11-.84.43-.19.91-.28,1.44-.28.79,0,1.48.2,2.08.6.59.4,1.05.95,1.38,1.65.32.7.49,1.48.49,2.36,0,.94-.17,1.75-.52,2.44s-.82,1.22-1.42,1.59c-.6.37-1.27.56-2,.56-.53,0-1.01-.1-1.45-.31s-.81-.49-1.11-.85c-.3-.37-.51-.8-.63-1.31l.45-.25v6.23h-1.76Zm4.12-5.13c.52,0,.96-.12,1.34-.37.38-.25.67-.59.89-1.04.22-.45.32-.97.32-1.56s-.11-1.11-.32-1.56c-.22-.45-.51-.8-.89-1.05s-.83-.38-1.34-.38-.95.13-1.32.38-.67.6-.88,1.05c-.21.45-.32.97-.32,1.56s.11,1.11.32,1.56c.21.45.5.8.88,1.04.38.25.82.37,1.32.37Z"/>
  </g>
  <g>
    <g>
      <polyline class="cls-3" points="40 45.65 40 320 554.35 320"/>
      <polygon class="cls-4" points="33.64 57.47 35.52 58.16 40 45.85 44.48 58.16 46.36 57.47 40 40 33.64 57.47"/>
      <polygon class="cls-4" points="542.53 326.36 541.84 324.48 554.15 320 541.84 315.52 542.53 313.64 560 320 542.53 326.36"/>
    </g>
    <line class="cls-3" x1="40" y1="280" x2="520" y2="280"/>
    <line class="cls-3" x1="40" y1="240" x2="520" y2="240"/>
    <line class="cls-3" x1="40" y1="200" x2="520" y2="200"/>
    <line class="cls-3" x1="40" y1="160" x2="520" y2="160"/>
    <line class="cls-3" x1="40" y1="120" x2="520" y2="120"/>
    <polyline class="cls-3" points="40 80 520 80 520 320"/>
    <line class="cls-3" x1="80" y1="80" x2="80" y2="320"/>
    <line class="cls-3" x1="120" y1="320" x2="120" y2="80"/>
    <line class="cls-3" x1="160" y1="320" x2="160" y2="80"/>
    <line class="cls-3" x1="200" y1="320" x2="200" y2="80"/>
    <line class="cls-3" x1="240" y1="320" x2="240" y2="80"/>
    <line class="cls-3" x1="280" y1="320" x2="280" y2="80"/>
    <line class="cls-3" x1="320" y1="320" x2="320" y2="80"/>
    <line class="cls-3" x1="360" y1="320" x2="360" y2="80"/>
    <line class="cls-3" x1="400" y1="320" x2="400" y2="80"/>
    <line class="cls-3" x1="440" y1="320" x2="440" y2="80"/>
    <line class="cls-3" x1="480" y1="320" x2="480" y2="80"/>
  </g>
  <path class="cls-2" d="m80,137.15c76.36,31.59,249.98,93.35,440.5,93.35"/>
  <path class="cls-2" d="m80,139.54c78.37,36.58,259.04,110.46,440,110.46"/>
  <path class="cls-2" d="m80,135.24c77.67,27.57,256.27,78.65,440.5,45.26"/>
  <g>
    <path class="cls-5" d="m534.7,259.58v-10.91h-4.1v-1.64h10.04v1.64h-4.09v10.91h-1.85Z"/>
    <path class="cls-5" d="m540.59,259.58v-8.87h1.78v2.39l-.38.07c.06-.53.24-.99.55-1.38.31-.39.67-.7,1.09-.92.42-.22.83-.33,1.24-.33.29,0,.56.03.82.1s.52.18.78.33l-.86,1.58c-.13-.07-.3-.13-.5-.18-.2-.05-.4-.07-.58-.07-.28,0-.55.05-.81.14-.26.1-.5.25-.71.47-.21.22-.37.5-.48.85-.05.17-.09.39-.12.66-.03.27-.04.64-.04,1.11v4.05h-1.78Z"/>
    <path class="cls-5" d="m550.74,259.74c-.66,0-1.24-.12-1.75-.36-.5-.24-.89-.57-1.17-1-.28-.43-.41-.92-.41-1.49,0-.49.1-.91.31-1.27.2-.35.47-.63.79-.82.3-.19.64-.33,1.04-.4.39-.08.81-.12,1.25-.12h2.83v1.33h-2.57c-.24,0-.49.02-.75.06s-.48.13-.66.26c-.14.11-.26.24-.34.41s-.13.35-.13.57c0,.42.16.76.49,1.01.32.25.76.38,1.3.38.46,0,.87-.1,1.25-.31s.68-.5.91-.86c.23-.37.34-.78.34-1.25l.63.83c-.11.62-.32,1.17-.63,1.63-.31.46-.7.81-1.16,1.05-.46.24-.98.36-1.56.36Zm2.86-.16l-.14-1.64v-3.94c0-.62-.18-1.1-.54-1.44-.36-.34-.88-.5-1.57-.5-.48,0-.94.1-1.38.29s-.85.5-1.25.94l-1.1-1.13c.53-.55,1.11-.96,1.75-1.21.64-.26,1.34-.39,2.1-.39,1.19,0,2.11.3,2.76.91.65.61.98,1.46.98,2.55v5.58h-1.62Z"/>
    <path class="cls-5" d="m557.42,249.17v-2.14h2v2.14h-2Zm.13,10.4v-8.87h1.76v8.87h-1.76Z"/>
    <path class="cls-5" d="m561.74,259.58v-8.87h1.78v1.93l-.36.11c.16-.49.38-.9.67-1.22.29-.32.64-.56,1.04-.73.4-.17.84-.25,1.3-.25.98,0,1.75.29,2.31.85.56.57.84,1.4.84,2.49v5.69h-1.76v-5.04c0-.85-.15-1.48-.46-1.87s-.78-.59-1.41-.59c-.48,0-.88.11-1.2.32-.32.22-.56.56-.73,1.03-.17.47-.25,1.06-.25,1.78v4.37h-1.78Z"/>
  </g>
  <g>
    <path class="cls-5" d="m534.39,234.9v-10.91h-4.1v-1.64h10.04v1.64h-4.09v10.91h-1.85Z"/>
    <path class="cls-5" d="m543.97,235.06c-.72,0-1.34-.12-1.87-.36-.53-.24-.97-.57-1.31-1-.35-.43-.61-.91-.78-1.46s-.26-1.12-.26-1.72.08-1.18.25-1.74c.17-.56.42-1.06.76-1.49s.76-.79,1.27-1.04c.51-.26,1.11-.39,1.81-.39s1.3.12,1.8.35.92.56,1.24.97.57.88.73,1.4.24,1.06.24,1.64c0,.06,0,.17,0,.33,0,.16-.02.31-.04.46h-6.28c.04.79.28,1.4.73,1.83.45.43,1.05.64,1.79.64.5,0,.95-.08,1.35-.24.4-.16.76-.42,1.1-.77l1.08,1.12c-.35.35-.71.63-1.07.85-.37.22-.75.38-1.15.48-.4.1-.86.15-1.36.15Zm2.12-4.93c.02-.1.04-.19.04-.29,0-.1,0-.19,0-.29,0-.28-.05-.55-.14-.81-.1-.26-.24-.5-.43-.71-.19-.21-.43-.38-.71-.5-.28-.13-.61-.19-.98-.19-.49,0-.91.11-1.26.33-.35.22-.62.51-.8.87-.19.36-.3.75-.33,1.17h5.18l-.58.41Z"/>
    <path class="cls-5" d="m552.86,235.06c-.62,0-1.18-.09-1.66-.28-.48-.19-.89-.43-1.23-.72s-.62-.6-.82-.91l1.21-1.04c.23.41.56.76.98,1.05s.94.44,1.54.44c.53,0,.94-.11,1.25-.33.31-.22.46-.51.46-.87,0-.29-.1-.52-.29-.69-.19-.17-.44-.32-.76-.43-.31-.11-.65-.21-1.03-.3-.34-.1-.68-.2-1.03-.32-.35-.12-.66-.27-.95-.46-.28-.19-.51-.43-.68-.72s-.26-.66-.26-1.09c0-.76.29-1.36.87-1.83s1.35-.69,2.31-.69c.68,0,1.31.14,1.87.42s1,.7,1.31,1.25l-1.1.85c-.24-.4-.55-.68-.93-.86-.38-.18-.79-.27-1.23-.27-.42,0-.77.09-1.05.26-.28.17-.42.41-.42.71,0,.22.06.39.19.53.13.14.32.26.59.36.27.1.6.2,1,.3.37.08.75.19,1.13.31.38.12.74.28,1.06.47s.59.45.79.77c.2.32.31.74.31,1.26,0,.56-.14,1.06-.43,1.49-.29.43-.69.76-1.21,1-.52.24-1.12.36-1.82.36Z"/>
    <path class="cls-5" d="m557.3,227.4v-1.37h5.56v1.37h-5.56Zm4.14,7.67c-.43,0-.83-.08-1.2-.25-.37-.17-.65-.44-.86-.82-.21-.38-.32-.87-.32-1.47v-8.77l1.78-.99v9.29c0,.49.08.87.23,1.14.15.27.43.41.84.41.12,0,.26-.02.42-.04s.34-.07.53-.12v1.37c-.24.08-.48.15-.72.19-.24.04-.47.06-.7.06Z"/>
  </g>
  <g>
    <path class="cls-5" d="m535.5,184.9l-5.02-12.55h2.02l3.98,10.31h-.54l3.92-10.31h2.02l-4.99,12.55h-1.39Z"/>
    <path class="cls-5" d="m545.05,185.06c-.66,0-1.24-.12-1.75-.36-.5-.24-.89-.57-1.17-1-.28-.43-.41-.92-.41-1.49,0-.49.1-.91.31-1.27.2-.35.47-.63.79-.82.3-.19.65-.33,1.04-.4s.81-.12,1.25-.12h2.83v1.33h-2.57c-.24,0-.49.02-.75.06-.26.04-.48.13-.66.26-.14.11-.26.24-.34.41s-.13.35-.13.57c0,.42.16.76.49,1.01.32.25.76.38,1.3.38.46,0,.87-.1,1.25-.31s.68-.5.91-.86c.23-.37.34-.78.34-1.25l.63.83c-.11.62-.32,1.17-.63,1.63-.31.46-.7.81-1.16,1.05-.46.24-.98.36-1.56.36Zm2.86-.16l-.14-1.64v-3.94c0-.62-.18-1.1-.54-1.44-.36-.34-.88-.5-1.57-.5-.48,0-.94.1-1.38.29-.44.19-.86.5-1.25.94l-1.1-1.13c.53-.55,1.11-.96,1.75-1.21.64-.26,1.34-.39,2.1-.39,1.19,0,2.11.3,2.76.91s.98,1.46.98,2.55v5.58h-1.62Z"/>
    <path class="cls-5" d="m553.76,185.06c-.56,0-1.03-.17-1.39-.52-.36-.35-.54-.9-.54-1.66v-10.53h1.75v10.19c0,.31.07.54.21.67.14.14.32.21.55.21.1,0,.21,0,.33-.03s.25-.05.39-.1v1.49c-.22.1-.44.16-.67.21-.23.04-.44.06-.62.06Z"/>
    <path class="cls-5" d="m556.57,174.5v-2.14h2v2.14h-2Zm.13,10.4v-8.87h1.76v8.87h-1.76Z"/>
    <path class="cls-5" d="m564.44,185.06c-.8,0-1.5-.2-2.09-.6-.59-.4-1.05-.95-1.38-1.66-.33-.7-.5-1.48-.5-2.35,0-.95.18-1.76.53-2.45.35-.68.83-1.21,1.43-1.58.6-.37,1.27-.56,2-.56.53,0,1.01.11,1.45.32.44.22.81.52,1.11.9.3.38.51.83.63,1.35l-.45.14v-6.23h1.75v12.55h-1.75v-2.56l.52.02c-.16.58-.39,1.06-.7,1.47-.31.4-.69.71-1.12.92-.44.21-.92.31-1.43.31Zm.36-1.62c.52,0,.96-.13,1.34-.38s.67-.6.88-1.05c.21-.45.32-.97.32-1.56s-.11-1.11-.32-1.56c-.21-.45-.5-.8-.88-1.04s-.83-.37-1.34-.37-.95.12-1.33.37c-.38.25-.68.59-.89,1.04-.21.45-.32.97-.32,1.56s.1,1.11.32,1.56c.21.45.51.8.89,1.05.38.25.83.38,1.33.38Z"/>
  </g>
</svg>