<?xml version="1.0" encoding="UTF-8"?>
<svg id="Base" xmlns="http://www.w3.org/2000/svg" viewBox="0 0 640 360">
  <defs>
    <style>
      .cls-1 {
        fill: #212529;
      }
    </style>
  </defs>
  <circle class="cls-1" cx="314.79" cy="49.43" r="2.5"/>
  <path class="cls-1" d="m303.97,52.43c.17,1.37-.8,2.62-2.17,2.79-1.37.17-2.62-.8-2.79-2.17-.17-1.37.8-2.62,2.17-2.79,1.37-.17,2.62.8,2.79,2.17Z"/>
  <path class="cls-1" d="m288.62,76.96c.34,1.34-.46,2.7-1.8,3.04-1.34.34-2.7-.46-3.04-1.8-.34-1.34.46-2.7,1.8-3.04,1.34-.34,2.7.46,3.04,1.8Z"/>
  <path class="cls-1" d="m287.02,62.53c.51,1.28-.12,2.74-1.41,3.24-1.28.51-2.74-.12-3.24-1.41-.51-1.28.12-2.74,1.41-3.24,1.28-.51,2.74.12,3.24,1.41Z"/>
  <path class="cls-1" d="m259.06,80.18c.66,1.21.22,2.73-.99,3.39-1.21.66-2.73.22-3.39-.99-.66-1.21-.22-2.73.99-3.39,1.21-.66,2.73-.22,3.39.99Z"/>
  <path class="cls-1" d="m255.15,93.76c.81,1.12.56,2.68-.56,3.49-1.12.81-2.68.56-3.49-.56-.81-1.12-.56-2.68.56-3.49,1.12-.81,2.68-.56,3.49.56Z"/>
  <path class="cls-1" d="m250.51,89.01c.94,1.01.89,2.59-.12,3.53s-2.59.89-3.53-.12c-.94-1.01-.89-2.59.12-3.53,1.01-.94,2.59-.89,3.53.12Z"/>
  <path class="cls-1" d="m232.96,101.29c1.06.88,1.21,2.46.32,3.52-.88,1.06-2.46,1.21-3.52.32s-1.21-2.46-.32-3.52,2.46-1.21,3.52-.32Z"/>
  <path class="cls-1" d="m212.15,106.38c1.16.74,1.5,2.29.76,3.45-.74,1.16-2.29,1.5-3.45.76-1.16-.74-1.5-2.29-.76-3.45s2.29-1.5,3.45-.76Z"/>
  <path class="cls-1" d="m217.85,140.75c1.25.59,1.78,2.08,1.19,3.33-.59,1.25-2.08,1.78-3.33,1.19-1.25-.59-1.78-2.08-1.19-3.33s2.08-1.78,3.33-1.19Z"/>
  <path class="cls-1" d="m204.48,154.78c1.31.43,2.03,1.84,1.59,3.16-.43,1.31-1.84,2.03-3.16,1.59-1.31-.43-2.03-1.84-1.59-3.16.43-1.31,1.84-2.03,3.16-1.59Z"/>
  <path class="cls-1" d="m198.55,150.51c1.36.26,2.24,1.58,1.98,2.93-.26,1.36-1.58,2.24-2.93,1.98-1.36-.26-2.24-1.58-1.98-2.93s1.58-2.24,2.93-1.98Z"/>
  <path class="cls-1" d="m197.23,180.75c1.38.09,2.42,1.28,2.33,2.66-.09,1.38-1.28,2.42-2.66,2.33-1.38-.09-2.42-1.28-2.33-2.66.09-1.38,1.28-2.42,2.66-2.33Z"/>
  <path class="cls-1" d="m200.54,175.54c1.38-.08,2.56.97,2.64,2.35.08,1.38-.97,2.56-2.35,2.64-1.38.08-2.56-.97-2.64-2.35-.08-1.38.97-2.56,2.35-2.64Z"/>
  <path class="cls-1" d="m198.45,200.76c1.36-.25,2.66.64,2.91,2,.25,1.36-.64,2.66-2,2.91-1.36.25-2.66-.64-2.91-2-.25-1.36.64-2.66,2-2.91Z"/>
  <path class="cls-1" d="m198.04,208.61c1.32-.42,2.72.31,3.14,1.62s-.31,2.72-1.62,3.14c-1.32.42-2.72-.31-3.14-1.62s.31-2.72,1.62-3.14Z"/>
  <path class="cls-1" d="m216.89,216.86c1.25-.58,2.74-.04,3.32,1.22.58,1.25.04,2.74-1.22,3.32-1.25.58-2.74.04-3.32-1.22-.58-1.25-.04-2.74,1.22-3.32Z"/>
  <path class="cls-1" d="m227.4,249.99c1.17-.73,2.71-.38,3.45.79s.38,2.71-.79,3.45c-1.17.73-2.71.38-3.45-.79s-.38-2.71.79-3.45Z"/>
  <path class="cls-1" d="m234.98,255.55c1.07-.87,2.64-.72,3.52.35.87,1.07.72,2.64-.35,3.52-1.07.87-2.64.72-3.52-.35-.87-1.07-.72-2.64.35-3.52Z"/>
  <path class="cls-1" d="m241.35,271.41c.95-1,2.53-1.04,3.53-.09,1,.95,1.04,2.53.09,3.53-.95,1-2.53,1.04-3.53.09-1-.95-1.04-2.53-.09-3.53Z"/>
  <path class="cls-1" d="m234.37,268.32c.82-1.11,2.38-1.35,3.5-.53,1.11.82,1.35,2.38.53,3.5-.82,1.11-2.38,1.35-3.5.53-1.11-.82-1.35-2.38-.53-3.5Z"/>
  <path class="cls-1" d="m249.04,295.24c.67-1.21,2.2-1.64,3.4-.96,1.21.67,1.64,2.2.96,3.4-.67,1.21-2.2,1.64-3.4.96-1.21-.67-1.64-2.2-.96-3.4Z"/>
  <path class="cls-1" d="m271.56,277.28c.52-1.28,1.97-1.9,3.25-1.38s1.9,1.98,1.38,3.25c-.52,1.28-1.98,1.9-3.25,1.38-1.28-.52-1.9-1.97-1.38-3.26Z"/>
  <path class="cls-1" d="m281.36,304.93c.35-1.33,1.72-2.13,3.06-1.78,1.33.35,2.13,1.72,1.78,3.06-.35,1.33-1.72,2.13-3.06,1.78-1.33-.35-2.13-1.72-1.78-3.06Z"/>
  <path class="cls-1" d="m315.37,294.29c.18-1.37,1.44-2.33,2.81-2.14,1.37.18,2.33,1.44,2.14,2.81s-1.44,2.33-2.81,2.14c-1.37-.18-2.33-1.44-2.14-2.81Z"/>
  <path class="cls-1" d="m306.33,287.47c.01-1.38,1.14-2.49,2.52-2.48,1.38.01,2.49,1.14,2.48,2.52-.01,1.38-1.14,2.49-2.52,2.48s-2.49-1.14-2.48-2.52Z"/>
  <path class="cls-1" d="m323.89,307.05c-.16-1.37.82-2.61,2.19-2.77,1.37-.16,2.61.82,2.77,2.19.16,1.37-.82,2.61-2.19,2.77-1.37.16-2.61-.82-2.77-2.19Z"/>
  <path class="cls-1" d="m354.2,303.91c-.33-1.34.49-2.7,1.83-3.03s2.7.49,3.03,1.83c.33,1.34-.49,2.7-1.83,3.03-1.34.33-2.7-.49-3.03-1.83Z"/>
  <path class="cls-1" d="m362.71,280.58c-.5-1.29.15-2.74,1.43-3.23,1.29-.5,2.74.15,3.23,1.43.5,1.29-.15,2.74-1.43,3.23-1.29.5-2.74-.15-3.23-1.43Z"/>
  <path class="cls-1" d="m376.96,288.95c-.65-1.22-.2-2.73,1.02-3.39,1.22-.65,2.73-.2,3.39,1.02.65,1.22.2,2.73-1.02,3.39-1.22.65-2.73.2-3.39-1.02Z"/>
  <circle class="cls-1" cx="403.88" cy="286.04" r="2.5"/>
  <path class="cls-1" d="m401.96,255.29c-.93-1.02-.87-2.6.15-3.53,1.02-.93,2.6-.87,3.53.15s.87,2.6-.15,3.53-2.6.87-3.53-.15Z"/>
  <path class="cls-1" d="m403.41,265.55c-1.05-.89-1.19-2.47-.29-3.52.89-1.05,2.47-1.19,3.52-.29,1.05.89,1.19,2.47.29,3.52-.89,1.05-2.47,1.19-3.52.29Z"/>
  <path class="cls-1" d="m414.2,243.93c-1.16-.75-1.49-2.3-.73-3.46.75-1.16,2.3-1.49,3.46-.73,1.16.75,1.49,2.3.73,3.46-.75,1.16-2.3,1.49-3.46.73Z"/>
  <path class="cls-1" d="m427.34,235.92c-1.24-.6-1.76-2.1-1.16-3.34.6-1.24,2.1-1.76,3.34-1.16s1.76,2.1,1.16,3.34c-.6,1.24-2.1,1.76-3.34,1.16Z"/>
  <path class="cls-1" d="m437.22,216.26c-1.31-.44-2.01-1.86-1.57-3.17.44-1.31,1.86-2.01,3.17-1.57,1.31.44,2.01,1.86,1.57,3.17-.44,1.31-1.86,2.01-3.17,1.57Z"/>
  <path class="cls-1" d="m437.18,210.53c-1.35-.28-2.23-1.6-1.95-2.95s1.59-2.23,2.95-1.95,2.23,1.59,1.95,2.95-1.59,2.23-2.95,1.95Z"/>
  <path class="cls-1" d="m426.93,188.83c-1.38-.1-2.41-1.3-2.3-2.68.1-1.38,1.3-2.41,2.68-2.31,1.38.1,2.41,1.3,2.3,2.68-.1,1.38-1.3,2.41-2.68,2.31Z"/>
  <path class="cls-1" d="m433.32,172.02c-1.38.07-2.55-.99-2.62-2.37-.07-1.38.99-2.55,2.37-2.62s2.55.99,2.62,2.37-.99,2.55-2.37,2.62Z"/>
  <path class="cls-1" d="m448.41,146.82c-1.36.24-2.66-.67-2.9-2.03-.24-1.36.67-2.66,2.03-2.9,1.36-.24,2.66.67,2.9,2.03.24,1.36-.67,2.66-2.03,2.9Z"/>
  <path class="cls-1" d="m445.65,134.76c-1.32.41-2.72-.33-3.13-1.65s.33-2.72,1.65-3.13,2.72.33,3.13,1.65c.41,1.32-.33,2.72-1.65,3.13Z"/>
  <path class="cls-1" d="m420.11,127.17c-1.26.57-2.74.01-3.31-1.24-.57-1.26-.01-2.74,1.24-3.31s2.74-.01,3.31,1.24c.57,1.26.01,2.74-1.24,3.31Z"/>
  <path class="cls-1" d="m413,130.23c-1.18.72-2.72.36-3.44-.82-.72-1.18-.36-2.72.82-3.44,1.18-.72,2.72-.36,3.44.82s.36,2.72-.82,3.44Z"/>
  <path class="cls-1" d="m405.23,97.19c-1.08.86-2.65.69-3.51-.38s-.69-2.65.38-3.51c1.08-.86,2.65-.69,3.51.38s.69,2.65-.38,3.51Z"/>
  <path class="cls-1" d="m411.44,95.43c-.96.99-2.54,1.02-3.54.06-.99-.96-1.02-2.54-.06-3.54.96-.99,2.54-1.02,3.54-.06.99.96,1.02,2.54.06,3.53Z"/>
  <path class="cls-1" d="m405.04,79.77c-.83,1.1-2.4,1.33-3.5.5s-1.33-2.4-.5-3.5,2.4-1.33,3.5-.5c1.1.83,1.33,2.4.5,3.5Z"/>
  <path class="cls-1" d="m388.71,77.58c-.68,1.2-2.21,1.62-3.41.93-1.2-.68-1.62-2.21-.93-3.41s2.21-1.62,3.41-.93,1.62,2.21.93,3.41Z"/>
  <path class="cls-1" d="m363.65,60.94c-.53,1.28-1.99,1.88-3.27,1.35-1.28-.53-1.88-1.99-1.35-3.27.53-1.28,1.99-1.88,3.27-1.35,1.28.53,1.88,1.99,1.35,3.27Z"/>
  <path class="cls-1" d="m346.82,73.58c-.36,1.33-1.74,2.12-3.07,1.75-1.33-.36-2.12-1.74-1.75-3.07s1.74-2.12,3.07-1.75c1.33.36,2.12,1.74,1.75,3.07Z"/>
  <path class="cls-1" d="m329.09,70.95c-.2,1.37-1.46,2.32-2.83,2.12-1.37-.2-2.32-1.46-2.12-2.83.2-1.37,1.46-2.32,2.83-2.12s2.32,1.46,2.12,2.83Z"/>
  <path class="cls-1" d="m297.13,68.09c.13,1.37-.88,2.59-2.26,2.72s-2.59-.88-2.72-2.26c-.13-1.37.88-2.59,2.26-2.72,1.37-.13,2.59.88,2.72,2.26Z"/>
  <path class="cls-1" d="m297.35,66.44c.3,1.35-.55,2.68-1.9,2.98-1.35.3-2.68-.55-2.98-1.9-.3-1.35.55-2.68,1.9-2.98,1.35-.3,2.68.55,2.98,1.9Z"/>
  <path class="cls-1" d="m289.11,70.19c.46,1.3-.21,2.73-1.51,3.2-1.3.46-2.73-.21-3.2-1.51s.21-2.73,1.51-3.2,2.73.21,3.2,1.51Z"/>
  <path class="cls-1" d="m272.87,86.8c.62,1.23.13,2.74-1.1,3.36-1.23.62-2.74.13-3.36-1.1-.62-1.23-.13-2.74,1.1-3.36,1.23-.62,2.74-.13,3.36,1.1Z"/>
  <path class="cls-1" d="m251.59,69.45c.77,1.14.47,2.7-.67,3.47-1.14.77-2.7.47-3.47-.67s-.47-2.7.67-3.47c1.14-.77,2.7-.47,3.47.67Z"/>
  <path class="cls-1" d="m246.62,82.39c.91,1.04.81,2.62-.23,3.53-1.04.91-2.62.81-3.53-.23-.91-1.04-.81-2.62.23-3.53s2.62-.81,3.53.23Z"/>
  <path class="cls-1" d="m222.74,98.07c1.03.92,1.13,2.5.21,3.53-.92,1.03-2.5,1.13-3.53.21-1.03-.92-1.13-2.5-.21-3.53.92-1.03,2.5-1.13,3.53-.21Z"/>
  <path class="cls-1" d="m212.15,101.06c1.14.78,1.43,2.34.65,3.48-.78,1.14-2.34,1.43-3.48.65-1.14-.78-1.43-2.34-.65-3.48.78-1.14,2.34-1.43,3.48-.65Z"/>
  <path class="cls-1" d="m229.26,123.02c1.23.63,1.71,2.14,1.08,3.37-.63,1.23-2.14,1.71-3.37,1.08s-1.71-2.14-1.08-3.37c.63-1.23,2.14-1.71,3.37-1.08Z"/>
  <path class="cls-1" d="m220.18,123.84c1.3.47,1.96,1.91,1.49,3.21-.47,1.3-1.91,1.96-3.21,1.49-1.3-.47-1.96-1.91-1.49-3.21.47-1.3,1.91-1.96,3.21-1.49Z"/>
  <path class="cls-1" d="m204.74,151.62c1.35.31,2.19,1.65,1.88,2.99s-1.65,2.19-2.99,1.88c-1.35-.31-2.19-1.65-1.88-2.99s1.65-2.19,2.99-1.88Z"/>
  <path class="cls-1" d="m195.78,156.08c1.37.14,2.38,1.36,2.24,2.74-.14,1.37-1.36,2.38-2.74,2.24-1.37-.14-2.38-1.36-2.24-2.74.14-1.37,1.36-2.38,2.74-2.24Z"/>
  <path class="cls-1" d="m201.71,180.95c1.38-.04,2.53,1.05,2.56,2.43.04,1.38-1.05,2.53-2.43,2.56s-2.53-1.05-2.56-2.43c-.04-1.38,1.05-2.53,2.43-2.56Z"/>
  <path class="cls-1" d="m214.57,198.57c1.36-.21,2.64.73,2.85,2.1.21,1.36-.73,2.64-2.09,2.85-1.36.21-2.64-.73-2.85-2.09s.73-2.64,2.09-2.85Z"/>
  <path class="cls-1" d="m189.52,209.65c1.33-.38,2.71.39,3.09,1.72s-.39,2.71-1.72,3.09c-1.33.38-2.71-.39-3.09-1.72-.38-1.33.39-2.71,1.72-3.09Z"/>
  <path class="cls-1" d="m222.75,219.5c1.27-.54,2.74.05,3.28,1.32.54,1.27-.05,2.74-1.32,3.28-1.27.54-2.74-.05-3.28-1.32-.54-1.27.05-2.74,1.32-3.28Z"/>
  <path class="cls-1" d="m215.18,245.33c1.19-.69,2.72-.29,3.42.9s.29,2.72-.9,3.42c-1.19.69-2.72.29-3.42-.9-.69-1.19-.29-2.72.9-3.42Z"/>
  <path class="cls-1" d="m210.63,263.32c1.1-.84,2.67-.63,3.5.47.84,1.1.63,2.67-.47,3.5-1.1.84-2.67.63-3.5-.47-.84-1.1-.63-2.67.47-3.5Z"/>
  <path class="cls-1" d="m219.42,256.26c.98-.97,2.57-.96,3.54.03.97.98.96,2.57-.03,3.54-.98.97-2.57.96-3.54-.03-.97-.98-.96-2.57.03-3.54Z"/>
  <path class="cls-1" d="m244.3,277.25c.85-1.08,2.43-1.27,3.51-.42,1.08.85,1.27,2.43.42,3.51-.85,1.08-2.43,1.27-3.51.42-1.08-.85-1.27-2.43-.42-3.51Z"/>
  <path class="cls-1" d="m255.24,270.56c.71-1.18,2.25-1.56,3.43-.85,1.18.71,1.56,2.25.85,3.43-.71,1.18-2.25,1.56-3.43.85-1.18-.71-1.56-2.25-.85-3.43Z"/>
  <path class="cls-1" d="m255.21,301.56c.56-1.26,2.04-1.83,3.3-1.27,1.26.56,1.83,2.04,1.27,3.3-.56,1.26-2.04,1.83-3.3,1.27-1.26-.56-1.83-2.04-1.27-3.3Z"/>
  <path class="cls-1" d="m280.86,301.45c.4-1.32,1.79-2.07,3.11-1.68,1.32.4,2.07,1.79,1.68,3.11-.4,1.32-1.79,2.07-3.11,1.68-1.32-.4-2.07-1.79-1.68-3.11Z"/>
  <path class="cls-1" d="m312.21,304.41c.23-1.36,1.52-2.28,2.88-2.05,1.36.23,2.28,1.52,2.05,2.88-.23,1.36-1.52,2.28-2.88,2.05-1.36-.23-2.28-1.52-2.05-2.88Z"/>
  <path class="cls-1" d="m304.59,301.95c.06-1.38,1.22-2.45,2.6-2.4,1.38.06,2.45,1.22,2.4,2.6-.06,1.38-1.22,2.45-2.6,2.4-1.38-.06-2.45-1.22-2.4-2.6Z"/>
  <path class="cls-1" d="m315.92,307.24c-.12-1.38.9-2.59,2.28-2.7,1.38-.12,2.59.9,2.7,2.28.12,1.38-.9,2.59-2.28,2.7-1.38.12-2.59-.9-2.7-2.28Z"/>
  <path class="cls-1" d="m353.58,307.48c-.29-1.35.57-2.68,1.92-2.97,1.35-.29,2.68.57,2.97,1.92.29,1.35-.57,2.68-1.92,2.97-1.35.29-2.68-.57-2.97-1.92Z"/>
  <path class="cls-1" d="m349.92,291.68c-.45-1.3.24-2.73,1.54-3.18,1.3-.45,2.73.24,3.18,1.54.45,1.3-.24,2.73-1.54,3.18-1.3.45-2.73-.24-3.18-1.54Z"/>
  <path class="cls-1" d="m383.62,279.73c-.61-1.24-.11-2.74,1.13-3.35s2.74-.11,3.35,1.13.11,2.74-1.13,3.35-2.74.11-3.35-1.13Z"/>
  <path class="cls-1" d="m388.56,293.8c-.76-1.15-.45-2.7.7-3.47,1.15-.76,2.7-.45,3.47.7.76,1.15.45,2.7-.7,3.47-1.15.76-2.7.45-3.47-.7Z"/>
  <path class="cls-1" d="m382.41,260.34c-.9-1.05-.78-2.62.26-3.53,1.05-.9,2.62-.78,3.53.26.9,1.05.78,2.62-.26,3.53-1.05.9-2.62.78-3.53-.26Z"/>
  <path class="cls-1" d="m416.08,266.76c-1.02-.93-1.11-2.51-.18-3.53s2.51-1.11,3.53-.18c1.02.93,1.11,2.51.18,3.53-.93,1.02-2.51,1.11-3.53.18Z"/>
  <path class="cls-1" d="m423.13,257.74c-1.13-.79-1.41-2.35-.62-3.48s2.35-1.41,3.48-.62,1.41,2.35.62,3.48-2.35,1.41-3.48.62Z"/>
  <path class="cls-1" d="m436.57,237.74c-1.22-.64-1.69-2.15-1.05-3.38s2.15-1.69,3.38-1.05,1.69,2.15,1.05,3.38c-.64,1.22-2.15,1.69-3.38,1.05Z"/>
  <path class="cls-1" d="m440.82,235.66c-1.29-.48-1.95-1.93-1.46-3.22.48-1.29,1.93-1.95,3.22-1.46,1.29.48,1.95,1.93,1.46,3.22-.48,1.29-1.93,1.95-3.22,1.46Z"/>
  <path class="cls-1" d="m439.68,220.1c-1.34-.32-2.17-1.67-1.85-3.01.32-1.34,1.67-2.17,3.01-1.85,1.34.32,2.17,1.67,1.85,3.01-.32,1.34-1.67,2.17-3.01,1.85Z"/>
  <path class="cls-1" d="m448.51,196.64c-1.37-.15-2.36-1.38-2.22-2.75.15-1.37,1.38-2.36,2.75-2.22,1.37.15,2.36,1.38,2.22,2.75-.15,1.37-1.38,2.37-2.75,2.22Z"/>
  <path class="cls-1" d="m431.58,166.7c-1.38.02-2.52-1.08-2.54-2.46s1.08-2.52,2.46-2.54,2.52,1.08,2.54,2.46-1.08,2.52-2.46,2.54Z"/>
  <path class="cls-1" d="m425.4,159.19c-1.37.2-2.63-.75-2.83-2.12s.75-2.63,2.12-2.83,2.63.75,2.83,2.12c.2,1.37-.75,2.63-2.12,2.83Z"/>
  <path class="cls-1" d="m445.87,145.34c-1.33.37-2.71-.42-3.07-1.75-.37-1.33.42-2.71,1.75-3.07s2.71.42,3.07,1.75c.37,1.33-.42,2.71-1.75,3.07Z"/>
  <path class="cls-1" d="m444.31,141.75c-1.28.53-2.74-.08-3.27-1.35-.53-1.28.08-2.74,1.35-3.27,1.28-.53,2.74.08,3.27,1.35.53,1.28-.08,2.74-1.35,3.27Z"/>
  <path class="cls-1" d="m434.31,122.26c-1.2.68-2.73.27-3.41-.93-.68-1.2-.27-2.73.93-3.41s2.73-.27,3.41.93.27,2.73-.93,3.41Z"/>
  <path class="cls-1" d="m420.43,102.17c-1.1.83-2.67.61-3.5-.5-.83-1.1-.61-2.67.5-3.5s2.67-.61,3.5.5c.83,1.1.61,2.67-.5,3.5Z"/>
  <path class="cls-1" d="m401.71,104.66c-.99.96-2.57.94-3.53-.06s-.94-2.57.06-3.53,2.57-.94,3.53.06.94,2.57-.06,3.54Z"/>
  <path class="cls-1" d="m408.73,96.02c-.86,1.08-2.44,1.25-3.51.39-1.08-.86-1.25-2.44-.39-3.51.86-1.08,2.44-1.25,3.51-.39,1.08.86,1.25,2.44.39,3.51Z"/>
  <path class="cls-1" d="m385.1,88.13c-.72,1.18-2.26,1.54-3.44.82s-1.54-2.26-.82-3.44c.72-1.18,2.26-1.54,3.44-.82,1.18.72,1.54,2.26.82,3.44Z"/>
  <path class="cls-1" d="m382.08,62.16c-.57,1.26-2.05,1.82-3.31,1.25s-1.82-2.05-1.25-3.31c.57-1.26,2.05-1.82,3.31-1.25s1.82,2.05,1.25,3.31Z"/>
  <path class="cls-1" d="m371.46,80.02c-.41,1.32-1.81,2.06-3.13,1.65-1.32-.41-2.06-1.81-1.65-3.13.41-1.32,1.81-2.06,3.13-1.65,1.32.41,2.06,1.81,1.65,3.13Z"/>
  <path class="cls-1" d="m357.43,69.11c-.24,1.36-1.54,2.27-2.9,2.03-1.36-.24-2.27-1.54-2.03-2.9.24-1.36,1.54-2.27,2.9-2.03,1.36.24,2.27,1.54,2.03,2.9Z"/>
  <path class="cls-1" d="m323.97,64.59c-.07,1.38-1.24,2.44-2.62,2.37s-2.44-1.24-2.37-2.62c.07-1.38,1.24-2.44,2.62-2.37,1.38.07,2.44,1.24,2.37,2.62Z"/>
  <path class="cls-1" d="m312.97,70.46c.09,1.38-.95,2.57-2.32,2.66-1.38.09-2.57-.95-2.66-2.32s.95-2.57,2.32-2.66,2.57.95,2.66,2.32Z"/>
  <path class="cls-1" d="m292.33,60.84c.27,1.36-.62,2.67-1.97,2.93-1.35.27-2.67-.62-2.93-1.97s.62-2.67,1.97-2.93c1.35-.27,2.67.62,2.93,1.97Z"/>
  <path class="cls-1" d="m277.99,63.03c.43,1.31-.28,2.72-1.59,3.16-1.31.43-2.72-.28-3.16-1.59-.43-1.31.28-2.72,1.59-3.16,1.31-.43,2.72.28,3.16,1.59Z"/>
  <path class="cls-1" d="m261.12,79.61c.59,1.25.06,2.74-1.18,3.33-1.25.59-2.74.06-3.33-1.18-.59-1.25-.06-2.74,1.18-3.33,1.25-.59,2.74-.06,3.33,1.18Z"/>
  <path class="cls-1" d="m261.73,86.46c.74,1.16.4,2.71-.76,3.45-1.16.74-2.71.41-3.45-.76-.74-1.16-.4-2.71.76-3.45s2.71-.41,3.45.76Z"/>
  <path class="cls-1" d="m235.27,99.63c.88,1.06.74,2.64-.32,3.52-1.06.88-2.64.74-3.52-.32-.88-1.06-.74-2.64.32-3.52,1.06-.88,2.64-.74,3.52.32Z"/>
  <path class="cls-1" d="m239.57,86.43c1.01.94,1.06,2.52.12,3.53-.94,1.01-2.52,1.06-3.53.12-1.01-.94-1.06-2.52-.12-3.53s2.52-1.06,3.53-.12Z"/>
  <path class="cls-1" d="m233.18,109.38c1.12.81,1.37,2.37.56,3.49-.81,1.12-2.37,1.37-3.49.56-1.12-.81-1.37-2.37-.56-3.49.81-1.12,2.37-1.37,3.49-.56Z"/>
  <path class="cls-1" d="m222.78,131.44c1.21.66,1.66,2.18.99,3.39s-2.18,1.66-3.39.99c-1.21-.66-1.66-2.18-.99-3.39.66-1.21,2.18-1.66,3.39-.99Z"/>
  <path class="cls-1" d="m206.44,125.68c1.28.51,1.92,1.96,1.41,3.24-.51,1.28-1.96,1.92-3.24,1.41-1.28-.51-1.92-1.96-1.41-3.24.51-1.28,1.96-1.92,3.24-1.41Z"/>
  <path class="cls-1" d="m193.46,135.86c1.34.34,2.15,1.7,1.81,3.04s-1.7,2.15-3.04,1.81c-1.34-.34-2.15-1.7-1.81-3.04.34-1.34,1.7-2.15,3.04-1.81Z"/>
  <path class="cls-1" d="m200.27,174.56c1.37.17,2.34,1.42,2.17,2.79-.17,1.37-1.42,2.34-2.79,2.17-1.37-.17-2.34-1.42-2.17-2.79s1.42-2.34,2.79-2.17Z"/>
  <path class="cls-1" d="m187.91,177.75c1.38,0,2.5,1.12,2.5,2.5,0,1.38-1.12,2.5-2.5,2.5-1.38,0-2.5-1.12-2.5-2.5,0-1.38,1.12-2.5,2.5-2.5Z"/>
  <path class="cls-1" d="m190.27,205.6c1.37-.17,2.62.79,2.8,2.16.17,1.37-.79,2.62-2.16,2.8-1.37.17-2.62-.79-2.8-2.16-.17-1.37.79-2.62,2.16-2.8Z"/>
  <path class="cls-1" d="m195.36,204.91c1.34-.34,2.7.46,3.04,1.8.34,1.34-.46,2.7-1.8,3.04-1.34.34-2.7-.46-3.04-1.8-.34-1.34.46-2.7,1.8-3.04Z"/>
  <path class="cls-1" d="m215.09,225.6c1.28-.51,2.74.12,3.24,1.4s-.12,2.74-1.4,3.24c-1.28.51-2.74-.12-3.25-1.4-.51-1.28.12-2.74,1.4-3.24Z"/>
  <path class="cls-1" d="m214.57,247.6c1.21-.66,2.73-.22,3.39.99s.22,2.73-.99,3.39-2.73.22-3.39-.99-.22-2.73.99-3.4Z"/>
  <path class="cls-1" d="m209.81,262.46c1.12-.81,2.68-.56,3.49.55.81,1.12.56,2.68-.55,3.49-1.12.81-2.68.56-3.49-.55s-.56-2.68.55-3.49Z"/>
  <path class="cls-1" d="m225.15,261.39c1.01-.94,2.59-.89,3.53.11.94,1.01.89,2.59-.11,3.53-1.01.94-2.59.89-3.53-.11-.94-1.01-.89-2.59.11-3.53Z"/>
  <path class="cls-1" d="m249.67,265.33c.88-1.06,2.46-1.21,3.52-.33,1.06.88,1.21,2.46.33,3.52-.88,1.06-2.46,1.21-3.52.33-1.06-.88-1.21-2.46-.33-3.52Z"/>
  <path class="cls-1" d="m266.12,268.51c.74-1.16,2.29-1.51,3.45-.77,1.16.74,1.51,2.29.77,3.45-.74,1.16-2.29,1.51-3.45.77-1.16-.74-1.51-2.29-.77-3.45Z"/>
  <path class="cls-1" d="m278.88,301.75c.59-1.25,2.08-1.78,3.33-1.19,1.25.59,1.78,2.08,1.19,3.33-.59,1.25-2.08,1.78-3.33,1.19-1.25-.59-1.78-2.08-1.19-3.33Z"/>
  <path class="cls-1" d="m288.62,281.11c.43-1.31,1.84-2.03,3.15-1.6s2.03,1.84,1.6,3.15c-.43,1.31-1.84,2.03-3.15,1.6s-2.03-1.84-1.6-3.15Z"/>
  <path class="cls-1" d="m304.11,288c.26-1.36,1.57-2.24,2.93-1.98,1.36.26,2.24,1.57,1.98,2.93-.26,1.36-1.57,2.24-2.93,1.98s-2.24-1.57-1.98-2.93Z"/>
  <path class="cls-1" d="m305.11,285.05c.09-1.38,1.28-2.42,2.66-2.33s2.42,1.28,2.33,2.66c-.09,1.38-1.28,2.42-2.66,2.33-1.38-.09-2.42-1.28-2.33-2.66Z"/>
  <path class="cls-1" d="m337.44,303.27c-.08-1.38.97-2.56,2.35-2.64,1.38-.08,2.56.97,2.64,2.35.08,1.38-.97,2.56-2.35,2.64-1.38.08-2.56-.97-2.64-2.35Z"/>
  <path class="cls-1" d="m352.24,307.37c-.25-1.36.64-2.66,2-2.92,1.36-.25,2.66.64,2.92,2s-.64,2.66-2,2.92c-1.36.25-2.66-.64-2.92-2Z"/>
  <path class="cls-1" d="m348.33,303.89c-.42-1.31.3-2.72,1.62-3.14,1.31-.42,2.72.3,3.14,1.62s-.3,2.72-1.62,3.14-2.72-.3-3.14-1.62Z"/>
  <path class="cls-1" d="m369.41,276.07c-.58-1.25-.04-2.74,1.21-3.32s2.74-.04,3.32,1.21c.58,1.25.04,2.74-1.21,3.32s-2.74.04-3.32-1.21Z"/>
  <path class="cls-1" d="m379.52,288.29c-.73-1.17-.38-2.71.79-3.45,1.17-.73,2.71-.38,3.45.79.73,1.17.38,2.71-.79,3.45-1.17.73-2.71.38-3.45-.79Z"/>
  <path class="cls-1" d="m380.5,265.62c-.87-1.07-.72-2.64.35-3.52,1.07-.87,2.64-.72,3.52.35.87,1.07.72,2.64-.35,3.52-1.07.88-2.64.72-3.52-.35Z"/>
  <path class="cls-1" d="m396.17,268.85c-1-.95-1.04-2.53-.09-3.53s2.53-1.04,3.53-.09c1,.95,1.04,2.53.09,3.53-.95,1-2.53,1.04-3.53.09Z"/>
  <path class="cls-1" d="m420.57,266.55c-1.11-.82-1.35-2.38-.53-3.49.82-1.11,2.38-1.35,3.49-.53s1.35,2.38.53,3.49-2.38,1.35-3.5.53Z"/>
  <path class="cls-1" d="m413.33,231.38c-1.21-.67-1.64-2.19-.97-3.4s2.19-1.64,3.4-.97,1.64,2.19.97,3.4-2.19,1.64-3.4.97Z"/>
  <path class="cls-1" d="m445.09,222.63c-1.28-.52-1.9-1.97-1.38-3.25s1.97-1.9,3.25-1.38c1.28.52,1.9,1.97,1.38,3.25-.52,1.28-1.97,1.9-3.25,1.38Z"/>
  <path class="cls-1" d="m441.12,218.36c-1.33-.35-2.13-1.72-1.78-3.05.35-1.34,1.72-2.13,3.05-1.78,1.34.35,2.13,1.72,1.78,3.05-.35,1.34-1.72,2.13-3.05,1.78Z"/>
  <path class="cls-1" d="m443.57,194.07c-1.37-.18-2.33-1.44-2.15-2.81.18-1.37,1.44-2.33,2.81-2.15,1.37.18,2.33,1.44,2.15,2.81-.18,1.37-1.44,2.33-2.81,2.15Z"/>
  <path class="cls-1" d="m432.44,176.7c-1.38,0-2.49-1.14-2.48-2.52,0-1.38,1.14-2.49,2.52-2.48,1.38,0,2.49,1.14,2.48,2.52-.01,1.38-1.14,2.49-2.52,2.48Z"/>
  <path class="cls-1" d="m425.02,160.15c-1.37.16-2.61-.82-2.78-2.19-.16-1.37.82-2.61,2.19-2.78,1.37-.16,2.61.82,2.78,2.19.16,1.37-.82,2.61-2.19,2.78Z"/>
  <path class="cls-1" d="m432.86,156.11c-1.34.33-2.7-.48-3.03-1.82-.33-1.34.48-2.7,1.82-3.03,1.34-.33,2.7.48,3.03,1.82.33,1.34-.48,2.7-1.82,3.03Z"/>
  <path class="cls-1" d="m437.17,129.79c-1.29.5-2.74-.14-3.23-1.43s.14-2.74,1.43-3.23,2.74.14,3.23,1.43-.14,2.74-1.43,3.23Z"/>
  <path class="cls-1" d="m427.37,138.94c-1.22.65-2.73.2-3.39-1.02-.65-1.22-.2-2.73,1.02-3.39,1.22-.65,2.73-.2,3.39,1.02.65,1.22.2,2.73-1.02,3.39Z"/>
  <path class="cls-1" d="m406.92,103.42c-1.12.8-2.69.54-3.49-.58-.8-1.12-.54-2.69.58-3.49,1.12-.8,2.69-.54,3.49.58.8,1.12.54,2.69-.58,3.49Z"/>
  <path class="cls-1" d="m413.7,87.51c-1.02.94-2.6.87-3.53-.14-.94-1.02-.87-2.6.14-3.53,1.02-.94,2.6-.87,3.53.14.94,1.02.87,2.6-.14,3.53Z"/>
  <path class="cls-1" d="m413.97,104.65c-.89,1.06-2.47,1.19-3.52.3s-1.19-2.47-.3-3.52,2.47-1.19,3.52-.3c1.06.89,1.19,2.47.3,3.52Z"/>
  <path class="cls-1" d="m376.84,89.72c-.75,1.16-2.3,1.49-3.46.74-1.16-.75-1.49-2.3-.74-3.46.75-1.16,2.3-1.49,3.46-.74,1.16.75,1.49,2.3.74,3.46Z"/>
  <path class="cls-1" d="m374.92,65.21c-.6,1.24-2.1,1.76-3.34,1.16s-1.76-2.1-1.16-3.34,2.1-1.76,3.34-1.16c1.24.6,1.76,2.1,1.16,3.34Z"/>
  <path class="cls-1" d="m364.57,79.1c-.44,1.31-1.86,2.01-3.17,1.57-1.31-.44-2.01-1.86-1.57-3.17.44-1.31,1.86-2.01,3.17-1.57,1.31.44,2.01,1.86,1.57,3.17Z"/>
  <path class="cls-1" d="m350.07,51.51c-.27,1.35-1.59,2.23-2.95,1.96-1.35-.27-2.23-1.59-1.96-2.95s1.59-2.23,2.95-1.96c1.35.27,2.23,1.59,1.96,2.95Z"/>
  <path class="cls-1" d="m338.5,60.07c-.1,1.38-1.3,2.41-2.68,2.31-1.38-.1-2.41-1.3-2.31-2.68.1-1.38,1.3-2.41,2.68-2.31,1.38.1,2.41,1.3,2.31,2.68Z"/>
  <path class="cls-1" d="m331.01,46.27c.06,1.38-1.01,2.55-2.39,2.61-1.38.06-2.55-1.01-2.61-2.39-.06-1.38,1.01-2.55,2.39-2.61,1.38-.06,2.55,1.01,2.61,2.39Z"/>
  <path class="cls-1" d="m301.55,74.26c.23,1.36-.68,2.65-2.05,2.88-1.36.23-2.65-.68-2.88-2.05-.23-1.36.68-2.65,2.05-2.88,1.36-.23,2.65.68,2.88,2.05Z"/>
  <path class="cls-1" d="m295.22,73.85c.4,1.32-.35,2.72-1.67,3.12s-2.72-.35-3.12-1.67c-.4-1.32.35-2.72,1.67-3.12,1.32-.4,2.72.35,3.12,1.67Z"/>
  <path class="cls-1" d="m280.26,59.65c.56,1.26,0,2.74-1.27,3.3s-2.74,0-3.3-1.27,0-2.74,1.27-3.3c1.26-.56,2.74,0,3.3,1.27Z"/>
  <path class="cls-1" d="m270.02,62.81c.71,1.18.34,2.72-.84,3.43-1.18.72-2.72.34-3.43-.84-.71-1.18-.34-2.72.84-3.43,1.18-.72,2.72-.34,3.43.84Z"/>
  <path class="cls-1" d="m257.09,96.96c.86,1.08.67,2.65-.41,3.51-1.08.86-2.65.67-3.51-.41s-.67-2.65.41-3.51,2.65-.67,3.51.41Z"/>
  <path class="cls-1" d="m247.9,83.2c.99.97,1,2.55.03,3.54-.97.99-2.55,1-3.54.03-.99-.97-1-2.55-.03-3.54.97-.99,2.55-1,3.54-.03Z"/>
  <path class="cls-1" d="m216.86,115.38c1.1.84,1.31,2.4.48,3.5s-2.4,1.31-3.5.48c-1.1-.84-1.31-2.4-.48-3.5.84-1.1,2.4-1.31,3.5-.48Z"/>
  <path class="cls-1" d="m205.39,113.25c1.19.69,1.6,2.22.91,3.42s-2.22,1.6-3.42.91-1.6-2.22-.91-3.42c.69-1.19,2.22-1.6,3.42-.91Z"/>
  <path class="cls-1" d="m222.42,123.44c1.27.54,1.87,2,1.33,3.28s-2,1.87-3.28,1.33-1.87-2-1.33-3.28c.54-1.27,2-1.87,3.28-1.33Z"/>
  <path class="cls-1" d="m201.84,153.31c1.33.37,2.1,1.75,1.73,3.08s-1.75,2.1-3.08,1.73c-1.33-.37-2.1-1.75-1.73-3.08.37-1.33,1.75-2.1,3.08-1.73Z"/>
  <path class="cls-1" d="m187.98,155.6c1.37.21,2.31,1.48,2.1,2.84-.2,1.37-1.48,2.31-2.84,2.1-1.37-.2-2.31-1.48-2.1-2.84.21-1.37,1.48-2.31,2.84-2.1Z"/>
  <path class="cls-1" d="m196.15,170.5c1.38.03,2.47,1.18,2.44,2.56-.03,1.38-1.18,2.47-2.56,2.44-1.38-.03-2.47-1.18-2.44-2.56.03-1.38,1.18-2.47,2.56-2.44Z"/>
  <path class="cls-1" d="m211.08,190.78c1.37-.14,2.6.86,2.74,2.23s-.86,2.6-2.23,2.74c-1.37.14-2.6-.86-2.74-2.23-.14-1.37.86-2.6,2.23-2.74Z"/>
  <path class="cls-1" d="m193.72,212.46c1.35-.31,2.69.53,3,1.87s-.53,2.69-1.87,3c-1.35.31-2.69-.53-3-1.87-.31-1.35.53-2.69,1.87-3Z"/>
  <path class="cls-1" d="m207.61,223.56c1.3-.48,2.73.19,3.21,1.48.48,1.3-.19,2.73-1.48,3.21-1.3.48-2.73-.19-3.21-1.48-.48-1.3.19-2.73,1.48-3.21Z"/>
  <path class="cls-1" d="m210.81,233.81c1.23-.63,2.73-.15,3.37,1.07.63,1.23.15,2.73-1.07,3.37-1.23.63-2.73.16-3.37-1.07-.63-1.23-.15-2.73,1.07-3.37Z"/>
  <path class="cls-1" d="m219.76,234.16c1.14-.78,2.69-.5,3.48.64.78,1.14.5,2.69-.64,3.48-1.14.78-2.69.5-3.48-.64-.78-1.14-.5-2.69.64-3.48Z"/>
  <path class="cls-1" d="m218.45,243.62c1.03-.92,2.61-.83,3.53.2.92,1.03.83,2.61-.2,3.53-1.03.92-2.61.83-3.53-.2s-.83-2.61.2-3.53Z"/>
  <path class="cls-1" d="m231.44,268.02c.91-1.04,2.49-1.15,3.53-.24,1.04.91,1.15,2.49.24,3.53-.91,1.04-2.49,1.15-3.53.24-1.04-.91-1.15-2.49-.24-3.53Z"/>
  <path class="cls-1" d="m243.15,287.29c.77-1.15,2.32-1.45,3.47-.68,1.15.77,1.45,2.32.68,3.47-.77,1.15-2.32,1.45-3.47.68-1.15-.77-1.45-2.32-.68-3.47Z"/>
  <path class="cls-1" d="m261.07,280.88c.62-1.23,2.12-1.73,3.36-1.11,1.23.62,1.73,2.12,1.11,3.36-.62,1.23-2.12,1.73-3.36,1.11-1.23-.62-1.73-2.12-1.11-3.36Z"/>
  <path class="cls-1" d="m276.51,301.4c.46-1.3,1.89-1.98,3.19-1.52,1.3.46,1.98,1.89,1.52,3.19-.46,1.3-1.89,1.98-3.19,1.52s-1.98-1.89-1.52-3.19Z"/>
  <path class="cls-1" d="m286.13,290.46c.3-1.35,1.63-2.2,2.98-1.91,1.35.3,2.2,1.63,1.91,2.98s-1.63,2.2-2.98,1.91-2.2-1.63-1.91-2.98Z"/>
  <path class="cls-1" d="m321.04,284.83c.12-1.38,1.34-2.39,2.72-2.26s2.39,1.34,2.26,2.72-1.34,2.39-2.72,2.26c-1.38-.12-2.39-1.34-2.26-2.72Z"/>
  <path class="cls-1" d="m319.42,310.44c-.05-1.38,1.03-2.54,2.41-2.59,1.38-.05,2.54,1.03,2.59,2.41s-1.03,2.54-2.41,2.59-2.54-1.03-2.59-2.41Z"/>
  <path class="cls-1" d="m344.23,284.7c-.22-1.36.71-2.65,2.07-2.87,1.36-.22,2.65.71,2.87,2.07.22,1.36-.71,2.65-2.07,2.87-1.36.22-2.65-.71-2.87-2.07Z"/>
  <path class="cls-1" d="m341.57,307.87c-.39-1.32.37-2.71,1.7-3.1,1.32-.39,2.71.37,3.1,1.7s-.37,2.71-1.7,3.1c-1.32.39-2.71-.37-3.1-1.7Z"/>
  <path class="cls-1" d="m378.13,280.44c-.55-1.27.03-2.74,1.29-3.29s2.74.03,3.29,1.29c.55,1.27-.03,2.74-1.29,3.29s-2.74-.03-3.29-1.29Z"/>
  <path class="cls-1" d="m379.51,289.87c-.71-1.19-.31-2.72.87-3.43,1.19-.71,2.72-.31,3.43.87.71,1.19.31,2.72-.87,3.43-1.19.71-2.72.31-3.43-.87Z"/>
  <path class="cls-1" d="m386.67,274.57c-.85-1.09-.65-2.66.44-3.51,1.09-.85,2.66-.65,3.51.44s.65,2.66-.44,3.51c-1.09.85-2.66.65-3.51-.44Z"/>
  <path class="cls-1" d="m405.59,280.49c-.98-.98-.98-2.56,0-3.54.98-.98,2.56-.98,3.54,0,.98.97.98,2.56,0,3.54-.98.98-2.56.98-3.54,0Z"/>
  <path class="cls-1" d="m407.77,253.43c-1.09-.85-1.29-2.42-.45-3.51s2.42-1.29,3.51-.45,1.29,2.42.45,3.51-2.42,1.29-3.51.45Z"/>
  <path class="cls-1" d="m437.03,233.8c-1.19-.7-1.58-2.24-.88-3.42s2.24-1.58,3.42-.88,1.58,2.24.88,3.42-2.24,1.58-3.42.88Z"/>
  <path class="cls-1" d="m442.5,236.58c-1.27-.55-1.85-2.02-1.3-3.29.55-1.27,2.02-1.85,3.29-1.3,1.27.55,1.85,2.02,1.3,3.29-.55,1.27-2.02,1.85-3.29,1.3Z"/>
  <path class="cls-1" d="m420.36,214.05c-1.33-.39-2.09-1.77-1.7-3.1.39-1.33,1.77-2.09,3.1-1.7,1.33.39,2.09,1.77,1.7,3.1-.39,1.33-1.77,2.09-3.1,1.7Z"/>
  <path class="cls-1" d="m448.49,197.99c-1.36-.22-2.29-1.5-2.08-2.86.22-1.36,1.5-2.29,2.86-2.08,1.36.22,2.29,1.5,2.08,2.86-.22,1.36-1.5,2.29-2.86,2.08Z"/>
  <path class="cls-1" d="m430.55,198.91c-1.38-.04-2.46-1.2-2.42-2.58.04-1.38,1.2-2.46,2.58-2.42s2.46,1.2,2.42,2.58c-.04,1.38-1.2,2.46-2.58,2.42Z"/>
  <path class="cls-1" d="m449.72,167.72c-1.37.13-2.59-.88-2.72-2.26-.13-1.37.88-2.59,2.26-2.72,1.37-.13,2.59.88,2.72,2.26.13,1.37-.88,2.59-2.26,2.72Z"/>
  <path class="cls-1" d="m439.52,166.61c-1.35.3-2.68-.55-2.98-1.9-.3-1.35.55-2.68,1.9-2.98,1.35-.3,2.68.55,2.98,1.9.3,1.35-.55,2.68-1.9,2.98Z"/>
  <path class="cls-1" d="m429.91,147.41c-1.3.47-2.73-.21-3.2-1.51-.47-1.3.21-2.73,1.51-3.2,1.3-.47,2.73.21,3.2,1.51.47,1.3-.21,2.73-1.51,3.2Z"/>
  <path class="cls-1" d="m423.72,123.13c-1.23.62-2.74.13-3.36-1.1s-.13-2.74,1.1-3.36c1.23-.62,2.74-.13,3.36,1.1.62,1.23.13,2.74-1.1,3.36Z"/>
  <path class="cls-1" d="m411.66,118.04c-1.14.77-2.7.47-3.47-.67s-.47-2.7.67-3.47c1.14-.77,2.7-.47,3.47.67.77,1.14.47,2.7-.67,3.47Z"/>
  <path class="cls-1" d="m425.38,100.2c-1.04.91-2.62.81-3.53-.23s-.81-2.62.23-3.53c1.04-.91,2.62-.81,3.53.23.91,1.04.81,2.62-.23,3.53Z"/>
  <path class="cls-1" d="m388.59,103.43c-.92,1.03-2.5,1.13-3.53.21-1.03-.92-1.13-2.5-.21-3.53.92-1.03,2.5-1.13,3.53-.21,1.03.92,1.13,2.5.21,3.53Z"/>
  <path class="cls-1" d="m377.29,80.12c-.78,1.14-2.34,1.43-3.48.65-1.14-.78-1.43-2.34-.65-3.48s2.34-1.43,3.48-.65c1.14.78,1.43,2.34.65,3.48Z"/>
  <path class="cls-1" d="m362.59,87.89c-.63,1.23-2.14,1.71-3.37,1.08-1.23-.63-1.71-2.14-1.08-3.37.63-1.23,2.14-1.71,3.37-1.08s1.71,2.14,1.08,3.37Z"/>
  <path class="cls-1" d="m355.6,58.37c-.47,1.3-1.91,1.97-3.21,1.49s-1.97-1.91-1.49-3.21c.47-1.3,1.91-1.97,3.21-1.49,1.3.47,1.97,1.91,1.49,3.21Z"/>
  <path class="cls-1" d="m363.39,51.5c-.31,1.35-1.65,2.19-2.99,1.88-1.35-.31-2.19-1.65-1.88-2.99.31-1.35,1.65-2.19,2.99-1.88,1.35.31,2.19,1.65,1.88,2.99Z"/>
  <path class="cls-1" d="m320.53,49.92c-.14,1.37-1.36,2.38-2.73,2.24-1.37-.14-2.38-1.36-2.24-2.74.14-1.37,1.36-2.38,2.73-2.24,1.37.14,2.38,1.36,2.24,2.73Z"/>
  <circle class="cls-1" cx="350.03" cy="156.31" r="2.5"/>
  <circle class="cls-1" cx="300.47" cy="156.59" r="2.5"/>
  <circle class="cls-1" cx="329.79" cy="226.83" r="2.5"/>
  <circle class="cls-1" cx="282.81" cy="216.21" r="2.5"/>
  <circle class="cls-1" cx="291.92" cy="178.9" r="2.5"/>
  <circle class="cls-1" cx="324.34" cy="193.03" r="2.5"/>
  <circle class="cls-1" cx="288.51" cy="202.19" r="2.5"/>
  <circle class="cls-1" cx="344.87" cy="154.99" r="2.5"/>
  <circle class="cls-1" cx="339.11" cy="181.04" r="2.5"/>
  <circle class="cls-1" cx="312.76" cy="226.54" r="2.5"/>
  <circle class="cls-1" cx="353.55" cy="176.91" r="2.5"/>
  <circle class="cls-1" cx="326.4" cy="223.02" r="2.5"/>
  <circle class="cls-1" cx="273.66" cy="178.8" r="2.5"/>
  <circle class="cls-1" cx="305.01" cy="215.1" r="2.5"/>
  <circle class="cls-1" cx="337.62" cy="202.79" r="2.5"/>
  <circle class="cls-1" cx="336.01" cy="224.91" r="2.5"/>
  <circle class="cls-1" cx="291.98" cy="198.81" r="2.5"/>
  <circle class="cls-1" cx="301.36" cy="179.42" r="2.5"/>
  <circle class="cls-1" cx="326.51" cy="135.92" r="2.5"/>
  <circle class="cls-1" cx="314.04" cy="189.17" r="2.5"/>
  <circle class="cls-1" cx="317.47" cy="184.79" r="2.5"/>
  <circle class="cls-1" cx="350.85" cy="154.95" r="2.5"/>
  <circle class="cls-1" cx="334.49" cy="229.55" r="2.5"/>
  <circle class="cls-1" cx="324.86" cy="207.65" r="2.5"/>
  <circle class="cls-1" cx="335.62" cy="186.11" r="2.5"/>
  <circle class="cls-1" cx="331.18" cy="215.37" r="2.5"/>
  <circle class="cls-1" cx="342.8" cy="143.75" r="2.5"/>
  <circle class="cls-1" cx="277.95" cy="210.3" r="2.5"/>
  <circle class="cls-1" cx="310.88" cy="177.75" r="2.5"/>
  <circle class="cls-1" cx="355.6" cy="223.38" r="2.5"/>
  <circle class="cls-1" cx="312.24" cy="177.42" r="2.5"/>
  <circle class="cls-1" cx="281.24" cy="203.07" r="2.5"/>
  <circle class="cls-1" cx="295.22" cy="136.94" r="2.5"/>
  <circle class="cls-1" cx="288.49" cy="149.08" r="2.5"/>
  <circle class="cls-1" cx="271.86" cy="186.79" r="2.5"/>
  <circle class="cls-1" cx="316.95" cy="155.07" r="2.5"/>
  <circle class="cls-1" cx="369.77" cy="168.44" r="2.5"/>
  <circle class="cls-1" cx="344.72" cy="153.57" r="2.5"/>
  <circle class="cls-1" cx="310.96" cy="221.98" r="2.5"/>
  <circle class="cls-1" cx="294.1" cy="195.33" r="2.5"/>
  <circle class="cls-1" cx="274.12" cy="153.14" r="2.5"/>
  <circle class="cls-1" cx="276.07" cy="147.86" r="2.5"/>
  <circle class="cls-1" cx="330.06" cy="160.66" r="2.5"/>
  <circle class="cls-1" cx="310.62" cy="150.25" r="2.5"/>
  <circle class="cls-1" cx="320.04" cy="155.88" r="2.5"/>
  <circle class="cls-1" cx="282.26" cy="182.97" r="2.5"/>
  <circle class="cls-1" cx="293.78" cy="149.6" r="2.5"/>
  <circle class="cls-1" cx="343.55" cy="181.83" r="2.5"/>
  <circle class="cls-1" cx="352.4" cy="187.85" r="2.5"/>
  <circle class="cls-1" cx="320.98" cy="217.79" r="2.5"/>
  <circle class="cls-1" cx="328.49" cy="216.41" r="2.5"/>
  <circle class="cls-1" cx="316.17" cy="209.26" r="2.5"/>
  <circle class="cls-1" cx="322.38" cy="215.5" r="2.5"/>
  <circle class="cls-1" cx="302.84" cy="192.79" r="2.5"/>
  <circle class="cls-1" cx="324.09" cy="151.48" r="2.5"/>
  <circle class="cls-1" cx="310.15" cy="174.34" r="2.5"/>
  <circle class="cls-1" cx="324.46" cy="152.07" r="2.5"/>
  <circle class="cls-1" cx="331.78" cy="221.39" r="2.5"/>
  <circle class="cls-1" cx="324.99" cy="213.88" r="2.5"/>
  <circle class="cls-1" cx="354.73" cy="178.47" r="2.5"/>
  <circle class="cls-1" cx="305.72" cy="215.16" r="2.5"/>
  <circle class="cls-1" cx="357.57" cy="140.28" r="2.5"/>
  <circle class="cls-1" cx="288.9" cy="181.38" r="2.5"/>
  <circle class="cls-1" cx="368.58" cy="160.66" r="2.5"/>
  <circle class="cls-1" cx="364.31" cy="156.98" r="2.5"/>
  <circle class="cls-1" cx="324.53" cy="225.28" r="2.5"/>
  <circle class="cls-1" cx="291.61" cy="186.23" r="2.5"/>
  <circle class="cls-1" cx="320.61" cy="166.46" r="2.5"/>
  <circle class="cls-1" cx="345.57" cy="156.35" r="2.5"/>
  <circle class="cls-1" cx="292.25" cy="148.01" r="2.5"/>
  <circle class="cls-1" cx="319.59" cy="206.2" r="2.5"/>
  <circle class="cls-1" cx="319.4" cy="198.36" r="2.5"/>
  <circle class="cls-1" cx="353.36" cy="153.36" r="2.5"/>
  <circle class="cls-1" cx="293.82" cy="220.03" r="2.5"/>
  <circle class="cls-1" cx="300.07" cy="143.05" r="2.5"/>
  <circle class="cls-1" cx="340.18" cy="153.63" r="2.5"/>
  <circle class="cls-1" cx="298.93" cy="171.7" r="2.5"/>
  <circle class="cls-1" cx="368.62" cy="188.57" r="2.5"/>
  <circle class="cls-1" cx="289.28" cy="149.75" r="2.5"/>
  <circle class="cls-1" cx="309.83" cy="135.08" r="2.5"/>
  <circle class="cls-1" cx="274.23" cy="178.11" r="2.5"/>
  <circle class="cls-1" cx="306.05" cy="137.33" r="2.5"/>
  <circle class="cls-1" cx="340.61" cy="131.08" r="2.5"/>
  <circle class="cls-1" cx="306.62" cy="223.13" r="2.5"/>
  <circle class="cls-1" cx="321.88" cy="131.56" r="2.5"/>
  <circle class="cls-1" cx="302.36" cy="200.4" r="2.5"/>
  <circle class="cls-1" cx="360.45" cy="162.81" r="2.5"/>
  <circle class="cls-1" cx="280.83" cy="151.26" r="2.5"/>
  <circle class="cls-1" cx="352.61" cy="181.88" r="2.5"/>
  <circle class="cls-1" cx="339.52" cy="144.42" r="2.5"/>
  <circle class="cls-1" cx="325.68" cy="154.22" r="2.5"/>
  <circle class="cls-1" cx="318.46" cy="155.27" r="2.5"/>
  <circle class="cls-1" cx="361.14" cy="191.14" r="2.5"/>
  <circle class="cls-1" cx="342.75" cy="171.59" r="2.5"/>
  <circle class="cls-1" cx="329.26" cy="143.41" r="2.5"/>
  <circle class="cls-1" cx="315.68" cy="213.24" r="2.5"/>
  <circle class="cls-1" cx="350.88" cy="153.99" r="2.5"/>
  <circle class="cls-1" cx="353.11" cy="143.76" r="2.5"/>
  <circle class="cls-1" cx="351.98" cy="223.12" r="2.5"/>
  <circle class="cls-1" cx="299.57" cy="202.15" r="2.5"/>
  <circle class="cls-1" cx="326.58" cy="188.73" r="2.5"/>
  <circle class="cls-1" cx="316.98" cy="132.84" r="2.5"/>
  <circle class="cls-1" cx="273.78" cy="175.54" r="2.5"/>
  <circle class="cls-1" cx="286.31" cy="142.06" r="2.5"/>
  <circle class="cls-1" cx="313.03" cy="158.68" r="2.5"/>
  <circle class="cls-1" cx="322.62" cy="194.59" r="2.5"/>
  <circle class="cls-1" cx="316.6" cy="214.45" r="2.5"/>
  <circle class="cls-1" cx="360.72" cy="195.62" r="2.5"/>
  <circle class="cls-1" cx="301.72" cy="179.53" r="2.5"/>
  <circle class="cls-1" cx="308.49" cy="212.75" r="2.5"/>
  <circle class="cls-1" cx="334.12" cy="190.96" r="2.5"/>
  <circle class="cls-1" cx="363.71" cy="185.73" r="2.5"/>
  <circle class="cls-1" cx="305.78" cy="183.59" r="2.5"/>
  <circle class="cls-1" cx="313.1" cy="141.29" r="2.5"/>
  <circle class="cls-1" cx="291.38" cy="176.93" r="2.5"/>
  <circle class="cls-1" cx="280.34" cy="176.13" r="2.5"/>
  <circle class="cls-1" cx="310.76" cy="221.52" r="2.5"/>
  <circle class="cls-1" cx="274.41" cy="158.58" r="2.5"/>
  <circle class="cls-1" cx="270.23" cy="167.63" r="2.5"/>
  <circle class="cls-1" cx="336.21" cy="175.47" r="2.5"/>
  <circle class="cls-1" cx="356.32" cy="139.87" r="2.5"/>
  <circle class="cls-1" cx="351.25" cy="210.3" r="2.5"/>
  <circle class="cls-1" cx="323.36" cy="177.15" r="2.5"/>
  <circle class="cls-1" cx="282.66" cy="217.32" r="2.5"/>
  <circle class="cls-1" cx="297.63" cy="177.48" r="2.5"/>
  <circle class="cls-1" cx="353.25" cy="175.83" r="2.5"/>
  <circle class="cls-1" cx="320.51" cy="148.34" r="2.5"/>
  <circle class="cls-1" cx="295.5" cy="160.65" r="2.5"/>
  <circle class="cls-1" cx="288.14" cy="186.58" r="2.5"/>
  <circle class="cls-1" cx="315.57" cy="151.36" r="2.5"/>
  <circle class="cls-1" cx="272.82" cy="175.88" r="2.5"/>
  <circle class="cls-1" cx="294.7" cy="170.3" r="2.5"/>
  <circle class="cls-1" cx="285.08" cy="146.33" r="2.5"/>
  <circle class="cls-1" cx="306.04" cy="208.12" r="2.5"/>
  <circle class="cls-1" cx="360.41" cy="173.57" r="2.5"/>
  <circle class="cls-1" cx="294.17" cy="190.37" r="2.5"/>
  <circle class="cls-1" cx="326.95" cy="130.86" r="2.5"/>
  <circle class="cls-1" cx="327.11" cy="165.76" r="2.5"/>
  <circle class="cls-1" cx="320.73" cy="214.36" r="2.5"/>
  <circle class="cls-1" cx="297.36" cy="138.04" r="2.5"/>
  <circle class="cls-1" cx="288.94" cy="169.83" r="2.5"/>
  <circle class="cls-1" cx="287.6" cy="144.54" r="2.5"/>
  <circle class="cls-1" cx="271.93" cy="198.79" r="2.5"/>
  <circle class="cls-1" cx="304.52" cy="172.28" r="2.5"/>
  <circle class="cls-1" cx="331.23" cy="150.09" r="2.5"/>
  <circle class="cls-1" cx="327.31" cy="130.43" r="2.5"/>
  <circle class="cls-1" cx="359.57" cy="164.31" r="2.5"/>
  <circle class="cls-1" cx="348.57" cy="195.79" r="2.5"/>
  <circle class="cls-1" cx="291.7" cy="176.87" r="2.5"/>
  <circle class="cls-1" cx="347.28" cy="178.77" r="2.5"/>
  <circle class="cls-1" cx="302.88" cy="223.33" r="2.5"/>
  <circle class="cls-1" cx="358.12" cy="203.09" r="2.5"/>
  <circle class="cls-1" cx="285.28" cy="199.22" r="2.5"/>
  <circle class="cls-1" cx="328.81" cy="229.57" r="2.5"/>
  <circle class="cls-1" cx="303.67" cy="152.87" r="2.5"/>
  <circle class="cls-1" cx="290.57" cy="206.21" r="2.5"/>
  <circle class="cls-1" cx="340.85" cy="149.86" r="2.5"/>
  <circle class="cls-1" cx="298.26" cy="162.27" r="2.5"/>
  <circle class="cls-1" cx="319.37" cy="198.14" r="2.5"/>
  <circle class="cls-1" cx="367.53" cy="185.91" r="2.5"/>
  <circle class="cls-1" cx="346.43" cy="177.99" r="2.5"/>
  <circle class="cls-1" cx="338.55" cy="138.57" r="2.5"/>
  <circle class="cls-1" cx="367.19" cy="171.93" r="2.5"/>
  <circle class="cls-1" cx="359.7" cy="142.43" r="2.5"/>
  <circle class="cls-1" cx="289.33" cy="207.15" r="2.5"/>
  <circle class="cls-1" cx="315.83" cy="143.82" r="2.5"/>
  <circle class="cls-1" cx="339.64" cy="173.39" r="2.5"/>
  <circle class="cls-1" cx="348.84" cy="215.14" r="2.5"/>
  <circle class="cls-1" cx="322.1" cy="199.82" r="2.5"/>
  <circle class="cls-1" cx="318.7" cy="165.18" r="2.5"/>
  <circle class="cls-1" cx="337.55" cy="180.22" r="2.5"/>
  <circle class="cls-1" cx="359" cy="187.59" r="2.5"/>
  <circle class="cls-1" cx="348.94" cy="160.36" r="2.5"/>
  <circle class="cls-1" cx="313.42" cy="71.53" r="2.5"/>
  <path class="cls-1" d="m312.58,69.86c.17,1.37-.8,2.62-2.17,2.79s-2.62-.8-2.79-2.17c-.17-1.37.8-2.62,2.17-2.79s2.62.8,2.79,2.17Z"/>
  <path class="cls-1" d="m303.38,62.17c.34,1.34-.46,2.7-1.8,3.04-1.34.34-2.7-.46-3.04-1.8-.34-1.34.46-2.7,1.8-3.04,1.34-.34,2.7.46,3.04,1.8Z"/>
  <path class="cls-1" d="m265.25,75.52c.51,1.28-.12,2.74-1.41,3.24s-2.74-.12-3.24-1.41c-.51-1.28.12-2.74,1.41-3.24,1.28-.51,2.74.12,3.24,1.41Z"/>
  <path class="cls-1" d="m266.06,66.16c.66,1.21.22,2.73-.99,3.39-1.21.66-2.73.22-3.39-.99-.66-1.21-.22-2.73.99-3.39,1.21-.66,2.73-.22,3.39.99Z"/>
  <path class="cls-1" d="m266.41,79.93c.81,1.12.56,2.68-.56,3.49-1.12.81-2.68.56-3.49-.56-.81-1.12-.56-2.68.56-3.49,1.12-.81,2.68-.56,3.49.56Z"/>
  <path class="cls-1" d="m239.74,92.22c.94,1.01.89,2.59-.12,3.53-1.01.94-2.59.89-3.53-.12s-.89-2.59.12-3.53c1.01-.94,2.59-.89,3.53.12Z"/>
  <path class="cls-1" d="m234.44,91.34c1.06.88,1.21,2.46.32,3.52-.88,1.06-2.46,1.21-3.52.32-1.06-.88-1.21-2.46-.32-3.52s2.46-1.21,3.52-.32Z"/>
  <path class="cls-1" d="m232.95,115.86c1.16.74,1.5,2.29.76,3.45-.74,1.16-2.29,1.5-3.45.76-1.16-.74-1.5-2.29-.76-3.45.74-1.16,2.29-1.5,3.45-.76Z"/>
  <path class="cls-1" d="m201.45,122.6c1.25.59,1.78,2.08,1.19,3.33-.59,1.25-2.08,1.78-3.33,1.19-1.25-.59-1.78-2.08-1.19-3.33s2.08-1.78,3.33-1.19Z"/>
  <path class="cls-1" d="m201.6,142.62c1.31.43,2.03,1.84,1.59,3.16-.43,1.31-1.84,2.03-3.16,1.59-1.31-.43-2.03-1.84-1.59-3.16.43-1.31,1.84-2.03,3.16-1.59Z"/>
  <path class="cls-1" d="m214.4,164.48c1.36.26,2.24,1.58,1.98,2.93s-1.58,2.24-2.93,1.98c-1.36-.26-2.24-1.58-1.98-2.93.26-1.36,1.58-2.24,2.93-1.98Z"/>
  <path class="cls-1" d="m196.45,162.93c1.38.09,2.42,1.28,2.33,2.66-.09,1.38-1.28,2.42-2.66,2.33s-2.42-1.28-2.33-2.66c.09-1.38,1.28-2.42,2.66-2.33Z"/>
  <path class="cls-1" d="m191.82,184.28c1.38-.08,2.56.97,2.64,2.35.08,1.38-.97,2.56-2.35,2.64-1.38.08-2.56-.97-2.64-2.35-.08-1.38.97-2.56,2.35-2.64Z"/>
  <path class="cls-1" d="m200.36,202.1c1.36-.25,2.66.64,2.91,2,.25,1.36-.64,2.66-2,2.91-1.36.25-2.66-.64-2.91-2-.25-1.36.64-2.66,2-2.91Z"/>
  <path class="cls-1" d="m205.93,225.57c1.32-.42,2.72.31,3.14,1.62.42,1.32-.31,2.72-1.62,3.14-1.32.42-2.72-.31-3.14-1.62-.42-1.32.31-2.72,1.62-3.14Z"/>
  <path class="cls-1" d="m207.64,233.92c1.25-.58,2.74-.04,3.32,1.22.58,1.25.04,2.74-1.22,3.32-1.25.58-2.74.04-3.32-1.22-.58-1.25-.04-2.74,1.22-3.32Z"/>
  <path class="cls-1" d="m204.77,250.11c1.17-.73,2.71-.38,3.45.79s.38,2.71-.79,3.45c-1.17.73-2.71.38-3.45-.79-.73-1.17-.38-2.71.79-3.45Z"/>
  <path class="cls-1" d="m212.67,251.09c1.07-.87,2.64-.72,3.52.35.87,1.07.72,2.64-.35,3.52-1.07.87-2.64.72-3.52-.35-.87-1.07-.72-2.64.35-3.52Z"/>
  <path class="cls-1" d="m244.15,277.86c.95-1,2.53-1.04,3.53-.09,1,.95,1.04,2.53.09,3.53-.95,1-2.53,1.04-3.53.09-1-.95-1.04-2.53-.09-3.53Z"/>
  <path class="cls-1" d="m240.01,261.24c.82-1.11,2.38-1.35,3.5-.53,1.11.82,1.35,2.38.53,3.5-.82,1.11-2.38,1.35-3.5.53-1.11-.82-1.35-2.38-.53-3.5Z"/>
  <path class="cls-1" d="m273.91,285.94c.67-1.21,2.2-1.64,3.4-.96,1.21.67,1.64,2.2.96,3.4-.67,1.21-2.2,1.64-3.4.96-1.21-.67-1.64-2.2-.96-3.4Z"/>
  <path class="cls-1" d="m263.12,291.64c.52-1.28,1.98-1.9,3.25-1.38s1.9,1.97,1.38,3.26-1.98,1.9-3.25,1.38c-1.28-.52-1.9-1.98-1.38-3.26Z"/>
  <path class="cls-1" d="m278.35,302.54c.35-1.33,1.72-2.13,3.06-1.78,1.33.35,2.13,1.72,1.78,3.06-.35,1.33-1.72,2.13-3.06,1.78-1.33-.35-2.13-1.72-1.78-3.06Z"/>
  <path class="cls-1" d="m293.85,291.24c.18-1.37,1.44-2.33,2.81-2.14,1.37.18,2.33,1.44,2.14,2.81-.18,1.37-1.44,2.33-2.81,2.14-1.37-.18-2.33-1.44-2.14-2.81Z"/>
  <path class="cls-1" d="m325.5,306.67c.01-1.38,1.14-2.49,2.52-2.48,1.38.01,2.49,1.14,2.48,2.52-.01,1.38-1.14,2.49-2.52,2.48-1.38-.01-2.49-1.14-2.48-2.52Z"/>
  <path class="cls-1" d="m340.08,313.41c-.16-1.37.82-2.61,2.19-2.77,1.37-.16,2.61.82,2.77,2.19.16,1.37-.82,2.61-2.19,2.77-1.37.16-2.61-.82-2.77-2.19Z"/>
  <path class="cls-1" d="m334.72,309.74c-.33-1.34.49-2.7,1.83-3.03,1.34-.33,2.7.49,3.03,1.83s-.49,2.7-1.83,3.03c-1.34.33-2.7-.49-3.03-1.83Z"/>
  <path class="cls-1" d="m363.36,297.78c-.5-1.29.15-2.74,1.43-3.23,1.29-.5,2.74.15,3.23,1.43.5,1.29-.15,2.74-1.43,3.23-1.29.5-2.74-.15-3.23-1.43Z"/>
  <path class="cls-1" d="m377.58,289.81c-.65-1.22-.2-2.73,1.02-3.39,1.22-.65,2.73-.2,3.39,1.02.65,1.22.2,2.73-1.02,3.39-1.22.65-2.73.2-3.39-1.02Z"/>
  <circle class="cls-1" cx="386.14" cy="283.23" r="2.5"/>
  <path class="cls-1" d="m391.56,264.54c-.93-1.02-.87-2.6.15-3.53,1.02-.93,2.6-.87,3.53.15.93,1.02.87,2.6-.15,3.53s-2.6.87-3.53-.15Z"/>
  <path class="cls-1" d="m416.2,260.6c-1.05-.89-1.19-2.47-.29-3.52.89-1.05,2.47-1.19,3.52-.29,1.05.89,1.19,2.47.29,3.52-.89,1.05-2.47,1.19-3.52.29Z"/>
  <path class="cls-1" d="m421.18,233.77c-1.16-.75-1.49-2.3-.73-3.46.75-1.16,2.3-1.49,3.46-.73,1.16.75,1.49,2.3.73,3.46-.75,1.16-2.3,1.49-3.46.73Z"/>
  <path class="cls-1" d="m438.39,228.05c-1.24-.6-1.76-2.1-1.16-3.34.6-1.24,2.1-1.76,3.34-1.16s1.76,2.1,1.16,3.34c-.6,1.24-2.1,1.76-3.34,1.16Z"/>
  <path class="cls-1" d="m446.39,217.52c-1.31-.44-2.01-1.86-1.57-3.17.44-1.31,1.86-2.01,3.17-1.57,1.31.44,2.01,1.86,1.57,3.17s-1.86,2.01-3.17,1.57Z"/>
  <path class="cls-1" d="m444.56,208.3c-1.35-.28-2.23-1.59-1.95-2.95.28-1.35,1.6-2.23,2.95-1.95,1.35.28,2.23,1.59,1.95,2.95-.28,1.35-1.59,2.23-2.95,1.95Z"/>
  <path class="cls-1" d="m432.84,180.65c-1.38-.1-2.41-1.3-2.3-2.68.1-1.38,1.3-2.41,2.68-2.31,1.38.1,2.41,1.3,2.3,2.68-.1,1.38-1.3,2.41-2.68,2.31Z"/>
  <path class="cls-1" d="m450.16,170.56c-1.38.07-2.55-.99-2.62-2.37s.99-2.55,2.37-2.62,2.55.99,2.62,2.37c.07,1.38-.99,2.55-2.37,2.62Z"/>
  <path class="cls-1" d="m443.69,159.77c-1.36.24-2.66-.67-2.9-2.03-.24-1.36.67-2.66,2.03-2.9,1.36-.24,2.66.67,2.9,2.03.24,1.36-.67,2.66-2.03,2.9Z"/>
  <path class="cls-1" d="m436.82,135.74c-1.32.41-2.72-.33-3.13-1.65s.33-2.72,1.65-3.13c1.32-.41,2.72.33,3.13,1.65s-.33,2.72-1.65,3.13Z"/>
  <path class="cls-1" d="m427.64,143.65c-1.26.57-2.74.01-3.31-1.24s-.01-2.74,1.24-3.31,2.74-.01,3.31,1.24.01,2.74-1.24,3.31Z"/>
  <path class="cls-1" d="m412.49,118.63c-1.18.72-2.72.36-3.44-.82-.72-1.18-.36-2.72.82-3.44s2.72-.36,3.44.82c.72,1.18.36,2.72-.82,3.44Z"/>
  <path class="cls-1" d="m422.92,112.87c-1.08.86-2.65.69-3.51-.38-.86-1.08-.69-2.65.38-3.51s2.65-.69,3.51.38c.86,1.08.69,2.65-.38,3.51Z"/>
  <path class="cls-1" d="m419.18,96.59c-.96.99-2.54,1.02-3.54.06-.99-.96-1.02-2.54-.06-3.53.96-.99,2.54-1.02,3.54-.06.99.96,1.02,2.54.06,3.53Z"/>
  <path class="cls-1" d="m401.9,89.73c-.83,1.1-2.4,1.33-3.5.5s-1.33-2.4-.5-3.5,2.4-1.33,3.5-.5c1.1.83,1.33,2.4.5,3.5Z"/>
  <path class="cls-1" d="m395.6,88.4c-.68,1.2-2.21,1.62-3.41.93-1.2-.68-1.62-2.21-.93-3.41.68-1.2,2.21-1.62,3.41-.93s1.62,2.21.93,3.41Z"/>
  <path class="cls-1" d="m375.96,64.43c-.53,1.28-1.99,1.88-3.27,1.35-1.28-.53-1.88-1.99-1.35-3.27s1.99-1.88,3.27-1.35c1.28.53,1.88,1.99,1.35,3.27Z"/>
  <path class="cls-1" d="m356.74,51.71c-.36,1.33-1.74,2.12-3.07,1.75s-2.12-1.74-1.75-3.07,1.74-2.12,3.07-1.75,2.12,1.74,1.75,3.07Z"/>
  <path class="cls-1" d="m345.42,68.32c-.2,1.37-1.46,2.32-2.83,2.12s-2.32-1.46-2.12-2.83c.2-1.37,1.46-2.32,2.83-2.12,1.37.2,2.32,1.46,2.12,2.83Z"/>
  <path class="cls-1" d="m304.61,72.6c.13,1.37-.88,2.59-2.26,2.72-1.37.13-2.59-.88-2.72-2.26-.13-1.37.88-2.59,2.26-2.72s2.59.88,2.72,2.26Z"/>
  <path class="cls-1" d="m311.09,52.15c.3,1.35-.55,2.68-1.9,2.98s-2.68-.55-2.98-1.9c-.3-1.35.55-2.68,1.9-2.98,1.35-.3,2.68.55,2.98,1.9Z"/>
  <path class="cls-1" d="m291.48,77.78c.46,1.3-.21,2.73-1.51,3.2-1.3.46-2.73-.21-3.2-1.51-.46-1.3.21-2.73,1.51-3.2,1.3-.46,2.73.21,3.2,1.51Z"/>
  <path class="cls-1" d="m281.17,72.14c.62,1.23.13,2.74-1.1,3.36-1.23.62-2.74.13-3.36-1.1s-.13-2.74,1.1-3.36c1.23-.62,2.74-.13,3.36,1.1Z"/>
  <path class="cls-1" d="m254.33,69.71c.77,1.14.47,2.7-.67,3.47-1.14.77-2.7.47-3.47-.67-.77-1.14-.47-2.7.67-3.47,1.14-.77,2.7-.47,3.47.67Z"/>
  <path class="cls-1" d="m244.37,91.77c.91,1.04.81,2.62-.23,3.53-1.04.91-2.62.81-3.53-.23-.91-1.04-.81-2.62.23-3.53,1.04-.91,2.62-.81,3.53.23Z"/>
  <path class="cls-1" d="m226.78,111.67c1.03.92,1.13,2.5.21,3.53-.92,1.03-2.5,1.13-3.53.21-1.03-.92-1.13-2.5-.21-3.53s2.5-1.13,3.53-.21Z"/>
  <path class="cls-1" d="m229.74,115.53c1.14.78,1.43,2.34.65,3.48-.78,1.14-2.34,1.43-3.48.65-1.14-.78-1.43-2.34-.65-3.48.78-1.14,2.34-1.43,3.48-.65Z"/>
  <path class="cls-1" d="m218.97,116.53c1.23.63,1.71,2.14,1.08,3.37-.63,1.23-2.14,1.71-3.37,1.08s-1.71-2.14-1.08-3.37c.63-1.23,2.14-1.71,3.37-1.08Z"/>
  <path class="cls-1" d="m213.94,125.62c1.3.47,1.96,1.91,1.49,3.21-.47,1.3-1.91,1.96-3.21,1.49-1.3-.47-1.96-1.91-1.49-3.21.47-1.3,1.91-1.96,3.21-1.49Z"/>
  <path class="cls-1" d="m215.4,152.7c1.35.31,2.19,1.65,1.88,2.99-.31,1.35-1.65,2.19-2.99,1.88-1.35-.31-2.19-1.65-1.88-2.99s1.65-2.19,2.99-1.88Z"/>
  <path class="cls-1" d="m199.67,157.92c1.37.14,2.38,1.36,2.24,2.74-.14,1.37-1.36,2.38-2.74,2.24-1.37-.14-2.38-1.36-2.24-2.74.14-1.37,1.36-2.38,2.74-2.24Z"/>
  <path class="cls-1" d="m185.18,177.73c1.38-.04,2.53,1.05,2.56,2.43.04,1.38-1.05,2.53-2.43,2.56-1.38.04-2.53-1.05-2.56-2.43s1.05-2.53,2.43-2.56Z"/>
  <path class="cls-1" d="m201.96,201.5c1.36-.21,2.64.73,2.85,2.09s-.73,2.64-2.09,2.85c-1.36.21-2.64-.73-2.85-2.09-.21-1.37.73-2.64,2.09-2.85Z"/>
  <path class="cls-1" d="m206.82,197.95c1.33-.38,2.71.39,3.09,1.72.38,1.33-.39,2.71-1.72,3.09-1.33.38-2.71-.39-3.09-1.72-.38-1.33.39-2.71,1.72-3.09Z"/>
  <path class="cls-1" d="m207.07,223.01c1.27-.54,2.74.05,3.28,1.32.54,1.27-.05,2.74-1.32,3.28-1.27.54-2.74-.05-3.28-1.32-.54-1.27.05-2.74,1.32-3.28Z"/>
  <path class="cls-1" d="m224.82,247.55c1.19-.69,2.72-.29,3.42.9.69,1.19.29,2.72-.9,3.42-1.19.69-2.72.29-3.42-.9-.69-1.19-.29-2.72.9-3.42Z"/>
  <path class="cls-1" d="m213.55,241.39c1.1-.84,2.67-.63,3.5.47.84,1.1.63,2.67-.47,3.5-1.1.84-2.67.63-3.5-.47-.84-1.1-.63-2.67.47-3.5Z"/>
  <path class="cls-1" d="m230.19,255.65c.98-.97,2.57-.96,3.54.03.97.98.96,2.57-.03,3.54-.98.97-2.57.96-3.54-.03s-.96-2.57.03-3.54Z"/>
  <path class="cls-1" d="m240.25,274.28c.85-1.08,2.43-1.27,3.51-.42,1.08.85,1.27,2.43.42,3.51-.85,1.08-2.43,1.27-3.51.42-1.08-.85-1.27-2.43-.42-3.51Z"/>
  <path class="cls-1" d="m262.14,274.63c.71-1.18,2.25-1.56,3.43-.85,1.18.71,1.56,2.25.85,3.43-.71,1.18-2.25,1.56-3.43.85-1.18-.71-1.56-2.25-.85-3.43Z"/>
  <path class="cls-1" d="m261,291.73c.56-1.26,2.04-1.83,3.3-1.27,1.26.56,1.83,2.04,1.27,3.3-.56,1.26-2.04,1.83-3.3,1.27-1.26-.56-1.83-2.04-1.27-3.3Z"/>
  <path class="cls-1" d="m273.07,298.29c.4-1.32,1.79-2.07,3.11-1.68,1.32.4,2.07,1.79,1.68,3.11-.4,1.32-1.79,2.07-3.11,1.68-1.32-.4-2.07-1.79-1.68-3.11Z"/>
  <path class="cls-1" d="m310.46,298.35c.23-1.36,1.52-2.28,2.88-2.05,1.36.23,2.28,1.52,2.05,2.88-.23,1.36-1.52,2.28-2.88,2.05-1.36-.23-2.28-1.52-2.05-2.88Z"/>
  <path class="cls-1" d="m304.08,293.16c.06-1.38,1.22-2.45,2.6-2.4,1.38.06,2.45,1.22,2.4,2.6-.06,1.38-1.22,2.45-2.6,2.4-1.38-.06-2.45-1.22-2.4-2.6Z"/>
  <path class="cls-1" d="m331.06,289.7c-.12-1.38.9-2.59,2.28-2.7s2.59.9,2.7,2.28c.12,1.38-.9,2.59-2.28,2.7-1.38.12-2.59-.9-2.7-2.28Z"/>
  <path class="cls-1" d="m353.15,301.5c-.29-1.35.57-2.68,1.93-2.97,1.35-.29,2.68.57,2.97,1.92.29,1.35-.57,2.68-1.92,2.97-1.35.29-2.68-.57-2.97-1.92Z"/>
  <path class="cls-1" d="m365.54,293.96c-.45-1.3.24-2.73,1.54-3.18,1.3-.45,2.73.24,3.18,1.54.45,1.3-.24,2.73-1.54,3.18-1.3.45-2.73-.24-3.18-1.54Z"/>
  <path class="cls-1" d="m383.26,279.32c-.61-1.24-.11-2.74,1.13-3.35s2.74-.11,3.35,1.13c.61,1.24.11,2.74-1.13,3.35s-2.74.11-3.35-1.13Z"/>
  <path class="cls-1" d="m394.82,274.69c-.76-1.15-.45-2.7.7-3.47,1.15-.76,2.7-.45,3.47.7.76,1.15.45,2.7-.7,3.47-1.15.76-2.7.45-3.47-.7Z"/>
  <path class="cls-1" d="m392.47,277.95c-.9-1.05-.78-2.62.26-3.53,1.05-.9,2.62-.78,3.53.26.9,1.05.78,2.62-.26,3.53-1.05.9-2.62.78-3.53-.26Z"/>
  <path class="cls-1" d="m395.95,255.78c-1.02-.93-1.11-2.51-.18-3.53.93-1.02,2.51-1.11,3.53-.18s1.11,2.51.18,3.53-2.51,1.11-3.53.18Z"/>
  <path class="cls-1" d="m423.32,242.53c-1.13-.79-1.41-2.35-.62-3.48s2.35-1.41,3.48-.62,1.41,2.35.62,3.48-2.35,1.41-3.48.62Z"/>
  <path class="cls-1" d="m429.68,234.37c-1.22-.64-1.69-2.15-1.05-3.38.64-1.22,2.15-1.69,3.38-1.05s1.69,2.15,1.05,3.38-2.15,1.69-3.38,1.05Z"/>
  <path class="cls-1" d="m433.55,215.86c-1.29-.48-1.95-1.93-1.46-3.22.48-1.29,1.93-1.95,3.22-1.46,1.29.48,1.95,1.93,1.46,3.22-.48,1.29-1.93,1.95-3.22,1.46Z"/>
  <path class="cls-1" d="m432.44,212.77c-1.34-.32-2.17-1.67-1.85-3.01.32-1.34,1.67-2.17,3.01-1.85,1.34.32,2.17,1.67,1.85,3.01s-1.67,2.17-3.01,1.85Z"/>
  <path class="cls-1" d="m445.5,191.15c-1.37-.15-2.36-1.38-2.22-2.75.15-1.37,1.38-2.36,2.75-2.22,1.37.15,2.36,1.38,2.22,2.75-.15,1.37-1.38,2.36-2.75,2.22Z"/>
  <path class="cls-1" d="m452.41,185.31c-1.38.02-2.52-1.08-2.54-2.46-.02-1.38,1.08-2.52,2.46-2.54s2.52,1.08,2.54,2.46-1.08,2.52-2.46,2.54Z"/>
  <path class="cls-1" d="m446.27,161.92c-1.37.2-2.63-.75-2.83-2.12s.75-2.63,2.12-2.83c1.37-.2,2.63.75,2.83,2.12.2,1.37-.75,2.63-2.12,2.83Z"/>
  <path class="cls-1" d="m434.3,141.03c-1.33.37-2.71-.42-3.07-1.75-.37-1.33.42-2.71,1.75-3.07,1.33-.37,2.71.42,3.07,1.75.37,1.33-.42,2.71-1.75,3.07Z"/>
  <path class="cls-1" d="m425.78,122.77c-1.28.53-2.74-.08-3.27-1.35-.53-1.28.08-2.74,1.35-3.27,1.28-.53,2.74.08,3.27,1.35.53,1.28-.08,2.74-1.35,3.27Z"/>
  <path class="cls-1" d="m412.55,128.23c-1.2.68-2.73.27-3.41-.93-.68-1.2-.27-2.73.93-3.41,1.2-.68,2.73-.27,3.41.93s.27,2.73-.93,3.41Z"/>
  <path class="cls-1" d="m415.06,119.14c-1.1.83-2.67.61-3.5-.5-.83-1.1-.61-2.67.5-3.5s2.67-.61,3.5.5c.83,1.1.61,2.67-.5,3.5Z"/>
  <path class="cls-1" d="m397.68,111.71c-.99.96-2.57.94-3.53-.06s-.94-2.57.06-3.54c.99-.96,2.57-.94,3.53.06s.94,2.57-.06,3.54Z"/>
  <path class="cls-1" d="m401.79,99.78c-.86,1.08-2.44,1.25-3.51.39-1.08-.86-1.25-2.44-.39-3.51.86-1.08,2.44-1.25,3.51-.39,1.08.86,1.25,2.44.39,3.51Z"/>
  <path class="cls-1" d="m395.43,88.75c-.72,1.18-2.26,1.54-3.44.82-1.18-.72-1.54-2.26-.82-3.44.72-1.18,2.26-1.54,3.44-.82,1.18.72,1.54,2.26.82,3.44Z"/>
  <path class="cls-1" d="m375.48,60.25c-.57,1.26-2.05,1.82-3.31,1.25-1.26-.57-1.82-2.05-1.25-3.31.57-1.26,2.05-1.82,3.31-1.25,1.26.57,1.82,2.05,1.25,3.31Z"/>
  <path class="cls-1" d="m353.36,74.71c-.41,1.32-1.81,2.06-3.13,1.65-1.32-.41-2.06-1.81-1.65-3.13.41-1.32,1.81-2.06,3.13-1.65,1.32.41,2.06,1.81,1.65,3.13Z"/>
  <path class="cls-1" d="m349.21,50.85c-.24,1.36-1.54,2.27-2.9,2.03-1.36-.24-2.27-1.54-2.03-2.9.24-1.36,1.54-2.27,2.9-2.03,1.36.24,2.27,1.54,2.03,2.9Z"/>
  <path class="cls-1" d="m324.7,64.25c-.07,1.38-1.24,2.44-2.62,2.37-1.38-.07-2.44-1.24-2.37-2.62s1.24-2.44,2.62-2.37c1.38.07,2.44,1.24,2.37,2.62Z"/>
  <path class="cls-1" d="m311.38,57.53c.09,1.38-.95,2.57-2.32,2.66s-2.57-.95-2.66-2.32.95-2.57,2.32-2.66c1.38-.09,2.57.95,2.66,2.32Z"/>
  <path class="cls-1" d="m284.96,58.87c.27,1.35-.62,2.67-1.97,2.93-1.35.27-2.67-.62-2.93-1.97-.27-1.35.62-2.67,1.97-2.93,1.35-.27,2.67.62,2.93,1.97Z"/>
  <path class="cls-1" d="m278.66,79.1c.43,1.31-.28,2.72-1.59,3.16-1.31.43-2.72-.28-3.16-1.59-.43-1.31.28-2.72,1.59-3.16,1.31-.43,2.72.28,3.16,1.59Z"/>
  <path class="cls-1" d="m275.39,57.56c.59,1.25.06,2.74-1.18,3.33-1.25.59-2.74.06-3.33-1.18-.59-1.25-.06-2.74,1.18-3.33,1.25-.59,2.74-.06,3.33,1.18Z"/>
  <path class="cls-1" d="m266.89,79.77c.74,1.16.4,2.71-.76,3.45-1.16.74-2.71.4-3.45-.76s-.4-2.71.76-3.45c1.16-.74,2.71-.41,3.45.76Z"/>
  <path class="cls-1" d="m232.29,100.11c.88,1.06.74,2.64-.32,3.52s-2.64.74-3.52-.32c-.88-1.06-.74-2.64.32-3.52s2.64-.74,3.52.32Z"/>
  <path class="cls-1" d="m247.9,108.93c1.01.94,1.06,2.52.12,3.53-.94,1.01-2.52,1.06-3.53.12-1.01-.94-1.06-2.52-.12-3.53.94-1.01,2.52-1.06,3.53-.12Z"/>
  <path class="cls-1" d="m222.66,109.98c1.12.81,1.37,2.37.56,3.49-.81,1.12-2.37,1.37-3.49.56s-1.37-2.37-.56-3.49c.81-1.12,2.37-1.37,3.49-.56Z"/>
  <path class="cls-1" d="m208.75,118.44c1.21.66,1.66,2.18.99,3.39-.66,1.21-2.18,1.66-3.39.99-1.21-.66-1.66-2.18-.99-3.39s2.18-1.66,3.39-.99Z"/>
  <path class="cls-1" d="m205.28,137.63c1.28.51,1.92,1.96,1.41,3.24-.51,1.28-1.96,1.92-3.24,1.41-1.28-.51-1.92-1.96-1.41-3.24.51-1.28,1.96-1.92,3.24-1.41Z"/>
  <path class="cls-1" d="m214.86,159.73c1.34.34,2.15,1.7,1.81,3.04-.34,1.34-1.7,2.15-3.04,1.81-1.34-.34-2.15-1.7-1.81-3.04.34-1.34,1.7-2.15,3.04-1.81Z"/>
  <path class="cls-1" d="m201.26,149.97c1.37.17,2.34,1.42,2.17,2.79-.17,1.37-1.42,2.34-2.79,2.17s-2.34-1.42-2.17-2.79c.17-1.37,1.42-2.34,2.79-2.17Z"/>
  <path class="cls-1" d="m190.34,189.51c1.38,0,2.5,1.12,2.5,2.5,0,1.38-1.12,2.5-2.5,2.5-1.38,0-2.5-1.12-2.5-2.5s1.12-2.5,2.5-2.5Z"/>
  <path class="cls-1" d="m189.56,206.9c1.37-.17,2.62.79,2.8,2.16.17,1.37-.79,2.62-2.16,2.8-1.37.17-2.62-.79-2.8-2.16-.17-1.37.79-2.62,2.16-2.8Z"/>
  <path class="cls-1" d="m192.44,197.52c1.34-.34,2.7.46,3.04,1.8.34,1.34-.46,2.7-1.8,3.04-1.34.34-2.7-.46-3.04-1.8-.34-1.34.46-2.7,1.8-3.04Z"/>
  <path class="cls-1" d="m197.26,231.04c1.28-.51,2.74.12,3.24,1.4.51,1.28-.12,2.74-1.4,3.25-1.28.51-2.74-.12-3.25-1.4-.51-1.28.12-2.74,1.4-3.24Z"/>
  <path class="cls-1" d="m202.53,244.62c1.21-.66,2.73-.22,3.4.99.66,1.21.22,2.73-.99,3.4-1.21.67-2.73.22-3.39-.99-.66-1.21-.22-2.73.99-3.4Z"/>
  <path class="cls-1" d="m229.28,241.37c1.12-.81,2.68-.56,3.49.55.81,1.12.56,2.68-.55,3.49s-2.68.56-3.49-.55-.56-2.68.55-3.49Z"/>
  <path class="cls-1" d="m240.74,254.72c1.01-.94,2.59-.89,3.53.11.94,1.01.89,2.59-.11,3.53-1.01.94-2.59.89-3.53-.11s-.89-2.59.11-3.53Z"/>
  <path class="cls-1" d="m237.18,256.84c.88-1.06,2.46-1.21,3.52-.33,1.06.88,1.21,2.46.33,3.52-.88,1.06-2.46,1.21-3.52.33-1.06-.88-1.21-2.46-.33-3.52Z"/>
  <path class="cls-1" d="m246.36,289.09c.74-1.16,2.29-1.51,3.45-.77,1.16.74,1.51,2.29.77,3.45-.74,1.16-2.29,1.51-3.45.77-1.16-.74-1.51-2.29-.77-3.45Z"/>
  <path class="cls-1" d="m251.81,290.87c.59-1.25,2.08-1.78,3.33-1.19,1.25.59,1.78,2.08,1.19,3.33-.59,1.25-2.08,1.78-3.33,1.19-1.25-.59-1.78-2.08-1.19-3.33Z"/>
  <path class="cls-1" d="m291.34,306.27c.43-1.31,1.84-2.03,3.15-1.6s2.03,1.84,1.6,3.15c-.43,1.31-1.84,2.03-3.15,1.6s-2.03-1.84-1.6-3.15Z"/>
  <path class="cls-1" d="m309.34,302.62c.26-1.36,1.57-2.24,2.93-1.98,1.36.26,2.24,1.57,1.98,2.93-.26,1.36-1.57,2.24-2.93,1.98s-2.24-1.57-1.98-2.93Z"/>
  <path class="cls-1" d="m298.89,286.18c.09-1.38,1.28-2.42,2.66-2.33s2.42,1.28,2.33,2.66-1.28,2.42-2.66,2.33c-1.38-.09-2.42-1.28-2.33-2.66Z"/>
  <path class="cls-1" d="m325.57,286.02c-.08-1.38.97-2.56,2.35-2.64,1.38-.08,2.56.97,2.64,2.35.08,1.38-.97,2.56-2.35,2.64-1.38.08-2.56-.97-2.64-2.35Z"/>
  <path class="cls-1" d="m344.55,291.77c-.25-1.36.64-2.66,2-2.92,1.36-.25,2.66.64,2.92,2,.25,1.36-.64,2.66-2,2.92-1.36.25-2.66-.64-2.92-2Z"/>
  <path class="cls-1" d="m357.99,302.43c-.42-1.31.3-2.72,1.62-3.14s2.72.3,3.14,1.62-.3,2.72-1.62,3.14c-1.31.42-2.72-.3-3.14-1.62Z"/>
  <path class="cls-1" d="m381.76,296.73c-.58-1.25-.04-2.74,1.21-3.32s2.74-.04,3.32,1.21c.58,1.25.04,2.74-1.21,3.32s-2.74.04-3.32-1.21Z"/>
  <path class="cls-1" d="m390.47,277.92c-.73-1.17-.38-2.71.79-3.45,1.17-.73,2.71-.38,3.45.79.73,1.17.38,2.71-.79,3.45-1.17.73-2.71.38-3.45-.79Z"/>
  <path class="cls-1" d="m379.22,282.56c-.88-1.07-.72-2.64.35-3.52,1.07-.87,2.64-.72,3.52.35.88,1.07.72,2.64-.35,3.52s-2.64.72-3.52-.35Z"/>
  <path class="cls-1" d="m410.01,271.12c-1-.95-1.04-2.53-.09-3.53.95-1,2.53-1.04,3.53-.09s1.04,2.53.09,3.53c-.95,1-2.53,1.04-3.53.09Z"/>
  <path class="cls-1" d="m402.12,253.62c-1.11-.82-1.35-2.38-.53-3.49.82-1.11,2.38-1.35,3.5-.53,1.11.82,1.35,2.38.53,3.49-.82,1.11-2.38,1.35-3.5.53Z"/>
  <path class="cls-1" d="m420.52,252.46c-1.21-.67-1.64-2.19-.97-3.4s2.19-1.64,3.4-.97,1.64,2.19.97,3.4-2.19,1.64-3.4.97Z"/>
  <path class="cls-1" d="m424.48,223.41c-1.28-.52-1.9-1.97-1.38-3.25.52-1.28,1.97-1.9,3.25-1.38,1.28.52,1.9,1.97,1.38,3.25-.52,1.28-1.97,1.9-3.25,1.38Z"/>
  <path class="cls-1" d="m443.09,220.91c-1.34-.35-2.13-1.72-1.78-3.05.35-1.34,1.72-2.13,3.05-1.78,1.34.35,2.13,1.72,1.78,3.05-.35,1.34-1.72,2.13-3.05,1.78Z"/>
  <path class="cls-1" d="m424.84,210.68c-1.37-.18-2.33-1.44-2.15-2.81s1.44-2.33,2.81-2.15c1.37.18,2.33,1.44,2.15,2.81-.18,1.37-1.44,2.33-2.81,2.15Z"/>
  <path class="cls-1" d="m447.52,179.05c-1.38-.01-2.49-1.14-2.48-2.52,0-1.38,1.14-2.49,2.52-2.48,1.38.01,2.49,1.14,2.48,2.52,0,1.38-1.14,2.49-2.52,2.48Z"/>
  <path class="cls-1" d="m432.31,178.68c-1.37.16-2.61-.82-2.78-2.19-.16-1.37.82-2.61,2.19-2.78,1.37-.16,2.61.82,2.78,2.19s-.82,2.61-2.19,2.78Z"/>
  <path class="cls-1" d="m444.78,162.43c-1.34.33-2.7-.48-3.03-1.82s.48-2.7,1.82-3.03c1.34-.33,2.7.48,3.03,1.82.33,1.34-.48,2.7-1.82,3.03Z"/>
  <path class="cls-1" d="m445.35,136.16c-1.29.5-2.74-.14-3.23-1.43-.5-1.29.14-2.74,1.43-3.23,1.29-.5,2.74.14,3.23,1.43.5,1.29-.14,2.74-1.43,3.23Z"/>
  <path class="cls-1" d="m415.13,114.18c-1.22.65-2.73.2-3.39-1.02-.65-1.22-.2-2.73,1.02-3.39,1.22-.65,2.73-.2,3.39,1.02.65,1.22.2,2.73-1.02,3.39Z"/>
  <path class="cls-1" d="m430.35,123.33c-1.12.8-2.69.54-3.49-.58-.8-1.12-.54-2.69.58-3.49,1.12-.8,2.69-.54,3.49.58.8,1.12.54,2.69-.58,3.49Z"/>
  <path class="cls-1" d="m421.44,100.81c-1.02.94-2.6.87-3.53-.14-.94-1.02-.87-2.6.14-3.53,1.02-.94,2.6-.87,3.53.14.94,1.02.87,2.6-.14,3.53Z"/>
  <path class="cls-1" d="m412.24,91.47c-.89,1.06-2.47,1.19-3.52.3-1.06-.89-1.19-2.47-.3-3.52.89-1.06,2.47-1.19,3.52-.3s1.19,2.47.3,3.52Z"/>
  <path class="cls-1" d="m372.64,90.19c-.75,1.16-2.3,1.49-3.46.74-1.16-.75-1.49-2.3-.74-3.46.75-1.16,2.3-1.49,3.46-.74,1.16.75,1.49,2.3.74,3.46Z"/>
  <path class="cls-1" d="m384.31,59.46c-.6,1.24-2.1,1.76-3.34,1.16s-1.76-2.1-1.16-3.34,2.1-1.76,3.34-1.16c1.24.6,1.76,2.1,1.16,3.34Z"/>
  <path class="cls-1" d="m356.72,57.52c-.44,1.31-1.86,2.01-3.17,1.57-1.31-.44-2.01-1.86-1.57-3.17.44-1.31,1.86-2.01,3.17-1.57,1.31.44,2.01,1.86,1.57,3.17Z"/>
  <path class="cls-1" d="m349.4,75.78c-.27,1.35-1.59,2.23-2.95,1.96-1.35-.27-2.23-1.59-1.96-2.95s1.59-2.23,2.95-1.96,2.23,1.59,1.96,2.95Z"/>
  <path class="cls-1" d="m318.2,60.39c-.1,1.38-1.3,2.41-2.68,2.31-1.38-.1-2.41-1.3-2.31-2.68.1-1.38,1.3-2.41,2.68-2.31,1.38.1,2.41,1.3,2.31,2.68Z"/>
  <path class="cls-1" d="m310.77,69.26c.06,1.38-1.01,2.55-2.39,2.61-1.38.06-2.55-1.01-2.61-2.39-.06-1.38,1.01-2.55,2.39-2.61,1.38-.06,2.55,1.01,2.61,2.39Z"/>
  <path class="cls-1" d="m300.59,58.61c.23,1.36-.68,2.65-2.05,2.88-1.36.23-2.65-.68-2.88-2.05-.23-1.36.68-2.65,2.05-2.88,1.36-.23,2.65.68,2.88,2.05Z"/>
  <path class="cls-1" d="m278.61,77.26c.4,1.32-.35,2.72-1.67,3.12-1.32.4-2.72-.35-3.12-1.67-.4-1.32.35-2.72,1.67-3.12,1.32-.4,2.72.35,3.12,1.67Z"/>
  <path class="cls-1" d="m262.61,80.64c.56,1.26,0,2.74-1.27,3.3-1.26.56-2.74,0-3.3-1.27-.56-1.26,0-2.74,1.27-3.3,1.26-.56,2.74,0,3.3,1.27Z"/>
  <path class="cls-1" d="m274.73,64.97c.72,1.18.34,2.72-.84,3.43-1.18.72-2.72.34-3.43-.84-.72-1.18-.34-2.72.84-3.43s2.72-.34,3.43.84Z"/>
  <path class="cls-1" d="m253.04,90.94c.86,1.08.67,2.65-.41,3.51s-2.65.67-3.51-.41c-.86-1.08-.67-2.65.41-3.51s2.65-.67,3.51.41Z"/>
  <path class="cls-1" d="m237.26,92.97c.99.97,1,2.55.03,3.54-.97.99-2.55,1-3.54.03-.99-.97-1-2.55-.03-3.54.97-.99,2.55-1,3.54-.03Z"/>
  <path class="cls-1" d="m238.48,100.56c1.1.84,1.31,2.4.48,3.5-.84,1.1-2.4,1.31-3.5.48-1.1-.84-1.31-2.4-.48-3.5.84-1.1,2.4-1.31,3.5-.48Z"/>
  <path class="cls-1" d="m227.83,108.18c1.19.69,1.6,2.22.91,3.42s-2.22,1.6-3.42.91c-1.19-.69-1.6-2.22-.91-3.42.69-1.19,2.22-1.6,3.42-.91Z"/>
  <path class="cls-1" d="m219.06,116.41c1.27.54,1.87,2,1.33,3.28-.54,1.27-2,1.87-3.28,1.33-1.27-.54-1.87-2-1.33-3.28s2-1.87,3.28-1.33Z"/>
  <path class="cls-1" d="m197.23,145.58c1.33.37,2.1,1.75,1.73,3.08-.37,1.33-1.75,2.1-3.08,1.73-1.33-.37-2.1-1.75-1.73-3.08.37-1.33,1.75-2.1,3.08-1.73Z"/>
  <path class="cls-1" d="m210.71,170.2c1.37.21,2.31,1.48,2.1,2.84s-1.48,2.31-2.84,2.1-2.31-1.48-2.1-2.84c.21-1.37,1.48-2.31,2.84-2.1Z"/>
  <path class="cls-1" d="m207.87,184.57c1.38.03,2.47,1.18,2.44,2.56-.03,1.38-1.18,2.47-2.56,2.44-1.38-.03-2.47-1.18-2.44-2.56.03-1.38,1.18-2.47,2.56-2.44Z"/>
  <path class="cls-1" d="m204.59,202.95c1.37-.14,2.6.86,2.74,2.23.14,1.37-.86,2.6-2.23,2.74-1.37.14-2.6-.86-2.74-2.23-.14-1.37.86-2.6,2.23-2.74Z"/>
  <path class="cls-1" d="m195.17,208.1c1.35-.31,2.69.53,3,1.87s-.53,2.69-1.87,3c-1.35.31-2.69-.53-3-1.87-.31-1.35.53-2.69,1.87-3Z"/>
  <path class="cls-1" d="m198.5,225.97c1.3-.48,2.73.19,3.21,1.48.48,1.3-.19,2.73-1.48,3.21-1.3.48-2.73-.19-3.21-1.48-.48-1.3.19-2.73,1.48-3.21Z"/>
  <path class="cls-1" d="m225.14,218.26c1.23-.63,2.73-.15,3.37,1.07.63,1.23.15,2.73-1.07,3.37s-2.73.15-3.37-1.07c-.63-1.23-.15-2.73,1.07-3.37Z"/>
  <path class="cls-1" d="m229.88,234.36c1.14-.78,2.69-.5,3.48.64.78,1.14.5,2.69-.64,3.48-1.14.78-2.69.5-3.48-.64-.78-1.14-.5-2.69.64-3.48Z"/>
  <path class="cls-1" d="m240.24,246.64c1.03-.92,2.61-.83,3.53.2.92,1.03.83,2.61-.2,3.53-1.03.92-2.61.83-3.53-.2-.92-1.03-.83-2.61.2-3.53Z"/>
  <path class="cls-1" d="m235.12,263.81c.91-1.04,2.49-1.15,3.53-.24,1.04.91,1.15,2.49.24,3.53-.91,1.04-2.49,1.15-3.53.24-1.04-.91-1.15-2.49-.24-3.53Z"/>
  <path class="cls-1" d="m250.77,292.85c.77-1.15,2.32-1.45,3.47-.68,1.15.77,1.45,2.32.68,3.47-.77,1.15-2.32,1.45-3.47.68-1.15-.77-1.45-2.32-.68-3.47Z"/>
  <path class="cls-1" d="m264.81,276.78c.62-1.23,2.12-1.73,3.36-1.11,1.23.62,1.73,2.12,1.11,3.36s-2.12,1.73-3.36,1.11c-1.23-.62-1.73-2.12-1.11-3.36Z"/>
  <path class="cls-1" d="m263.98,289.77c.46-1.3,1.89-1.98,3.19-1.52s1.98,1.89,1.52,3.19c-.46,1.3-1.89,1.98-3.19,1.52-1.3-.46-1.98-1.89-1.52-3.19Z"/>
  <path class="cls-1" d="m279.75,298.84c.3-1.35,1.63-2.2,2.98-1.91,1.35.3,2.2,1.63,1.91,2.98s-1.63,2.2-2.98,1.91c-1.35-.3-2.2-1.63-1.91-2.98Z"/>
  <path class="cls-1" d="m308.03,298.82c.12-1.38,1.34-2.39,2.72-2.26,1.37.12,2.39,1.34,2.26,2.72-.12,1.38-1.34,2.39-2.72,2.26-1.37-.12-2.39-1.34-2.26-2.72Z"/>
  <path class="cls-1" d="m327.19,311.26c-.05-1.38,1.03-2.54,2.41-2.59,1.38-.05,2.54,1.03,2.59,2.41s-1.03,2.54-2.41,2.59-2.54-1.03-2.59-2.41Z"/>
  <path class="cls-1" d="m323.07,313.74c-.22-1.36.71-2.65,2.07-2.87,1.36-.22,2.65.71,2.87,2.07.22,1.36-.71,2.65-2.07,2.87-1.36.22-2.65-.71-2.87-2.07Z"/>
  <path class="cls-1" d="m352.23,290.66c-.39-1.32.37-2.71,1.7-3.1,1.32-.39,2.71.37,3.1,1.7s-.37,2.71-1.7,3.1-2.71-.37-3.1-1.7Z"/>
  <path class="cls-1" d="m366.5,296.38c-.55-1.27.03-2.74,1.29-3.29s2.74.03,3.29,1.29c.55,1.27-.03,2.74-1.29,3.29s-2.74-.03-3.29-1.29Z"/>
  <path class="cls-1" d="m383.83,291.68c-.71-1.19-.31-2.72.87-3.43,1.19-.71,2.72-.31,3.43.87.71,1.19.31,2.72-.87,3.43-1.19.71-2.72.31-3.43-.87Z"/>
  <path class="cls-1" d="m394.74,272.79c-.85-1.09-.65-2.66.44-3.51s2.66-.65,3.51.44.65,2.66-.44,3.51-2.66.65-3.51-.44Z"/>
  <path class="cls-1" d="m410.27,273.64c-.98-.97-.98-2.56,0-3.54.98-.98,2.56-.98,3.54,0,.98.98.98,2.56,0,3.54-.98.98-2.56.98-3.54,0Z"/>
  <path class="cls-1" d="m398.53,243.16c-1.09-.85-1.29-2.42-.45-3.51.85-1.09,2.42-1.29,3.51-.45s1.29,2.42.45,3.51c-.85,1.09-2.42,1.29-3.51.45Z"/>
  <path class="cls-1" d="m413.67,257.18c-1.19-.7-1.58-2.24-.88-3.42s2.24-1.58,3.42-.88c1.19.7,1.58,2.24.88,3.42-.7,1.19-2.24,1.58-3.42.88Z"/>
  <path class="cls-1" d="m424.09,244.05c-1.27-.55-1.85-2.02-1.3-3.29.55-1.27,2.02-1.85,3.29-1.3s1.85,2.02,1.3,3.29c-.55,1.27-2.02,1.85-3.29,1.3Z"/>
  <path class="cls-1" d="m448.3,211.61c-1.33-.39-2.09-1.77-1.7-3.1.39-1.33,1.77-2.09,3.1-1.7,1.33.39,2.09,1.77,1.7,3.1-.39,1.33-1.77,2.09-3.1,1.7Z"/>
  <path class="cls-1" d="m447.18,196.26c-1.36-.22-2.29-1.5-2.08-2.86.22-1.36,1.5-2.29,2.86-2.08,1.36.22,2.29,1.5,2.08,2.86s-1.5,2.29-2.86,2.08Z"/>
  <path class="cls-1" d="m452.23,199.23c-1.38-.04-2.46-1.2-2.42-2.58s1.2-2.46,2.58-2.42c1.38.04,2.46,1.2,2.42,2.58s-1.2,2.46-2.58,2.42Z"/>
  <path class="cls-1" d="m442.37,176.91c-1.37.13-2.59-.88-2.72-2.26-.13-1.37.88-2.59,2.26-2.72,1.37-.13,2.59.88,2.72,2.26.13,1.37-.88,2.59-2.26,2.72Z"/>
  <path class="cls-1" d="m427.19,147.2c-1.35.3-2.68-.55-2.98-1.9s.55-2.68,1.9-2.98c1.35-.3,2.68.55,2.98,1.9s-.55,2.68-1.9,2.98Z"/>
  <path class="cls-1" d="m434.63,149.02c-1.3.47-2.73-.21-3.2-1.51-.47-1.3.21-2.73,1.51-3.2,1.3-.47,2.73.21,3.2,1.51.47,1.3-.21,2.73-1.51,3.2Z"/>
  <path class="cls-1" d="m436.25,133.27c-1.23.62-2.74.13-3.36-1.1s-.13-2.74,1.1-3.36,2.74-.13,3.36,1.1c.62,1.23.13,2.74-1.1,3.36Z"/>
  <path class="cls-1" d="m425.45,117.21c-1.14.77-2.7.47-3.47-.67-.77-1.14-.47-2.7.67-3.47,1.14-.77,2.7-.47,3.47.67.77,1.14.47,2.7-.67,3.47Z"/>
  <path class="cls-1" d="m423.87,106.02c-1.04.91-2.62.81-3.53-.23-.91-1.04-.81-2.62.23-3.53,1.04-.91,2.62-.81,3.53.23.91,1.04.81,2.62-.23,3.53Z"/>
  <path class="cls-1" d="m400.6,102.81c-.92,1.03-2.5,1.13-3.53.21-1.03-.92-1.13-2.5-.21-3.53.92-1.03,2.5-1.13,3.53-.21s1.13,2.5.21,3.53Z"/>
  <path class="cls-1" d="m388.27,75.72c-.78,1.14-2.34,1.43-3.48.65-1.14-.78-1.43-2.34-.65-3.48s2.34-1.43,3.48-.65c1.14.78,1.43,2.34.65,3.48Z"/>
  <path class="cls-1" d="m371.93,66.92c-.63,1.23-2.14,1.71-3.37,1.08-1.23-.63-1.71-2.14-1.08-3.37.63-1.23,2.14-1.71,3.37-1.08s1.71,2.14,1.08,3.37Z"/>
  <path class="cls-1" d="m370.57,56.67c-.47,1.3-1.91,1.97-3.21,1.49-1.3-.47-1.97-1.91-1.49-3.21.47-1.3,1.91-1.97,3.21-1.49,1.3.47,1.97,1.91,1.49,3.21Z"/>
  <path class="cls-1" d="m360.11,74.84c-.31,1.35-1.65,2.19-2.99,1.88-1.35-.31-2.19-1.65-1.88-2.99.31-1.35,1.65-2.19,2.99-1.88,1.35.31,2.19,1.65,1.88,2.99Z"/>
  <path class="cls-1" d="m340.52,47.08c-.14,1.37-1.36,2.38-2.73,2.24-1.37-.14-2.38-1.36-2.24-2.73.14-1.37,1.36-2.38,2.73-2.24,1.37.14,2.38,1.36,2.24,2.74Z"/>
</svg>