<?xml version="1.0" encoding="UTF-8"?>
<svg id="Base" xmlns="http://www.w3.org/2000/svg" viewBox="0 0 640 360">
  <defs>
    <style>
      .cls-1 {
        fill: #212529;
      }

      .cls-2 {
        fill: none;
        stroke: #212529;
        stroke-miterlimit: 10;
        stroke-width: 2px;
      }
    </style>
  </defs>
  <circle class="cls-2" cx="60" cy="140" r="20"/>
  <path class="cls-1" d="m52.55,148.37l6.5-16.73h1.9l6.48,16.73h-2.66l-4.75-13.18-4.78,13.18h-2.69Zm3.84-3.72l.74-2.18h5.71l.82,2.18h-7.27Z"/>
  <circle class="cls-2" cx="300" cy="60" r="20"/>
  <path class="cls-1" d="m294.55,68.37v-16.73h5.52c1.62,0,2.88.37,3.8,1.1.92.74,1.38,1.77,1.38,3.1,0,.8-.18,1.51-.53,2.12-.35.62-.85,1.09-1.49,1.43.96.29,1.68.79,2.16,1.5.48.71.72,1.61.72,2.7,0,1.5-.47,2.68-1.42,3.52-.94.84-2.27,1.26-3.98,1.26h-6.17Zm2.45-9.74h3.36c.74,0,1.33-.22,1.79-.65.46-.43.68-1.02.68-1.78s-.24-1.3-.72-1.7c-.48-.4-1.16-.6-2.04-.6h-3.07v4.73Zm0,7.49h3.55c2.1,0,3.14-.88,3.14-2.64,0-.85-.24-1.5-.73-1.97s-1.17-.7-2.05-.7h-3.91v5.3Z"/>
  <circle class="cls-2" cx="580" cy="140" r="20"/>
  <path class="cls-1" d="m580.46,148.68c-1.55,0-2.92-.36-4.09-1.08-1.18-.72-2.09-1.74-2.75-3.05s-.98-2.83-.98-4.56.33-3.24.98-4.55,1.57-2.32,2.75-3.04c1.18-.72,2.54-1.08,4.09-1.08,1.71,0,3.2.42,4.45,1.27,1.26.85,2.16,2.02,2.7,3.53l-2.28.84c-.4-1.04-1.02-1.85-1.85-2.44s-1.84-.88-3.02-.88c-1.09,0-2.04.26-2.84.78-.81.52-1.43,1.25-1.87,2.18s-.66,2.06-.66,3.37.22,2.44.66,3.38c.44.94,1.06,1.68,1.87,2.2.81.52,1.76.78,2.84.78,1.18,0,2.19-.29,3.02-.88.83-.58,1.45-1.4,1.85-2.44l2.28.82c-.54,1.49-1.44,2.66-2.7,3.53-1.26.86-2.74,1.3-4.45,1.3Z"/>
  <circle class="cls-2" cx="60" cy="300" r="20"/>
  <path class="cls-1" d="m54.8,308.37v-16.73h11.06v2.18h-8.62v4.9h7.9v2.18h-7.9v5.28h8.62v2.18h-11.06Z"/>
  <circle class="cls-2" cx="340" cy="260" r="20"/>
  <path class="cls-1" d="m333.65,268.37v-16.73h4.7c2.75,0,4.88.74,6.4,2.22,1.51,1.48,2.27,3.57,2.27,6.28s-.75,4.69-2.24,6.11-3.64,2.12-6.44,2.12h-4.68Zm2.45-2.26h2.02c1.36,0,2.52-.19,3.48-.58s1.69-1.02,2.2-1.92c.5-.9.76-2.09.76-3.58s-.25-2.66-.74-3.56c-.5-.9-1.21-1.56-2.14-1.97-.93-.41-2.04-.61-3.34-.61h-2.23v12.22Z"/>
  <g>
    <line class="cls-2" x1="60" y1="160" x2="60" y2="274.35"/>
    <polygon class="cls-1" points="53.64 262.53 55.52 261.84 60 274.15 64.48 261.84 66.36 262.53 60 280 53.64 262.53"/>
  </g>
  <g>
    <line class="cls-2" x1="78.97" y1="133.68" x2="275.67" y2="68.11"/>
    <polygon class="cls-1" points="266.46 77.88 265.22 76.32 275.48 68.17 262.38 67.82 262.44 65.82 281.03 66.32 266.46 77.88"/>
  </g>
  <g>
    <line class="cls-2" x1="319.21" y1="65.49" x2="555.33" y2="132.95"/>
    <polygon class="cls-1" points="542.22 135.82 542.08 133.83 555.15 132.9 544.54 125.21 545.71 123.59 560.77 134.51 542.22 135.82"/>
  </g>
  <g>
    <line class="cls-2" x1="78.39" y1="147.88" x2="316.42" y2="249.89"/>
    <polygon class="cls-1" points="303.05 251.08 303.16 249.09 316.24 249.82 306.69 240.85 308.06 239.39 321.61 252.12 303.05 251.08"/>
  </g>
  <g>
    <line class="cls-2" x1="303.92" y1="79.61" x2="334.97" y2="234.85"/>
    <polygon class="cls-1" points="326.41 224.5 328.12 223.46 334.93 234.65 336.91 221.7 338.89 222.01 336.08 240.39 326.41 224.5"/>
  </g>
</svg>