<?xml version="1.0" encoding="UTF-8"?>
<svg xmlns="http://www.w3.org/2000/svg" viewBox="0 0 640 360">
  <defs>
    <style>
      .cls-1 {
        fill: none;
        stroke: #212529;
        stroke-miterlimit: 10;
        stroke-width: 2px;
      }
    </style>
  </defs>
  <g id="Base">
    <circle class="cls-1" cx="584.51" cy="130.1" r="17"/>
    <circle class="cls-1" cx="434.35" cy="241.64" r="17"/>
    <circle class="cls-1" cx="371.9" cy="55.85" r="17"/>
    <circle class="cls-1" cx="356.29" cy="216.14" r="17"/>
    <circle class="cls-1" cx="569.82" cy="205.6" r="17"/>
    <circle class="cls-1" cx="572.94" cy="221.02" r="17"/>
    <circle class="cls-1" cx="556.4" cy="254.11" r="17"/>
    <circle class="cls-1" cx="524.97" cy="70.48" r="17"/>
    <circle class="cls-1" cx="484.87" cy="123.23" r="17"/>
    <circle class="cls-1" cx="478.54" cy="74.03" r="17"/>
    <circle class="cls-1" cx="553.39" cy="54.9" r="17"/>
    <circle class="cls-1" cx="405.67" cy="106.39" r="17"/>
    <circle class="cls-1" cx="379.37" cy="225.16" r="17"/>
    <circle class="cls-1" cx="410.77" cy="51.62" r="17"/>
    <circle class="cls-1" cx="435.36" cy="170.6" r="17"/>
    <circle class="cls-1" cx="501.64" cy="280.69" r="17"/>
    <circle class="cls-1" cx="473.81" cy="302.67" r="17"/>
    <rect class="cls-1" x="191.67" y="222.39" width="30" height="30"/>
    <rect class="cls-1" x="104.42" y="199.64" width="30" height="30"/>
    <rect class="cls-1" x="51.68" y="263.7" width="30" height="30"/>
    <rect class="cls-1" x="101.66" y="68.75" width="30" height="30"/>
    <rect class="cls-1" x="188.26" y="131.89" width="30" height="30"/>
    <rect class="cls-1" x="95.76" y="98.77" width="30" height="30"/>
    <rect class="cls-1" x="205.53" y="53.62" width="30" height="30"/>
    <rect class="cls-1" x="148.83" y="125.16" width="30" height="30"/>
    <rect class="cls-1" x="44.67" y="138.39" width="30" height="30"/>
    <rect class="cls-1" x="191.41" y="39.9" width="30" height="30"/>
    <rect class="cls-1" x="159.57" y="288.88" width="30" height="30"/>
    <rect class="cls-1" x="108.71" y="54.85" width="30" height="30"/>
    <rect class="cls-1" x="92.52" y="289.5" width="30" height="30"/>
    <rect class="cls-1" x="138.78" y="69.34" width="30" height="30"/>
    <rect class="cls-1" x="165.82" y="162.64" width="30" height="30"/>
    <rect class="cls-1" x="65.97" y="225.16" width="30" height="30"/>
    <rect class="cls-1" x="230.53" y="287.11" width="30" height="30"/>
  </g>
  <g id="Layer_1" data-name="Layer 1">
    <circle class="cls-1" cx="348.53" cy="160.07" r="17"/>
    <rect class="cls-1" x="278.22" y="90.97" width="30" height="30"/>
  </g>
  <g id="Layer_2" data-name="Layer 2">
    <circle class="cls-1" cx="250.94" cy="228.27" r="17"/>
    <rect class="cls-1" x="261.87" y="159.95" width="30" height="30"/>
  </g>
</svg>