<?xml version="1.0" encoding="UTF-8"?>
<svg xmlns="http://www.w3.org/2000/svg" viewBox="0 0 640 360">
  <defs>
    <style>
      .cls-1 {
        fill: #212529;
      }

      .cls-2 {
        fill: #0d6efd;
      }

      .cls-3 {
        stroke: #212529;
      }

      .cls-3, .cls-4 {
        fill: none;
        stroke-miterlimit: 10;
        stroke-width: 2px;
      }

      .cls-4 {
        stroke: #222;
      }
    </style>
  </defs>
  <g id="Base">
    <circle class="cls-3" cx="320" cy="60" r="20"/>
    <circle class="cls-3" cx="60" cy="300" r="20"/>
    <path class="cls-1" d="m59.88,308.56c-1.22,0-2.28-.22-3.19-.66s-1.62-1.06-2.12-1.87-.76-1.75-.76-2.82l2.33-.14c0,.99.35,1.78,1.04,2.36.7.58,1.62.88,2.77.88.75,0,1.4-.12,1.94-.36.54-.24.96-.58,1.25-1.02s.43-.96.43-1.57c0-.54-.12-1-.35-1.36-.23-.36-.55-.65-.96-.88-.41-.22-.9-.38-1.46-.47-.57-.09-1.18-.13-1.84-.13v-1.85c.48,0,.94-.04,1.39-.13.45-.09.84-.23,1.19-.42.34-.19.61-.45.8-.78.19-.33.29-.73.29-1.21s-.12-.93-.35-1.3c-.23-.37-.56-.65-.97-.85-.42-.2-.9-.3-1.46-.3-.93,0-1.65.25-2.17.76-.52.5-.79,1.16-.8,1.96l-2.3-.14c0-.94.23-1.78.68-2.5.46-.72,1.09-1.28,1.9-1.69.81-.41,1.73-.61,2.77-.61s1.87.19,2.63.56c.76.38,1.36.9,1.79,1.56.43.66.65,1.44.65,2.32,0,.45-.06.85-.19,1.21s-.31.68-.55.97-.52.53-.83.73c-.31.2-.65.37-1.02.52.46.13.91.3,1.33.52.42.22.8.49,1.13.83s.59.73.78,1.18c.19.45.29.96.29,1.54,0,1.02-.26,1.93-.77,2.71-.51.78-1.22,1.39-2.12,1.82s-1.96.65-3.16.65Z"/>
    <circle class="cls-3" cx="233.33" cy="300" r="20"/>
    <path class="cls-1" d="m233.29,308.59c-1.01,0-1.93-.22-2.77-.65-.84-.43-1.53-1.02-2.08-1.76-.54-.74-.9-1.59-1.06-2.53l2.3-.41c.1.54.29,1.06.59,1.54.3.48.7.86,1.2,1.14.5.28,1.09.42,1.76.42.77,0,1.41-.18,1.93-.54.52-.36.92-.82,1.19-1.39.27-.57.41-1.17.41-1.81s-.13-1.17-.38-1.68-.64-.92-1.14-1.24-1.13-.47-1.88-.47c-.69,0-1.3.16-1.84.47s-.99.74-1.36,1.28l-2.28-.6,1.58-8.71h9.02v2.18h-8.16l1.25-.98-1.13,6.19-.7-.17c.62-.72,1.28-1.21,1.96-1.48.68-.26,1.34-.4,1.98-.4,1.09,0,2.05.26,2.89.77s1.49,1.19,1.96,2.04.7,1.78.7,2.78c0,.8-.14,1.56-.43,2.28-.29.72-.7,1.36-1.24,1.92s-1.17,1-1.9,1.32c-.73.32-1.52.48-2.39.48Z"/>
    <circle class="cls-3" cx="146.67" cy="180" r="20"/>
    <circle class="cls-4" cx="580" cy="300" r="20"/>
    <path class="cls-1" d="m582.3,291.64l-4.22,6.67-.29-.36c.34-.21.69-.36,1.06-.47.37-.1.73-.16,1.08-.16,1.06,0,2.01.25,2.86.74.85.5,1.52,1.16,2,2s.73,1.78.73,2.82-.27,2.06-.8,2.92c-.54.86-1.25,1.53-2.14,2.03-.89.5-1.88.74-2.96.74s-2.06-.25-2.96-.74c-.9-.5-1.62-1.17-2.16-2.03-.54-.86-.8-1.82-.8-2.89,0-.56.08-1.1.25-1.62s.39-1.01.66-1.48l5.02-8.18h2.69Zm-2.69,7.75c-.64,0-1.22.15-1.75.44-.53.3-.96.71-1.28,1.24-.33.53-.49,1.14-.49,1.82s.16,1.25.48,1.78c.32.53.75.94,1.28,1.24.54.3,1.12.44,1.76.44s1.25-.15,1.78-.44c.53-.3.95-.71,1.27-1.24.32-.53.48-1.13.48-1.8s-.16-1.27-.47-1.8c-.31-.53-.73-.94-1.26-1.24-.53-.3-1.13-.44-1.8-.44Z"/>
    <circle class="cls-3" cx="406.67" cy="300" r="20"/>
    <path class="cls-1" d="m401.05,308.37v-1.87c.54-.43,1.18-.91,1.9-1.44s1.45-1.1,2.2-1.73,1.44-1.29,2.08-1.99c.64-.7,1.16-1.44,1.55-2.22.39-.78.59-1.57.59-2.39,0-.88-.24-1.6-.72-2.15-.48-.55-1.2-.83-2.16-.83-.72,0-1.32.17-1.79.5-.47.34-.82.79-1.04,1.37-.22.58-.34,1.22-.36,1.92l-2.3-.17c0-.78.12-1.53.36-2.23.24-.7.6-1.33,1.07-1.88.47-.55,1.06-.99,1.75-1.31.7-.32,1.49-.48,2.39-.48,1.02,0,1.92.22,2.68.65.76.43,1.36,1.03,1.79,1.8.43.77.65,1.67.65,2.71,0,.88-.16,1.73-.47,2.54-.31.82-.75,1.6-1.31,2.34-.56.74-1.21,1.44-1.94,2.1-.74.66-1.53,1.28-2.38,1.86-.85.58-1.73,1.12-2.64,1.6l.62-.89h8.78v2.18h-11.28Z"/>
    <circle class="cls-3" cx="493.33" cy="180" r="20"/>
    <line class="cls-3" x1="71.65" y1="283.75" x2="135.06" y2="196.28"/>
    <line class="cls-3" x1="158.05" y1="196.44" x2="221.47" y2="283.9"/>
    <line class="cls-3" x1="418.53" y1="283.9" x2="481.95" y2="196.44"/>
    <line class="cls-3" x1="504.85" y1="196.34" x2="567.79" y2="284.16"/>
    <line class="cls-3" x1="163.21" y1="168.76" x2="303.57" y2="71.4"/>
    <line class="cls-3" x1="476.79" y1="168.76" x2="336.43" y2="71.4"/>
  </g>
  <g id="Layer_1" data-name="Layer 1">
    <path class="cls-2" d="m319.95,68.59c-1.01,0-1.93-.22-2.77-.65-.84-.43-1.53-1.02-2.08-1.76-.54-.74-.9-1.59-1.06-2.53l2.3-.41c.1.54.29,1.06.59,1.54.3.48.7.86,1.2,1.14.5.28,1.09.42,1.76.42.77,0,1.41-.18,1.93-.54.52-.36.92-.82,1.19-1.39.27-.57.41-1.17.41-1.81s-.13-1.17-.38-1.68-.64-.92-1.14-1.24-1.13-.47-1.88-.47c-.69,0-1.3.16-1.84.47s-.99.74-1.36,1.28l-2.28-.6,1.58-8.71h9.02v2.18h-8.16l1.25-.98-1.13,6.19-.7-.17c.62-.72,1.28-1.21,1.96-1.48.68-.26,1.34-.4,1.98-.4,1.09,0,2.05.26,2.89.77s1.49,1.19,1.96,2.04.7,1.78.7,2.78c0,.8-.14,1.56-.43,2.28-.29.72-.7,1.36-1.24,1.92s-1.17,1-1.9,1.32c-.73.32-1.52.48-2.39.48Z"/>
    <path class="cls-2" d="m146.62,188.59c-1.01,0-1.93-.22-2.77-.65-.84-.43-1.53-1.02-2.08-1.76-.54-.74-.9-1.59-1.06-2.53l2.3-.41c.1.54.29,1.06.59,1.54.3.48.7.86,1.2,1.14.5.28,1.09.42,1.76.42.77,0,1.41-.18,1.93-.54.52-.36.92-.82,1.19-1.39.27-.57.41-1.17.41-1.81s-.13-1.17-.38-1.68-.64-.92-1.14-1.24-1.13-.47-1.88-.47c-.69,0-1.3.16-1.84.47s-.99.74-1.36,1.28l-2.28-.6,1.58-8.71h9.02v2.18h-8.16l1.25-.98-1.13,6.19-.7-.17c.62-.72,1.28-1.21,1.96-1.48.68-.26,1.34-.4,1.98-.4,1.09,0,2.05.26,2.89.77s1.49,1.19,1.96,2.04.7,1.78.7,2.78c0,.8-.14,1.56-.43,2.28-.29.72-.7,1.36-1.24,1.92s-1.17,1-1.9,1.32c-.73.32-1.52.48-2.39.48Z"/>
    <path class="cls-2" d="m495.64,171.65l-4.22,6.67-.29-.36c.34-.21.69-.36,1.06-.47.37-.1.73-.16,1.08-.16,1.06,0,2.01.25,2.86.74.85.5,1.52,1.16,2,2s.73,1.78.73,2.82-.27,2.06-.8,2.92c-.54.86-1.25,1.53-2.14,2.03-.89.5-1.88.74-2.96.74s-2.06-.25-2.96-.74c-.9-.5-1.62-1.17-2.16-2.03-.54-.86-.8-1.82-.8-2.89,0-.56.08-1.1.25-1.62s.39-1.01.66-1.48l5.02-8.18h2.69Zm-2.69,7.75c-.64,0-1.22.15-1.75.44-.53.3-.96.71-1.28,1.24-.33.53-.49,1.14-.49,1.82s.16,1.25.48,1.78c.32.53.75.94,1.28,1.24.54.3,1.12.44,1.76.44s1.25-.15,1.78-.44c.53-.3.95-.71,1.27-1.24.32-.53.48-1.13.48-1.8s-.16-1.27-.47-1.8c-.31-.53-.73-.94-1.26-1.24-.53-.3-1.13-.44-1.8-.44Z"/>
  </g>
</svg>