<?xml version="1.0" encoding="UTF-8"?>
<svg xmlns="http://www.w3.org/2000/svg" viewBox="0 0 640 360">
  <defs>
    <style>
      .cls-1 {
        opacity: .75;
      }

      .cls-1, .cls-2, .cls-3, .cls-4, .cls-5, .cls-6 {
        fill: none;
      }

      .cls-7 {
        fill: #212529;
      }

      .cls-8 {
        fill: #0d6efd;
      }

      .cls-2 {
        stroke: #212529;
      }

      .cls-2, .cls-3, .cls-4, .cls-5, .cls-6 {
        stroke-miterlimit: 10;
        stroke-width: 2px;
      }

      .cls-3, .cls-4, .cls-5, .cls-6 {
        stroke: #0d6efd;
      }

      .cls-4 {
        stroke-dasharray: 0 0 6.03 6.03;
      }

      .cls-5 {
        stroke-dasharray: 0 0 6.09 6.09;
      }

      .cls-6 {
        stroke-dasharray: 0 0 5.74 5.74;
      }
    </style>
  </defs>
  <g id="Base">
    <g>
      <line class="cls-3" x1="534.8" y1="238.14" x2="533.54" y2="240.86"/>
      <line class="cls-4" x1="531" y1="246.33" x2="517.03" y2="276.4"/>
      <line class="cls-3" x1="515.76" y1="279.14" x2="514.5" y2="281.86"/>
    </g>
    <g>
      <line class="cls-3" x1="571.98" y1="282.29" x2="570.72" y2="279.56"/>
      <line class="cls-5" x1="568.17" y1="274.04" x2="554.14" y2="243.64"/>
      <line class="cls-3" x1="552.86" y1="240.88" x2="551.61" y2="238.16"/>
    </g>
    <g>
      <line class="cls-3" x1="482.54" y1="154.65" x2="484.58" y2="156.85"/>
      <line class="cls-6" x1="488.49" y1="161.06" x2="525.62" y2="201.04"/>
      <line class="cls-3" x1="527.57" y1="203.15" x2="529.62" y2="205.35"/>
    </g>
    <circle class="cls-2" cx="320.36" cy="60" r="20"/>
    <circle class="cls-2" cx="60.36" cy="300.44" r="20"/>
    <path class="cls-7" d="m60.24,309.01c-1.22,0-2.28-.22-3.19-.66s-1.62-1.06-2.12-1.87-.76-1.75-.76-2.82l2.33-.14c0,.99.35,1.78,1.04,2.36.7.58,1.62.88,2.77.88.75,0,1.4-.12,1.94-.36.54-.24.96-.58,1.25-1.02.29-.44.43-.96.43-1.57,0-.54-.12-1-.35-1.36-.23-.36-.55-.65-.96-.88s-.9-.38-1.46-.47c-.57-.09-1.18-.13-1.84-.13v-1.85c.48,0,.94-.04,1.39-.13.45-.09.84-.23,1.19-.42.34-.19.61-.45.8-.78.19-.33.29-.73.29-1.21s-.12-.93-.35-1.3c-.23-.37-.56-.65-.97-.85-.42-.2-.9-.3-1.46-.3-.93,0-1.65.25-2.17.76-.52.5-.79,1.16-.8,1.96l-2.3-.14c0-.94.23-1.78.68-2.5.46-.72,1.09-1.28,1.9-1.69s1.73-.61,2.77-.61,1.87.19,2.63.56c.76.38,1.36.9,1.79,1.56.43.66.65,1.44.65,2.32,0,.45-.06.85-.19,1.21-.13.36-.31.68-.55.97s-.52.53-.83.73c-.31.2-.65.37-1.02.52.46.13.91.3,1.33.52.42.22.8.49,1.13.83s.59.73.78,1.18c.19.45.29.96.29,1.54,0,1.02-.26,1.93-.77,2.71-.51.78-1.22,1.39-2.12,1.82s-1.96.65-3.16.65Z"/>
    <circle class="cls-2" cx="208.94" cy="300.44" r="20"/>
    <path class="cls-7" d="m203.32,308.82v-1.87c.54-.43,1.18-.91,1.9-1.44.72-.53,1.45-1.1,2.2-1.73s1.44-1.29,2.08-1.99c.64-.7,1.16-1.44,1.55-2.22.39-.78.59-1.57.59-2.39,0-.88-.24-1.6-.72-2.15-.48-.55-1.2-.83-2.16-.83-.72,0-1.32.17-1.79.5-.47.34-.82.79-1.04,1.37-.22.58-.34,1.22-.36,1.92l-2.3-.17c0-.78.12-1.53.36-2.23.24-.7.6-1.33,1.07-1.88.47-.55,1.06-.99,1.75-1.31.7-.32,1.49-.48,2.39-.48,1.02,0,1.92.21,2.68.65.76.43,1.36,1.03,1.79,1.8.43.77.65,1.67.65,2.71,0,.88-.16,1.73-.47,2.54-.31.82-.75,1.6-1.31,2.34-.56.74-1.21,1.45-1.94,2.1-.74.66-1.53,1.28-2.38,1.86-.85.58-1.73,1.12-2.64,1.6l.62-.89h8.78v2.18h-11.28Z"/>
    <circle class="cls-2" cx="97.51" cy="220" r="20"/>
    <circle class="cls-2" cx="580.36" cy="300.44" r="20"/>
    <path class="cls-7" d="m577.65,308.82l4.22-6.67.29.36c-.32.21-.66.36-1.03.47-.37.11-.74.16-1.1.16-1.06,0-2.01-.25-2.86-.74-.85-.5-1.52-1.16-2-2-.49-.84-.73-1.78-.73-2.82s.27-2.06.8-2.92,1.25-1.53,2.15-2.03c.9-.5,1.88-.74,2.95-.74s2.08.25,2.98.74,1.61,1.17,2.15,2.02c.54.85.8,1.82.8,2.9,0,.54-.08,1.08-.24,1.6-.16.52-.38,1.02-.67,1.5l-5.02,8.18h-2.69Zm2.69-7.75c.66,0,1.25-.15,1.78-.44.53-.29.95-.71,1.27-1.24.32-.53.48-1.13.48-1.82s-.16-1.27-.48-1.79c-.32-.52-.74-.93-1.27-1.22-.53-.29-1.12-.44-1.78-.44s-1.23.15-1.76.44c-.54.3-.96.71-1.28,1.22-.32.52-.48,1.12-.48,1.81s.16,1.27.48,1.8c.32.53.74.94,1.27,1.24.53.3,1.12.44,1.78.44Z"/>
    <circle class="cls-2" cx="357.51" cy="300.44" r="20"/>
    <path class="cls-7" d="m357.6,308.82v-13.39l.72,1.18h-5.04v-1.87h2.78c.51,0,.9-.11,1.15-.32s.38-.6.38-1.14v-1.18h2.38v16.73h-2.38Z"/>
    <circle class="cls-2" cx="543.22" cy="220" r="20"/>
    <circle class="cls-2" cx="134.65" cy="300.44" r="20"/>
    <path class="cls-7" d="m134.6,309.03c-1.01,0-1.93-.22-2.77-.65-.84-.43-1.53-1.02-2.08-1.76s-.9-1.59-1.06-2.53l2.3-.41c.1.54.29,1.06.59,1.54.3.48.7.86,1.2,1.14.5.28,1.09.42,1.76.42.77,0,1.41-.18,1.93-.54.52-.36.92-.82,1.19-1.39.27-.57.41-1.17.41-1.81,0-.61-.13-1.17-.38-1.68s-.64-.92-1.14-1.24-1.13-.47-1.88-.47c-.69,0-1.3.16-1.84.47s-.99.74-1.36,1.28l-2.28-.6,1.58-8.71h9.02v2.18h-8.16l1.25-.98-1.13,6.19-.7-.17c.62-.72,1.28-1.21,1.96-1.48.68-.26,1.34-.4,1.98-.4,1.09,0,2.05.26,2.89.77.84.51,1.49,1.19,1.96,2.04.46.85.7,1.78.7,2.78,0,.8-.14,1.56-.43,2.28s-.7,1.36-1.24,1.92-1.17,1-1.9,1.32c-.73.32-1.52.48-2.39.48Z"/>
    <circle class="cls-2" cx="283.22" cy="300.44" r="20"/>
    <path class="cls-7" d="m285.53,292.09l-4.22,6.67-.29-.36c.34-.21.69-.36,1.06-.47.37-.1.73-.16,1.08-.16,1.06,0,2.01.25,2.86.74.85.5,1.52,1.16,2,2s.73,1.78.73,2.82-.27,2.06-.8,2.92-1.25,1.53-2.14,2.03c-.89.5-1.88.74-2.96.74s-2.06-.25-2.96-.74c-.9-.5-1.62-1.17-2.16-2.03s-.8-1.82-.8-2.89c0-.56.08-1.1.25-1.62.17-.52.39-1.01.66-1.48l5.02-8.18h2.69Zm-2.69,7.75c-.64,0-1.22.15-1.75.44-.53.3-.96.71-1.28,1.24-.33.53-.49,1.14-.49,1.82s.16,1.25.48,1.78c.32.53.75.94,1.28,1.24.54.3,1.12.44,1.76.44s1.25-.15,1.78-.44c.53-.3.95-.71,1.27-1.24.32-.53.48-1.13.48-1.8s-.16-1.27-.47-1.8c-.31-.53-.73-.94-1.26-1.24-.53-.29-1.13-.44-1.8-.44Z"/>
    <circle class="cls-2" cx="506.08" cy="300" r="20"/>
    <path class="cls-7" d="m506.03,308.59c-1.01,0-1.93-.22-2.77-.65-.84-.43-1.53-1.02-2.08-1.76s-.9-1.59-1.06-2.53l2.3-.41c.1.54.29,1.06.59,1.54.3.48.7.86,1.2,1.14s1.09.42,1.76.42c.77,0,1.41-.18,1.93-.54.52-.36.92-.82,1.19-1.39.27-.57.41-1.17.41-1.81s-.13-1.17-.38-1.68c-.26-.51-.64-.92-1.14-1.24-.5-.31-1.13-.47-1.88-.47-.69,0-1.3.16-1.84.47-.54.31-.99.74-1.36,1.28l-2.28-.6,1.58-8.71h9.02v2.18h-8.16l1.25-.98-1.13,6.19-.7-.17c.62-.72,1.28-1.21,1.96-1.48.68-.26,1.34-.4,1.98-.4,1.09,0,2.05.26,2.89.77.84.51,1.49,1.19,1.96,2.04.46.85.7,1.78.7,2.78,0,.8-.14,1.56-.43,2.28-.29.72-.7,1.36-1.24,1.92-.54.56-1.17,1-1.9,1.32-.73.32-1.52.48-2.39.48Z"/>
    <circle class="cls-2" cx="431.79" cy="300" r="20"/>
    <path class="cls-7" d="m433.16,308.37v-3.96h-7.78v-1.85l8.02-10.92h2.14v10.56h2.66v2.21h-2.66v3.96h-2.38Zm-5.86-5.33l-.12-.84h5.98v-8.06l.31.26-6.17,8.64Z"/>
    <circle class="cls-2" cx="246.08" cy="220" r="20"/>
    <circle class="cls-2" cx="394.65" cy="220" r="20"/>
    <circle class="cls-2" cx="468.94" cy="140" r="20"/>
    <circle class="cls-2" cx="171.79" cy="140" r="20"/>
    <g class="cls-1">
      <path class="cls-7" d="m23.85,224.93v-12.55h2.34l3.94,9.92h-.29l3.94-9.92h2.32v12.55h-1.58v-10.71l.13.02-3.89,9.63h-1.55l-3.91-9.63.13-.02v10.71h-1.58Z"/>
      <path class="cls-7" d="m41.73,225.07c-.67,0-1.26-.12-1.75-.35-.5-.23-.88-.56-1.15-.98-.27-.42-.41-.91-.41-1.46,0-.49.1-.91.3-1.25.2-.34.45-.61.77-.8.31-.2.67-.34,1.07-.42.4-.08.83-.12,1.27-.12h2.88v1.15h-2.66c-.26,0-.54.02-.83.07s-.54.15-.76.31c-.16.12-.28.27-.37.45-.09.18-.13.39-.13.63,0,.47.17.84.52,1.12.35.28.82.41,1.4.41.49,0,.94-.11,1.34-.34.4-.23.73-.54.97-.94.25-.4.37-.86.37-1.36l.63.65c-.07.64-.26,1.2-.58,1.69-.31.49-.71.87-1.2,1.14-.49.27-1.05.4-1.68.4Zm2.93-.14l-.11-1.78v-3.78c0-.68-.19-1.21-.57-1.58-.38-.37-.94-.56-1.68-.56-.48,0-.93.1-1.35.3s-.83.53-1.22,1l-1.1-.94c.49-.58,1.06-1,1.69-1.27.64-.27,1.33-.4,2.09-.4,1.16,0,2.06.3,2.7.9.64.6.95,1.45.95,2.56v5.56h-1.4Z"/>
      <path class="cls-7" d="m47.74,224.93l3.19-4.46-3.19-4.41h1.87l2.32,3.37,2.36-3.37h1.84l-3.2,4.41,3.2,4.46h-1.87l-2.32-3.4-2.36,3.4h-1.84Z"/>
    </g>
    <g class="cls-1">
      <path class="cls-7" d="m26.63,145.06v-12.55h2.34l3.94,9.92h-.29l3.94-9.92h2.32v12.55h-1.58v-10.71l.13.02-3.89,9.63h-1.55l-3.91-9.63.13-.02v10.71h-1.58Z"/>
      <path class="cls-7" d="m41.44,134.59v-2.07h1.8v2.07h-1.8Zm.14,10.48v-8.87h1.51v8.87h-1.51Z"/>
      <path class="cls-7" d="m45.67,145.06v-8.87h1.53v1.89l-.36.13c.17-.46.4-.84.68-1.16.29-.32.64-.56,1.04-.74.41-.17.86-.26,1.35-.26.97,0,1.73.29,2.29.85.55.57.83,1.41.83,2.53v5.63h-1.53v-5.08c0-.9-.17-1.56-.5-1.99-.33-.43-.83-.64-1.5-.64-.49,0-.91.11-1.25.34-.34.23-.6.58-.78,1.07-.18.49-.27,1.11-.27,1.86v4.43h-1.53Z"/>
    </g>
    <g class="cls-1">
      <path class="cls-7" d="m24.05,65.06v-12.55h2.34l3.94,9.92h-.29l3.94-9.92h2.32v12.55h-1.58v-10.71l.13.02-3.89,9.63h-1.55l-3.91-9.63.13-.02v10.71h-1.58Z"/>
      <path class="cls-7" d="m41.92,65.21c-.67,0-1.26-.12-1.75-.35-.5-.23-.88-.56-1.15-.98-.27-.42-.41-.91-.41-1.46,0-.49.1-.91.3-1.25.2-.34.45-.61.77-.8.31-.2.67-.34,1.07-.42.4-.08.83-.12,1.27-.12h2.88v1.15h-2.66c-.26,0-.54.02-.83.07s-.54.15-.76.31c-.16.12-.28.27-.37.45-.09.18-.13.39-.13.63,0,.47.17.84.52,1.12.35.28.82.41,1.4.41.49,0,.94-.11,1.34-.34.4-.23.73-.54.97-.94.25-.4.37-.86.37-1.36l.63.65c-.07.64-.26,1.2-.58,1.69-.31.49-.71.87-1.2,1.14-.49.27-1.05.4-1.68.4Zm2.93-.14l-.11-1.78v-3.78c0-.68-.19-1.21-.57-1.58-.38-.37-.94-.56-1.68-.56-.48,0-.93.1-1.35.3s-.83.53-1.22,1l-1.1-.94c.49-.58,1.06-1,1.69-1.27.64-.27,1.33-.4,2.09-.4,1.16,0,2.06.3,2.7.9.64.6.95,1.45.95,2.56v5.56h-1.4Z"/>
      <path class="cls-7" d="m47.93,65.06l3.19-4.46-3.19-4.41h1.87l2.32,3.37,2.36-3.37h1.84l-3.2,4.41,3.2,4.46h-1.87l-2.32-3.4-2.36,3.4h-1.84Z"/>
    </g>
    <line class="cls-2" x1="126.27" y1="282.28" x2="105.89" y2="238.16"/>
    <line class="cls-2" x1="68.75" y1="282.29" x2="89.12" y2="238.16"/>
    <line class="cls-2" x1="237.69" y1="238.16" x2="217.32" y2="282.29"/>
    <line class="cls-2" x1="274.84" y1="282.29" x2="254.46" y2="238.16"/>
    <line class="cls-2" x1="365.9" y1="282.29" x2="386.27" y2="238.16"/>
    <line class="cls-2" x1="423.16" y1="281.95" x2="403.01" y2="238.17"/>
    <line class="cls-2" x1="158.19" y1="154.65" x2="111.11" y2="205.35"/>
    <line class="cls-2" x1="185.4" y1="154.65" x2="232.47" y2="205.35"/>
    <line class="cls-2" x1="408.26" y1="205.35" x2="455.33" y2="154.65"/>
    <line class="cls-2" x1="302.68" y1="69.35" x2="189.4" y2="130.5"/>
    <line class="cls-2" x1="451.32" y1="130.52" x2="337.98" y2="69.48"/>
  </g>
  <g id="Layer_1" data-name="Layer 1">
    <path class="cls-8" d="m320.28,68.13c-1.01,0-1.93-.22-2.77-.65-.84-.43-1.53-1.02-2.08-1.76s-.9-1.59-1.06-2.53l2.3-.41c.1.54.29,1.06.59,1.54.3.48.7.86,1.2,1.14s1.09.42,1.76.42c.77,0,1.41-.18,1.93-.54.52-.36.92-.82,1.19-1.39.27-.57.41-1.17.41-1.81s-.13-1.17-.38-1.68c-.26-.51-.64-.92-1.14-1.24-.5-.31-1.13-.47-1.88-.47-.69,0-1.3.16-1.84.47-.54.31-.99.74-1.36,1.28l-2.28-.6,1.58-8.71h9.02v2.18h-8.16l1.25-.98-1.13,6.19-.7-.17c.62-.72,1.28-1.21,1.96-1.48.68-.26,1.34-.4,1.98-.4,1.09,0,2.05.26,2.89.77.84.51,1.49,1.19,1.96,2.04.46.85.7,1.78.7,2.78,0,.8-.14,1.56-.43,2.28-.29.72-.7,1.36-1.24,1.92-.54.56-1.17,1-1.9,1.32-.73.32-1.52.48-2.39.48Z"/>
    <path class="cls-8" d="m97.43,228.13c-1.01,0-1.93-.22-2.77-.65-.84-.43-1.53-1.02-2.08-1.76s-.9-1.59-1.06-2.53l2.3-.41c.1.54.29,1.06.59,1.54.3.48.7.86,1.2,1.14s1.09.42,1.76.42c.77,0,1.41-.18,1.93-.54.52-.36.92-.82,1.19-1.39.27-.57.41-1.17.41-1.81s-.13-1.17-.38-1.68c-.26-.51-.64-.92-1.14-1.24-.5-.31-1.13-.47-1.88-.47-.69,0-1.3.16-1.84.47-.54.31-.99.74-1.36,1.28l-2.28-.6,1.58-8.71h9.02v2.18h-8.16l1.25-.98-1.13,6.19-.7-.17c.62-.72,1.28-1.21,1.96-1.48.68-.26,1.34-.4,1.98-.4,1.09,0,2.05.26,2.89.77.84.51,1.49,1.19,1.96,2.04.46.85.7,1.78.7,2.78,0,.8-.14,1.56-.43,2.28-.29.72-.7,1.36-1.24,1.92-.54.56-1.17,1-1.9,1.32-.73.32-1.52.48-2.39.48Z"/>
    <path class="cls-8" d="m248.35,211.18l-4.22,6.67-.29-.36c.34-.21.69-.36,1.06-.47.37-.1.73-.16,1.08-.16,1.06,0,2.01.25,2.86.74.85.5,1.52,1.16,2,2s.73,1.78.73,2.82-.27,2.06-.8,2.92c-.54.86-1.25,1.53-2.14,2.03-.89.5-1.88.74-2.96.74s-2.06-.25-2.96-.74c-.9-.5-1.62-1.17-2.16-2.03-.54-.86-.8-1.82-.8-2.89,0-.56.08-1.1.25-1.62.17-.52.39-1.01.66-1.48l5.02-8.18h2.69Zm-2.69,7.75c-.64,0-1.22.15-1.75.44s-.96.71-1.28,1.24c-.33.53-.49,1.14-.49,1.82s.16,1.25.48,1.78c.32.53.75.94,1.28,1.24.54.3,1.12.44,1.76.44s1.25-.15,1.78-.44c.53-.3.95-.71,1.27-1.24s.48-1.13.48-1.8-.16-1.27-.47-1.8c-.31-.53-.73-.94-1.26-1.24-.53-.3-1.13-.44-1.8-.44Z"/>
    <path class="cls-8" d="m395.99,227.91v-3.96h-7.78v-1.85l8.02-10.92h2.14v10.56h2.66v2.21h-2.66v3.96h-2.38Zm-5.86-5.33l-.12-.84h5.98v-8.06l.31.26-6.17,8.64Z"/>
    <path class="cls-8" d="m470.27,147.91v-3.96h-7.78v-1.85l8.02-10.92h2.14v10.56h2.66v2.21h-2.66v3.96h-2.38Zm-5.86-5.33l-.12-.84h5.98v-8.06l.31.26-6.17,8.64Z"/>
    <path class="cls-8" d="m171.71,148.13c-1.01,0-1.93-.22-2.77-.65-.84-.43-1.53-1.02-2.08-1.76s-.9-1.59-1.06-2.53l2.3-.41c.1.54.29,1.06.59,1.54.3.48.7.86,1.2,1.14s1.09.42,1.76.42c.77,0,1.41-.18,1.93-.54.52-.36.92-.82,1.19-1.39.27-.57.41-1.17.41-1.81s-.13-1.17-.38-1.68c-.26-.51-.64-.92-1.14-1.24-.5-.31-1.13-.47-1.88-.47-.69,0-1.3.16-1.84.47-.54.31-.99.74-1.36,1.28l-2.28-.6,1.58-8.71h9.02v2.18h-8.16l1.25-.98-1.13,6.19-.7-.17c.62-.72,1.28-1.21,1.96-1.48.68-.26,1.34-.4,1.98-.4,1.09,0,2.05.26,2.89.77.84.51,1.49,1.19,1.96,2.04.46.85.7,1.78.7,2.78,0,.8-.14,1.56-.43,2.28-.29.72-.7,1.36-1.24,1.92-.54.56-1.17,1-1.9,1.32-.73.32-1.52.48-2.39.48Z"/>
    <g>
      <path class="cls-8" d="m358.7,44.31c-.09.92-.23,3.91-.23,6.23,0,1.03.25,1.46.86,1.48l-.13,1.13c-.11.05-.36.07-.54.07-.77,0-1.4-.5-1.49-1.84h-.05c-.58,1.04-1.58,1.84-2.97,1.84-2.07,0-3.56-1.73-3.56-4.38,0-2.85,1.87-4.74,3.89-4.74,1.26,0,2.21.65,2.68,1.75h.07c.04-.68.09-1.12.16-1.55h1.31Zm-4.16,7.65c1.1,0,2.05-1.06,2.32-2.21.09-.4.11-.74.11-1.22,0-.34,0-.63-.07-.94-.22-1.17-1.08-2.23-2.23-2.23-1.48,0-2.48,1.46-2.48,3.44,0,1.66.85,3.17,2.36,3.17Z"/>
      <path class="cls-8" d="m365.92,47.35v-1.4h7.25v1.4h-7.25Zm0,3.85v-1.4h7.25v1.4h-7.25Z"/>
      <path class="cls-8" d="m384.26,53.19c-.76,0-1.45-.16-2.08-.49s-1.15-.76-1.56-1.32c-.41-.56-.67-1.19-.79-1.9l1.73-.31c.07.41.22.79.44,1.15.22.36.52.65.9.86.38.21.82.31,1.32.31.58,0,1.06-.13,1.45-.4.39-.27.69-.62.89-1.04.2-.43.31-.88.31-1.36s-.1-.88-.29-1.26c-.19-.38-.48-.69-.86-.93-.38-.23-.85-.35-1.41-.35-.52,0-.97.12-1.38.35-.4.23-.74.56-1.02.96l-1.71-.45,1.19-6.53h6.77v1.64h-6.12l.94-.74-.85,4.64-.52-.13c.47-.54.96-.91,1.47-1.11.51-.2,1-.3,1.48-.3.82,0,1.54.19,2.17.58.63.38,1.12.89,1.47,1.53.35.64.52,1.33.52,2.09,0,.6-.11,1.17-.32,1.71-.22.54-.52,1.02-.93,1.44-.4.42-.88.75-1.42.99-.55.24-1.14.36-1.79.36Z"/>
      <path class="cls-8" d="m352.73,73.72v1.21c0,1.03.02,2.52.2,3.26h-1.48c-.22-.58-.27-1.8-.27-3.06v-8.3c0-2.49.67-3.58,1.35-4.23.61-.58,1.4-.95,2.56-.95,1.78,0,3.15,1.26,3.15,3.13,0,1.37-.77,2.39-1.6,2.81v.07c1.37.29,2.66,1.44,2.66,3.44,0,2.41-1.84,3.73-3.76,3.73-1.21,0-2.11-.4-2.77-1.1h-.04Zm-.02-1.57c.41.67,1.3,1.44,2.54,1.44,1.44,0,2.47-1.06,2.47-2.5,0-1.73-1.22-2.61-2.81-2.67-.16-.02-.32,0-.49,0v-1.08c.11,0,.2-.02.31-.04,1.37-.09,2.05-1.15,2.05-2.3,0-1.28-.77-2.11-1.84-2.11-1.46,0-2.23,1.26-2.23,3.75v5.51Z"/>
      <path class="cls-8" d="m366.08,68.95v-1.4h7.25v1.4h-7.25Zm0,3.85v-1.4h7.25v1.4h-7.25Z"/>
      <path class="cls-8" d="m383.45,71.71c-.72,0-1.34-.14-1.85-.43s-.92-.69-1.21-1.2-.43-1.09-.43-1.74.14-1.22.42-1.73.68-.9,1.21-1.19c.52-.29,1.14-.43,1.86-.43.61,0,1.25.18,1.91.53.66.35,1.27.89,1.82,1.61.36-.46.75-.84,1.16-1.16.41-.32.84-.56,1.29-.73.44-.17.88-.25,1.3-.25.71,0,1.32.14,1.84.43.52.29.93.68,1.21,1.19.29.5.43,1.08.43,1.73s-.14,1.22-.43,1.73c-.29.5-.69.9-1.21,1.2-.52.29-1.14.44-1.84.44-.43,0-.87-.08-1.32-.25s-.88-.41-1.29-.74c-.41-.32-.79-.71-1.13-1.15-.52.67-1.1,1.2-1.76,1.57s-1.31.57-1.96.57Zm.2-1.44c.43,0,.89-.16,1.39-.48.49-.32.94-.8,1.33-1.45-.42-.68-.88-1.18-1.38-1.48-.5-.3-.95-.45-1.34-.45-.42,0-.79.08-1.11.24-.32.16-.56.38-.74.67s-.26.62-.26,1.02.09.74.26,1.03.42.51.74.67c.32.16.69.23,1.11.23Zm7.04,0c.42,0,.79-.08,1.12-.23s.58-.38.76-.67c.18-.29.27-.63.27-1.03s-.09-.73-.27-1.02c-.18-.28-.43-.5-.76-.67s-.7-.24-1.12-.24-.85.16-1.34.47c-.49.31-.95.8-1.39,1.46.43.66.89,1.15,1.39,1.46.49.31.94.47,1.35.47Z"/>
    </g>
    <g>
      <path class="cls-8" d="m210.92,125.31c-.09.92-.23,3.91-.23,6.23,0,1.03.25,1.46.86,1.48l-.13,1.13c-.11.05-.36.07-.54.07-.77,0-1.4-.5-1.49-1.84h-.05c-.58,1.04-1.58,1.84-2.97,1.84-2.07,0-3.56-1.73-3.56-4.38,0-2.85,1.87-4.74,3.89-4.74,1.26,0,2.21.65,2.68,1.75h.07c.04-.68.09-1.12.16-1.55h1.31Zm-4.16,7.65c1.1,0,2.05-1.06,2.32-2.21.09-.39.11-.74.11-1.22,0-.34,0-.63-.07-.94-.22-1.17-1.08-2.23-2.23-2.23-1.48,0-2.48,1.46-2.48,3.44,0,1.66.85,3.17,2.36,3.17Z"/>
      <path class="cls-8" d="m218.13,128.35v-1.4h7.25v1.4h-7.25Zm0,3.85v-1.4h7.25v1.4h-7.25Z"/>
      <path class="cls-8" d="m232.98,130.26v-1.39h7.06v1.39h-7.06Z"/>
      <path class="cls-8" d="m245.58,131.11c-.72,0-1.34-.14-1.85-.43-.52-.29-.92-.69-1.21-1.2s-.43-1.09-.43-1.74.14-1.22.42-1.73.68-.9,1.21-1.19c.52-.29,1.14-.43,1.86-.43.61,0,1.25.18,1.91.53.66.35,1.27.89,1.82,1.61.36-.46.75-.84,1.16-1.16s.84-.56,1.29-.73c.44-.17.88-.25,1.3-.25.71,0,1.32.14,1.84.43.52.29.93.68,1.21,1.19.29.5.43,1.08.43,1.73s-.14,1.22-.43,1.73c-.29.5-.69.9-1.21,1.2-.52.29-1.14.44-1.84.44-.43,0-.87-.08-1.32-.25s-.88-.41-1.29-.74c-.41-.32-.79-.71-1.13-1.15-.52.67-1.1,1.2-1.76,1.57-.66.38-1.31.57-1.96.57Zm.2-1.44c.43,0,.89-.16,1.39-.48.49-.32.94-.8,1.33-1.45-.42-.68-.88-1.18-1.38-1.48-.5-.3-.95-.45-1.34-.45-.42,0-.79.08-1.11.24-.32.16-.56.38-.74.67-.17.28-.26.62-.26,1.02s.09.74.26,1.03c.17.29.42.51.74.67.32.16.69.23,1.11.23Zm7.04,0c.42,0,.79-.08,1.12-.23s.58-.38.76-.67c.18-.29.27-.63.27-1.03s-.09-.73-.27-1.02c-.18-.28-.43-.5-.76-.67s-.7-.24-1.12-.24-.85.16-1.34.47c-.49.31-.95.8-1.39,1.46.43.66.89,1.15,1.39,1.46.49.31.94.47,1.35.47Z"/>
      <path class="cls-8" d="m204.94,154.72v1.21c0,1.03.02,2.52.2,3.26h-1.48c-.22-.58-.27-1.8-.27-3.06v-8.3c0-2.49.67-3.58,1.35-4.23.61-.58,1.4-.95,2.56-.95,1.78,0,3.15,1.26,3.15,3.13,0,1.37-.77,2.39-1.6,2.81v.07c1.37.29,2.66,1.44,2.66,3.44,0,2.41-1.84,3.73-3.76,3.73-1.21,0-2.11-.4-2.77-1.1h-.04Zm-.02-1.57c.41.67,1.3,1.44,2.54,1.44,1.44,0,2.47-1.06,2.47-2.5,0-1.73-1.22-2.61-2.81-2.66-.16-.02-.32,0-.49,0v-1.08c.11,0,.2-.02.31-.04,1.37-.09,2.05-1.15,2.05-2.3,0-1.28-.77-2.11-1.84-2.11-1.46,0-2.23,1.26-2.23,3.74v5.51Z"/>
      <path class="cls-8" d="m218.3,149.95v-1.4h7.25v1.4h-7.25Zm0,3.85v-1.4h7.25v1.4h-7.25Z"/>
      <path class="cls-8" d="m236.64,155.79c-.76,0-1.45-.16-2.08-.49s-1.15-.76-1.56-1.32c-.41-.56-.67-1.19-.79-1.9l1.73-.31c.07.41.22.79.44,1.15.22.36.52.64.9.86.38.21.82.31,1.32.31.58,0,1.06-.13,1.45-.4.39-.27.69-.62.89-1.04s.31-.88.31-1.36c0-.46-.1-.88-.29-1.26-.19-.38-.48-.69-.86-.93-.38-.23-.85-.35-1.41-.35-.52,0-.97.12-1.38.35-.4.23-.74.56-1.02.96l-1.71-.45,1.19-6.53h6.77v1.64h-6.12l.94-.74-.85,4.64-.52-.12c.47-.54.96-.91,1.47-1.11.51-.2,1-.3,1.48-.3.82,0,1.54.19,2.17.58.63.38,1.12.89,1.47,1.53.35.64.52,1.33.52,2.09,0,.6-.11,1.17-.32,1.71-.22.54-.52,1.02-.93,1.44s-.88.75-1.42.99-1.14.36-1.79.36Z"/>
    </g>
    <g>
      <path class="cls-8" d="m136.42,205.31c-.09.92-.23,3.91-.23,6.23,0,1.03.25,1.46.86,1.48l-.13,1.13c-.11.05-.36.07-.54.07-.77,0-1.4-.5-1.49-1.84h-.05c-.58,1.04-1.58,1.84-2.97,1.84-2.07,0-3.56-1.73-3.56-4.38,0-2.85,1.87-4.74,3.89-4.74,1.26,0,2.21.65,2.68,1.75h.07c.04-.68.09-1.12.16-1.55h1.31Zm-4.16,7.65c1.1,0,2.05-1.06,2.32-2.21.09-.4.11-.74.11-1.22,0-.34,0-.63-.07-.94-.22-1.17-1.08-2.23-2.23-2.23-1.48,0-2.48,1.46-2.48,3.44,0,1.66.85,3.17,2.36,3.17Z"/>
      <path class="cls-8" d="m143.63,208.35v-1.4h7.25v1.4h-7.25Zm0,3.85v-1.4h7.25v1.4h-7.25Z"/>
      <path class="cls-8" d="m161.98,214.19c-.76,0-1.45-.16-2.08-.49s-1.15-.76-1.56-1.32c-.41-.56-.67-1.19-.79-1.9l1.73-.31c.07.41.22.79.44,1.15.22.36.52.65.9.86.38.21.82.31,1.32.31.58,0,1.06-.13,1.45-.4.39-.27.69-.62.89-1.04.2-.43.31-.88.31-1.36s-.1-.88-.29-1.26c-.19-.38-.48-.69-.86-.93-.38-.23-.85-.35-1.41-.35-.52,0-.97.12-1.38.35-.4.23-.74.56-1.02.96l-1.71-.45,1.19-6.53h6.77v1.64h-6.12l.94-.74-.85,4.64-.52-.13c.47-.54.96-.91,1.47-1.11.51-.2,1-.3,1.48-.3.82,0,1.54.19,2.17.58.63.38,1.12.89,1.47,1.53.35.64.52,1.33.52,2.09,0,.6-.11,1.17-.32,1.71-.22.54-.52,1.02-.93,1.44-.4.42-.88.75-1.42.99-.55.24-1.14.36-1.79.36Z"/>
      <path class="cls-8" d="m130.44,234.72v1.21c0,1.03.02,2.52.2,3.26h-1.48c-.22-.58-.27-1.8-.27-3.06v-8.3c0-2.49.67-3.58,1.35-4.23.61-.58,1.4-.95,2.56-.95,1.78,0,3.15,1.26,3.15,3.13,0,1.37-.77,2.39-1.6,2.81v.07c1.37.29,2.66,1.44,2.66,3.44,0,2.41-1.84,3.73-3.76,3.73-1.21,0-2.11-.4-2.77-1.1h-.04Zm-.02-1.57c.41.67,1.3,1.44,2.54,1.44,1.44,0,2.47-1.06,2.47-2.5,0-1.73-1.22-2.61-2.81-2.67-.16-.02-.32,0-.49,0v-1.08c.11,0,.2-.02.31-.04,1.37-.09,2.05-1.15,2.05-2.3,0-1.28-.77-2.11-1.84-2.11-1.46,0-2.23,1.26-2.23,3.75v5.51Z"/>
      <path class="cls-8" d="m143.8,229.95v-1.4h7.25v1.4h-7.25Zm0,3.85v-1.4h7.25v1.4h-7.25Z"/>
      <path class="cls-8" d="m161.17,232.71c-.72,0-1.34-.14-1.85-.43s-.92-.69-1.21-1.2-.43-1.09-.43-1.74.14-1.22.42-1.73.68-.9,1.21-1.19c.52-.29,1.14-.43,1.86-.43.61,0,1.25.18,1.91.53.66.35,1.27.89,1.82,1.61.36-.46.75-.84,1.16-1.16.41-.32.84-.56,1.29-.73.44-.17.88-.25,1.3-.25.71,0,1.32.14,1.84.43.52.29.93.68,1.21,1.19.29.5.43,1.08.43,1.73s-.14,1.22-.43,1.73c-.29.5-.69.9-1.21,1.2-.52.29-1.14.44-1.84.44-.43,0-.87-.08-1.32-.25s-.88-.41-1.29-.74c-.41-.32-.79-.71-1.13-1.15-.52.67-1.1,1.2-1.76,1.57s-1.31.57-1.96.57Zm.2-1.44c.43,0,.89-.16,1.39-.48.49-.32.94-.8,1.33-1.45-.42-.68-.88-1.18-1.38-1.48-.5-.3-.95-.45-1.34-.45-.42,0-.79.08-1.11.24-.32.16-.56.38-.74.67s-.26.62-.26,1.02.09.74.26,1.03.42.51.74.67c.32.16.69.23,1.11.23Zm7.04,0c.42,0,.79-.08,1.12-.23s.58-.38.76-.67c.18-.29.27-.63.27-1.03s-.09-.73-.27-1.02c-.18-.28-.43-.5-.76-.67s-.7-.24-1.12-.24-.85.16-1.34.47c-.49.31-.95.8-1.39,1.46.43.66.89,1.15,1.39,1.46.49.31.94.47,1.35.47Z"/>
    </g>
    <g>
      <path class="cls-8" d="m284.92,205.31c-.09.92-.23,3.91-.23,6.23,0,1.03.25,1.46.86,1.48l-.13,1.13c-.11.05-.36.07-.54.07-.77,0-1.4-.5-1.49-1.84h-.05c-.58,1.04-1.58,1.84-2.97,1.84-2.07,0-3.56-1.73-3.56-4.38,0-2.85,1.87-4.74,3.89-4.74,1.26,0,2.21.65,2.68,1.75h.07c.04-.68.09-1.12.16-1.55h1.31Zm-4.16,7.65c1.1,0,2.05-1.06,2.32-2.21.09-.4.11-.74.11-1.22,0-.34,0-.63-.07-.94-.22-1.17-1.08-2.23-2.23-2.23-1.48,0-2.48,1.46-2.48,3.44,0,1.66.85,3.17,2.36,3.17Z"/>
      <path class="cls-8" d="m292.13,208.35v-1.4h7.25v1.4h-7.25Zm0,3.85v-1.4h7.25v1.4h-7.25Z"/>
      <path class="cls-8" d="m312.24,201.48l-3.17,5-.22-.27c.25-.16.52-.27.79-.35s.55-.12.81-.12c.79,0,1.51.19,2.14.56s1.14.87,1.5,1.5.55,1.33.55,2.12-.2,1.54-.6,2.19c-.4.64-.94,1.15-1.6,1.52-.67.37-1.41.56-2.22.56s-1.54-.19-2.22-.56c-.68-.37-1.22-.88-1.62-1.52-.4-.64-.6-1.37-.6-2.17,0-.42.06-.83.19-1.21s.29-.76.5-1.11l3.76-6.14h2.02Zm-2.02,5.81c-.48,0-.92.11-1.31.33-.4.22-.72.53-.96.93-.25.4-.37.85-.37,1.37s.12.94.36,1.33c.24.4.56.71.96.93.4.22.84.33,1.32.33s.94-.11,1.33-.33c.4-.22.71-.53.95-.93.24-.4.36-.85.36-1.35s-.12-.95-.35-1.35c-.23-.4-.55-.71-.95-.93-.4-.22-.85-.33-1.35-.33Z"/>
      <path class="cls-8" d="m278.94,234.72v1.21c0,1.03.02,2.52.2,3.26h-1.48c-.22-.58-.27-1.8-.27-3.06v-8.3c0-2.49.67-3.58,1.35-4.23.61-.58,1.4-.95,2.56-.95,1.78,0,3.15,1.26,3.15,3.13,0,1.37-.77,2.39-1.6,2.81v.07c1.37.29,2.66,1.44,2.66,3.44,0,2.41-1.84,3.73-3.76,3.73-1.21,0-2.11-.4-2.77-1.1h-.04Zm-.02-1.57c.41.67,1.3,1.44,2.54,1.44,1.44,0,2.47-1.06,2.47-2.5,0-1.73-1.22-2.61-2.81-2.67-.16-.02-.32,0-.49,0v-1.08c.11,0,.2-.02.31-.04,1.37-.09,2.05-1.15,2.05-2.3,0-1.28-.77-2.11-1.84-2.11-1.46,0-2.23,1.26-2.23,3.75v5.51Z"/>
      <path class="cls-8" d="m292.3,229.95v-1.4h7.25v1.4h-7.25Zm0,3.85v-1.4h7.25v1.4h-7.25Z"/>
      <path class="cls-8" d="m310.64,235.79c-.76,0-1.45-.16-2.08-.49s-1.15-.76-1.56-1.32c-.41-.56-.67-1.19-.79-1.9l1.73-.31c.07.41.22.79.44,1.15.22.36.52.65.9.86.38.21.82.31,1.32.31.58,0,1.06-.13,1.45-.4.39-.27.69-.62.89-1.04.2-.43.31-.88.31-1.36s-.1-.88-.29-1.26c-.19-.38-.48-.69-.86-.93-.38-.23-.85-.35-1.41-.35-.52,0-.97.12-1.38.35-.4.23-.74.56-1.02.96l-1.71-.45,1.19-6.53h6.77v1.64h-6.12l.94-.74-.85,4.64-.52-.13c.47-.54.96-.91,1.47-1.11.51-.2,1-.3,1.48-.3.82,0,1.54.19,2.17.58.63.38,1.12.89,1.47,1.53.35.64.52,1.33.52,2.09,0,.6-.11,1.17-.32,1.71-.22.54-.52,1.02-.93,1.44-.4.42-.88.75-1.42.99-.55.24-1.14.36-1.79.36Z"/>
    </g>
    <g>
      <path class="cls-8" d="m433.92,204.31c-.09.92-.23,3.91-.23,6.23,0,1.03.25,1.46.86,1.48l-.13,1.13c-.11.05-.36.07-.54.07-.77,0-1.4-.5-1.49-1.84h-.05c-.58,1.04-1.58,1.84-2.97,1.84-2.07,0-3.56-1.73-3.56-4.38,0-2.85,1.87-4.74,3.89-4.74,1.26,0,2.21.65,2.68,1.75h.07c.04-.68.09-1.12.16-1.55h1.31Zm-4.16,7.65c1.1,0,2.05-1.06,2.32-2.21.09-.4.11-.74.11-1.22,0-.34,0-.63-.07-.94-.22-1.17-1.08-2.23-2.23-2.23-1.48,0-2.48,1.46-2.48,3.44,0,1.66.85,3.17,2.36,3.17Z"/>
      <path class="cls-8" d="m441.13,207.35v-1.4h7.25v1.4h-7.25Zm0,3.85v-1.4h7.25v1.4h-7.25Z"/>
      <path class="cls-8" d="m459.48,213.19c-.76,0-1.45-.16-2.08-.49s-1.15-.76-1.56-1.32c-.41-.56-.67-1.19-.79-1.9l1.73-.31c.07.41.22.79.44,1.15.22.36.52.65.9.86.38.21.82.31,1.32.31.58,0,1.06-.13,1.45-.4.39-.27.69-.62.89-1.04.2-.43.31-.88.31-1.36s-.1-.88-.29-1.26c-.19-.38-.48-.69-.86-.93-.38-.23-.85-.35-1.41-.35-.52,0-.97.12-1.38.35-.4.23-.74.56-1.02.96l-1.71-.45,1.19-6.53h6.77v1.64h-6.12l.94-.74-.85,4.64-.52-.13c.47-.54.96-.91,1.47-1.11.51-.2,1-.3,1.48-.3.82,0,1.54.19,2.17.58.63.38,1.12.89,1.47,1.53.35.64.52,1.33.52,2.09,0,.6-.11,1.17-.32,1.71-.22.54-.52,1.02-.93,1.44-.4.42-.88.75-1.42.99-.55.24-1.14.36-1.79.36Z"/>
      <path class="cls-8" d="m427.94,233.72v1.21c0,1.03.02,2.52.2,3.26h-1.48c-.22-.58-.27-1.8-.27-3.06v-8.3c0-2.49.67-3.58,1.35-4.23.61-.58,1.4-.95,2.56-.95,1.78,0,3.15,1.26,3.15,3.13,0,1.37-.77,2.39-1.6,2.81v.07c1.37.29,2.66,1.44,2.66,3.44,0,2.41-1.84,3.73-3.76,3.73-1.21,0-2.11-.4-2.77-1.1h-.04Zm-.02-1.57c.41.67,1.3,1.44,2.54,1.44,1.44,0,2.47-1.06,2.47-2.5,0-1.73-1.22-2.61-2.81-2.67-.16-.02-.32,0-.49,0v-1.08c.11,0,.2-.02.31-.04,1.37-.09,2.05-1.15,2.05-2.3,0-1.28-.77-2.11-1.84-2.11-1.46,0-2.23,1.26-2.23,3.75v5.51Z"/>
      <path class="cls-8" d="m441.3,228.95v-1.4h7.25v1.4h-7.25Zm0,3.85v-1.4h7.25v1.4h-7.25Z"/>
      <path class="cls-8" d="m458.67,231.71c-.72,0-1.34-.14-1.85-.43s-.92-.69-1.21-1.2-.43-1.09-.43-1.74.14-1.22.42-1.73.68-.9,1.21-1.19c.52-.29,1.14-.43,1.86-.43.61,0,1.25.18,1.91.53.66.35,1.27.89,1.82,1.61.36-.46.75-.84,1.16-1.16.41-.32.84-.56,1.29-.73.44-.17.88-.25,1.3-.25.71,0,1.32.14,1.84.43.52.29.93.68,1.21,1.19.29.5.43,1.08.43,1.73s-.14,1.22-.43,1.73c-.29.5-.69.9-1.21,1.2-.52.29-1.14.44-1.84.44-.43,0-.87-.08-1.32-.25s-.88-.41-1.29-.74c-.41-.32-.79-.71-1.13-1.15-.52.67-1.1,1.2-1.76,1.57s-1.31.57-1.96.57Zm.2-1.44c.43,0,.89-.16,1.39-.48.49-.32.94-.8,1.33-1.45-.42-.68-.88-1.18-1.38-1.48-.5-.3-.95-.45-1.34-.45-.42,0-.79.08-1.11.24-.32.16-.56.38-.74.67s-.26.62-.26,1.02.09.74.26,1.03.42.51.74.67c.32.16.69.23,1.11.23Zm7.04,0c.42,0,.79-.08,1.12-.23s.58-.38.76-.67c.18-.29.27-.63.27-1.03s-.09-.73-.27-1.02c-.18-.28-.43-.5-.76-.67s-.7-.24-1.12-.24-.85.16-1.34.47c-.49.31-.95.8-1.39,1.46.43.66.89,1.15,1.39,1.46.49.31.94.47,1.35.47Z"/>
    </g>
    <g>
      <path class="cls-8" d="m507.92,124.31c-.09.92-.23,3.91-.23,6.23,0,1.03.25,1.46.86,1.48l-.13,1.13c-.11.05-.36.07-.54.07-.77,0-1.4-.5-1.49-1.84h-.05c-.58,1.04-1.58,1.84-2.97,1.84-2.07,0-3.56-1.73-3.56-4.38,0-2.85,1.87-4.74,3.89-4.74,1.26,0,2.21.65,2.68,1.75h.07c.04-.68.09-1.12.16-1.55h1.31Zm-4.16,7.65c1.1,0,2.05-1.06,2.32-2.21.09-.4.11-.74.11-1.22,0-.34,0-.63-.07-.94-.22-1.17-1.08-2.23-2.23-2.23-1.48,0-2.48,1.46-2.48,3.44,0,1.66.85,3.17,2.36,3.17Z"/>
      <path class="cls-8" d="m515.13,127.35v-1.4h7.25v1.4h-7.25Zm0,3.85v-1.4h7.25v1.4h-7.25Z"/>
      <path class="cls-8" d="m533.48,133.19c-.76,0-1.45-.16-2.08-.49s-1.15-.76-1.56-1.32c-.41-.56-.67-1.19-.79-1.9l1.73-.31c.07.41.22.79.44,1.15.22.36.52.65.9.86.38.21.82.31,1.32.31.58,0,1.06-.13,1.45-.4.39-.27.69-.62.89-1.04.2-.43.31-.88.31-1.36s-.1-.88-.29-1.26c-.19-.38-.48-.69-.86-.93-.38-.23-.85-.35-1.41-.35-.52,0-.97.12-1.38.35-.4.23-.74.56-1.02.96l-1.71-.45,1.19-6.53h6.77v1.64h-6.12l.94-.74-.85,4.64-.52-.13c.47-.54.96-.91,1.47-1.11.51-.2,1-.3,1.48-.3.82,0,1.54.19,2.17.58.63.38,1.12.89,1.47,1.53.35.64.52,1.33.52,2.09,0,.6-.11,1.17-.32,1.71-.22.54-.52,1.02-.93,1.44-.4.42-.88.75-1.42.99-.55.24-1.14.36-1.79.36Z"/>
      <path class="cls-8" d="m501.94,153.72v1.21c0,1.03.02,2.52.2,3.26h-1.48c-.22-.58-.27-1.8-.27-3.06v-8.3c0-2.49.67-3.58,1.35-4.23.61-.58,1.4-.95,2.56-.95,1.78,0,3.15,1.26,3.15,3.13,0,1.37-.77,2.39-1.6,2.81v.07c1.37.29,2.66,1.44,2.66,3.44,0,2.41-1.84,3.73-3.76,3.73-1.21,0-2.11-.4-2.77-1.1h-.04Zm-.02-1.57c.41.67,1.3,1.44,2.54,1.44,1.44,0,2.47-1.06,2.47-2.5,0-1.73-1.22-2.61-2.81-2.67-.16-.02-.32,0-.49,0v-1.08c.11,0,.2-.02.31-.04,1.37-.09,2.05-1.15,2.05-2.3,0-1.28-.77-2.11-1.84-2.11-1.46,0-2.23,1.26-2.23,3.75v5.51Z"/>
      <path class="cls-8" d="m515.3,148.95v-1.4h7.25v1.4h-7.25Zm0,3.85v-1.4h7.25v1.4h-7.25Z"/>
      <path class="cls-8" d="m534.7,154.62v-2.97h-5.83v-1.39l6.01-8.19h1.6v7.92h2v1.66h-2v2.97h-1.78Zm-4.39-4l-.09-.63h4.48v-6.05l.23.2-4.63,6.48Z"/>
    </g>
  </g>
</svg>