<?xml version="1.0" encoding="UTF-8" standalone="no"?>
<!-- Created with Inkscape (http://www.inkscape.org/) -->

<svg
   width="240"
   height="160"
   viewBox="0 0 63.499996 42.333334"
   version="1.1"
   id="svg1"
   xmlns="http://www.w3.org/2000/svg"
   xmlns:svg="http://www.w3.org/2000/svg">
  <defs
     id="defs1">
    <clipPath
       clipPathUnits="userSpaceOnUse"
       id="clipPath625">
      <path
         d="M 0,0 H 720 V 405 H 0 Z"
         id="path625" />
    </clipPath>
    <clipPath
       clipPathUnits="userSpaceOnUse"
       id="clipPath626">
      <path
         d="M 0,0 H 720 V 405 H 0 Z"
         transform="matrix(507.99838,0,0,-507.99838,0,205739.34)"
         id="path626" />
    </clipPath>
    <clipPath
       clipPathUnits="userSpaceOnUse"
       id="clipPath627">
      <path
         d="M 0,0 H 720 V 405 H 0 Z"
         id="path627" />
    </clipPath>
    <clipPath
       clipPathUnits="userSpaceOnUse"
       id="clipPath628">
      <path
         d="M 0,0 H 720 V 405 H 0 Z"
         transform="matrix(507.99838,0,0,-507.99838,0,205739.34)"
         id="path628" />
    </clipPath>
    <clipPath
       clipPathUnits="userSpaceOnUse"
       id="clipPath629">
      <path
         d="M 0,0 H 720 V 405 H 0 Z"
         id="path629" />
    </clipPath>
    <clipPath
       clipPathUnits="userSpaceOnUse"
       id="clipPath630">
      <path
         d="M 0,0 H 720 V 405 H 0 Z"
         transform="matrix(507.99838,0,0,-507.99838,0,205739.34)"
         id="path630" />
    </clipPath>
    <clipPath
       clipPathUnits="userSpaceOnUse"
       id="clipPath631">
      <path
         d="M 0,0 H 720 V 405 H 0 Z"
         id="path631" />
    </clipPath>
    <clipPath
       clipPathUnits="userSpaceOnUse"
       id="clipPath632">
      <path
         d="M 0,0 H 720 V 405 H 0 Z"
         transform="matrix(507.99838,0,0,-507.99838,0,205739.34)"
         id="path632" />
    </clipPath>
    <clipPath
       clipPathUnits="userSpaceOnUse"
       id="clipPath633">
      <path
         d="M 0,0 H 720 V 405 H 0 Z"
         id="path633" />
    </clipPath>
    <clipPath
       clipPathUnits="userSpaceOnUse"
       id="clipPath634">
      <path
         d="M 0,0 H 720 V 405 H 0 Z"
         transform="matrix(1.3333333,0,0,-1.3333333,-98.049507,285.57147)"
         id="path634" />
    </clipPath>
    <clipPath
       clipPathUnits="userSpaceOnUse"
       id="clipPath635">
      <path
         d="M 0,0 H 720 V 405 H 0 Z"
         id="path635" />
    </clipPath>
    <clipPath
       clipPathUnits="userSpaceOnUse"
       id="clipPath636">
      <path
         d="M 0,0 H 720 V 405 H 0 Z"
         transform="matrix(1.3333333,0,0,-1.3333333,-173.37157,285.57147)"
         id="path636" />
    </clipPath>
    <clipPath
       clipPathUnits="userSpaceOnUse"
       id="clipPath637">
      <path
         d="M 0,0 H 720 V 405 H 0 Z"
         id="path637" />
    </clipPath>
    <clipPath
       clipPathUnits="userSpaceOnUse"
       id="clipPath638">
      <path
         d="M 0,0 H 720 V 405 H 0 Z"
         transform="matrix(1.3333333,0,0,-1.3333333,-293.35988,285.57147)"
         id="path638" />
    </clipPath>
    <clipPath
       clipPathUnits="userSpaceOnUse"
       id="clipPath639">
      <path
         d="M 0,0 H 720 V 405 H 0 Z"
         id="path639" />
    </clipPath>
    <clipPath
       clipPathUnits="userSpaceOnUse"
       id="clipPath640">
      <path
         d="M 0,0 H 720 V 405 H 0 Z"
         transform="matrix(1.3333333,0,0,-1.3333333,-175.1878,399.48908)"
         id="path640" />
    </clipPath>
    <clipPath
       clipPathUnits="userSpaceOnUse"
       id="clipPath641">
      <path
         d="M 0,0 H 720 V 405 H 0 Z"
         id="path641" />
    </clipPath>
  </defs>
  <g
     id="layer1">
    <g
       id="g687"
       transform="matrix(0.26458333,0,0,0.26458333,-461.85943,48.307411)">
      <path
         d="m 133.3906,227.4397 h 8.99833 v 8.99831 h -8.99833 z"
         style="fill:#000000;fill-opacity:0;fill-rule:evenodd;stroke:none"
         transform="matrix(1.5229326,0,0,-1.5229326,1636.7279,295.39141)"
         clip-path="url(#clipPath625)"
         id="path657" />
      <path
         d="m 67762.43,85629.49 h 4571.15 v 4571.14 h -4571.15 z"
         style="fill:none;stroke:#000000;stroke-width:635;stroke-linecap:butt;stroke-linejoin:round;stroke-miterlimit:8;stroke-dasharray:none;stroke-opacity:1"
         transform="matrix(0.00299791,0,0,0.00299791,1636.7279,-321.3963)"
         clip-path="url(#clipPath626)"
         id="path658" />
      <path
         d="m 133.4784,297.0283 7.2998,-5.258 -5.258,-7.2999 -7.2999,5.2581 z"
         style="fill:#000000;fill-opacity:0;fill-rule:evenodd;stroke:none"
         transform="matrix(1.5229326,0,0,-1.5229326,1636.7279,295.39141)"
         clip-path="url(#clipPath627)"
         id="path659" />
      <path
         d="m 67807.02,54849.6 3708.32,2671.09 -2671.09,3708.33 -3708.32,-2671.1 z"
         style="fill:none;stroke:#000000;stroke-width:508;stroke-linecap:butt;stroke-linejoin:round;stroke-miterlimit:8;stroke-dasharray:none;stroke-opacity:1"
         transform="matrix(0.00299791,0,0,0.00299791,1636.7279,-321.3963)"
         clip-path="url(#clipPath628)"
         id="path660" />
      <path
         d="M 133.3886,297.1699 V 227.424"
         style="fill:#000000;fill-opacity:0;fill-rule:evenodd;stroke:none"
         transform="matrix(1.5229326,0,0,-1.5229326,1636.7279,295.39141)"
         clip-path="url(#clipPath629)"
         id="path661" />
      <path
         d="M 67761.39,54777.67 V 90208.62"
         style="fill:#000000;stroke:#000000;stroke-width:635;stroke-linecap:butt;stroke-linejoin:round;stroke-miterlimit:8;stroke-dasharray:none;stroke-opacity:1"
         transform="matrix(0.00299791,0,0,0.00299791,1636.7279,-321.3963)"
         clip-path="url(#clipPath630)"
         id="path662" />
      <path
         d="m 81.9467,227.424 51.4419,69.7459 93.0009,-69.7459 z"
         style="fill:#000000;fill-opacity:0;fill-rule:evenodd;stroke:none"
         transform="matrix(1.5229326,0,0,-1.5229326,1636.7279,295.39141)"
         clip-path="url(#clipPath631)"
         id="path663" />
      <path
         d="M 41628.92,90208.62 67761.39,54777.67 115005.9,90208.62 Z"
         style="fill:none;stroke:#000000;stroke-width:635;stroke-linecap:butt;stroke-linejoin:round;stroke-miterlimit:8;stroke-dasharray:none;stroke-opacity:1"
         transform="matrix(0.00299791,0,0,0.00299791,1636.7279,-321.3963)"
         clip-path="url(#clipPath632)"
         id="path664" />
      <path
         d="m 66.78714,206.8828 h 17.51155 v 21.81587 H 66.78714 Z"
         style="fill:#000000;fill-opacity:0;fill-rule:evenodd;stroke:none"
         transform="matrix(1.5229326,0,0,-1.5229326,1636.7279,295.39141)"
         clip-path="url(#clipPath633)"
         id="path665" />
      <path
         d="M -0.31605651,6.0897576e-4 6.1634375,-11.47409 H 7.9902551 L 9.8741609,6.0897576e-4 H 8.3898715 L 7.818991,-3.3104981 H 3.1948587 L 1.368041,6.0897576e-4 Z M 3.8513713,-4.4808032 H 7.6477268 L 7.1910224,-7.3637498 C 7.0197583,-8.5055109 6.9127182,-9.4545997 6.8770381,-10.218152 6.6058699,-9.5473678 6.2276615,-8.7695431 5.7352771,-7.8775423 Z m 0,0"
         style="fill:#000000;fill-opacity:1;fill-rule:nonzero;stroke:none"
         aria-label="A"
         transform="matrix(1.1421993,0,0,1.1421993,1748.72,-30.788145)"
         clip-path="url(#clipPath634)"
         id="path666" />
      <path
         d="m 123.2787,206.8827 h 17.51155 v 21.81587 H 123.2787 Z"
         style="fill:#000000;fill-opacity:0;fill-rule:evenodd;stroke:none"
         transform="matrix(1.5229326,0,0,-1.5229326,1636.7279,295.39141)"
         clip-path="url(#clipPath635)"
         id="path667" />
      <path
         d="M 0.71713386,6.0897576e-4 3.1148321,-11.47409 h 3.4538272 c 0.8135047,0 1.4414733,0.07136 1.8839057,0.199809 0.6279686,0.156992 1.1560331,0.442432 1.598465,0.85632 0.456705,0.4210248 0.784961,0.9419532 0.999041,1.5699218 0.228353,0.6136966 0.342529,1.3058892 0.342529,2.0837139 0,0.9134089 -0.14272,1.7554577 -0.428161,2.5118744 -0.271168,0.7635527 -0.627968,1.4272013 -1.0846727,1.9980818 C 9.4373339,-1.6834886 8.9734935,-1.2339202 8.481109,-0.91279987 7.9815886,-0.58454356 7.403572,-0.34191934 6.7399234,-0.17065518 6.2261309,-0.05647908 5.5981624,6.0897576e-4 4.8560177,6.0897576e-4 Z M 2.5154075,-1.2838722 h 1.8268177 c 0.8135048,0 1.5413774,-0.07136 2.169346,-0.2283522 0.3996164,-0.092768 0.7421447,-0.2354882 1.027585,-0.4281604 0.3568003,-0.2283522 0.6921926,-0.5423365 0.9990409,-0.9419529 0.3996163,-0.4923844 0.7136006,-1.063265 0.9419528,-1.7126416 0.2426243,-0.6636486 0.3710724,-1.4129293 0.3710724,-2.254978 0,-0.9276809 -0.1641282,-1.6412816 -0.4852485,-2.140802 C 9.0377175,-9.4831438 8.6309652,-9.8185361 8.1385807,-9.9898002 7.7532363,-10.103976 7.1752198,-10.161064 6.3973951,-10.161064 H 4.3707692 Z m 0,0"
         style="fill:#000000;fill-opacity:1;fill-rule:nonzero;stroke:none"
         aria-label="D"
         transform="matrix(1.1421993,0,0,1.1421993,1834.7527,-30.788145)"
         clip-path="url(#clipPath636)"
         id="path668" />
      <path
         d="m 213.2699,206.8827 h 17.51156 v 21.81587 H 213.2699 Z"
         style="fill:#000000;fill-opacity:0;fill-rule:evenodd;stroke:none"
         transform="matrix(1.5229326,0,0,-1.5229326,1636.7279,295.39141)"
         clip-path="url(#clipPath637)"
         id="path669" />
      <path
         d="M 0.68513775,6.0897576e-4 3.082836,-11.47409 h 3.5680032 c 0.6422406,0 1.1203531,0.02854 1.4272014,0.08563 0.5137924,0.0999 0.9419528,0.256897 1.2844811,0.485249 0.3568004,0.21408 0.6351046,0.506656 0.8277773,0.884865 0.185536,0.3853441 0.28544,0.8135045 0.28544,1.2844809 0,0.6279686 -0.171264,1.1845771 -0.5137927,1.6555536 -0.3425283,0.4781124 -0.8777288,0.8420487 -1.5984655,1.084673 0.6279686,0.2140801 1.091809,0.5280644 1.3986573,0.9419528 0.2997119,0.3996164 0.4567049,0.8777288 0.4567049,1.4272013 0,0.6279686 -0.185537,1.2416652 -0.542337,1.8268177 C 9.3125697,-1.2267842 8.8273213,-0.77721574 8.2207607,-0.45609545 7.6284721,-0.14924716 6.9719595,6.0897576e-4 6.2512229,6.0897576e-4 Z M 3.5966284,-6.5645171 h 2.3406102 c 1.098945,0 1.8910417,-0.1712641 2.3691542,-0.5137924 0.4923844,-0.3568004 0.7421447,-0.8848649 0.7421447,-1.5699215 0,-0.3211203 -0.078496,-0.5994245 -0.2283523,-0.8277768 C 8.6631931,-9.718632 8.4633849,-9.8898961 8.2207607,-9.9898002 7.9710005,-10.103976 7.492888,-10.161064 6.7935594,-10.161064 H 4.3673171 Z m -1.084673,5.2806449 h 2.5975064 c 0.6993287,0 1.1703051,-0.028544 1.3986573,-0.085632 0.4923845,-0.07136 0.8848648,-0.2069442 1.1703051,-0.3996164 0.2997123,-0.2069441 0.5423365,-0.4709764 0.7136007,-0.7992327 0.1855361,-0.3425283 0.2854402,-0.6921926 0.2854402,-1.056129 0,-0.5280645 -0.1712641,-0.9276808 -0.5137925,-1.1988491 C 7.8211443,-5.1087717 7.1789037,-5.2514919 6.2512229,-5.2514919 H 3.3397322 Z m 0,0"
         style="fill:#000000;fill-opacity:1;fill-rule:nonzero;stroke:none"
         aria-label="B"
         transform="matrix(1.1421993,0,0,1.1421993,1971.8035,-30.788145)"
         clip-path="url(#clipPath638)"
         id="path670" />
      <path
         d="m 124.6409,292.3209 h 17.51155 v 21.81587 H 124.6409 Z"
         style="fill:#000000;fill-opacity:0;fill-rule:evenodd;stroke:none"
         transform="matrix(1.5229326,0,0,-1.5229326,1636.7279,295.39141)"
         clip-path="url(#clipPath639)"
         id="path671" />
      <path
         d="m 9.6476931,-4.0257077 1.5128329,0.1998082 c -0.478112,1.3344332 -1.1703046,2.3406101 -2.0837134,3.02566675 -0.9134089,0.67078462 -1.9409938,0.99904092 -3.0827549,0.99904092 -1.3915212,0 -2.4976023,-0.41388838 -3.311107,-1.25593717 -0.8206408,-0.8563208 -1.2273931,-2.0837139 -1.2273931,-3.6821794 0,-2.0551699 0.6136965,-3.7535394 1.8553617,-5.1093807 1.098945,-1.1988489 2.4833302,-1.7982739 4.1388838,-1.7982739 1.1988491,0 2.169346,0.328257 2.9114909,0.970497 0.756416,0.649377 1.205985,1.5271056 1.341569,2.6260506 l -1.427201,0.1427201 C 10.11867,-8.7426081 9.8046852,-9.3634406 9.3337088,-9.763057 c -0.4781124,-0.413888 -1.084673,-0.627969 -1.8268177,-0.627969 -1.4129293,0 -2.5404183,0.620833 -3.3967391,1.8553621 -0.7635527,1.084673 -1.1417611,2.3620182 -1.1417611,3.8248995 0,1.1845771 0.2854403,2.083714 0.8563208,2.7116825 0.5851526,0.6136966 1.3487053,0.9134089 2.2835221,0.9134089 0.7992328,0 1.5128334,-0.2568962 2.140802,-0.7706887 0.6422406,-0.5137925 1.113217,-1.2345292 1.3986573,-2.169346 z m 0,0"
         style="fill:#000000;fill-opacity:1;fill-rule:nonzero;stroke:none"
         aria-label="C"
         transform="matrix(1.1421993,0,0,1.1421993,1836.8273,-160.90481)"
         clip-path="url(#clipPath640)"
         id="path672" />
      <path
         d="m 231.6142,211.8248 h 256.7717 v 97.37008 H 231.6142 Z"
         style="fill:#000000;fill-opacity:0;fill-rule:evenodd;stroke:none"
         transform="matrix(0.72986667,0,0,-0.72986667,1668.6104,320.0168)"
         clip-path="url(#clipPath641)"
         id="path673" />
    </g>
  </g>
</svg>
